<?xml version="1.0" encoding="UTF-8" standalone="no"?>
<svg
   width="575.696693pt"
   height="359.751496pt"
   viewBox="0 0 575.696693 359.751496"
   version="1.1"
   id="svg95"
   sodipodi:docname="schedule_eigenvalues_dark.svg"
   xml:space="preserve"
   inkscape:version="1.4.4 (1:1.4.4+202605061432+dcaf3e7d9e)"
   xmlns:inkscape="http://www.inkscape.org/namespaces/inkscape"
   xmlns:sodipodi="http://sodipodi.sourceforge.net/DTD/sodipodi-0.dtd"
   xmlns:xlink="http://www.w3.org/1999/xlink"
   xmlns="http://www.w3.org/2000/svg"
   xmlns:svg="http://www.w3.org/2000/svg"
   xmlns:rdf="http://www.w3.org/1999/02/22-rdf-syntax-ns#"
   xmlns:cc="http://creativecommons.org/ns#"
   xmlns:dc="http://purl.org/dc/elements/1.1/"><sodipodi:namedview
     id="namedview95"
     pagecolor="#ffffff"
     bordercolor="#666666"
     borderopacity="1.0"
     inkscape:showpageshadow="2"
     inkscape:pageopacity="0.0"
     inkscape:pagecheckerboard="0"
     inkscape:deskcolor="#d1d1d1"
     inkscape:document-units="pt"
     showgrid="false"
     inkscape:zoom="0.91843341"
     inkscape:cx="363.11833"
     inkscape:cy="257.5037"
     inkscape:window-width="1850"
     inkscape:window-height="1016"
     inkscape:window-x="70"
     inkscape:window-y="27"
     inkscape:window-maximized="1"
     inkscape:current-layer="patch_1" /><metadata
     id="metadata1"><rdf:RDF><cc:Work><dc:type
           rdf:resource="http://purl.org/dc/dcmitype/StillImage" /><dc:date>2026-07-06T11:17:52.395673</dc:date><dc:format>image/svg+xml</dc:format><dc:creator><cc:Agent><dc:title>Matplotlib v3.10.9, https://matplotlib.org/</dc:title></cc:Agent></dc:creator></cc:Work></rdf:RDF></metadata><defs
     id="defs1"><style
       type="text/css"
       id="style1">*{stroke-linejoin: round; stroke-linecap: butt}</style><defs
       id="defs76"><path
         id="DejaVuSans-53"
         d="m 3425,4513 v -616 q -359,172 -678,256 -319,85 -616,85 -515,0 -795,-200 -280,-200 -280,-569 0,-310 186,-468 186,-157 705,-254 l 381,-78 q 706,-135 1042,-474 336,-339 336,-907 0,-679 -455,-1029 -454,-350 -1332,-350 -331,0 -705,75 -373,75 -773,222 v 650 q 384,-215 753,-325 369,-109 725,-109 540,0 834,212 294,213 294,607 0,343 -211,537 -211,194 -692,291 l -385,75 q -706,140 -1022,440 -315,300 -315,835 0,619 436,975 436,356 1201,356 329,0 669,-60 341,-59 697,-177 z"
         transform="scale(0.015625)" /><path
         id="DejaVuSans-63"
         d="m 3122,3366 v -538 q -244,135 -489,202 -245,67 -495,67 -560,0 -870,-355 -309,-354 -309,-995 0,-641 309,-996 310,-354 870,-354 250,0 495,67 245,67 489,202 V 134 Q 2881,22 2623,-34 2366,-91 2075,-91 1284,-91 818,406 353,903 353,1747 q 0,856 470,1346 471,491 1290,491 265,0 518,-55 253,-54 491,-163 z"
         transform="scale(0.015625)" /><path
         id="DejaVuSans-68"
         d="M 3513,2113 V 0 h -575 v 2094 q 0,497 -194,743 -194,247 -581,247 -466,0 -735,-297 -269,-296 -269,-809 V 0 H 581 v 4863 h 578 V 2956 q 207,316 486,472 280,156 646,156 603,0 912,-373 310,-373 310,-1098 z"
         transform="scale(0.015625)" /><path
         id="DejaVuSans-64"
         d="m 2906,2969 v 1894 h 575 V 0 H 2906 V 525 Q 2725,213 2448,61 2172,-91 1784,-91 1150,-91 751,415 353,922 353,1747 q 0,825 398,1331 399,506 1033,506 388,0 664,-152 277,-151 458,-463 z M 947,1747 q 0,-634 261,-995 261,-361 717,-361 456,0 718,361 263,361 263,995 0,634 -263,995 -262,361 -718,361 -456,0 -717,-361 -261,-361 -261,-995 z"
         transform="scale(0.015625)" /><path
         id="DejaVuSans-20"
         transform="scale(0.015625)"
         d="" /><path
         id="DejaVuSans-73"
         d="m 2834,3397 v -544 q -243,125 -506,187 -262,63 -544,63 -428,0 -642,-131 -214,-131 -214,-394 0,-200 153,-314 153,-114 616,-217 l 197,-44 q 612,-131 870,-370 258,-239 258,-667 0,-488 -386,-773 Q 2250,-91 1575,-91 1294,-91 989,-36 684,19 347,128 v 594 q 319,-166 628,-249 309,-82 613,-82 406,0 624,139 219,139 219,392 0,234 -158,359 -157,125 -692,241 l -200,47 q -534,112 -772,345 -237,233 -237,639 0,494 350,762 350,269 994,269 318,0 599,-47 282,-46 519,-140 z"
         transform="scale(0.015625)" /></defs><defs
       id="defs3"><path
         id="m2d8380e5dc"
         d="M 0,0 V 3.5"
         style="stroke:#000000;stroke-width:0.8" /></defs><defs
       id="defs19"><path
         id="m594accc3bf"
         d="M 0,0 H -3.5"
         style="stroke:#000000;stroke-width:0.8" /></defs><defs
       id="defs15"><path
         id="DejaVuSans-54"
         d="M -19,4666 H 3928 V 4134 H 2272 V 0 H 1638 V 4134 H -19 Z"
         transform="scale(0.015625)" /><path
         id="DejaVuSans-69"
         d="m 603,3500 h 575 V 0 H 603 Z m 0,1363 h 575 V 4134 H 603 Z"
         transform="scale(0.015625)" /><path
         id="DejaVuSans-6d"
         d="m 3328,2828 q 216,388 516,572 300,184 706,184 547,0 844,-383 297,-382 297,-1088 V 0 h -578 v 2094 q 0,503 -179,746 -178,244 -543,244 -447,0 -707,-297 -259,-296 -259,-809 V 0 h -578 v 2094 q 0,506 -178,748 -178,242 -550,242 -441,0 -701,-298 -259,-298 -259,-808 V 0 H 581 v 3500 h 578 v -544 q 197,322 472,475 275,153 653,153 382,0 649,-194 267,-193 395,-562 z"
         transform="scale(0.015625)" /><path
         id="DejaVuSans-65"
         d="M 3597,1894 V 1613 H 953 q 38,-594 358,-905 320,-311 892,-311 331,0 642,81 311,81 618,244 V 178 Q 3153,47 2828,-22 2503,-91 2169,-91 1331,-91 842,396 353,884 353,1716 q 0,859 464,1363 464,505 1252,505 706,0 1117,-455 411,-454 411,-1235 z m -575,169 q -6,471 -264,752 -258,282 -683,282 -481,0 -770,-272 -289,-272 -333,-766 z"
         transform="scale(0.015625)" /></defs><defs
       id="defs59"><path
         id="DejaVuSans-45"
         d="M 628,4666 H 3578 V 4134 H 1259 V 2753 H 3481 V 2222 H 1259 V 531 H 3634 V 0 H 628 Z"
         transform="scale(0.015625)" /><path
         id="DejaVuSans-67"
         d="m 2906,1791 q 0,625 -258,968 -257,344 -723,344 -462,0 -720,-344 -258,-343 -258,-968 0,-622 258,-966 258,-344 720,-344 466,0 723,344 258,344 258,966 z M 3481,434 q 0,-893 -397,-1329 -396,-436 -1215,-436 -303,0 -572,45 -269,45 -522,139 v 559 q 253,-137 500,-202 247,-66 503,-66 566,0 847,295 281,295 281,892 V 616 Q 2728,306 2450,153 2172,0 1784,0 1141,0 747,490 353,981 353,1791 q 0,812 394,1302 394,491 1037,491 388,0 666,-153 278,-153 456,-462 v 531 h 575 z"
         transform="scale(0.015625)" /><path
         id="DejaVuSans-6e"
         d="M 3513,2113 V 0 h -575 v 2094 q 0,497 -194,743 -194,247 -581,247 -466,0 -735,-297 -269,-296 -269,-809 V 0 H 581 v 3500 h 578 v -544 q 207,316 486,472 280,156 646,156 603,0 912,-373 310,-373 310,-1098 z"
         transform="scale(0.015625)" /><path
         id="DejaVuSans-76"
         d="M 191,3500 H 800 L 1894,563 2988,3500 h 609 L 2284,0 h -781 z"
         transform="scale(0.015625)" /><path
         id="DejaVuSans-61"
         d="m 2194,1759 q -697,0 -966,-159 -269,-159 -269,-544 0,-306 202,-486 202,-179 548,-179 479,0 768,339 289,339 289,901 v 128 z m 1147,238 V 0 H 2766 V 531 Q 2569,213 2275,61 1981,-91 1556,-91 q -537,0 -855,302 -317,302 -317,808 0,590 395,890 396,300 1180,300 h 807 v 57 q 0,397 -261,614 -261,217 -733,217 -300,0 -585,-72 -284,-72 -546,-216 v 532 q 315,122 612,182 297,61 578,61 760,0 1135,-394 375,-393 375,-1193 z"
         transform="scale(0.015625)" /><path
         id="DejaVuSans-6c"
         d="m 603,4863 h 575 V 0 H 603 Z"
         transform="scale(0.015625)" /><path
         id="DejaVuSans-75"
         d="m 544,1381 v 2119 h 575 V 1403 q 0,-497 193,-746 194,-248 582,-248 465,0 735,297 271,297 271,810 v 1984 h 575 V 0 H 2900 V 538 Q 2691,219 2414,64 2138,-91 1772,-91 1169,-91 856,284 544,659 544,1381 Z m 1447,2203 z"
         transform="scale(0.015625)" /></defs><defs
       id="defs11"><path
         id="DejaVuSans-38"
         d="m 2034,2216 q -450,0 -708,-241 -257,-241 -257,-662 0,-422 257,-663 258,-241 708,-241 450,0 709,242 260,243 260,662 0,421 -258,662 -257,241 -711,241 z m -631,268 q -406,100 -633,378 -226,279 -226,679 0,559 398,884 399,325 1092,325 697,0 1094,-325 397,-325 397,-884 0,-400 -227,-679 -226,-278 -629,-378 456,-106 710,-416 255,-309 255,-755 Q 3634,634 3220,271 2806,-91 2034,-91 1263,-91 848,271 434,634 434,1313 q 0,446 256,755 257,310 713,416 z m -231,997 q 0,-362 226,-565 227,-203 636,-203 407,0 636,203 230,203 230,565 0,363 -230,566 -229,203 -636,203 -409,0 -636,-203 -226,-203 -226,-566 z"
         transform="scale(0.015625)" /></defs><defs
       id="defs20"><path
         id="DejaVuSans-2212"
         d="M 678,2272 H 4684 V 1741 H 678 Z"
         transform="scale(0.015625)" /><path
         id="DejaVuSans-2e"
         d="m 684,794 h 660 V 0 H 684 Z"
         transform="scale(0.015625)" /></defs><defs
       id="defs4"><path
         id="DejaVuSans-30"
         d="m 2034,4250 q -487,0 -733,-480 -245,-479 -245,-1442 0,-959 245,-1439 246,-480 733,-480 491,0 736,480 246,480 246,1439 0,963 -246,1442 -245,480 -736,480 z m 0,500 q 785,0 1199,-621 414,-620 414,-1801 0,-1178 -414,-1799 -414,-620 -1199,-620 -784,0 -1198,620 -414,621 -414,1799 0,1181 414,1801 414,621 1198,621 z"
         transform="scale(0.015625)" /></defs><defs
       id="defs5"><path
         id="DejaVuSans-32"
         d="M 1228,531 H 3431 V 0 H 469 v 531 q 359,372 979,998 621,627 780,809 303,340 423,576 121,236 121,464 0,372 -261,606 -261,235 -680,235 -297,0 -627,-103 -329,-103 -704,-313 v 638 q 381,153 712,231 332,78 607,78 725,0 1156,-363 431,-362 431,-968 0,-288 -108,-546 -107,-257 -392,-607 -78,-91 -497,-524 Q 1991,1309 1228,531 Z"
         transform="scale(0.015625)" /></defs><defs
       id="defs7"><path
         id="DejaVuSans-34"
         d="M 2419,4116 825,1625 h 1594 z m -166,550 h 794 V 1625 h 666 V 1100 H 3047 V 0 H 2419 V 1100 H 313 v 609 z"
         transform="scale(0.015625)" /></defs><defs
       id="defs25"><path
         id="DejaVuSans-35"
         d="M 691,4666 H 3169 V 4134 H 1269 V 2991 q 137,47 274,70 138,23 276,23 781,0 1237,-428 457,-428 457,-1159 Q 3513,744 3044,326 2575,-91 1722,-91 1428,-91 1123,-41 819,9 494,109 v 635 q 281,-153 581,-228 300,-75 634,-75 541,0 856,284 316,284 316,772 0,487 -316,771 -315,285 -856,285 -253,0 -505,-56 -251,-56 -513,-175 z"
         transform="scale(0.015625)" /></defs><defs
       id="defs13"><path
         id="DejaVuSans-31"
         d="M 794,531 H 1825 V 4091 L 703,3866 v 575 l 1116,225 h 631 V 531 H 3481 V 0 H 794 Z"
         transform="scale(0.015625)" /></defs><defs
       id="defs9"><path
         id="DejaVuSans-36"
         d="m 2113,2584 q -425,0 -674,-291 -248,-290 -248,-796 0,-503 248,-796 249,-292 674,-292 425,0 673,292 248,293 248,796 0,506 -248,796 -248,291 -673,291 z m 1253,1979 v -575 q -238,112 -480,171 -242,60 -480,60 -625,0 -955,-422 -329,-422 -376,-1275 184,272 462,417 279,145 613,145 703,0 1111,-427 408,-426 408,-1160 0,-719 -425,-1154 -425,-434 -1131,-434 -810,0 -1238,620 -428,621 -428,1799 0,1106 525,1764 525,658 1409,658 238,0 480,-47 242,-47 505,-140 z"
         transform="scale(0.015625)" /></defs></defs><g
     id="figure_1"><g
       id="patch_1"><path
         d="M 0 359.751496  L 575.696693 359.751496  L 575.696693 0  L 0 0  z "
         style="fill:#141230;fill-opacity:1"
         id="path1" /></g><path
       d="M 64.426057,313.02377 H 564.90238 V 29.259788 H 64.426057 Z"
       style="fill:none;fill-opacity:1"
       id="path2" /><path
       d="M 87.174981,313.02377 V 29.259788"
       clip-path="url(#pa42e05fbc5)"
       style="fill:none;stroke:#e0e0e0;stroke-width:0.8;stroke-dasharray:2.96, 1.28;stroke-dashoffset:0;stroke-opacity:0.7"
       id="path3" /><path
       id="use3"
       d="m 87.17498,313.02377 v 3.5"
       style="fill:#ffffff;stroke:#ffffff;stroke-width:0.8" /><use
       xlink:href="#DejaVuSans-30"
       id="use4"
       transform="matrix(0.12,0,0,-0.12,83.357481,329.1419)"
       style="fill:#ffffff" /><path
       d="M 178.17068,313.02377 V 29.259788"
       clip-path="url(#pa42e05fbc5)"
       style="fill:none;stroke:#e0e0e0;stroke-width:0.8;stroke-dasharray:2.96, 1.28;stroke-dashoffset:0;stroke-opacity:0.7"
       id="path4" /><path
       id="use5"
       d="m 178.17067,313.02377 v 3.5"
       style="fill:#ffffff;stroke:#ffffff;stroke-width:0.8" /><use
       xlink:href="#DejaVuSans-32"
       id="use6"
       transform="matrix(0.12,0,0,-0.12,174.35318,329.1419)"
       style="fill:#ffffff" /><path
       d="M 269.16637,313.02377 V 29.259788"
       clip-path="url(#pa42e05fbc5)"
       style="fill:none;stroke:#e0e0e0;stroke-width:0.8;stroke-dasharray:2.96, 1.28;stroke-dashoffset:0;stroke-opacity:0.7"
       id="path6" /><path
       id="use7"
       d="m 269.16638,313.02377 v 3.5"
       style="fill:#ffffff;stroke:#ffffff;stroke-width:0.8" /><use
       xlink:href="#DejaVuSans-34"
       id="use8"
       transform="matrix(0.12,0,0,-0.12,265.34887,329.1419)"
       style="fill:#ffffff" /><path
       d="M 360.16207,313.02377 V 29.259788"
       clip-path="url(#pa42e05fbc5)"
       style="fill:none;stroke:#e0e0e0;stroke-width:0.8;stroke-dasharray:2.96, 1.28;stroke-dashoffset:0;stroke-opacity:0.7"
       id="path8" /><path
       id="use9"
       d="m 360.16208,313.02377 v 3.5"
       style="fill:#ffffff;stroke:#ffffff;stroke-width:0.8" /><use
       xlink:href="#DejaVuSans-36"
       id="use10"
       transform="matrix(0.12,0,0,-0.12,356.34457,329.1419)"
       style="fill:#ffffff" /><path
       d="M 451.15776,313.02377 V 29.259788"
       clip-path="url(#pa42e05fbc5)"
       style="fill:none;stroke:#e0e0e0;stroke-width:0.8;stroke-dasharray:2.96, 1.28;stroke-dashoffset:0;stroke-opacity:0.7"
       id="path10" /><path
       id="use11"
       d="m 451.15778,313.02377 v 3.5"
       style="fill:#ffffff;stroke:#ffffff;stroke-width:0.8" /><use
       xlink:href="#DejaVuSans-38"
       id="use12"
       transform="matrix(0.12,0,0,-0.12,447.34026,329.1419)"
       style="fill:#ffffff" /><path
       d="M 542.15346,313.02377 V 29.259788"
       clip-path="url(#pa42e05fbc5)"
       style="fill:none;stroke:#e0e0e0;stroke-width:0.8;stroke-dasharray:2.96, 1.28;stroke-dashoffset:0;stroke-opacity:0.7"
       id="path12" /><path
       id="use13"
       d="m 542.15344,313.02377 v 3.5"
       style="fill:#ffffff;stroke:#ffffff;stroke-width:0.8" /><use
       xlink:href="#DejaVuSans-31"
       id="use14"
       transform="matrix(0.12,0,0,-0.12,534.51846,329.1419)"
       style="fill:#ffffff" /><use
       xlink:href="#DejaVuSans-30"
       transform="matrix(0.12,0,0,-0.12,542.15323,329.1419)"
       id="use15"
       style="fill:#ffffff" /><use
       xlink:href="#DejaVuSans-54"
       id="use16"
       transform="matrix(0.14,0,0,-0.14,297.53719,346.27534)"
       style="fill:#ffffff" /><use
       xlink:href="#DejaVuSans-69"
       transform="matrix(0.14,0,0,-0.14,305.65145,346.27534)"
       id="use17"
       style="fill:#ffffff" /><use
       xlink:href="#DejaVuSans-6d"
       transform="matrix(0.14,0,0,-0.14,309.5411,346.27534)"
       id="use18"
       style="fill:#ffffff" /><use
       xlink:href="#DejaVuSans-65"
       transform="matrix(0.14,0,0,-0.14,323.17879,346.27534)"
       id="use19"
       style="fill:#ffffff" /><path
       d="M 64.426057,300.12541 H 564.90238"
       clip-path="url(#pa42e05fbc5)"
       style="fill:none;stroke:#e0e0e0;stroke-width:0.8;stroke-dasharray:2.96, 1.28;stroke-dashoffset:0;stroke-opacity:0.7"
       id="path19" /><path
       id="use20"
       d="m 64.426056,300.1254 h -3.5"
       style="fill:#ffffff;stroke:#ffffff;stroke-width:0.8" /><use
       xlink:href="#DejaVuSans-2212"
       id="use21"
       transform="matrix(0.12,0,0,-0.12,28.286682,304.68447)"
       style="fill:#ffffff" /><use
       xlink:href="#DejaVuSans-32"
       transform="matrix(0.12,0,0,-0.12,38.341369,304.68447)"
       id="use22"
       style="fill:#ffffff" /><use
       xlink:href="#DejaVuSans-2e"
       transform="matrix(0.12,0,0,-0.12,45.976135,304.68447)"
       id="use23"
       style="fill:#ffffff" /><use
       xlink:href="#DejaVuSans-30"
       transform="matrix(0.12,0,0,-0.12,49.790588,304.68447)"
       id="use24"
       style="fill:#ffffff" /><path
       d="M 64.426057,267.8795 H 564.90238"
       clip-path="url(#pa42e05fbc5)"
       style="fill:none;stroke:#e0e0e0;stroke-width:0.8;stroke-dasharray:2.96, 1.28;stroke-dashoffset:0;stroke-opacity:0.7"
       id="path24" /><path
       id="use25"
       d="m 64.426056,267.87952 h -3.5"
       style="fill:#ffffff;stroke:#ffffff;stroke-width:0.8" /><use
       xlink:href="#DejaVuSans-2212"
       id="use26"
       transform="matrix(0.12,0,0,-0.12,28.286682,272.43857)"
       style="fill:#ffffff" /><use
       xlink:href="#DejaVuSans-31"
       transform="matrix(0.12,0,0,-0.12,38.341369,272.43857)"
       id="use27"
       style="fill:#ffffff" /><use
       xlink:href="#DejaVuSans-2e"
       transform="matrix(0.12,0,0,-0.12,45.976135,272.43857)"
       id="use28"
       style="fill:#ffffff" /><use
       xlink:href="#DejaVuSans-35"
       transform="matrix(0.12,0,0,-0.12,49.790588,272.43857)"
       id="use29"
       style="fill:#ffffff" /><path
       d="M 64.426057,235.6336 H 564.90238"
       clip-path="url(#pa42e05fbc5)"
       style="fill:none;stroke:#e0e0e0;stroke-width:0.8;stroke-dasharray:2.96, 1.28;stroke-dashoffset:0;stroke-opacity:0.7"
       id="path29" /><path
       id="use30"
       d="m 64.426056,235.63359 h -3.5"
       style="fill:#ffffff;fill-opacity:1;stroke:#ffffff;stroke-width:0.8" /><use
       xlink:href="#DejaVuSans-2212"
       id="use31"
       transform="matrix(0.12,0,0,-0.12,28.286682,240.19266)"
       style="fill:#ffffff" /><use
       xlink:href="#DejaVuSans-31"
       transform="matrix(0.12,0,0,-0.12,38.341369,240.19266)"
       id="use32"
       style="fill:#ffffff" /><use
       xlink:href="#DejaVuSans-2e"
       transform="matrix(0.12,0,0,-0.12,45.976135,240.19266)"
       id="use33"
       style="fill:#ffffff" /><use
       xlink:href="#DejaVuSans-30"
       transform="matrix(0.12,0,0,-0.12,49.790588,240.19266)"
       id="use34"
       style="fill:#ffffff" /><path
       d="M 64.426057,203.38769 H 564.90238"
       clip-path="url(#pa42e05fbc5)"
       style="fill:none;stroke:#e0e0e0;stroke-width:0.8;stroke-dasharray:2.96, 1.28;stroke-dashoffset:0;stroke-opacity:0.7"
       id="path34" /><path
       id="use35"
       d="m 64.426056,203.3877 h -3.5"
       style="fill:#ffffff;stroke:#ffffff;stroke-width:0.8" /><use
       xlink:href="#DejaVuSans-2212"
       id="use36"
       transform="matrix(0.12,0,0,-0.12,28.286682,207.94675)"
       style="fill:#ffffff" /><use
       xlink:href="#DejaVuSans-30"
       transform="matrix(0.12,0,0,-0.12,38.341369,207.94675)"
       id="use37"
       style="fill:#ffffff" /><use
       xlink:href="#DejaVuSans-2e"
       transform="matrix(0.12,0,0,-0.12,45.976135,207.94675)"
       id="use38"
       style="fill:#ffffff" /><use
       xlink:href="#DejaVuSans-35"
       transform="matrix(0.12,0,0,-0.12,49.790588,207.94675)"
       id="use39"
       style="fill:#ffffff" /><path
       d="M 64.426057,171.14178 H 564.90238"
       clip-path="url(#pa42e05fbc5)"
       style="fill:none;stroke:#e0e0e0;stroke-width:0.8;stroke-dasharray:2.96, 1.28;stroke-dashoffset:0;stroke-opacity:0.7"
       id="path39" /><path
       id="use40"
       d="m 64.426056,171.14178 h -3.5"
       style="fill:#ffffff;stroke:#ffffff;stroke-width:0.8" /><use
       xlink:href="#DejaVuSans-30"
       id="use41"
       transform="matrix(0.12,0,0,-0.12,38.342307,175.70084)"
       style="fill:#ffffff" /><use
       xlink:href="#DejaVuSans-2e"
       transform="matrix(0.12,0,0,-0.12,45.977073,175.70084)"
       id="use42"
       style="fill:#ffffff" /><use
       xlink:href="#DejaVuSans-30"
       transform="matrix(0.12,0,0,-0.12,49.791526,175.70084)"
       id="use43"
       style="fill:#ffffff" /><path
       d="M 64.426057,138.89587 H 564.90238"
       clip-path="url(#pa42e05fbc5)"
       style="fill:none;stroke:#e0e0e0;stroke-width:0.8;stroke-dasharray:2.96, 1.28;stroke-dashoffset:0;stroke-opacity:0.7"
       id="path43" /><path
       id="use44"
       d="m 64.426056,138.89587 h -3.5"
       style="fill:#ffffff;stroke:#ffffff;stroke-width:0.8" /><use
       xlink:href="#DejaVuSans-30"
       id="use45"
       transform="matrix(0.12,0,0,-0.12,38.342307,143.45494)"
       style="fill:#ffffff" /><use
       xlink:href="#DejaVuSans-2e"
       transform="matrix(0.12,0,0,-0.12,45.977073,143.45494)"
       id="use46"
       style="fill:#ffffff" /><use
       xlink:href="#DejaVuSans-35"
       transform="matrix(0.12,0,0,-0.12,49.791526,143.45494)"
       id="use47"
       style="fill:#ffffff" /><path
       d="M 64.426057,106.64997 H 564.90238"
       clip-path="url(#pa42e05fbc5)"
       style="fill:none;stroke:#e0e0e0;stroke-width:0.8;stroke-dasharray:2.96, 1.28;stroke-dashoffset:0;stroke-opacity:0.7"
       id="path47" /><path
       id="use48"
       d="m 64.426056,106.64996 h -3.5"
       style="fill:#ffffff;stroke:#ffffff;stroke-width:0.8" /><use
       xlink:href="#DejaVuSans-31"
       id="use49"
       transform="matrix(0.12,0,0,-0.12,38.342307,111.20903)"
       style="fill:#ffffff" /><use
       xlink:href="#DejaVuSans-2e"
       transform="matrix(0.12,0,0,-0.12,45.977073,111.20903)"
       id="use50"
       style="fill:#ffffff" /><use
       xlink:href="#DejaVuSans-30"
       transform="matrix(0.12,0,0,-0.12,49.791526,111.20903)"
       id="use51"
       style="fill:#ffffff" /><path
       d="M 64.426057,74.404059 H 564.90238"
       clip-path="url(#pa42e05fbc5)"
       style="fill:none;stroke:#e0e0e0;stroke-width:0.8;stroke-dasharray:2.96, 1.28;stroke-dashoffset:0;stroke-opacity:0.7"
       id="path51" /><path
       id="use52"
       d="m 64.426056,74.40406 h -3.5"
       style="fill:#ffffff;stroke:#ffffff;stroke-width:0.8" /><use
       xlink:href="#DejaVuSans-31"
       id="use53"
       transform="matrix(0.12,0,0,-0.12,38.342307,78.963121)"
       style="fill:#ffffff" /><use
       xlink:href="#DejaVuSans-2e"
       transform="matrix(0.12,0,0,-0.12,45.977073,78.963121)"
       id="use54"
       style="fill:#ffffff" /><use
       xlink:href="#DejaVuSans-35"
       transform="matrix(0.12,0,0,-0.12,49.791526,78.963121)"
       id="use55"
       style="fill:#ffffff" /><path
       d="M 64.426057,42.158151 H 564.90238"
       clip-path="url(#pa42e05fbc5)"
       style="fill:none;stroke:#e0e0e0;stroke-width:0.8;stroke-dasharray:2.96, 1.28;stroke-dashoffset:0;stroke-opacity:0.7"
       id="path55" /><path
       id="use56"
       d="m 64.426056,42.15815 h -3.5"
       style="fill:#ffffff;stroke:#ffffff;stroke-width:0.8" /><use
       xlink:href="#DejaVuSans-32"
       id="use57"
       transform="matrix(0.12,0,0,-0.12,38.342307,46.717214)"
       style="fill:#ffffff" /><use
       xlink:href="#DejaVuSans-2e"
       transform="matrix(0.12,0,0,-0.12,45.977073,46.717214)"
       id="use58"
       style="fill:#ffffff" /><use
       xlink:href="#DejaVuSans-30"
       transform="matrix(0.12,0,0,-0.12,49.791526,46.717214)"
       id="use59"
       style="fill:#ffffff" /><use
       xlink:href="#DejaVuSans-45"
       id="use60"
       style="fill:#ffffff"
       transform="matrix(0,-0.14,-0.14,0,21.375119,209.81787)" /><use
       xlink:href="#DejaVuSans-69"
       transform="matrix(0,-0.14,-0.14,0,21.375119,200.97217)"
       id="use61"
       style="fill:#ffffff" /><use
       xlink:href="#DejaVuSans-67"
       transform="matrix(0,-0.14,-0.14,0,21.375119,197.08252)"
       id="use62"
       style="fill:#ffffff" /><use
       xlink:href="#DejaVuSans-65"
       transform="matrix(0,-0.14,-0.14,0,21.375119,188.1958)"
       id="use63"
       style="fill:#ffffff" /><use
       xlink:href="#DejaVuSans-6e"
       transform="matrix(0,-0.14,-0.14,0,21.375119,179.58252)"
       id="use64"
       style="fill:#ffffff" /><use
       xlink:href="#DejaVuSans-76"
       transform="matrix(0,-0.14,-0.14,0,21.375119,170.70947)"
       id="use65"
       style="fill:#ffffff" /><use
       xlink:href="#DejaVuSans-61"
       transform="matrix(0,-0.14,-0.14,0,21.375119,162.42432)"
       id="use66"
       style="fill:#ffffff" /><use
       xlink:href="#DejaVuSans-6c"
       transform="matrix(0,-0.14,-0.14,0,21.375119,153.84521)"
       id="use67"
       style="fill:#ffffff" /><use
       xlink:href="#DejaVuSans-75"
       transform="matrix(0,-0.14,-0.14,0,21.375119,149.95557)"
       id="use68"
       style="fill:#ffffff" /><use
       xlink:href="#DejaVuSans-65"
       transform="matrix(0,-0.14,-0.14,0,21.375119,141.08252)"
       id="use69"
       style="fill:#ffffff" /><path
       d="m 87.174981,300.12541 4.642637,-1.31446 4.642638,-1.311 4.642634,-1.30743 4.64264,-1.30375 4.64264,-1.29994 4.64264,-1.29602 4.64263,-1.29196 4.64264,-1.28778 4.64264,-1.28346 4.64264,-1.27899 4.64263,-1.27438 4.64264,-1.2696 4.64264,-1.26467 4.64264,-1.25958 4.64263,-1.25429 4.64264,-1.24883 4.64264,-1.24319 4.64264,-1.23733 4.64263,-1.23127 4.64264,-1.22501 4.64264,-1.2185 4.64264,-1.21177 4.64263,-1.20479 4.64264,-1.19755 4.64264,-1.19005 4.64264,-1.18227 4.64263,-1.17421 4.64264,-1.16583 4.64264,-1.15714 4.64264,-1.14813 4.64263,-1.13876 4.64264,-1.12905 4.64264,-1.11896 4.64264,-1.10848 4.64263,-1.09759 4.64264,-1.08629 4.64264,-1.07454 4.64264,-1.06234 4.64263,-1.04966 4.64264,-1.03649 4.64264,-1.0228 4.64264,-1.00859 4.64263,-0.99381 4.64264,-0.97846 4.64264,-0.96252 4.64264,-0.94597 4.64263,-0.92877 4.64264,-0.91093 4.64264,-0.8924 4.64264,-0.87318 4.64263,-0.85324 4.64264,-0.83257 4.64264,-0.81115 4.64264,-0.78896 4.64263,-0.76599 4.64264,-0.74222 4.64264,-0.71766 4.64264,-0.69227 4.64263,-0.66606 4.64264,-0.63904 4.64264,-0.6112 4.64264,-0.58253 4.64263,-0.55307 4.64264,-0.52279 4.64264,-0.49176 4.64264,-0.45995 4.64263,-0.42741 4.64264,-0.39419 4.64264,-0.36029 4.64264,-0.32578 4.64263,-0.29069 4.64264,-0.25507 4.64264,-0.219 4.64264,-0.1825 4.64263,-0.14567 4.64264,-0.10856 4.64264,-0.0712 4.64264,-0.0338 4.64263,0.004 4.64264,0.0413 4.64264,0.0787 4.64264,0.116 4.64263,0.15306 4.64264,0.18984 4.64264,0.22624 4.64264,0.26224 4.64263,0.29775 4.64264,0.33272 4.64264,0.36713 4.64264,0.40088 4.64263,0.43398 4.64264,0.46637 4.64264,0.49803 4.64264,0.52891 4.64263,0.55902 4.64264,0.58833 4.64264,0.61683 4.64264,0.64452"
       clip-path="url(#pa42e05fbc5)"
       style="fill:none;stroke:#ac115f;stroke-width:1.5;stroke-dasharray:5.55, 2.4;stroke-dashoffset:0"
       id="path69" /><path
       d="m 87.174981,171.14178 4.642637,0.65808 4.642638,0.65808 4.642634,0.65808 4.64264,0.65808 4.64264,0.65808 4.64264,0.65808 4.64263,0.65808 4.64264,0.65808 4.64264,0.65808 4.64264,0.65808 4.64263,0.65808 4.64264,0.65808 4.64264,0.65808 4.64264,0.65808 4.64263,0.65808 4.64264,0.65808 4.64264,0.65808 4.64264,0.65808 4.64263,0.65808 4.64264,0.65808 4.64264,0.65808 4.64264,0.65808 4.64263,0.65807 4.64264,0.65808 4.64264,0.65808 4.64264,0.65808 4.64263,0.65808 4.64264,0.65808 4.64264,0.65808 4.64264,0.65808 4.64263,0.65808 4.64264,0.65808 4.64264,0.65808 4.64264,0.65808 4.64263,0.65808 4.64264,0.65808 4.64264,0.65808 4.64264,0.65808 4.64263,0.65808 4.64264,0.65808 4.64264,0.65808 4.64264,0.65808 4.64263,0.65808 4.64264,0.65808 4.64264,0.65808 4.64264,0.65808 4.64263,0.65808 4.64264,0.65808 4.64264,0.65808 4.64264,0.65808 4.64263,0.65808 4.64264,0.65808 4.64264,0.65808 4.64264,0.65808 4.64263,0.65808 4.64264,0.65808 4.64264,0.65808 4.64264,0.65808 4.64263,0.65808 4.64264,0.65808 4.64264,0.65808 4.64264,0.65807 4.64263,0.65808 4.64264,0.65808 4.64264,0.65808 4.64264,0.65808 4.64263,0.65808 4.64264,0.65808 4.64264,0.65808 4.64264,0.65808 4.64263,0.65808 4.64264,0.65808 4.64264,0.65808 4.64264,0.65808 4.64263,0.65808 4.64264,0.65808 4.64264,0.65808 4.64264,0.65808 4.64263,0.65808 4.64264,0.65808 4.64264,0.65808 4.64264,0.65808 4.64263,0.65808 4.64264,0.65808 4.64264,0.65808 4.64264,0.65808 4.64263,0.65808 4.64264,0.65808 4.64264,0.65808 4.64264,0.65808 4.64263,0.65808 4.64264,0.65808 4.64264,0.65808 4.64264,0.65808 4.64263,0.65808 4.64264,0.65808 4.64264,0.65808 4.64264,0.65808"
       clip-path="url(#pa42e05fbc5)"
       style="fill:none;stroke:#ac115f;stroke-width:1.5;stroke-dasharray:5.55, 2.4;stroke-dashoffset:0"
       id="path70" /><path
       d="m 87.174981,171.14178 4.642637,-0.65808 4.642638,-0.65808 4.642634,-0.65808 4.64264,-0.65808 4.64264,-0.65808 4.64264,-0.65808 4.64263,-0.65808 4.64264,-0.65808 4.64264,-0.65808 4.64264,-0.65808 4.64263,-0.65808 4.64264,-0.65808 4.64264,-0.65808 4.64264,-0.65808 4.64263,-0.65808 4.64264,-0.65808 4.64264,-0.65807 4.64264,-0.65808 4.64263,-0.65808 4.64264,-0.65808 4.64264,-0.65808 4.64264,-0.65808 4.64263,-0.65808 4.64264,-0.65808 4.64264,-0.65808 4.64264,-0.65808 4.64263,-0.65808 4.64264,-0.65808 4.64264,-0.65808 4.64264,-0.65808 4.64263,-0.65808 4.64264,-0.65808 4.64264,-0.65808 4.64264,-0.65808 4.64263,-0.65808 4.64264,-0.65808 4.64264,-0.65808 4.64264,-0.65808 4.64263,-0.65808 4.64264,-0.65808 4.64264,-0.65808 4.64264,-0.65808 4.64263,-0.65808 4.64264,-0.65808 4.64264,-0.65808 4.64264,-0.65808 4.64263,-0.65808 4.64264,-0.65808 4.64264,-0.65808 4.64264,-0.65808 4.64263,-0.65808 4.64264,-0.65808 4.64264,-0.65808 4.64264,-0.65807 4.64263,-0.65809 4.64264,-0.65808 4.64264,-0.65807 4.64264,-0.65808 4.64263,-0.65808 4.64264,-0.65808 4.64264,-0.65808 4.64264,-0.65808 4.64263,-0.65808 4.64264,-0.65808 4.64264,-0.65808 4.64264,-0.65808 4.64263,-0.65808 4.64264,-0.65808 4.64264,-0.65808 4.64264,-0.65808 4.64263,-0.65808 4.64264,-0.65808 4.64264,-0.65808 4.64264,-0.65808 4.64263,-0.65808 4.64264,-0.65808 4.64264,-0.65808 4.64264,-0.65808 4.64263,-0.65808 4.64264,-0.65808 4.64264,-0.65808 4.64264,-0.65808 4.64263,-0.65808 4.64264,-0.65808 4.64264,-0.65808 4.64264,-0.65808 4.64263,-0.65808 4.64264,-0.65808 4.64264,-0.65808 4.64264,-0.65808 4.64263,-0.65808 4.64264,-0.65808 4.64264,-0.65807 4.64264,-0.65808 4.64263,-0.65808 4.64264,-0.65808 4.64264,-0.65808 4.64264,-0.65808"
       clip-path="url(#pa42e05fbc5)"
       style="fill:none;stroke:#ac115f;stroke-width:1.5;stroke-dasharray:5.55, 2.4;stroke-dashoffset:0"
       id="path71" /><path
       d="m 87.174981,42.158151 4.642637,1.314464 4.642638,1.311 4.642634,1.30743 4.64264,1.303744 4.64264,1.299942 4.64264,1.296017 4.64263,1.291965 4.64264,1.28778 4.64264,1.283458 4.64264,1.278991 4.64263,1.274377 4.64264,1.269605 4.64264,1.264673 4.64264,1.259571 4.64263,1.254295 4.64264,1.248833 4.64264,1.243183 4.64264,1.237332 4.64263,1.231275 4.64264,1.225002 4.64264,1.218502 4.64264,1.211768 4.64263,1.204789 4.64264,1.197554 4.64264,1.190053 4.64264,1.182273 4.64263,1.174203 4.64264,1.16583 4.64264,1.157143 4.64264,1.148126 4.64263,1.138766 4.64264,1.129048 4.64264,1.118957 4.64264,1.108478 4.64263,1.097594 4.64264,1.086287 4.64264,1.074543 4.64264,1.062339 4.64263,1.049662 4.64264,1.03649 4.64264,1.022803 4.64264,1.008584 4.64263,0.993811 4.64264,0.978464 4.64264,0.962522 4.64264,0.945965 4.64263,0.928774 4.64264,0.910924 4.64264,0.8924 4.64264,0.873178 4.64263,0.853242 4.64264,0.83257 4.64264,0.81115 4.64264,0.78896 4.64263,0.76599 4.64264,0.74222 4.64264,0.71766 4.64264,0.69227 4.64263,0.66606 4.64264,0.63905 4.64264,0.61119 4.64264,0.58254 4.64263,0.55306 4.64264,0.5228 4.64264,0.49175 4.64264,0.45995 4.64263,0.42742 4.64264,0.39418 4.64264,0.36029 4.64264,0.32578 4.64263,0.29069 4.64264,0.25508 4.64264,0.21899 4.64264,0.1825 4.64263,0.14567 4.64264,0.10856 4.64264,0.0712 4.64264,0.0338 4.64263,-0.004 4.64264,-0.0413 4.64264,-0.0787 4.64264,-0.116 4.64263,-0.15306 4.64264,-0.18983 4.64264,-0.22625 4.64264,-0.26223 4.64263,-0.29775 4.64264,-0.33273 4.64264,-0.36712 4.64264,-0.40089 4.64263,-0.43398 4.64264,-0.46637 4.64264,-0.49802 4.64264,-0.52892 4.64263,-0.55902 4.64264,-0.58833 4.64264,-0.61683 4.64264,-0.64451"
       clip-path="url(#pa42e05fbc5)"
       style="fill:none;stroke:#ac115f;stroke-width:1.5;stroke-dasharray:5.55, 2.4;stroke-dashoffset:0"
       id="path72" /><path
       d="M 64.426057,313.02377 V 29.259788"
       style="fill:#ffffff;stroke:#ffffff;stroke-width:0.8;stroke-linecap:square;stroke-linejoin:miter"
       id="path73" /><path
       d="M 564.90238,313.02377 V 29.259788"
       style="fill:#ffffff;stroke:#ffffff;stroke-width:0.8;stroke-linecap:square;stroke-linejoin:miter"
       id="path74" /><path
       d="M 64.426057,313.02377 H 564.90238"
       style="fill:#ffffff;stroke:#ffffff;stroke-width:0.8;stroke-linecap:square;stroke-linejoin:miter"
       id="path75" /><path
       d="M 64.426057,29.259788 H 564.90238"
       style="fill:#ffffff;stroke:#ffffff;stroke-width:0.8;stroke-linecap:square;stroke-linejoin:miter"
       id="path76" /><use
       xlink:href="#DejaVuSans-53"
       id="use76"
       transform="matrix(0.16,0,0,-0.16,226.98922,23.259788)"
       style="fill:#ffffff" /><use
       xlink:href="#DejaVuSans-63"
       transform="matrix(0.16,0,0,-0.16,237.14547,23.259788)"
       id="use77"
       style="fill:#ffffff" /><use
       xlink:href="#DejaVuSans-68"
       transform="matrix(0.16,0,0,-0.16,245.94234,23.259788)"
       id="use78"
       style="fill:#ffffff" /><use
       xlink:href="#DejaVuSans-65"
       transform="matrix(0.16,0,0,-0.16,256.08297,23.259788)"
       id="use79"
       style="fill:#ffffff" /><use
       xlink:href="#DejaVuSans-64"
       transform="matrix(0.16,0,0,-0.16,265.92672,23.259788)"
       id="use80"
       style="fill:#ffffff" /><use
       xlink:href="#DejaVuSans-75"
       transform="matrix(0.16,0,0,-0.16,276.08297,23.259788)"
       id="use81"
       style="fill:#ffffff" /><use
       xlink:href="#DejaVuSans-6c"
       transform="matrix(0.16,0,0,-0.16,286.22359,23.259788)"
       id="use82"
       style="fill:#ffffff" /><use
       xlink:href="#DejaVuSans-65"
       transform="matrix(0.16,0,0,-0.16,290.66891,23.259788)"
       id="use83"
       style="fill:#ffffff" /><use
       xlink:href="#DejaVuSans-20"
       transform="matrix(0.16,0,0,-0.16,300.51266,23.259788)"
       id="use84" /><use
       xlink:href="#DejaVuSans-45"
       transform="matrix(0.16,0,0,-0.16,305.59859,23.259788)"
       id="use85"
       style="fill:#ffffff" /><use
       xlink:href="#DejaVuSans-69"
       transform="matrix(0.16,0,0,-0.16,315.70797,23.259788)"
       id="use86"
       style="fill:#ffffff" /><use
       xlink:href="#DejaVuSans-67"
       transform="matrix(0.16,0,0,-0.16,320.15328,23.259788)"
       id="use87"
       style="fill:#ffffff" /><use
       xlink:href="#DejaVuSans-65"
       transform="matrix(0.16,0,0,-0.16,330.30953,23.259788)"
       id="use88"
       style="fill:#ffffff" /><use
       xlink:href="#DejaVuSans-6e"
       transform="matrix(0.16,0,0,-0.16,340.15328,23.259788)"
       id="use89"
       style="fill:#ffffff" /><use
       xlink:href="#DejaVuSans-76"
       transform="matrix(0.16,0,0,-0.16,350.29391,23.259788)"
       id="use90"
       style="fill:#ffffff" /><use
       xlink:href="#DejaVuSans-61"
       transform="matrix(0.16,0,0,-0.16,359.76266,23.259788)"
       id="use91"
       style="fill:#ffffff" /><use
       xlink:href="#DejaVuSans-6c"
       transform="matrix(0.16,0,0,-0.16,369.56734,23.259788)"
       id="use92"
       style="fill:#ffffff" /><use
       xlink:href="#DejaVuSans-75"
       transform="matrix(0.16,0,0,-0.16,374.01266,23.259788)"
       id="use93"
       style="fill:#ffffff" /><use
       xlink:href="#DejaVuSans-65"
       transform="matrix(0.16,0,0,-0.16,384.15328,23.259788)"
       id="use94"
       style="fill:#ffffff" /><use
       xlink:href="#DejaVuSans-73"
       transform="matrix(0.16,0,0,-0.16,393.99703,23.259788)"
       id="use95"
       style="fill:#ffffff" /></g><defs
     id="defs95"><clipPath
       id="pa42e05fbc5"><rect
         x="64.426057"
         y="29.259788"
         width="500.476323"
         height="283.763986"
         id="rect95" /></clipPath></defs></svg>
