<?xml version="1.0" encoding="utf-8" standalone="no"?>
<!DOCTYPE svg PUBLIC "-//W3C//DTD SVG 1.1//EN"
  "http://www.w3.org/Graphics/SVG/1.1/DTD/svg11.dtd">
<svg xmlns:xlink="http://www.w3.org/1999/xlink" width="575.696693pt" height="359.751496pt" viewBox="0 0 575.696693 359.751496" xmlns="http://www.w3.org/2000/svg" version="1.1">
 <metadata>
  <rdf:RDF xmlns:dc="http://purl.org/dc/elements/1.1/" xmlns:cc="http://creativecommons.org/ns#" xmlns:rdf="http://www.w3.org/1999/02/22-rdf-syntax-ns#">
   <cc:Work>
    <dc:type rdf:resource="http://purl.org/dc/dcmitype/StillImage"/>
    <dc:date>2026-07-06T11:29:58.330374</dc:date>
    <dc:format>image/svg+xml</dc:format>
    <dc:creator>
     <cc:Agent>
      <dc:title>Matplotlib v3.10.9, https://matplotlib.org/</dc:title>
     </cc:Agent>
    </dc:creator>
   </cc:Work>
  </rdf:RDF>
 </metadata>
 <defs>
  <style type="text/css">*{stroke-linejoin: round; stroke-linecap: butt}</style>
 </defs>
 <g id="figure_1">
  <g id="patch_1">
   <path d="M 0 359.751496 
L 575.696693 359.751496 
L 575.696693 0 
L 0 0 
z
" style="fill: #ffffff"/>
  </g>
  <g id="axes_1">
   <g id="patch_2">
    <path d="M 64.426057 313.023774 
L 564.90238 313.023774 
L 564.90238 29.259788 
L 64.426057 29.259788 
z
" style="fill: #ffffff"/>
   </g>
   <g id="matplotlib.axis_1">
    <g id="xtick_1">
     <g id="line2d_1">
      <path d="M 87.174981 313.023774 
L 87.174981 29.259788 
" clip-path="url(#pd630c99437)" style="fill: none; stroke-dasharray: 2.96,1.28; stroke-dashoffset: 0; stroke: #e0e0e0; stroke-opacity: 0.7; stroke-width: 0.8"/>
     </g>
     <g id="line2d_2">
      <defs>
       <path id="m4b52094bed" d="M 0 0 
L 0 3.5 
" style="stroke: #000000; stroke-width: 0.8"/>
      </defs>
      <g>
       <use xlink:href="#m4b52094bed" x="87.174981" y="313.023774" style="stroke: #000000; stroke-width: 0.8"/>
      </g>
     </g>
     <g id="text_1">
      <!-- 0 -->
      <g transform="translate(83.357481 329.141899) scale(0.12 -0.12)">
       <defs>
        <path id="DejaVuSans-30" d="M 2034 4250 
Q 1547 4250 1301 3770 
Q 1056 3291 1056 2328 
Q 1056 1369 1301 889 
Q 1547 409 2034 409 
Q 2525 409 2770 889 
Q 3016 1369 3016 2328 
Q 3016 3291 2770 3770 
Q 2525 4250 2034 4250 
z
M 2034 4750 
Q 2819 4750 3233 4129 
Q 3647 3509 3647 2328 
Q 3647 1150 3233 529 
Q 2819 -91 2034 -91 
Q 1250 -91 836 529 
Q 422 1150 422 2328 
Q 422 3509 836 4129 
Q 1250 4750 2034 4750 
z
" transform="scale(0.015625)"/>
       </defs>
       <use xlink:href="#DejaVuSans-30"/>
      </g>
     </g>
    </g>
    <g id="xtick_2">
     <g id="line2d_3">
      <path d="M 178.170676 313.023774 
L 178.170676 29.259788 
" clip-path="url(#pd630c99437)" style="fill: none; stroke-dasharray: 2.96,1.28; stroke-dashoffset: 0; stroke: #e0e0e0; stroke-opacity: 0.7; stroke-width: 0.8"/>
     </g>
     <g id="line2d_4">
      <g>
       <use xlink:href="#m4b52094bed" x="178.170676" y="313.023774" style="stroke: #000000; stroke-width: 0.8"/>
      </g>
     </g>
     <g id="text_2">
      <!-- 2 -->
      <g transform="translate(174.353176 329.141899) scale(0.12 -0.12)">
       <defs>
        <path id="DejaVuSans-32" d="M 1228 531 
L 3431 531 
L 3431 0 
L 469 0 
L 469 531 
Q 828 903 1448 1529 
Q 2069 2156 2228 2338 
Q 2531 2678 2651 2914 
Q 2772 3150 2772 3378 
Q 2772 3750 2511 3984 
Q 2250 4219 1831 4219 
Q 1534 4219 1204 4116 
Q 875 4013 500 3803 
L 500 4441 
Q 881 4594 1212 4672 
Q 1544 4750 1819 4750 
Q 2544 4750 2975 4387 
Q 3406 4025 3406 3419 
Q 3406 3131 3298 2873 
Q 3191 2616 2906 2266 
Q 2828 2175 2409 1742 
Q 1991 1309 1228 531 
z
" transform="scale(0.015625)"/>
       </defs>
       <use xlink:href="#DejaVuSans-32"/>
      </g>
     </g>
    </g>
    <g id="xtick_3">
     <g id="line2d_5">
      <path d="M 269.166371 313.023774 
L 269.166371 29.259788 
" clip-path="url(#pd630c99437)" style="fill: none; stroke-dasharray: 2.96,1.28; stroke-dashoffset: 0; stroke: #e0e0e0; stroke-opacity: 0.7; stroke-width: 0.8"/>
     </g>
     <g id="line2d_6">
      <g>
       <use xlink:href="#m4b52094bed" x="269.166371" y="313.023774" style="stroke: #000000; stroke-width: 0.8"/>
      </g>
     </g>
     <g id="text_3">
      <!-- 4 -->
      <g transform="translate(265.348871 329.141899) scale(0.12 -0.12)">
       <defs>
        <path id="DejaVuSans-34" d="M 2419 4116 
L 825 1625 
L 2419 1625 
L 2419 4116 
z
M 2253 4666 
L 3047 4666 
L 3047 1625 
L 3713 1625 
L 3713 1100 
L 3047 1100 
L 3047 0 
L 2419 0 
L 2419 1100 
L 313 1100 
L 313 1709 
L 2253 4666 
z
" transform="scale(0.015625)"/>
       </defs>
       <use xlink:href="#DejaVuSans-34"/>
      </g>
     </g>
    </g>
    <g id="xtick_4">
     <g id="line2d_7">
      <path d="M 360.162066 313.023774 
L 360.162066 29.259788 
" clip-path="url(#pd630c99437)" style="fill: none; stroke-dasharray: 2.96,1.28; stroke-dashoffset: 0; stroke: #e0e0e0; stroke-opacity: 0.7; stroke-width: 0.8"/>
     </g>
     <g id="line2d_8">
      <g>
       <use xlink:href="#m4b52094bed" x="360.162066" y="313.023774" style="stroke: #000000; stroke-width: 0.8"/>
      </g>
     </g>
     <g id="text_4">
      <!-- 6 -->
      <g transform="translate(356.344566 329.141899) scale(0.12 -0.12)">
       <defs>
        <path id="DejaVuSans-36" d="M 2113 2584 
Q 1688 2584 1439 2293 
Q 1191 2003 1191 1497 
Q 1191 994 1439 701 
Q 1688 409 2113 409 
Q 2538 409 2786 701 
Q 3034 994 3034 1497 
Q 3034 2003 2786 2293 
Q 2538 2584 2113 2584 
z
M 3366 4563 
L 3366 3988 
Q 3128 4100 2886 4159 
Q 2644 4219 2406 4219 
Q 1781 4219 1451 3797 
Q 1122 3375 1075 2522 
Q 1259 2794 1537 2939 
Q 1816 3084 2150 3084 
Q 2853 3084 3261 2657 
Q 3669 2231 3669 1497 
Q 3669 778 3244 343 
Q 2819 -91 2113 -91 
Q 1303 -91 875 529 
Q 447 1150 447 2328 
Q 447 3434 972 4092 
Q 1497 4750 2381 4750 
Q 2619 4750 2861 4703 
Q 3103 4656 3366 4563 
z
" transform="scale(0.015625)"/>
       </defs>
       <use xlink:href="#DejaVuSans-36"/>
      </g>
     </g>
    </g>
    <g id="xtick_5">
     <g id="line2d_9">
      <path d="M 451.157761 313.023774 
L 451.157761 29.259788 
" clip-path="url(#pd630c99437)" style="fill: none; stroke-dasharray: 2.96,1.28; stroke-dashoffset: 0; stroke: #e0e0e0; stroke-opacity: 0.7; stroke-width: 0.8"/>
     </g>
     <g id="line2d_10">
      <g>
       <use xlink:href="#m4b52094bed" x="451.157761" y="313.023774" style="stroke: #000000; stroke-width: 0.8"/>
      </g>
     </g>
     <g id="text_5">
      <!-- 8 -->
      <g transform="translate(447.340261 329.141899) scale(0.12 -0.12)">
       <defs>
        <path id="DejaVuSans-38" d="M 2034 2216 
Q 1584 2216 1326 1975 
Q 1069 1734 1069 1313 
Q 1069 891 1326 650 
Q 1584 409 2034 409 
Q 2484 409 2743 651 
Q 3003 894 3003 1313 
Q 3003 1734 2745 1975 
Q 2488 2216 2034 2216 
z
M 1403 2484 
Q 997 2584 770 2862 
Q 544 3141 544 3541 
Q 544 4100 942 4425 
Q 1341 4750 2034 4750 
Q 2731 4750 3128 4425 
Q 3525 4100 3525 3541 
Q 3525 3141 3298 2862 
Q 3072 2584 2669 2484 
Q 3125 2378 3379 2068 
Q 3634 1759 3634 1313 
Q 3634 634 3220 271 
Q 2806 -91 2034 -91 
Q 1263 -91 848 271 
Q 434 634 434 1313 
Q 434 1759 690 2068 
Q 947 2378 1403 2484 
z
M 1172 3481 
Q 1172 3119 1398 2916 
Q 1625 2713 2034 2713 
Q 2441 2713 2670 2916 
Q 2900 3119 2900 3481 
Q 2900 3844 2670 4047 
Q 2441 4250 2034 4250 
Q 1625 4250 1398 4047 
Q 1172 3844 1172 3481 
z
" transform="scale(0.015625)"/>
       </defs>
       <use xlink:href="#DejaVuSans-38"/>
      </g>
     </g>
    </g>
    <g id="xtick_6">
     <g id="line2d_11">
      <path d="M 542.153456 313.023774 
L 542.153456 29.259788 
" clip-path="url(#pd630c99437)" style="fill: none; stroke-dasharray: 2.96,1.28; stroke-dashoffset: 0; stroke: #e0e0e0; stroke-opacity: 0.7; stroke-width: 0.8"/>
     </g>
     <g id="line2d_12">
      <g>
       <use xlink:href="#m4b52094bed" x="542.153456" y="313.023774" style="stroke: #000000; stroke-width: 0.8"/>
      </g>
     </g>
     <g id="text_6">
      <!-- 10 -->
      <g transform="translate(534.518456 329.141899) scale(0.12 -0.12)">
       <defs>
        <path id="DejaVuSans-31" d="M 794 531 
L 1825 531 
L 1825 4091 
L 703 3866 
L 703 4441 
L 1819 4666 
L 2450 4666 
L 2450 531 
L 3481 531 
L 3481 0 
L 794 0 
L 794 531 
z
" transform="scale(0.015625)"/>
       </defs>
       <use xlink:href="#DejaVuSans-31"/>
       <use xlink:href="#DejaVuSans-30" transform="translate(63.623047 0)"/>
      </g>
     </g>
    </g>
    <g id="text_7">
     <!-- Time -->
     <g transform="translate(297.537187 346.275336) scale(0.14 -0.14)">
      <defs>
       <path id="DejaVuSans-54" d="M -19 4666 
L 3928 4666 
L 3928 4134 
L 2272 4134 
L 2272 0 
L 1638 0 
L 1638 4134 
L -19 4134 
L -19 4666 
z
" transform="scale(0.015625)"/>
       <path id="DejaVuSans-69" d="M 603 3500 
L 1178 3500 
L 1178 0 
L 603 0 
L 603 3500 
z
M 603 4863 
L 1178 4863 
L 1178 4134 
L 603 4134 
L 603 4863 
z
" transform="scale(0.015625)"/>
       <path id="DejaVuSans-6d" d="M 3328 2828 
Q 3544 3216 3844 3400 
Q 4144 3584 4550 3584 
Q 5097 3584 5394 3201 
Q 5691 2819 5691 2113 
L 5691 0 
L 5113 0 
L 5113 2094 
Q 5113 2597 4934 2840 
Q 4756 3084 4391 3084 
Q 3944 3084 3684 2787 
Q 3425 2491 3425 1978 
L 3425 0 
L 2847 0 
L 2847 2094 
Q 2847 2600 2669 2842 
Q 2491 3084 2119 3084 
Q 1678 3084 1418 2786 
Q 1159 2488 1159 1978 
L 1159 0 
L 581 0 
L 581 3500 
L 1159 3500 
L 1159 2956 
Q 1356 3278 1631 3431 
Q 1906 3584 2284 3584 
Q 2666 3584 2933 3390 
Q 3200 3197 3328 2828 
z
" transform="scale(0.015625)"/>
       <path id="DejaVuSans-65" d="M 3597 1894 
L 3597 1613 
L 953 1613 
Q 991 1019 1311 708 
Q 1631 397 2203 397 
Q 2534 397 2845 478 
Q 3156 559 3463 722 
L 3463 178 
Q 3153 47 2828 -22 
Q 2503 -91 2169 -91 
Q 1331 -91 842 396 
Q 353 884 353 1716 
Q 353 2575 817 3079 
Q 1281 3584 2069 3584 
Q 2775 3584 3186 3129 
Q 3597 2675 3597 1894 
z
M 3022 2063 
Q 3016 2534 2758 2815 
Q 2500 3097 2075 3097 
Q 1594 3097 1305 2825 
Q 1016 2553 972 2059 
L 3022 2063 
z
" transform="scale(0.015625)"/>
      </defs>
      <use xlink:href="#DejaVuSans-54"/>
      <use xlink:href="#DejaVuSans-69" transform="translate(57.958984 0)"/>
      <use xlink:href="#DejaVuSans-6d" transform="translate(85.742188 0)"/>
      <use xlink:href="#DejaVuSans-65" transform="translate(183.154297 0)"/>
     </g>
    </g>
   </g>
   <g id="matplotlib.axis_2">
    <g id="ytick_1">
     <g id="line2d_13">
      <path d="M 64.426057 300.125411 
L 564.90238 300.125411 
" clip-path="url(#pd630c99437)" style="fill: none; stroke-dasharray: 2.96,1.28; stroke-dashoffset: 0; stroke: #e0e0e0; stroke-opacity: 0.7; stroke-width: 0.8"/>
     </g>
     <g id="line2d_14">
      <defs>
       <path id="mcf5a49f787" d="M 0 0 
L -3.5 0 
" style="stroke: #000000; stroke-width: 0.8"/>
      </defs>
      <g>
       <use xlink:href="#mcf5a49f787" x="64.426057" y="300.125411" style="stroke: #000000; stroke-width: 0.8"/>
      </g>
     </g>
     <g id="text_8">
      <!-- −2.0 -->
      <g transform="translate(28.286682 304.684473) scale(0.12 -0.12)">
       <defs>
        <path id="DejaVuSans-2212" d="M 678 2272 
L 4684 2272 
L 4684 1741 
L 678 1741 
L 678 2272 
z
" transform="scale(0.015625)"/>
        <path id="DejaVuSans-2e" d="M 684 794 
L 1344 794 
L 1344 0 
L 684 0 
L 684 794 
z
" transform="scale(0.015625)"/>
       </defs>
       <use xlink:href="#DejaVuSans-2212"/>
       <use xlink:href="#DejaVuSans-32" transform="translate(83.789062 0)"/>
       <use xlink:href="#DejaVuSans-2e" transform="translate(147.412109 0)"/>
       <use xlink:href="#DejaVuSans-30" transform="translate(179.199219 0)"/>
      </g>
     </g>
    </g>
    <g id="ytick_2">
     <g id="line2d_15">
      <path d="M 64.426057 267.879504 
L 564.90238 267.879504 
" clip-path="url(#pd630c99437)" style="fill: none; stroke-dasharray: 2.96,1.28; stroke-dashoffset: 0; stroke: #e0e0e0; stroke-opacity: 0.7; stroke-width: 0.8"/>
     </g>
     <g id="line2d_16">
      <g>
       <use xlink:href="#mcf5a49f787" x="64.426057" y="267.879504" style="stroke: #000000; stroke-width: 0.8"/>
      </g>
     </g>
     <g id="text_9">
      <!-- −1.5 -->
      <g transform="translate(28.286682 272.438566) scale(0.12 -0.12)">
       <defs>
        <path id="DejaVuSans-35" d="M 691 4666 
L 3169 4666 
L 3169 4134 
L 1269 4134 
L 1269 2991 
Q 1406 3038 1543 3061 
Q 1681 3084 1819 3084 
Q 2600 3084 3056 2656 
Q 3513 2228 3513 1497 
Q 3513 744 3044 326 
Q 2575 -91 1722 -91 
Q 1428 -91 1123 -41 
Q 819 9 494 109 
L 494 744 
Q 775 591 1075 516 
Q 1375 441 1709 441 
Q 2250 441 2565 725 
Q 2881 1009 2881 1497 
Q 2881 1984 2565 2268 
Q 2250 2553 1709 2553 
Q 1456 2553 1204 2497 
Q 953 2441 691 2322 
L 691 4666 
z
" transform="scale(0.015625)"/>
       </defs>
       <use xlink:href="#DejaVuSans-2212"/>
       <use xlink:href="#DejaVuSans-31" transform="translate(83.789062 0)"/>
       <use xlink:href="#DejaVuSans-2e" transform="translate(147.412109 0)"/>
       <use xlink:href="#DejaVuSans-35" transform="translate(179.199219 0)"/>
      </g>
     </g>
    </g>
    <g id="ytick_3">
     <g id="line2d_17">
      <path d="M 64.426057 235.633596 
L 564.90238 235.633596 
" clip-path="url(#pd630c99437)" style="fill: none; stroke-dasharray: 2.96,1.28; stroke-dashoffset: 0; stroke: #e0e0e0; stroke-opacity: 0.7; stroke-width: 0.8"/>
     </g>
     <g id="line2d_18">
      <g>
       <use xlink:href="#mcf5a49f787" x="64.426057" y="235.633596" style="stroke: #000000; stroke-width: 0.8"/>
      </g>
     </g>
     <g id="text_10">
      <!-- −1.0 -->
      <g transform="translate(28.286682 240.192659) scale(0.12 -0.12)">
       <use xlink:href="#DejaVuSans-2212"/>
       <use xlink:href="#DejaVuSans-31" transform="translate(83.789062 0)"/>
       <use xlink:href="#DejaVuSans-2e" transform="translate(147.412109 0)"/>
       <use xlink:href="#DejaVuSans-30" transform="translate(179.199219 0)"/>
      </g>
     </g>
    </g>
    <g id="ytick_4">
     <g id="line2d_19">
      <path d="M 64.426057 203.387689 
L 564.90238 203.387689 
" clip-path="url(#pd630c99437)" style="fill: none; stroke-dasharray: 2.96,1.28; stroke-dashoffset: 0; stroke: #e0e0e0; stroke-opacity: 0.7; stroke-width: 0.8"/>
     </g>
     <g id="line2d_20">
      <g>
       <use xlink:href="#mcf5a49f787" x="64.426057" y="203.387689" style="stroke: #000000; stroke-width: 0.8"/>
      </g>
     </g>
     <g id="text_11">
      <!-- −0.5 -->
      <g transform="translate(28.286682 207.946751) scale(0.12 -0.12)">
       <use xlink:href="#DejaVuSans-2212"/>
       <use xlink:href="#DejaVuSans-30" transform="translate(83.789062 0)"/>
       <use xlink:href="#DejaVuSans-2e" transform="translate(147.412109 0)"/>
       <use xlink:href="#DejaVuSans-35" transform="translate(179.199219 0)"/>
      </g>
     </g>
    </g>
    <g id="ytick_5">
     <g id="line2d_21">
      <path d="M 64.426057 171.141781 
L 564.90238 171.141781 
" clip-path="url(#pd630c99437)" style="fill: none; stroke-dasharray: 2.96,1.28; stroke-dashoffset: 0; stroke: #e0e0e0; stroke-opacity: 0.7; stroke-width: 0.8"/>
     </g>
     <g id="line2d_22">
      <g>
       <use xlink:href="#mcf5a49f787" x="64.426057" y="171.141781" style="stroke: #000000; stroke-width: 0.8"/>
      </g>
     </g>
     <g id="text_12">
      <!-- 0.0 -->
      <g transform="translate(38.342307 175.700844) scale(0.12 -0.12)">
       <use xlink:href="#DejaVuSans-30"/>
       <use xlink:href="#DejaVuSans-2e" transform="translate(63.623047 0)"/>
       <use xlink:href="#DejaVuSans-30" transform="translate(95.410156 0)"/>
      </g>
     </g>
    </g>
    <g id="ytick_6">
     <g id="line2d_23">
      <path d="M 64.426057 138.895874 
L 564.90238 138.895874 
" clip-path="url(#pd630c99437)" style="fill: none; stroke-dasharray: 2.96,1.28; stroke-dashoffset: 0; stroke: #e0e0e0; stroke-opacity: 0.7; stroke-width: 0.8"/>
     </g>
     <g id="line2d_24">
      <g>
       <use xlink:href="#mcf5a49f787" x="64.426057" y="138.895874" style="stroke: #000000; stroke-width: 0.8"/>
      </g>
     </g>
     <g id="text_13">
      <!-- 0.5 -->
      <g transform="translate(38.342307 143.454936) scale(0.12 -0.12)">
       <use xlink:href="#DejaVuSans-30"/>
       <use xlink:href="#DejaVuSans-2e" transform="translate(63.623047 0)"/>
       <use xlink:href="#DejaVuSans-35" transform="translate(95.410156 0)"/>
      </g>
     </g>
    </g>
    <g id="ytick_7">
     <g id="line2d_25">
      <path d="M 64.426057 106.649966 
L 564.90238 106.649966 
" clip-path="url(#pd630c99437)" style="fill: none; stroke-dasharray: 2.96,1.28; stroke-dashoffset: 0; stroke: #e0e0e0; stroke-opacity: 0.7; stroke-width: 0.8"/>
     </g>
     <g id="line2d_26">
      <g>
       <use xlink:href="#mcf5a49f787" x="64.426057" y="106.649966" style="stroke: #000000; stroke-width: 0.8"/>
      </g>
     </g>
     <g id="text_14">
      <!-- 1.0 -->
      <g transform="translate(38.342307 111.209029) scale(0.12 -0.12)">
       <use xlink:href="#DejaVuSans-31"/>
       <use xlink:href="#DejaVuSans-2e" transform="translate(63.623047 0)"/>
       <use xlink:href="#DejaVuSans-30" transform="translate(95.410156 0)"/>
      </g>
     </g>
    </g>
    <g id="ytick_8">
     <g id="line2d_27">
      <path d="M 64.426057 74.404059 
L 564.90238 74.404059 
" clip-path="url(#pd630c99437)" style="fill: none; stroke-dasharray: 2.96,1.28; stroke-dashoffset: 0; stroke: #e0e0e0; stroke-opacity: 0.7; stroke-width: 0.8"/>
     </g>
     <g id="line2d_28">
      <g>
       <use xlink:href="#mcf5a49f787" x="64.426057" y="74.404059" style="stroke: #000000; stroke-width: 0.8"/>
      </g>
     </g>
     <g id="text_15">
      <!-- 1.5 -->
      <g transform="translate(38.342307 78.963121) scale(0.12 -0.12)">
       <use xlink:href="#DejaVuSans-31"/>
       <use xlink:href="#DejaVuSans-2e" transform="translate(63.623047 0)"/>
       <use xlink:href="#DejaVuSans-35" transform="translate(95.410156 0)"/>
      </g>
     </g>
    </g>
    <g id="ytick_9">
     <g id="line2d_29">
      <path d="M 64.426057 42.158151 
L 564.90238 42.158151 
" clip-path="url(#pd630c99437)" style="fill: none; stroke-dasharray: 2.96,1.28; stroke-dashoffset: 0; stroke: #e0e0e0; stroke-opacity: 0.7; stroke-width: 0.8"/>
     </g>
     <g id="line2d_30">
      <g>
       <use xlink:href="#mcf5a49f787" x="64.426057" y="42.158151" style="stroke: #000000; stroke-width: 0.8"/>
      </g>
     </g>
     <g id="text_16">
      <!-- 2.0 -->
      <g transform="translate(38.342307 46.717214) scale(0.12 -0.12)">
       <use xlink:href="#DejaVuSans-32"/>
       <use xlink:href="#DejaVuSans-2e" transform="translate(63.623047 0)"/>
       <use xlink:href="#DejaVuSans-30" transform="translate(95.410156 0)"/>
      </g>
     </g>
    </g>
    <g id="text_17">
     <!-- Eigenvalue -->
     <g transform="translate(21.375119 209.817875) rotate(-90) scale(0.14 -0.14)">
      <defs>
       <path id="DejaVuSans-45" d="M 628 4666 
L 3578 4666 
L 3578 4134 
L 1259 4134 
L 1259 2753 
L 3481 2753 
L 3481 2222 
L 1259 2222 
L 1259 531 
L 3634 531 
L 3634 0 
L 628 0 
L 628 4666 
z
" transform="scale(0.015625)"/>
       <path id="DejaVuSans-67" d="M 2906 1791 
Q 2906 2416 2648 2759 
Q 2391 3103 1925 3103 
Q 1463 3103 1205 2759 
Q 947 2416 947 1791 
Q 947 1169 1205 825 
Q 1463 481 1925 481 
Q 2391 481 2648 825 
Q 2906 1169 2906 1791 
z
M 3481 434 
Q 3481 -459 3084 -895 
Q 2688 -1331 1869 -1331 
Q 1566 -1331 1297 -1286 
Q 1028 -1241 775 -1147 
L 775 -588 
Q 1028 -725 1275 -790 
Q 1522 -856 1778 -856 
Q 2344 -856 2625 -561 
Q 2906 -266 2906 331 
L 2906 616 
Q 2728 306 2450 153 
Q 2172 0 1784 0 
Q 1141 0 747 490 
Q 353 981 353 1791 
Q 353 2603 747 3093 
Q 1141 3584 1784 3584 
Q 2172 3584 2450 3431 
Q 2728 3278 2906 2969 
L 2906 3500 
L 3481 3500 
L 3481 434 
z
" transform="scale(0.015625)"/>
       <path id="DejaVuSans-6e" d="M 3513 2113 
L 3513 0 
L 2938 0 
L 2938 2094 
Q 2938 2591 2744 2837 
Q 2550 3084 2163 3084 
Q 1697 3084 1428 2787 
Q 1159 2491 1159 1978 
L 1159 0 
L 581 0 
L 581 3500 
L 1159 3500 
L 1159 2956 
Q 1366 3272 1645 3428 
Q 1925 3584 2291 3584 
Q 2894 3584 3203 3211 
Q 3513 2838 3513 2113 
z
" transform="scale(0.015625)"/>
       <path id="DejaVuSans-76" d="M 191 3500 
L 800 3500 
L 1894 563 
L 2988 3500 
L 3597 3500 
L 2284 0 
L 1503 0 
L 191 3500 
z
" transform="scale(0.015625)"/>
       <path id="DejaVuSans-61" d="M 2194 1759 
Q 1497 1759 1228 1600 
Q 959 1441 959 1056 
Q 959 750 1161 570 
Q 1363 391 1709 391 
Q 2188 391 2477 730 
Q 2766 1069 2766 1631 
L 2766 1759 
L 2194 1759 
z
M 3341 1997 
L 3341 0 
L 2766 0 
L 2766 531 
Q 2569 213 2275 61 
Q 1981 -91 1556 -91 
Q 1019 -91 701 211 
Q 384 513 384 1019 
Q 384 1609 779 1909 
Q 1175 2209 1959 2209 
L 2766 2209 
L 2766 2266 
Q 2766 2663 2505 2880 
Q 2244 3097 1772 3097 
Q 1472 3097 1187 3025 
Q 903 2953 641 2809 
L 641 3341 
Q 956 3463 1253 3523 
Q 1550 3584 1831 3584 
Q 2591 3584 2966 3190 
Q 3341 2797 3341 1997 
z
" transform="scale(0.015625)"/>
       <path id="DejaVuSans-6c" d="M 603 4863 
L 1178 4863 
L 1178 0 
L 603 0 
L 603 4863 
z
" transform="scale(0.015625)"/>
       <path id="DejaVuSans-75" d="M 544 1381 
L 544 3500 
L 1119 3500 
L 1119 1403 
Q 1119 906 1312 657 
Q 1506 409 1894 409 
Q 2359 409 2629 706 
Q 2900 1003 2900 1516 
L 2900 3500 
L 3475 3500 
L 3475 0 
L 2900 0 
L 2900 538 
Q 2691 219 2414 64 
Q 2138 -91 1772 -91 
Q 1169 -91 856 284 
Q 544 659 544 1381 
z
M 1991 3584 
L 1991 3584 
z
" transform="scale(0.015625)"/>
      </defs>
      <use xlink:href="#DejaVuSans-45"/>
      <use xlink:href="#DejaVuSans-69" transform="translate(63.183594 0)"/>
      <use xlink:href="#DejaVuSans-67" transform="translate(90.966797 0)"/>
      <use xlink:href="#DejaVuSans-65" transform="translate(154.443359 0)"/>
      <use xlink:href="#DejaVuSans-6e" transform="translate(215.966797 0)"/>
      <use xlink:href="#DejaVuSans-76" transform="translate(279.345703 0)"/>
      <use xlink:href="#DejaVuSans-61" transform="translate(338.525391 0)"/>
      <use xlink:href="#DejaVuSans-6c" transform="translate(399.804688 0)"/>
      <use xlink:href="#DejaVuSans-75" transform="translate(427.587891 0)"/>
      <use xlink:href="#DejaVuSans-65" transform="translate(490.966797 0)"/>
     </g>
    </g>
   </g>
   <g id="line2d_31">
    <path d="M 87.174981 300.125411 
L 91.817618 298.810948 
L 96.460256 297.499947 
L 101.102893 296.192518 
L 105.745531 294.888773 
L 110.388168 293.588831 
L 115.030806 292.292814 
L 119.673443 291.000849 
L 124.316081 289.713069 
L 128.958718 288.429612 
L 133.601356 287.15062 
L 138.243993 285.876244 
L 142.886631 284.606638 
L 147.529268 283.341965 
L 152.171906 282.082394 
L 156.814543 280.8281 
L 161.457181 279.579266 
L 166.099818 278.336083 
L 170.742456 277.098751 
L 175.385093 275.867476 
L 180.027731 274.642475 
L 184.670368 273.423972 
L 189.313006 272.212204 
L 193.955643 271.007415 
L 198.598281 269.809861 
L 203.240918 268.619809 
L 207.883556 267.437536 
L 212.526193 266.263333 
L 217.168831 265.097502 
L 221.811468 263.940359 
L 226.454106 262.792233 
L 231.096743 261.653467 
L 235.739381 260.524419 
L 240.382018 259.405462 
L 245.024656 258.296984 
L 249.667293 257.19939 
L 254.309931 256.113103 
L 258.952568 255.038561 
L 263.595206 253.976221 
L 268.237843 252.926559 
L 272.880481 251.89007 
L 277.523118 250.867266 
L 282.165756 249.858682 
L 286.808393 248.864872 
L 291.451031 247.886408 
L 296.093668 246.923886 
L 300.736306 245.97792 
L 305.378943 245.049147 
L 310.021581 244.138222 
L 314.664218 243.245822 
L 319.306856 242.372644 
L 323.949493 241.519402 
L 328.592131 240.686832 
L 333.234768 239.875682 
L 337.877406 239.086722 
L 342.520043 238.320733 
L 347.162681 237.578508 
L 351.805318 236.860855 
L 356.447956 236.168585 
L 361.090593 235.502518 
L 365.733231 234.863477 
L 370.375869 234.252281 
L 375.018506 233.669747 
L 379.661144 233.116683 
L 384.303781 232.593886 
L 388.946419 232.102134 
L 393.589056 231.642184 
L 398.231694 231.214766 
L 402.874331 230.82058 
L 407.516969 230.460288 
L 412.159606 230.13451 
L 416.802244 229.843822 
L 421.444881 229.588747 
L 426.087519 229.369754 
L 430.730156 229.18725 
L 435.372794 229.04158 
L 440.015431 228.933024 
L 444.658069 228.86179 
L 449.300706 228.828017 
L 453.943344 228.831771 
L 458.585981 228.873043 
L 463.228619 228.951755 
L 467.871256 229.067753 
L 472.513894 229.220814 
L 477.156531 229.410646 
L 481.799169 229.63689 
L 486.441806 229.899127 
L 491.084444 230.196876 
L 495.727081 230.529604 
L 500.369719 230.896726 
L 505.012356 231.297613 
L 509.654994 231.731595 
L 514.297631 232.197964 
L 518.940269 232.695987 
L 523.582906 233.2249 
L 528.225544 233.783922 
L 532.868181 234.372253 
L 537.510819 234.989084 
L 542.153456 235.633596 
" clip-path="url(#pd630c99437)" style="fill: none; stroke-dasharray: 5.55,2.4; stroke-dashoffset: 0; stroke: #ac115f; stroke-width: 1.5"/>
   </g>
   <g id="line2d_32">
    <path d="M 87.174981 171.141781 
L 91.817618 171.799861 
L 96.460256 172.457941 
L 101.102893 173.11602 
L 105.745531 173.7741 
L 110.388168 174.43218 
L 115.030806 175.09026 
L 119.673443 175.748339 
L 124.316081 176.406419 
L 128.958718 177.064499 
L 133.601356 177.722579 
L 138.243993 178.380658 
L 142.886631 179.038738 
L 147.529268 179.696818 
L 152.171906 180.354898 
L 156.814543 181.012977 
L 161.457181 181.671057 
L 166.099818 182.329137 
L 170.742456 182.987217 
L 175.385093 183.645296 
L 180.027731 184.303376 
L 184.670368 184.961456 
L 189.313006 185.619536 
L 193.955643 186.277615 
L 198.598281 186.935695 
L 203.240918 187.593775 
L 207.883556 188.251854 
L 212.526193 188.909934 
L 217.168831 189.568014 
L 221.811468 190.226094 
L 226.454106 190.884173 
L 231.096743 191.542253 
L 235.739381 192.200333 
L 240.382018 192.858413 
L 245.024656 193.516492 
L 249.667293 194.174572 
L 254.309931 194.832652 
L 258.952568 195.490732 
L 263.595206 196.148811 
L 268.237843 196.806891 
L 272.880481 197.464971 
L 277.523118 198.123051 
L 282.165756 198.78113 
L 286.808393 199.43921 
L 291.451031 200.09729 
L 296.093668 200.75537 
L 300.736306 201.413449 
L 305.378943 202.071529 
L 310.021581 202.729609 
L 314.664218 203.387689 
L 319.306856 204.045768 
L 323.949493 204.703848 
L 328.592131 205.361928 
L 333.234768 206.020008 
L 337.877406 206.678087 
L 342.520043 207.336167 
L 347.162681 207.994247 
L 351.805318 208.652327 
L 356.447956 209.310406 
L 361.090593 209.968486 
L 365.733231 210.626566 
L 370.375869 211.284646 
L 375.018506 211.942725 
L 379.661144 212.600805 
L 384.303781 213.258885 
L 388.946419 213.916965 
L 393.589056 214.575044 
L 398.231694 215.233124 
L 402.874331 215.891204 
L 407.516969 216.549283 
L 412.159606 217.207363 
L 416.802244 217.865443 
L 421.444881 218.523523 
L 426.087519 219.181602 
L 430.730156 219.839682 
L 435.372794 220.497762 
L 440.015431 221.155842 
L 444.658069 221.813921 
L 449.300706 222.472001 
L 453.943344 223.130081 
L 458.585981 223.788161 
L 463.228619 224.44624 
L 467.871256 225.10432 
L 472.513894 225.7624 
L 477.156531 226.42048 
L 481.799169 227.078559 
L 486.441806 227.736639 
L 491.084444 228.394719 
L 495.727081 229.052799 
L 500.369719 229.710878 
L 505.012356 230.368958 
L 509.654994 231.027038 
L 514.297631 231.685118 
L 518.940269 232.343197 
L 523.582906 233.001277 
L 528.225544 233.659357 
L 532.868181 234.317437 
L 537.510819 234.975516 
L 542.153456 235.633596 
" clip-path="url(#pd630c99437)" style="fill: none; stroke-dasharray: 5.55,2.4; stroke-dashoffset: 0; stroke: #ac115f; stroke-width: 1.5"/>
   </g>
   <g id="line2d_33">
    <path d="M 87.174981 171.141781 
L 91.817618 170.483701 
L 96.460256 169.825622 
L 101.102893 169.167542 
L 105.745531 168.509462 
L 110.388168 167.851382 
L 115.030806 167.193303 
L 119.673443 166.535223 
L 124.316081 165.877143 
L 128.958718 165.219063 
L 133.601356 164.560984 
L 138.243993 163.902904 
L 142.886631 163.244824 
L 147.529268 162.586744 
L 152.171906 161.928665 
L 156.814543 161.270585 
L 161.457181 160.612505 
L 166.099818 159.954426 
L 170.742456 159.296346 
L 175.385093 158.638266 
L 180.027731 157.980186 
L 184.670368 157.322107 
L 189.313006 156.664027 
L 193.955643 156.005947 
L 198.598281 155.347867 
L 203.240918 154.689788 
L 207.883556 154.031708 
L 212.526193 153.373628 
L 217.168831 152.715548 
L 221.811468 152.057469 
L 226.454106 151.399389 
L 231.096743 150.741309 
L 235.739381 150.083229 
L 240.382018 149.42515 
L 245.024656 148.76707 
L 249.667293 148.10899 
L 254.309931 147.45091 
L 258.952568 146.792831 
L 263.595206 146.134751 
L 268.237843 145.476671 
L 272.880481 144.818591 
L 277.523118 144.160512 
L 282.165756 143.502432 
L 286.808393 142.844352 
L 291.451031 142.186272 
L 296.093668 141.528193 
L 300.736306 140.870113 
L 305.378943 140.212033 
L 310.021581 139.553953 
L 314.664218 138.895874 
L 319.306856 138.237794 
L 323.949493 137.579714 
L 328.592131 136.921634 
L 333.234768 136.263555 
L 337.877406 135.605475 
L 342.520043 134.947395 
L 347.162681 134.289315 
L 351.805318 133.631236 
L 356.447956 132.973156 
L 361.090593 132.315076 
L 365.733231 131.656997 
L 370.375869 130.998917 
L 375.018506 130.340837 
L 379.661144 129.682757 
L 384.303781 129.024678 
L 388.946419 128.366598 
L 393.589056 127.708518 
L 398.231694 127.050438 
L 402.874331 126.392359 
L 407.516969 125.734279 
L 412.159606 125.076199 
L 416.802244 124.418119 
L 421.444881 123.76004 
L 426.087519 123.10196 
L 430.730156 122.44388 
L 435.372794 121.7858 
L 440.015431 121.127721 
L 444.658069 120.469641 
L 449.300706 119.811561 
L 453.943344 119.153481 
L 458.585981 118.495402 
L 463.228619 117.837322 
L 467.871256 117.179242 
L 472.513894 116.521162 
L 477.156531 115.863083 
L 481.799169 115.205003 
L 486.441806 114.546923 
L 491.084444 113.888843 
L 495.727081 113.230764 
L 500.369719 112.572684 
L 505.012356 111.914604 
L 509.654994 111.256524 
L 514.297631 110.598445 
L 518.940269 109.940365 
L 523.582906 109.282285 
L 528.225544 108.624205 
L 532.868181 107.966126 
L 537.510819 107.308046 
L 542.153456 106.649966 
" clip-path="url(#pd630c99437)" style="fill: none; stroke-dasharray: 5.55,2.4; stroke-dashoffset: 0; stroke: #ac115f; stroke-width: 1.5"/>
   </g>
   <g id="line2d_34">
    <path d="M 87.174981 42.158151 
L 91.817618 43.472615 
L 96.460256 44.783615 
L 101.102893 46.091045 
L 105.745531 47.394789 
L 110.388168 48.694731 
L 115.030806 49.990748 
L 119.673443 51.282713 
L 124.316081 52.570493 
L 128.958718 53.853951 
L 133.601356 55.132942 
L 138.243993 56.407319 
L 142.886631 57.676924 
L 147.529268 58.941597 
L 152.171906 60.201168 
L 156.814543 61.455463 
L 161.457181 62.704296 
L 166.099818 63.947479 
L 170.742456 65.184811 
L 175.385093 66.416086 
L 180.027731 67.641088 
L 184.670368 68.85959 
L 189.313006 70.071358 
L 193.955643 71.276147 
L 198.598281 72.473701 
L 203.240918 73.663754 
L 207.883556 74.846027 
L 212.526193 76.02023 
L 217.168831 77.18606 
L 221.811468 78.343203 
L 226.454106 79.491329 
L 231.096743 80.630095 
L 235.739381 81.759143 
L 240.382018 82.8781 
L 245.024656 83.986578 
L 249.667293 85.084172 
L 254.309931 86.170459 
L 258.952568 87.245002 
L 263.595206 88.307341 
L 268.237843 89.357003 
L 272.880481 90.393493 
L 277.523118 91.416296 
L 282.165756 92.42488 
L 286.808393 93.418691 
L 291.451031 94.397155 
L 296.093668 95.359677 
L 300.736306 96.305642 
L 305.378943 97.234416 
L 310.021581 98.14534 
L 314.664218 99.03774 
L 319.306856 99.910918 
L 323.949493 100.76416 
L 328.592131 101.596731 
L 333.234768 102.40788 
L 337.877406 103.19684 
L 342.520043 103.96283 
L 347.162681 104.705054 
L 351.805318 105.422708 
L 356.447956 106.114977 
L 361.090593 106.781044 
L 365.733231 107.420086 
L 370.375869 108.031282 
L 375.018506 108.613816 
L 379.661144 109.166879 
L 384.303781 109.689676 
L 388.946419 110.181428 
L 393.589056 110.641378 
L 398.231694 111.068796 
L 402.874331 111.462982 
L 407.516969 111.823275 
L 412.159606 112.149052 
L 416.802244 112.43974 
L 421.444881 112.694815 
L 426.087519 112.913808 
L 430.730156 113.096313 
L 435.372794 113.241982 
L 440.015431 113.350538 
L 444.658069 113.421772 
L 449.300706 113.455545 
L 453.943344 113.451792 
L 458.585981 113.410519 
L 463.228619 113.331807 
L 467.871256 113.215809 
L 472.513894 113.062748 
L 477.156531 112.872917 
L 481.799169 112.646672 
L 486.441806 112.384436 
L 491.084444 112.086686 
L 495.727081 111.753958 
L 500.369719 111.386836 
L 505.012356 110.985949 
L 509.654994 110.551968 
L 514.297631 110.085598 
L 518.940269 109.587575 
L 523.582906 109.058662 
L 528.225544 108.499641 
L 532.868181 107.91131 
L 537.510819 107.294479 
L 542.153456 106.649966 
" clip-path="url(#pd630c99437)" style="fill: none; stroke-dasharray: 5.55,2.4; stroke-dashoffset: 0; stroke: #ac115f; stroke-width: 1.5"/>
   </g>
   <g id="patch_3">
    <path d="M 64.426057 313.023774 
L 64.426057 29.259788 
" style="fill: none; stroke: #000000; stroke-width: 0.8; stroke-linejoin: miter; stroke-linecap: square"/>
   </g>
   <g id="patch_4">
    <path d="M 564.90238 313.023774 
L 564.90238 29.259788 
" style="fill: none; stroke: #000000; stroke-width: 0.8; stroke-linejoin: miter; stroke-linecap: square"/>
   </g>
   <g id="patch_5">
    <path d="M 64.426057 313.023774 
L 564.90238 313.023774 
" style="fill: none; stroke: #000000; stroke-width: 0.8; stroke-linejoin: miter; stroke-linecap: square"/>
   </g>
   <g id="patch_6">
    <path d="M 64.426057 29.259788 
L 564.90238 29.259788 
" style="fill: none; stroke: #000000; stroke-width: 0.8; stroke-linejoin: miter; stroke-linecap: square"/>
   </g>
   <g id="text_18">
    <!-- Schedule Eigenvalues -->
    <g transform="translate(226.989218 23.259788) scale(0.16 -0.16)">
     <defs>
      <path id="DejaVuSans-53" d="M 3425 4513 
L 3425 3897 
Q 3066 4069 2747 4153 
Q 2428 4238 2131 4238 
Q 1616 4238 1336 4038 
Q 1056 3838 1056 3469 
Q 1056 3159 1242 3001 
Q 1428 2844 1947 2747 
L 2328 2669 
Q 3034 2534 3370 2195 
Q 3706 1856 3706 1288 
Q 3706 609 3251 259 
Q 2797 -91 1919 -91 
Q 1588 -91 1214 -16 
Q 841 59 441 206 
L 441 856 
Q 825 641 1194 531 
Q 1563 422 1919 422 
Q 2459 422 2753 634 
Q 3047 847 3047 1241 
Q 3047 1584 2836 1778 
Q 2625 1972 2144 2069 
L 1759 2144 
Q 1053 2284 737 2584 
Q 422 2884 422 3419 
Q 422 4038 858 4394 
Q 1294 4750 2059 4750 
Q 2388 4750 2728 4690 
Q 3069 4631 3425 4513 
z
" transform="scale(0.015625)"/>
      <path id="DejaVuSans-63" d="M 3122 3366 
L 3122 2828 
Q 2878 2963 2633 3030 
Q 2388 3097 2138 3097 
Q 1578 3097 1268 2742 
Q 959 2388 959 1747 
Q 959 1106 1268 751 
Q 1578 397 2138 397 
Q 2388 397 2633 464 
Q 2878 531 3122 666 
L 3122 134 
Q 2881 22 2623 -34 
Q 2366 -91 2075 -91 
Q 1284 -91 818 406 
Q 353 903 353 1747 
Q 353 2603 823 3093 
Q 1294 3584 2113 3584 
Q 2378 3584 2631 3529 
Q 2884 3475 3122 3366 
z
" transform="scale(0.015625)"/>
      <path id="DejaVuSans-68" d="M 3513 2113 
L 3513 0 
L 2938 0 
L 2938 2094 
Q 2938 2591 2744 2837 
Q 2550 3084 2163 3084 
Q 1697 3084 1428 2787 
Q 1159 2491 1159 1978 
L 1159 0 
L 581 0 
L 581 4863 
L 1159 4863 
L 1159 2956 
Q 1366 3272 1645 3428 
Q 1925 3584 2291 3584 
Q 2894 3584 3203 3211 
Q 3513 2838 3513 2113 
z
" transform="scale(0.015625)"/>
      <path id="DejaVuSans-64" d="M 2906 2969 
L 2906 4863 
L 3481 4863 
L 3481 0 
L 2906 0 
L 2906 525 
Q 2725 213 2448 61 
Q 2172 -91 1784 -91 
Q 1150 -91 751 415 
Q 353 922 353 1747 
Q 353 2572 751 3078 
Q 1150 3584 1784 3584 
Q 2172 3584 2448 3432 
Q 2725 3281 2906 2969 
z
M 947 1747 
Q 947 1113 1208 752 
Q 1469 391 1925 391 
Q 2381 391 2643 752 
Q 2906 1113 2906 1747 
Q 2906 2381 2643 2742 
Q 2381 3103 1925 3103 
Q 1469 3103 1208 2742 
Q 947 2381 947 1747 
z
" transform="scale(0.015625)"/>
      <path id="DejaVuSans-20" transform="scale(0.015625)"/>
      <path id="DejaVuSans-73" d="M 2834 3397 
L 2834 2853 
Q 2591 2978 2328 3040 
Q 2066 3103 1784 3103 
Q 1356 3103 1142 2972 
Q 928 2841 928 2578 
Q 928 2378 1081 2264 
Q 1234 2150 1697 2047 
L 1894 2003 
Q 2506 1872 2764 1633 
Q 3022 1394 3022 966 
Q 3022 478 2636 193 
Q 2250 -91 1575 -91 
Q 1294 -91 989 -36 
Q 684 19 347 128 
L 347 722 
Q 666 556 975 473 
Q 1284 391 1588 391 
Q 1994 391 2212 530 
Q 2431 669 2431 922 
Q 2431 1156 2273 1281 
Q 2116 1406 1581 1522 
L 1381 1569 
Q 847 1681 609 1914 
Q 372 2147 372 2553 
Q 372 3047 722 3315 
Q 1072 3584 1716 3584 
Q 2034 3584 2315 3537 
Q 2597 3491 2834 3397 
z
" transform="scale(0.015625)"/>
     </defs>
     <use xlink:href="#DejaVuSans-53"/>
     <use xlink:href="#DejaVuSans-63" transform="translate(63.476562 0)"/>
     <use xlink:href="#DejaVuSans-68" transform="translate(118.457031 0)"/>
     <use xlink:href="#DejaVuSans-65" transform="translate(181.835938 0)"/>
     <use xlink:href="#DejaVuSans-64" transform="translate(243.359375 0)"/>
     <use xlink:href="#DejaVuSans-75" transform="translate(306.835938 0)"/>
     <use xlink:href="#DejaVuSans-6c" transform="translate(370.214844 0)"/>
     <use xlink:href="#DejaVuSans-65" transform="translate(397.998047 0)"/>
     <use xlink:href="#DejaVuSans-20" transform="translate(459.521484 0)"/>
     <use xlink:href="#DejaVuSans-45" transform="translate(491.308594 0)"/>
     <use xlink:href="#DejaVuSans-69" transform="translate(554.492188 0)"/>
     <use xlink:href="#DejaVuSans-67" transform="translate(582.275391 0)"/>
     <use xlink:href="#DejaVuSans-65" transform="translate(645.751953 0)"/>
     <use xlink:href="#DejaVuSans-6e" transform="translate(707.275391 0)"/>
     <use xlink:href="#DejaVuSans-76" transform="translate(770.654297 0)"/>
     <use xlink:href="#DejaVuSans-61" transform="translate(829.833984 0)"/>
     <use xlink:href="#DejaVuSans-6c" transform="translate(891.113281 0)"/>
     <use xlink:href="#DejaVuSans-75" transform="translate(918.896484 0)"/>
     <use xlink:href="#DejaVuSans-65" transform="translate(982.275391 0)"/>
     <use xlink:href="#DejaVuSans-73" transform="translate(1043.798828 0)"/>
    </g>
   </g>
   <g id="legend_1">
    <g id="patch_7">
     <path d="M 374.426755 307.023774 
L 556.50238 307.023774 
Q 558.90238 307.023774 558.90238 304.623774 
L 558.90238 270.596274 
Q 558.90238 268.196274 556.50238 268.196274 
L 374.426755 268.196274 
Q 372.026755 268.196274 372.026755 270.596274 
L 372.026755 304.623774 
Q 372.026755 307.023774 374.426755 307.023774 
z
" style="fill: #dcdcdc; opacity: 0.8; stroke: #cacaca; stroke-linejoin: miter"/>
    </g>
    <g id="line2d_35">
     <path d="M 376.826755 277.914399 
L 388.826755 277.914399 
L 400.826755 277.914399 
" style="fill: none; stroke-dasharray: 5.55,2.4; stroke-dashoffset: 0; stroke: #ac115f; stroke-width: 1.5"/>
    </g>
    <g id="text_19">
     <!-- Eigenvalues -->
     <g transform="translate(410.426755 282.114399) scale(0.12 -0.12)">
      <use xlink:href="#DejaVuSans-45"/>
      <use xlink:href="#DejaVuSans-69" transform="translate(63.183594 0)"/>
      <use xlink:href="#DejaVuSans-67" transform="translate(90.966797 0)"/>
      <use xlink:href="#DejaVuSans-65" transform="translate(154.443359 0)"/>
      <use xlink:href="#DejaVuSans-6e" transform="translate(215.966797 0)"/>
      <use xlink:href="#DejaVuSans-76" transform="translate(279.345703 0)"/>
      <use xlink:href="#DejaVuSans-61" transform="translate(338.525391 0)"/>
      <use xlink:href="#DejaVuSans-6c" transform="translate(399.804688 0)"/>
      <use xlink:href="#DejaVuSans-75" transform="translate(427.587891 0)"/>
      <use xlink:href="#DejaVuSans-65" transform="translate(490.966797 0)"/>
      <use xlink:href="#DejaVuSans-73" transform="translate(552.490234 0)"/>
     </g>
    </g>
    <g id="line2d_36">
     <path d="M 376.826755 295.528149 
L 388.826755 295.528149 
L 400.826755 295.528149 
" style="fill: none; stroke: #000000; stroke-width: 1.5; stroke-linecap: square"/>
    </g>
    <g id="text_20">
     <!-- State Expectation Value -->
     <g transform="translate(410.426755 299.728149) scale(0.12 -0.12)">
      <defs>
       <path id="DejaVuSans-74" d="M 1172 4494 
L 1172 3500 
L 2356 3500 
L 2356 3053 
L 1172 3053 
L 1172 1153 
Q 1172 725 1289 603 
Q 1406 481 1766 481 
L 2356 481 
L 2356 0 
L 1766 0 
Q 1100 0 847 248 
Q 594 497 594 1153 
L 594 3053 
L 172 3053 
L 172 3500 
L 594 3500 
L 594 4494 
L 1172 4494 
z
" transform="scale(0.015625)"/>
       <path id="DejaVuSans-78" d="M 3513 3500 
L 2247 1797 
L 3578 0 
L 2900 0 
L 1881 1375 
L 863 0 
L 184 0 
L 1544 1831 
L 300 3500 
L 978 3500 
L 1906 2253 
L 2834 3500 
L 3513 3500 
z
" transform="scale(0.015625)"/>
       <path id="DejaVuSans-70" d="M 1159 525 
L 1159 -1331 
L 581 -1331 
L 581 3500 
L 1159 3500 
L 1159 2969 
Q 1341 3281 1617 3432 
Q 1894 3584 2278 3584 
Q 2916 3584 3314 3078 
Q 3713 2572 3713 1747 
Q 3713 922 3314 415 
Q 2916 -91 2278 -91 
Q 1894 -91 1617 61 
Q 1341 213 1159 525 
z
M 3116 1747 
Q 3116 2381 2855 2742 
Q 2594 3103 2138 3103 
Q 1681 3103 1420 2742 
Q 1159 2381 1159 1747 
Q 1159 1113 1420 752 
Q 1681 391 2138 391 
Q 2594 391 2855 752 
Q 3116 1113 3116 1747 
z
" transform="scale(0.015625)"/>
       <path id="DejaVuSans-6f" d="M 1959 3097 
Q 1497 3097 1228 2736 
Q 959 2375 959 1747 
Q 959 1119 1226 758 
Q 1494 397 1959 397 
Q 2419 397 2687 759 
Q 2956 1122 2956 1747 
Q 2956 2369 2687 2733 
Q 2419 3097 1959 3097 
z
M 1959 3584 
Q 2709 3584 3137 3096 
Q 3566 2609 3566 1747 
Q 3566 888 3137 398 
Q 2709 -91 1959 -91 
Q 1206 -91 779 398 
Q 353 888 353 1747 
Q 353 2609 779 3096 
Q 1206 3584 1959 3584 
z
" transform="scale(0.015625)"/>
       <path id="DejaVuSans-56" d="M 1831 0 
L 50 4666 
L 709 4666 
L 2188 738 
L 3669 4666 
L 4325 4666 
L 2547 0 
L 1831 0 
z
" transform="scale(0.015625)"/>
      </defs>
      <use xlink:href="#DejaVuSans-53"/>
      <use xlink:href="#DejaVuSans-74" transform="translate(63.476562 0)"/>
      <use xlink:href="#DejaVuSans-61" transform="translate(102.685547 0)"/>
      <use xlink:href="#DejaVuSans-74" transform="translate(163.964844 0)"/>
      <use xlink:href="#DejaVuSans-65" transform="translate(203.173828 0)"/>
      <use xlink:href="#DejaVuSans-20" transform="translate(264.697266 0)"/>
      <use xlink:href="#DejaVuSans-45" transform="translate(296.484375 0)"/>
      <use xlink:href="#DejaVuSans-78" transform="translate(359.667969 0)"/>
      <use xlink:href="#DejaVuSans-70" transform="translate(418.847656 0)"/>
      <use xlink:href="#DejaVuSans-65" transform="translate(482.324219 0)"/>
      <use xlink:href="#DejaVuSans-63" transform="translate(543.847656 0)"/>
      <use xlink:href="#DejaVuSans-74" transform="translate(598.828125 0)"/>
      <use xlink:href="#DejaVuSans-61" transform="translate(638.037109 0)"/>
      <use xlink:href="#DejaVuSans-74" transform="translate(699.316406 0)"/>
      <use xlink:href="#DejaVuSans-69" transform="translate(738.525391 0)"/>
      <use xlink:href="#DejaVuSans-6f" transform="translate(766.308594 0)"/>
      <use xlink:href="#DejaVuSans-6e" transform="translate(827.490234 0)"/>
      <use xlink:href="#DejaVuSans-20" transform="translate(890.869141 0)"/>
      <use xlink:href="#DejaVuSans-56" transform="translate(922.65625 0)"/>
      <use xlink:href="#DejaVuSans-61" transform="translate(983.314453 0)"/>
      <use xlink:href="#DejaVuSans-6c" transform="translate(1044.59375 0)"/>
      <use xlink:href="#DejaVuSans-75" transform="translate(1072.376953 0)"/>
      <use xlink:href="#DejaVuSans-65" transform="translate(1135.755859 0)"/>
     </g>
    </g>
   </g>
   <g id="line2d_37">
    <path d="M 87.174981 300.125411 
L 91.817618 298.809275 
L 96.460256 297.493458 
L 101.102893 296.178733 
L 105.745531 294.866257 
L 110.388168 293.557394 
L 115.030806 292.253526 
L 119.673443 290.955862 
L 124.316081 289.665291 
L 128.958718 288.382279 
L 133.601356 287.106839 
L 138.243993 285.838566 
L 142.886631 284.576716 
L 147.529268 283.320341 
L 152.171906 282.068432 
L 156.814543 280.82007 
L 161.457181 279.574555 
L 166.099818 278.331503 
L 170.742456 277.090906 
L 175.385093 275.85314 
L 180.027731 274.618933 
L 184.670368 273.389299 
L 189.313006 272.165447 
L 193.955643 270.948668 
L 198.598281 269.740229 
L 203.240918 268.541274 
L 207.883556 267.352745 
L 212.526193 266.17532 
L 217.168831 265.009394 
L 221.811468 263.855076 
L 226.454106 262.712218 
L 231.096743 261.580465 
L 235.739381 260.459321 
L 240.382018 259.348221 
L 245.024656 258.246613 
L 249.667293 257.154024 
L 254.309931 256.070127 
L 258.952568 254.994792 
L 263.595206 253.928114 
L 268.237843 252.870434 
L 272.880481 251.822342 
L 277.523118 250.784651 
L 282.165756 249.758381 
L 286.808393 248.744711 
L 291.451031 247.74494 
L 296.093668 246.760435 
L 300.736306 245.792584 
L 305.378943 244.842751 
L 310.021581 243.912237 
L 314.664218 243.002241 
L 319.306856 242.113843 
L 323.949493 241.247982 
L 328.592131 240.405454 
L 333.234768 239.586908 
L 337.877406 238.79286 
L 342.520043 238.023708 
L 347.162681 237.279752 
L 351.805318 236.561219 
L 356.447956 235.868292 
L 361.090593 235.201138 
L 365.733231 234.559934 
L 370.375869 233.944895 
L 375.018506 233.356295 
L 379.661144 232.794489 
L 384.303781 232.259926 
L 388.946419 231.753162 
L 393.589056 231.274862 
L 398.231694 230.825803 
L 402.874331 230.406869 
L 407.516969 230.019043 
L 412.159606 229.66339 
L 416.802244 229.341043 
L 421.444881 229.053181 
L 426.087519 228.801007 
L 430.730156 228.585719 
L 435.372794 228.408486 
L 440.015431 228.270421 
L 444.658069 228.17255 
L 449.300706 228.11579 
L 453.943344 228.100917 
L 458.585981 228.12855 
L 463.228619 228.199124 
L 467.871256 228.312875 
L 472.513894 228.469828 
L 477.156531 228.669784 
L 481.799169 228.912317 
L 486.441806 229.196774 
L 491.084444 229.522283 
L 495.727081 229.887758 
L 500.369719 230.291922 
L 505.012356 230.733323 
L 509.654994 231.210366 
L 514.297631 231.721339 
L 518.940269 232.264451 
L 523.582906 232.837871 
L 528.225544 233.439765 
L 532.868181 234.068339 
L 537.510819 234.721881 
L 542.153456 235.398798 
" clip-path="url(#pd630c99437)" style="fill: none; stroke: #000000; stroke-width: 1.5; stroke-linecap: square"/>
   </g>
   <g id="patch_8">
    <path d="M 87.174981 270.999696 
Q 87.174981 284.561713 87.174981 297.005695 
" style="fill: none; stroke: #000000; stroke-linecap: round"/>
    <path d="M 88.294981 294.765695 
L 87.174981 297.005695 
L 86.054981 294.765695 
" style="fill: none; stroke: #000000; stroke-linecap: round"/>
   </g>
   <g id="text_21">
    <g id="patch_9">
     <path d="M 72.935668 268.999504 
L 101.414293 268.999504 
Q 102.534293 268.999504 102.534293 267.879504 
L 102.534293 262.459754 
Q 102.534293 261.339754 101.414293 261.339754 
L 72.935668 261.339754 
Q 71.815668 261.339754 71.815668 262.459754 
L 71.815668 267.879504 
Q 71.815668 268.999504 72.935668 268.999504 
z
" style="fill: #dcdcdc; opacity: 0.8"/>
    </g>
    <!-- 100.000% -->
    <g transform="translate(72.935668 266.714879) scale(0.056 -0.056)">
     <defs>
      <path id="DejaVuSans-25" d="M 4653 2053 
Q 4381 2053 4226 1822 
Q 4072 1591 4072 1178 
Q 4072 772 4226 539 
Q 4381 306 4653 306 
Q 4919 306 5073 539 
Q 5228 772 5228 1178 
Q 5228 1588 5073 1820 
Q 4919 2053 4653 2053 
z
M 4653 2450 
Q 5147 2450 5437 2106 
Q 5728 1763 5728 1178 
Q 5728 594 5436 251 
Q 5144 -91 4653 -91 
Q 4153 -91 3862 251 
Q 3572 594 3572 1178 
Q 3572 1766 3864 2108 
Q 4156 2450 4653 2450 
z
M 1428 4353 
Q 1159 4353 1004 4120 
Q 850 3888 850 3481 
Q 850 3069 1003 2837 
Q 1156 2606 1428 2606 
Q 1700 2606 1854 2837 
Q 2009 3069 2009 3481 
Q 2009 3884 1853 4118 
Q 1697 4353 1428 4353 
z
M 4250 4750 
L 4750 4750 
L 1831 -91 
L 1331 -91 
L 4250 4750 
z
M 1428 4750 
Q 1922 4750 2215 4408 
Q 2509 4066 2509 3481 
Q 2509 2891 2217 2550 
Q 1925 2209 1428 2209 
Q 931 2209 642 2551 
Q 353 2894 353 3481 
Q 353 4063 643 4406 
Q 934 4750 1428 4750 
z
" transform="scale(0.015625)"/>
     </defs>
     <use xlink:href="#DejaVuSans-31"/>
     <use xlink:href="#DejaVuSans-30" transform="translate(63.623047 0)"/>
     <use xlink:href="#DejaVuSans-30" transform="translate(127.246094 0)"/>
     <use xlink:href="#DejaVuSans-2e" transform="translate(190.869141 0)"/>
     <use xlink:href="#DejaVuSans-30" transform="translate(222.65625 0)"/>
     <use xlink:href="#DejaVuSans-30" transform="translate(286.279297 0)"/>
     <use xlink:href="#DejaVuSans-30" transform="translate(349.902344 0)"/>
     <use xlink:href="#DejaVuSans-25" transform="translate(413.525391 0)"/>
    </g>
   </g>
   <g id="patch_10">
    <path d="M 138.243993 256.750528 
Q 138.243993 270.312545 138.243993 282.756528 
" style="fill: none; stroke: #000000; stroke-linecap: round"/>
    <path d="M 139.363993 280.516528 
L 138.243993 282.756528 
L 137.123993 280.516528 
" style="fill: none; stroke: #000000; stroke-linecap: round"/>
   </g>
   <g id="text_22">
    <g id="patch_11">
     <path d="M 125.786181 254.750336 
L 150.701806 254.750336 
Q 151.821806 254.750336 151.821806 253.630336 
L 151.821806 248.210586 
Q 151.821806 247.090586 150.701806 247.090586 
L 125.786181 247.090586 
Q 124.666181 247.090586 124.666181 248.210586 
L 124.666181 253.630336 
Q 124.666181 254.750336 125.786181 254.750336 
z
" style="fill: #dcdcdc; opacity: 0.8"/>
    </g>
    <!-- 99.984% -->
    <g transform="translate(125.786181 252.465711) scale(0.056 -0.056)">
     <defs>
      <path id="DejaVuSans-39" d="M 703 97 
L 703 672 
Q 941 559 1184 500 
Q 1428 441 1663 441 
Q 2288 441 2617 861 
Q 2947 1281 2994 2138 
Q 2813 1869 2534 1725 
Q 2256 1581 1919 1581 
Q 1219 1581 811 2004 
Q 403 2428 403 3163 
Q 403 3881 828 4315 
Q 1253 4750 1959 4750 
Q 2769 4750 3195 4129 
Q 3622 3509 3622 2328 
Q 3622 1225 3098 567 
Q 2575 -91 1691 -91 
Q 1453 -91 1209 -44 
Q 966 3 703 97 
z
M 1959 2075 
Q 2384 2075 2632 2365 
Q 2881 2656 2881 3163 
Q 2881 3666 2632 3958 
Q 2384 4250 1959 4250 
Q 1534 4250 1286 3958 
Q 1038 3666 1038 3163 
Q 1038 2656 1286 2365 
Q 1534 2075 1959 2075 
z
" transform="scale(0.015625)"/>
     </defs>
     <use xlink:href="#DejaVuSans-39"/>
     <use xlink:href="#DejaVuSans-39" transform="translate(63.623047 0)"/>
     <use xlink:href="#DejaVuSans-2e" transform="translate(127.246094 0)"/>
     <use xlink:href="#DejaVuSans-39" transform="translate(159.033203 0)"/>
     <use xlink:href="#DejaVuSans-38" transform="translate(222.65625 0)"/>
     <use xlink:href="#DejaVuSans-34" transform="translate(286.279297 0)"/>
     <use xlink:href="#DejaVuSans-25" transform="translate(349.902344 0)"/>
    </g>
   </g>
   <g id="patch_12">
    <path d="M 138.243993 27.281604 
Q 138.243993 40.84362 138.243993 53.287603 
" style="fill: none; stroke: #000000; stroke-linecap: round"/>
    <path d="M 139.363993 51.047603 
L 138.243993 53.287603 
L 137.123993 51.047603 
" style="fill: none; stroke: #000000; stroke-linecap: round"/>
   </g>
   <g id="text_23">
    <g id="patch_13">
     <path d="M 127.567681 25.281411 
L 148.920306 25.281411 
Q 150.040306 25.281411 150.040306 24.161411 
L 150.040306 18.741661 
Q 150.040306 17.621661 148.920306 17.621661 
L 127.567681 17.621661 
Q 126.447681 17.621661 126.447681 18.741661 
L 126.447681 24.161411 
Q 126.447681 25.281411 127.567681 25.281411 
z
" style="fill: #dcdcdc; opacity: 0.8"/>
    </g>
    <!-- 0.016% -->
    <g transform="translate(127.567681 22.996786) scale(0.056 -0.056)">
     <use xlink:href="#DejaVuSans-30"/>
     <use xlink:href="#DejaVuSans-2e" transform="translate(63.623047 0)"/>
     <use xlink:href="#DejaVuSans-30" transform="translate(95.410156 0)"/>
     <use xlink:href="#DejaVuSans-31" transform="translate(159.033203 0)"/>
     <use xlink:href="#DejaVuSans-36" transform="translate(222.65625 0)"/>
     <use xlink:href="#DejaVuSans-25" transform="translate(286.279297 0)"/>
    </g>
   </g>
   <g id="patch_14">
    <path d="M 189.313006 243.086489 
Q 189.313006 256.648506 189.313006 269.092488 
" style="fill: none; stroke: #000000; stroke-linecap: round"/>
    <path d="M 190.433006 266.852488 
L 189.313006 269.092488 
L 188.193006 266.852488 
" style="fill: none; stroke: #000000; stroke-linecap: round"/>
   </g>
   <g id="text_24">
    <g id="patch_15">
     <path d="M 176.855193 241.086297 
L 201.770818 241.086297 
Q 202.890818 241.086297 202.890818 239.966297 
L 202.890818 234.546547 
Q 202.890818 233.426547 201.770818 233.426547 
L 176.855193 233.426547 
Q 175.735193 233.426547 175.735193 234.546547 
L 175.735193 239.966297 
Q 175.735193 241.086297 176.855193 241.086297 
z
" style="fill: #dcdcdc; opacity: 0.8"/>
    </g>
    <!-- 99.977% -->
    <g transform="translate(176.855193 238.801672) scale(0.056 -0.056)">
     <defs>
      <path id="DejaVuSans-37" d="M 525 4666 
L 3525 4666 
L 3525 4397 
L 1831 0 
L 1172 0 
L 2766 4134 
L 525 4134 
L 525 4666 
z
" transform="scale(0.015625)"/>
     </defs>
     <use xlink:href="#DejaVuSans-39"/>
     <use xlink:href="#DejaVuSans-39" transform="translate(63.623047 0)"/>
     <use xlink:href="#DejaVuSans-2e" transform="translate(127.246094 0)"/>
     <use xlink:href="#DejaVuSans-39" transform="translate(159.033203 0)"/>
     <use xlink:href="#DejaVuSans-37" transform="translate(222.65625 0)"/>
     <use xlink:href="#DejaVuSans-37" transform="translate(286.279297 0)"/>
     <use xlink:href="#DejaVuSans-25" transform="translate(349.902344 0)"/>
    </g>
   </g>
   <g id="patch_16">
    <path d="M 189.313006 40.945643 
Q 189.313006 54.50766 189.313006 66.951642 
" style="fill: none; stroke: #000000; stroke-linecap: round"/>
    <path d="M 190.433006 64.711642 
L 189.313006 66.951642 
L 188.193006 64.711642 
" style="fill: none; stroke: #000000; stroke-linecap: round"/>
   </g>
   <g id="text_25">
    <g id="patch_17">
     <path d="M 178.636693 38.945451 
L 199.989318 38.945451 
Q 201.109318 38.945451 201.109318 37.825451 
L 201.109318 32.405701 
Q 201.109318 31.285701 199.989318 31.285701 
L 178.636693 31.285701 
Q 177.516693 31.285701 177.516693 32.405701 
L 177.516693 37.825451 
Q 177.516693 38.945451 178.636693 38.945451 
z
" style="fill: #dcdcdc; opacity: 0.8"/>
    </g>
    <!-- 0.023% -->
    <g transform="translate(178.636693 36.660826) scale(0.056 -0.056)">
     <defs>
      <path id="DejaVuSans-33" d="M 2597 2516 
Q 3050 2419 3304 2112 
Q 3559 1806 3559 1356 
Q 3559 666 3084 287 
Q 2609 -91 1734 -91 
Q 1441 -91 1130 -33 
Q 819 25 488 141 
L 488 750 
Q 750 597 1062 519 
Q 1375 441 1716 441 
Q 2309 441 2620 675 
Q 2931 909 2931 1356 
Q 2931 1769 2642 2001 
Q 2353 2234 1838 2234 
L 1294 2234 
L 1294 2753 
L 1863 2753 
Q 2328 2753 2575 2939 
Q 2822 3125 2822 3475 
Q 2822 3834 2567 4026 
Q 2313 4219 1838 4219 
Q 1578 4219 1281 4162 
Q 984 4106 628 3988 
L 628 4550 
Q 988 4650 1302 4700 
Q 1616 4750 1894 4750 
Q 2613 4750 3031 4423 
Q 3450 4097 3450 3541 
Q 3450 3153 3228 2886 
Q 3006 2619 2597 2516 
z
" transform="scale(0.015625)"/>
     </defs>
     <use xlink:href="#DejaVuSans-30"/>
     <use xlink:href="#DejaVuSans-2e" transform="translate(63.623047 0)"/>
     <use xlink:href="#DejaVuSans-30" transform="translate(95.410156 0)"/>
     <use xlink:href="#DejaVuSans-32" transform="translate(159.033203 0)"/>
     <use xlink:href="#DejaVuSans-33" transform="translate(222.65625 0)"/>
     <use xlink:href="#DejaVuSans-25" transform="translate(286.279297 0)"/>
    </g>
   </g>
   <g id="patch_18">
    <path d="M 240.382018 230.279747 
Q 240.382018 243.841763 240.382018 256.285746 
" style="fill: none; stroke: #000000; stroke-linecap: round"/>
    <path d="M 241.502018 254.045746 
L 240.382018 256.285746 
L 239.262018 254.045746 
" style="fill: none; stroke: #000000; stroke-linecap: round"/>
   </g>
   <g id="text_26">
    <g id="patch_19">
     <path d="M 227.924206 228.279554 
L 252.839831 228.279554 
Q 253.959831 228.279554 253.959831 227.159554 
L 253.959831 221.739804 
Q 253.959831 220.619804 252.839831 220.619804 
L 227.924206 220.619804 
Q 226.804206 220.619804 226.804206 221.739804 
L 226.804206 227.159554 
Q 226.804206 228.279554 227.924206 228.279554 
z
" style="fill: #dcdcdc; opacity: 0.8"/>
    </g>
    <!-- 99.968% -->
    <g transform="translate(227.924206 225.994929) scale(0.056 -0.056)">
     <use xlink:href="#DejaVuSans-39"/>
     <use xlink:href="#DejaVuSans-39" transform="translate(63.623047 0)"/>
     <use xlink:href="#DejaVuSans-2e" transform="translate(127.246094 0)"/>
     <use xlink:href="#DejaVuSans-39" transform="translate(159.033203 0)"/>
     <use xlink:href="#DejaVuSans-36" transform="translate(222.65625 0)"/>
     <use xlink:href="#DejaVuSans-38" transform="translate(286.279297 0)"/>
     <use xlink:href="#DejaVuSans-25" transform="translate(349.902344 0)"/>
    </g>
   </g>
   <g id="patch_20">
    <path d="M 240.382018 53.752385 
Q 240.382018 67.314402 240.382018 79.758385 
" style="fill: none; stroke: #000000; stroke-linecap: round"/>
    <path d="M 241.502018 77.518385 
L 240.382018 79.758385 
L 239.262018 77.518385 
" style="fill: none; stroke: #000000; stroke-linecap: round"/>
   </g>
   <g id="text_27">
    <g id="patch_21">
     <path d="M 229.705706 51.752193 
L 251.058331 51.752193 
Q 252.178331 51.752193 252.178331 50.632193 
L 252.178331 45.212443 
Q 252.178331 44.092443 251.058331 44.092443 
L 229.705706 44.092443 
Q 228.585706 44.092443 228.585706 45.212443 
L 228.585706 50.632193 
Q 228.585706 51.752193 229.705706 51.752193 
z
" style="fill: #dcdcdc; opacity: 0.8"/>
    </g>
    <!-- 0.032% -->
    <g transform="translate(229.705706 49.467568) scale(0.056 -0.056)">
     <use xlink:href="#DejaVuSans-30"/>
     <use xlink:href="#DejaVuSans-2e" transform="translate(63.623047 0)"/>
     <use xlink:href="#DejaVuSans-30" transform="translate(95.410156 0)"/>
     <use xlink:href="#DejaVuSans-33" transform="translate(159.033203 0)"/>
     <use xlink:href="#DejaVuSans-32" transform="translate(222.65625 0)"/>
     <use xlink:href="#DejaVuSans-25" transform="translate(286.279297 0)"/>
    </g>
   </g>
   <g id="patch_22">
    <path d="M 291.451031 218.760693 
Q 291.451031 232.322709 291.451031 244.766692 
" style="fill: none; stroke: #000000; stroke-linecap: round"/>
    <path d="M 292.571031 242.526692 
L 291.451031 244.766692 
L 290.331031 242.526692 
" style="fill: none; stroke: #000000; stroke-linecap: round"/>
   </g>
   <g id="text_28">
    <g id="patch_23">
     <path d="M 278.993218 216.7605 
L 303.908843 216.7605 
Q 305.028843 216.7605 305.028843 215.6405 
L 305.028843 210.22075 
Q 305.028843 209.10075 303.908843 209.10075 
L 278.993218 209.10075 
Q 277.873218 209.10075 277.873218 210.22075 
L 277.873218 215.6405 
Q 277.873218 216.7605 278.993218 216.7605 
z
" style="fill: #dcdcdc; opacity: 0.8"/>
    </g>
    <!-- 99.908% -->
    <g transform="translate(278.993218 214.475875) scale(0.056 -0.056)">
     <use xlink:href="#DejaVuSans-39"/>
     <use xlink:href="#DejaVuSans-39" transform="translate(63.623047 0)"/>
     <use xlink:href="#DejaVuSans-2e" transform="translate(127.246094 0)"/>
     <use xlink:href="#DejaVuSans-39" transform="translate(159.033203 0)"/>
     <use xlink:href="#DejaVuSans-30" transform="translate(222.65625 0)"/>
     <use xlink:href="#DejaVuSans-38" transform="translate(286.279297 0)"/>
     <use xlink:href="#DejaVuSans-25" transform="translate(349.902344 0)"/>
    </g>
   </g>
   <g id="patch_24">
    <path d="M 291.451031 65.27144 
Q 291.451031 78.833456 291.451031 91.277439 
" style="fill: none; stroke: #000000; stroke-linecap: round"/>
    <path d="M 292.571031 89.037439 
L 291.451031 91.277439 
L 290.331031 89.037439 
" style="fill: none; stroke: #000000; stroke-linecap: round"/>
   </g>
   <g id="text_29">
    <g id="patch_25">
     <path d="M 280.774718 63.271247 
L 302.127343 63.271247 
Q 303.247343 63.271247 303.247343 62.151247 
L 303.247343 56.731497 
Q 303.247343 55.611497 302.127343 55.611497 
L 280.774718 55.611497 
Q 279.654718 55.611497 279.654718 56.731497 
L 279.654718 62.151247 
Q 279.654718 63.271247 280.774718 63.271247 
z
" style="fill: #dcdcdc; opacity: 0.8"/>
    </g>
    <!-- 0.092% -->
    <g transform="translate(280.774718 60.986622) scale(0.056 -0.056)">
     <use xlink:href="#DejaVuSans-30"/>
     <use xlink:href="#DejaVuSans-2e" transform="translate(63.623047 0)"/>
     <use xlink:href="#DejaVuSans-30" transform="translate(95.410156 0)"/>
     <use xlink:href="#DejaVuSans-39" transform="translate(159.033203 0)"/>
     <use xlink:href="#DejaVuSans-32" transform="translate(222.65625 0)"/>
     <use xlink:href="#DejaVuSans-25" transform="translate(286.279297 0)"/>
    </g>
   </g>
   <g id="patch_26">
    <path d="M 342.520043 209.195018 
Q 342.520043 222.757034 342.520043 235.201017 
" style="fill: none; stroke: #000000; stroke-linecap: round"/>
    <path d="M 343.640043 232.961017 
L 342.520043 235.201017 
L 341.400043 232.961017 
" style="fill: none; stroke: #000000; stroke-linecap: round"/>
   </g>
   <g id="text_30">
    <g id="patch_27">
     <path d="M 330.062231 207.194825 
L 354.977856 207.194825 
Q 356.097856 207.194825 356.097856 206.074825 
L 356.097856 200.655075 
Q 356.097856 199.535075 354.977856 199.535075 
L 330.062231 199.535075 
Q 328.942231 199.535075 328.942231 200.655075 
L 328.942231 206.074825 
Q 328.942231 207.194825 330.062231 207.194825 
z
" style="fill: #dcdcdc; opacity: 0.8"/>
    </g>
    <!-- 99.779% -->
    <g transform="translate(330.062231 204.9102) scale(0.056 -0.056)">
     <use xlink:href="#DejaVuSans-39"/>
     <use xlink:href="#DejaVuSans-39" transform="translate(63.623047 0)"/>
     <use xlink:href="#DejaVuSans-2e" transform="translate(127.246094 0)"/>
     <use xlink:href="#DejaVuSans-37" transform="translate(159.033203 0)"/>
     <use xlink:href="#DejaVuSans-37" transform="translate(222.65625 0)"/>
     <use xlink:href="#DejaVuSans-39" transform="translate(286.279297 0)"/>
     <use xlink:href="#DejaVuSans-25" transform="translate(349.902344 0)"/>
    </g>
   </g>
   <g id="patch_28">
    <path d="M 342.520043 74.837115 
Q 342.520043 88.399131 342.520043 100.843114 
" style="fill: none; stroke: #000000; stroke-linecap: round"/>
    <path d="M 343.640043 98.603114 
L 342.520043 100.843114 
L 341.400043 98.603114 
" style="fill: none; stroke: #000000; stroke-linecap: round"/>
   </g>
   <g id="text_31">
    <g id="patch_29">
     <path d="M 331.843731 72.836922 
L 353.196356 72.836922 
Q 354.316356 72.836922 354.316356 71.716922 
L 354.316356 66.297172 
Q 354.316356 65.177172 353.196356 65.177172 
L 331.843731 65.177172 
Q 330.723731 65.177172 330.723731 66.297172 
L 330.723731 71.716922 
Q 330.723731 72.836922 331.843731 72.836922 
z
" style="fill: #dcdcdc; opacity: 0.8"/>
    </g>
    <!-- 0.221% -->
    <g transform="translate(331.843731 70.552297) scale(0.056 -0.056)">
     <use xlink:href="#DejaVuSans-30"/>
     <use xlink:href="#DejaVuSans-2e" transform="translate(63.623047 0)"/>
     <use xlink:href="#DejaVuSans-32" transform="translate(95.410156 0)"/>
     <use xlink:href="#DejaVuSans-32" transform="translate(159.033203 0)"/>
     <use xlink:href="#DejaVuSans-31" transform="translate(222.65625 0)"/>
     <use xlink:href="#DejaVuSans-25" transform="translate(286.279297 0)"/>
    </g>
   </g>
   <g id="patch_30">
    <path d="M 393.589056 202.516469 
Q 393.589056 216.078486 393.589056 228.522468 
" style="fill: none; stroke: #000000; stroke-linecap: round"/>
    <path d="M 394.709056 226.282468 
L 393.589056 228.522468 
L 392.469056 226.282468 
" style="fill: none; stroke: #000000; stroke-linecap: round"/>
   </g>
   <g id="text_32">
    <g id="patch_31">
     <path d="M 381.131244 200.516277 
L 406.046869 200.516277 
Q 407.166869 200.516277 407.166869 199.396277 
L 407.166869 193.976527 
Q 407.166869 192.856527 406.046869 192.856527 
L 381.131244 192.856527 
Q 380.011244 192.856527 380.011244 193.976527 
L 380.011244 199.396277 
Q 380.011244 200.516277 381.131244 200.516277 
z
" style="fill: #dcdcdc; opacity: 0.8"/>
    </g>
    <!-- 99.696% -->
    <g transform="translate(381.131244 198.231652) scale(0.056 -0.056)">
     <use xlink:href="#DejaVuSans-39"/>
     <use xlink:href="#DejaVuSans-39" transform="translate(63.623047 0)"/>
     <use xlink:href="#DejaVuSans-2e" transform="translate(127.246094 0)"/>
     <use xlink:href="#DejaVuSans-36" transform="translate(159.033203 0)"/>
     <use xlink:href="#DejaVuSans-39" transform="translate(222.65625 0)"/>
     <use xlink:href="#DejaVuSans-36" transform="translate(286.279297 0)"/>
     <use xlink:href="#DejaVuSans-25" transform="translate(349.902344 0)"/>
    </g>
   </g>
   <g id="patch_32">
    <path d="M 393.589056 81.515663 
Q 393.589056 95.07768 393.589056 107.521662 
" style="fill: none; stroke: #000000; stroke-linecap: round"/>
    <path d="M 394.709056 105.281662 
L 393.589056 107.521662 
L 392.469056 105.281662 
" style="fill: none; stroke: #000000; stroke-linecap: round"/>
   </g>
   <g id="text_33">
    <g id="patch_33">
     <path d="M 382.912744 79.515471 
L 404.265369 79.515471 
Q 405.385369 79.515471 405.385369 78.395471 
L 405.385369 72.975721 
Q 405.385369 71.855721 404.265369 71.855721 
L 382.912744 71.855721 
Q 381.792744 71.855721 381.792744 72.975721 
L 381.792744 78.395471 
Q 381.792744 79.515471 382.912744 79.515471 
z
" style="fill: #dcdcdc; opacity: 0.8"/>
    </g>
    <!-- 0.304% -->
    <g transform="translate(382.912744 77.230846) scale(0.056 -0.056)">
     <use xlink:href="#DejaVuSans-30"/>
     <use xlink:href="#DejaVuSans-2e" transform="translate(63.623047 0)"/>
     <use xlink:href="#DejaVuSans-33" transform="translate(95.410156 0)"/>
     <use xlink:href="#DejaVuSans-30" transform="translate(159.033203 0)"/>
     <use xlink:href="#DejaVuSans-34" transform="translate(222.65625 0)"/>
     <use xlink:href="#DejaVuSans-25" transform="translate(286.279297 0)"/>
    </g>
   </g>
   <g id="patch_34">
    <path d="M 444.658069 199.736075 
Q 444.658069 213.298092 444.658069 225.742074 
" style="fill: none; stroke: #000000; stroke-linecap: round"/>
    <path d="M 445.778069 223.502074 
L 444.658069 225.742074 
L 443.538069 223.502074 
" style="fill: none; stroke: #000000; stroke-linecap: round"/>
   </g>
   <g id="text_34">
    <g id="patch_35">
     <path d="M 432.200256 197.735883 
L 457.115881 197.735883 
Q 458.235881 197.735883 458.235881 196.615883 
L 458.235881 191.196133 
Q 458.235881 190.076133 457.115881 190.076133 
L 432.200256 190.076133 
Q 431.080256 190.076133 431.080256 191.196133 
L 431.080256 196.615883 
Q 431.080256 197.735883 432.200256 197.735883 
z
" style="fill: #dcdcdc; opacity: 0.8"/>
    </g>
    <!-- 99.403% -->
    <g transform="translate(432.200256 195.451258) scale(0.056 -0.056)">
     <use xlink:href="#DejaVuSans-39"/>
     <use xlink:href="#DejaVuSans-39" transform="translate(63.623047 0)"/>
     <use xlink:href="#DejaVuSans-2e" transform="translate(127.246094 0)"/>
     <use xlink:href="#DejaVuSans-34" transform="translate(159.033203 0)"/>
     <use xlink:href="#DejaVuSans-30" transform="translate(222.65625 0)"/>
     <use xlink:href="#DejaVuSans-33" transform="translate(286.279297 0)"/>
     <use xlink:href="#DejaVuSans-25" transform="translate(349.902344 0)"/>
    </g>
   </g>
   <g id="patch_36">
    <path d="M 444.658069 84.296057 
Q 444.658069 97.858074 444.658069 110.302056 
" style="fill: none; stroke: #000000; stroke-linecap: round"/>
    <path d="M 445.778069 108.062056 
L 444.658069 110.302056 
L 443.538069 108.062056 
" style="fill: none; stroke: #000000; stroke-linecap: round"/>
   </g>
   <g id="text_35">
    <g id="patch_37">
     <path d="M 433.981756 82.295865 
L 455.334381 82.295865 
Q 456.454381 82.295865 456.454381 81.175865 
L 456.454381 75.756115 
Q 456.454381 74.636115 455.334381 74.636115 
L 433.981756 74.636115 
Q 432.861756 74.636115 432.861756 75.756115 
L 432.861756 81.175865 
Q 432.861756 82.295865 433.981756 82.295865 
z
" style="fill: #dcdcdc; opacity: 0.8"/>
    </g>
    <!-- 0.597% -->
    <g transform="translate(433.981756 80.01124) scale(0.056 -0.056)">
     <use xlink:href="#DejaVuSans-30"/>
     <use xlink:href="#DejaVuSans-2e" transform="translate(63.623047 0)"/>
     <use xlink:href="#DejaVuSans-35" transform="translate(95.410156 0)"/>
     <use xlink:href="#DejaVuSans-39" transform="translate(159.033203 0)"/>
     <use xlink:href="#DejaVuSans-37" transform="translate(222.65625 0)"/>
     <use xlink:href="#DejaVuSans-25" transform="translate(286.279297 0)"/>
    </g>
   </g>
   <g id="patch_38">
    <path d="M 495.727081 201.403889 
Q 495.727081 214.965906 495.727081 227.409888 
" style="fill: none; stroke: #000000; stroke-linecap: round"/>
    <path d="M 496.847081 225.169888 
L 495.727081 227.409888 
L 494.607081 225.169888 
" style="fill: none; stroke: #000000; stroke-linecap: round"/>
   </g>
   <g id="text_36">
    <g id="patch_39">
     <path d="M 483.269269 199.403697 
L 508.184894 199.403697 
Q 509.304894 199.403697 509.304894 198.283697 
L 509.304894 192.863947 
Q 509.304894 191.743947 508.184894 191.743947 
L 483.269269 191.743947 
Q 482.149269 191.743947 482.149269 192.863947 
L 482.149269 198.283697 
Q 482.149269 199.403697 483.269269 199.403697 
z
" style="fill: #dcdcdc; opacity: 0.8"/>
    </g>
    <!-- 99.460% -->
    <g transform="translate(483.269269 197.119072) scale(0.056 -0.056)">
     <use xlink:href="#DejaVuSans-39"/>
     <use xlink:href="#DejaVuSans-39" transform="translate(63.623047 0)"/>
     <use xlink:href="#DejaVuSans-2e" transform="translate(127.246094 0)"/>
     <use xlink:href="#DejaVuSans-34" transform="translate(159.033203 0)"/>
     <use xlink:href="#DejaVuSans-36" transform="translate(222.65625 0)"/>
     <use xlink:href="#DejaVuSans-30" transform="translate(286.279297 0)"/>
     <use xlink:href="#DejaVuSans-25" transform="translate(349.902344 0)"/>
    </g>
   </g>
   <g id="patch_40">
    <path d="M 495.727081 82.628243 
Q 495.727081 96.19026 495.727081 108.634242 
" style="fill: none; stroke: #000000; stroke-linecap: round"/>
    <path d="M 496.847081 106.394242 
L 495.727081 108.634242 
L 494.607081 106.394242 
" style="fill: none; stroke: #000000; stroke-linecap: round"/>
   </g>
   <g id="text_37">
    <g id="patch_41">
     <path d="M 485.050769 80.628051 
L 506.403394 80.628051 
Q 507.523394 80.628051 507.523394 79.508051 
L 507.523394 74.088301 
Q 507.523394 72.968301 506.403394 72.968301 
L 485.050769 72.968301 
Q 483.930769 72.968301 483.930769 74.088301 
L 483.930769 79.508051 
Q 483.930769 80.628051 485.050769 80.628051 
z
" style="fill: #dcdcdc; opacity: 0.8"/>
    </g>
    <!-- 0.540% -->
    <g transform="translate(485.050769 78.343426) scale(0.056 -0.056)">
     <use xlink:href="#DejaVuSans-30"/>
     <use xlink:href="#DejaVuSans-2e" transform="translate(63.623047 0)"/>
     <use xlink:href="#DejaVuSans-35" transform="translate(95.410156 0)"/>
     <use xlink:href="#DejaVuSans-34" transform="translate(159.033203 0)"/>
     <use xlink:href="#DejaVuSans-30" transform="translate(222.65625 0)"/>
     <use xlink:href="#DejaVuSans-25" transform="translate(286.279297 0)"/>
    </g>
   </g>
   <g id="patch_42">
    <path d="M 542.153456 206.507881 
Q 542.153456 220.069898 542.153456 232.51388 
" style="fill: none; stroke: #000000; stroke-linecap: round"/>
    <path d="M 543.273456 230.27388 
L 542.153456 232.51388 
L 541.033456 230.27388 
" style="fill: none; stroke: #000000; stroke-linecap: round"/>
   </g>
   <g id="text_38">
    <g id="patch_43">
     <path d="M 529.695644 204.507689 
L 554.611269 204.507689 
Q 555.731269 204.507689 555.731269 203.387689 
L 555.731269 197.967939 
Q 555.731269 196.847939 554.611269 196.847939 
L 529.695644 196.847939 
Q 528.575644 196.847939 528.575644 197.967939 
L 528.575644 203.387689 
Q 528.575644 204.507689 529.695644 204.507689 
z
" style="fill: #dcdcdc; opacity: 0.8"/>
    </g>
    <!-- 99.818% -->
    <g transform="translate(529.695644 202.223064) scale(0.056 -0.056)">
     <use xlink:href="#DejaVuSans-39"/>
     <use xlink:href="#DejaVuSans-39" transform="translate(63.623047 0)"/>
     <use xlink:href="#DejaVuSans-2e" transform="translate(127.246094 0)"/>
     <use xlink:href="#DejaVuSans-38" transform="translate(159.033203 0)"/>
     <use xlink:href="#DejaVuSans-31" transform="translate(222.65625 0)"/>
     <use xlink:href="#DejaVuSans-38" transform="translate(286.279297 0)"/>
     <use xlink:href="#DejaVuSans-25" transform="translate(349.902344 0)"/>
    </g>
   </g>
   <g id="patch_44">
    <path d="M 542.153456 77.524251 
Q 542.153456 91.086268 542.153456 103.53025 
" style="fill: none; stroke: #000000; stroke-linecap: round"/>
    <path d="M 543.273456 101.29025 
L 542.153456 103.53025 
L 541.033456 101.29025 
" style="fill: none; stroke: #000000; stroke-linecap: round"/>
   </g>
   <g id="text_39">
    <g id="patch_45">
     <path d="M 531.477144 75.524059 
L 552.829769 75.524059 
Q 553.949769 75.524059 553.949769 74.404059 
L 553.949769 68.984309 
Q 553.949769 67.864309 552.829769 67.864309 
L 531.477144 67.864309 
Q 530.357144 67.864309 530.357144 68.984309 
L 530.357144 74.404059 
Q 530.357144 75.524059 531.477144 75.524059 
z
" style="fill: #dcdcdc; opacity: 0.8"/>
    </g>
    <!-- 0.182% -->
    <g transform="translate(531.477144 73.239434) scale(0.056 -0.056)">
     <use xlink:href="#DejaVuSans-30"/>
     <use xlink:href="#DejaVuSans-2e" transform="translate(63.623047 0)"/>
     <use xlink:href="#DejaVuSans-31" transform="translate(95.410156 0)"/>
     <use xlink:href="#DejaVuSans-38" transform="translate(159.033203 0)"/>
     <use xlink:href="#DejaVuSans-32" transform="translate(222.65625 0)"/>
     <use xlink:href="#DejaVuSans-25" transform="translate(286.279297 0)"/>
    </g>
   </g>
  </g>
 </g>
 <defs>
  <clipPath id="pd630c99437">
   <rect x="64.426057" y="29.259788" width="500.476323" height="283.763986"/>
  </clipPath>
 </defs>
</svg>
