<?xml version="1.0" encoding="UTF-8" standalone="no"?>
<svg
   width="575.986677pt"
   height="359.901638pt"
   viewBox="0 0 575.986677 359.901638"
   version="1.1"
   id="svg90"
   sodipodi:docname="schedule_light.svg"
   inkscape:version="1.4.3 (0d15f75042, 2025-12-25)"
   xmlns:inkscape="http://www.inkscape.org/namespaces/inkscape"
   xmlns:sodipodi="http://sodipodi.sourceforge.net/DTD/sodipodi-0.dtd"
   xmlns:xlink="http://www.w3.org/1999/xlink"
   xmlns="http://www.w3.org/2000/svg"
   xmlns:svg="http://www.w3.org/2000/svg"
   xmlns:rdf="http://www.w3.org/1999/02/22-rdf-syntax-ns#"
   xmlns:cc="http://creativecommons.org/ns#"
   xmlns:dc="http://purl.org/dc/elements/1.1/">
  <sodipodi:namedview
     id="namedview90"
     pagecolor="#ffffff"
     bordercolor="#000000"
     borderopacity="0.25"
     inkscape:showpageshadow="2"
     inkscape:pageopacity="0.0"
     inkscape:pagecheckerboard="0"
     inkscape:deskcolor="#d1d1d1"
     inkscape:document-units="pt"
     inkscape:zoom="1.2304073"
     inkscape:cx="428.31344"
     inkscape:cy="285.67775"
     inkscape:window-width="1862"
     inkscape:window-height="1043"
     inkscape:window-x="1338"
     inkscape:window-y="0"
     inkscape:window-maximized="1"
     inkscape:current-layer="patch_2" />
  <metadata
     id="metadata1">
    <rdf:RDF>
      <cc:Work>
        <dc:type
           rdf:resource="http://purl.org/dc/dcmitype/StillImage" />
        <dc:date>2026-04-09T14:27:31.272490</dc:date>
        <dc:format>image/svg+xml</dc:format>
        <dc:creator>
          <cc:Agent>
            <dc:title>Matplotlib v3.10.8, https://matplotlib.org/</dc:title>
          </cc:Agent>
        </dc:creator>
      </cc:Work>
    </rdf:RDF>
  </metadata>
  <defs
     id="defs1">
    <style
       type="text/css"
       id="style1">*{stroke-linejoin: round; stroke-linecap: butt}</style>
  </defs>
  <g
     id="figure_1">
    <g
       id="patch_1" />
    <g
       id="axes_1">
      <g
         id="patch_2" />
      <g
         id="matplotlib.axis_1">
        <g
           id="xtick_1">
          <g
             id="line2d_1">
            <path
               d="M 77.597296 313.154414  L 77.597296 29.272  "
               clip-path="url(#p1cd30537b7)"
               style="fill: none; stroke-dasharray: 2.96,1.28; stroke-dashoffset: 0; stroke: #e0e0e0; stroke-opacity: 0.7; stroke-width: 0.8"
               id="path3" />
          </g>
          <g
             id="line2d_2">
            <defs
               id="defs3">
              <path
                 id="m20d1f17aae"
                 d="M 0 0  L 0 3.5  "
                 style="stroke: #000000; stroke-width: 0.8" />
            </defs>
            <g
               id="g3">
              <use
                 xlink:href="#m20d1f17aae"
                 x="77.597296"
                 y="313.154414"
                 style="stroke: #000000; stroke-width: 0.8"
                 id="use3" />
            </g>
          </g>
          <g
             id="text_1">
            <!-- 0 -->
            <g
               transform="translate(73.779796 329.272539) scale(0.12 -0.12)"
               id="g4">
              <defs
                 id="defs4">
                <path
                   id="DejaVuSans-30"
                   d="M 2034 4250  Q 1547 4250 1301 3770  Q 1056 3291 1056 2328  Q 1056 1369 1301 889  Q 1547 409 2034 409  Q 2525 409 2770 889  Q 3016 1369 3016 2328  Q 3016 3291 2770 3770  Q 2525 4250 2034 4250  z M 2034 4750  Q 2819 4750 3233 4129  Q 3647 3509 3647 2328  Q 3647 1150 3233 529  Q 2819 -91 2034 -91  Q 1250 -91 836 529  Q 422 1150 422 2328  Q 422 3509 836 4129  Q 1250 4750 2034 4750  z "
                   transform="scale(0.015625)" />
              </defs>
              <use
                 xlink:href="#DejaVuSans-30"
                 id="use4" />
            </g>
          </g>
        </g>
        <g
           id="xtick_2">
          <g
             id="line2d_3">
            <path
               d="M 170.471511 313.154414  L 170.471511 29.272  "
               clip-path="url(#p1cd30537b7)"
               style="fill: none; stroke-dasharray: 2.96,1.28; stroke-dashoffset: 0; stroke: #e0e0e0; stroke-opacity: 0.7; stroke-width: 0.8"
               id="path4" />
          </g>
          <g
             id="line2d_4">
            <g
               id="g5">
              <use
                 xlink:href="#m20d1f17aae"
                 x="170.471511"
                 y="313.154414"
                 style="stroke: #000000; stroke-width: 0.8"
                 id="use5" />
            </g>
          </g>
          <g
             id="text_2">
            <!-- 2 -->
            <g
               transform="translate(166.654011 329.272539) scale(0.12 -0.12)"
               id="g6">
              <defs
                 id="defs5">
                <path
                   id="DejaVuSans-32"
                   d="M 1228 531  L 3431 531  L 3431 0  L 469 0  L 469 531  Q 828 903 1448 1529  Q 2069 2156 2228 2338  Q 2531 2678 2651 2914  Q 2772 3150 2772 3378  Q 2772 3750 2511 3984  Q 2250 4219 1831 4219  Q 1534 4219 1204 4116  Q 875 4013 500 3803  L 500 4441  Q 881 4594 1212 4672  Q 1544 4750 1819 4750  Q 2544 4750 2975 4387  Q 3406 4025 3406 3419  Q 3406 3131 3298 2873  Q 3191 2616 2906 2266  Q 2828 2175 2409 1742  Q 1991 1309 1228 531  z "
                   transform="scale(0.015625)" />
              </defs>
              <use
                 xlink:href="#DejaVuSans-32"
                 id="use6" />
            </g>
          </g>
        </g>
        <g
           id="xtick_3">
          <g
             id="line2d_5">
            <path
               d="M 263.345727 313.154414  L 263.345727 29.272  "
               clip-path="url(#p1cd30537b7)"
               style="fill: none; stroke-dasharray: 2.96,1.28; stroke-dashoffset: 0; stroke: #e0e0e0; stroke-opacity: 0.7; stroke-width: 0.8"
               id="path6" />
          </g>
          <g
             id="line2d_6">
            <g
               id="g7">
              <use
                 xlink:href="#m20d1f17aae"
                 x="263.345727"
                 y="313.154414"
                 style="stroke: #000000; stroke-width: 0.8"
                 id="use7" />
            </g>
          </g>
          <g
             id="text_3">
            <!-- 4 -->
            <g
               transform="translate(259.528227 329.272539) scale(0.12 -0.12)"
               id="g8">
              <defs
                 id="defs7">
                <path
                   id="DejaVuSans-34"
                   d="M 2419 4116  L 825 1625  L 2419 1625  L 2419 4116  z M 2253 4666  L 3047 4666  L 3047 1625  L 3713 1625  L 3713 1100  L 3047 1100  L 3047 0  L 2419 0  L 2419 1100  L 313 1100  L 313 1709  L 2253 4666  z "
                   transform="scale(0.015625)" />
              </defs>
              <use
                 xlink:href="#DejaVuSans-34"
                 id="use8" />
            </g>
          </g>
        </g>
        <g
           id="xtick_4">
          <g
             id="line2d_7">
            <path
               d="M 356.219942 313.154414  L 356.219942 29.272  "
               clip-path="url(#p1cd30537b7)"
               style="fill: none; stroke-dasharray: 2.96,1.28; stroke-dashoffset: 0; stroke: #e0e0e0; stroke-opacity: 0.7; stroke-width: 0.8"
               id="path8" />
          </g>
          <g
             id="line2d_8">
            <g
               id="g9">
              <use
                 xlink:href="#m20d1f17aae"
                 x="356.219942"
                 y="313.154414"
                 style="stroke: #000000; stroke-width: 0.8"
                 id="use9" />
            </g>
          </g>
          <g
             id="text_4">
            <!-- 6 -->
            <g
               transform="translate(352.402442 329.272539) scale(0.12 -0.12)"
               id="g10">
              <defs
                 id="defs9">
                <path
                   id="DejaVuSans-36"
                   d="M 2113 2584  Q 1688 2584 1439 2293  Q 1191 2003 1191 1497  Q 1191 994 1439 701  Q 1688 409 2113 409  Q 2538 409 2786 701  Q 3034 994 3034 1497  Q 3034 2003 2786 2293  Q 2538 2584 2113 2584  z M 3366 4563  L 3366 3988  Q 3128 4100 2886 4159  Q 2644 4219 2406 4219  Q 1781 4219 1451 3797  Q 1122 3375 1075 2522  Q 1259 2794 1537 2939  Q 1816 3084 2150 3084  Q 2853 3084 3261 2657  Q 3669 2231 3669 1497  Q 3669 778 3244 343  Q 2819 -91 2113 -91  Q 1303 -91 875 529  Q 447 1150 447 2328  Q 447 3434 972 4092  Q 1497 4750 2381 4750  Q 2619 4750 2861 4703  Q 3103 4656 3366 4563  z "
                   transform="scale(0.015625)" />
              </defs>
              <use
                 xlink:href="#DejaVuSans-36"
                 id="use10" />
            </g>
          </g>
        </g>
        <g
           id="xtick_5">
          <g
             id="line2d_9">
            <path
               d="M 449.094158 313.154414  L 449.094158 29.272  "
               clip-path="url(#p1cd30537b7)"
               style="fill: none; stroke-dasharray: 2.96,1.28; stroke-dashoffset: 0; stroke: #e0e0e0; stroke-opacity: 0.7; stroke-width: 0.8"
               id="path10" />
          </g>
          <g
             id="line2d_10">
            <g
               id="g11">
              <use
                 xlink:href="#m20d1f17aae"
                 x="449.094158"
                 y="313.154414"
                 style="stroke: #000000; stroke-width: 0.8"
                 id="use11" />
            </g>
          </g>
          <g
             id="text_5">
            <!-- 8 -->
            <g
               transform="translate(445.276658 329.272539) scale(0.12 -0.12)"
               id="g12">
              <defs
                 id="defs11">
                <path
                   id="DejaVuSans-38"
                   d="M 2034 2216  Q 1584 2216 1326 1975  Q 1069 1734 1069 1313  Q 1069 891 1326 650  Q 1584 409 2034 409  Q 2484 409 2743 651  Q 3003 894 3003 1313  Q 3003 1734 2745 1975  Q 2488 2216 2034 2216  z M 1403 2484  Q 997 2584 770 2862  Q 544 3141 544 3541  Q 544 4100 942 4425  Q 1341 4750 2034 4750  Q 2731 4750 3128 4425  Q 3525 4100 3525 3541  Q 3525 3141 3298 2862  Q 3072 2584 2669 2484  Q 3125 2378 3379 2068  Q 3634 1759 3634 1313  Q 3634 634 3220 271  Q 2806 -91 2034 -91  Q 1263 -91 848 271  Q 434 634 434 1313  Q 434 1759 690 2068  Q 947 2378 1403 2484  z M 1172 3481  Q 1172 3119 1398 2916  Q 1625 2713 2034 2713  Q 2441 2713 2670 2916  Q 2900 3119 2900 3481  Q 2900 3844 2670 4047  Q 2441 4250 2034 4250  Q 1625 4250 1398 4047  Q 1172 3844 1172 3481  z "
                   transform="scale(0.015625)" />
              </defs>
              <use
                 xlink:href="#DejaVuSans-38"
                 id="use12" />
            </g>
          </g>
        </g>
        <g
           id="xtick_6">
          <g
             id="line2d_11">
            <path
               d="M 541.968373 313.154414  L 541.968373 29.272  "
               clip-path="url(#p1cd30537b7)"
               style="fill: none; stroke-dasharray: 2.96,1.28; stroke-dashoffset: 0; stroke: #e0e0e0; stroke-opacity: 0.7; stroke-width: 0.8"
               id="path12" />
          </g>
          <g
             id="line2d_12">
            <g
               id="g13">
              <use
                 xlink:href="#m20d1f17aae"
                 x="541.968373"
                 y="313.154414"
                 style="stroke: #000000; stroke-width: 0.8"
                 id="use13" />
            </g>
          </g>
          <g
             id="text_6">
            <!-- 10 -->
            <g
               transform="translate(534.333373 329.272539) scale(0.12 -0.12)"
               id="g15">
              <defs
                 id="defs13">
                <path
                   id="DejaVuSans-31"
                   d="M 794 531  L 1825 531  L 1825 4091  L 703 3866  L 703 4441  L 1819 4666  L 2450 4666  L 2450 531  L 3481 531  L 3481 0  L 794 0  L 794 531  z "
                   transform="scale(0.015625)" />
              </defs>
              <use
                 xlink:href="#DejaVuSans-31"
                 id="use14" />
              <use
                 xlink:href="#DejaVuSans-30"
                 transform="translate(63.623047 0)"
                 id="use15" />
            </g>
          </g>
        </g>
        <g
           id="text_7">
          <!-- time -->
          <g
             transform="translate(293.968303 346.405976) scale(0.14 -0.14)"
             id="g19">
            <defs
               id="defs15">
              <path
                 id="DejaVuSans-74"
                 d="M 1172 4494  L 1172 3500  L 2356 3500  L 2356 3053  L 1172 3053  L 1172 1153  Q 1172 725 1289 603  Q 1406 481 1766 481  L 2356 481  L 2356 0  L 1766 0  Q 1100 0 847 248  Q 594 497 594 1153  L 594 3053  L 172 3053  L 172 3500  L 594 3500  L 594 4494  L 1172 4494  z "
                 transform="scale(0.015625)" />
              <path
                 id="DejaVuSans-69"
                 d="M 603 3500  L 1178 3500  L 1178 0  L 603 0  L 603 3500  z M 603 4863  L 1178 4863  L 1178 4134  L 603 4134  L 603 4863  z "
                 transform="scale(0.015625)" />
              <path
                 id="DejaVuSans-6d"
                 d="M 3328 2828  Q 3544 3216 3844 3400  Q 4144 3584 4550 3584  Q 5097 3584 5394 3201  Q 5691 2819 5691 2113  L 5691 0  L 5113 0  L 5113 2094  Q 5113 2597 4934 2840  Q 4756 3084 4391 3084  Q 3944 3084 3684 2787  Q 3425 2491 3425 1978  L 3425 0  L 2847 0  L 2847 2094  Q 2847 2600 2669 2842  Q 2491 3084 2119 3084  Q 1678 3084 1418 2786  Q 1159 2488 1159 1978  L 1159 0  L 581 0  L 581 3500  L 1159 3500  L 1159 2956  Q 1356 3278 1631 3431  Q 1906 3584 2284 3584  Q 2666 3584 2933 3390  Q 3200 3197 3328 2828  z "
                 transform="scale(0.015625)" />
              <path
                 id="DejaVuSans-65"
                 d="M 3597 1894  L 3597 1613  L 953 1613  Q 991 1019 1311 708  Q 1631 397 2203 397  Q 2534 397 2845 478  Q 3156 559 3463 722  L 3463 178  Q 3153 47 2828 -22  Q 2503 -91 2169 -91  Q 1331 -91 842 396  Q 353 884 353 1716  Q 353 2575 817 3079  Q 1281 3584 2069 3584  Q 2775 3584 3186 3129  Q 3597 2675 3597 1894  z M 3022 2063  Q 3016 2534 2758 2815  Q 2500 3097 2075 3097  Q 1594 3097 1305 2825  Q 1016 2553 972 2059  L 3022 2063  z "
                 transform="scale(0.015625)" />
            </defs>
            <use
               xlink:href="#DejaVuSans-74"
               id="use16" />
            <use
               xlink:href="#DejaVuSans-69"
               transform="translate(39.208984 0)"
               id="use17" />
            <use
               xlink:href="#DejaVuSans-6d"
               transform="translate(66.992188 0)"
               id="use18" />
            <use
               xlink:href="#DejaVuSans-65"
               transform="translate(164.404297 0)"
               id="use19" />
          </g>
        </g>
      </g>
      <g
         id="matplotlib.axis_2">
        <g
           id="ytick_1">
          <g
             id="line2d_13">
            <path
               d="M 54.378742 300.250668  L 565.186927 300.250668  "
               clip-path="url(#p1cd30537b7)"
               style="fill: none; stroke-dasharray: 2.96,1.28; stroke-dashoffset: 0; stroke: #e0e0e0; stroke-opacity: 0.7; stroke-width: 0.8"
               id="path19" />
          </g>
          <g
             id="line2d_14">
            <defs
               id="defs19">
              <path
                 id="m6eb4b5aa20"
                 d="M 0 0  L -3.5 0  "
                 style="stroke: #000000; stroke-width: 0.8" />
            </defs>
            <g
               id="g20">
              <use
                 xlink:href="#m6eb4b5aa20"
                 x="54.378742"
                 y="300.250668"
                 style="stroke: #000000; stroke-width: 0.8"
                 id="use20" />
            </g>
          </g>
          <g
             id="text_8">
            <!-- 0.0 -->
            <g
               transform="translate(28.294992 304.80973) scale(0.12 -0.12)"
               id="g23">
              <defs
                 id="defs20">
                <path
                   id="DejaVuSans-2e"
                   d="M 684 794  L 1344 794  L 1344 0  L 684 0  L 684 794  z "
                   transform="scale(0.015625)" />
              </defs>
              <use
                 xlink:href="#DejaVuSans-30"
                 id="use21" />
              <use
                 xlink:href="#DejaVuSans-2e"
                 transform="translate(63.623047 0)"
                 id="use22" />
              <use
                 xlink:href="#DejaVuSans-30"
                 transform="translate(95.410156 0)"
                 id="use23" />
            </g>
          </g>
        </g>
        <g
           id="ytick_2">
          <g
             id="line2d_15">
            <path
               d="M 54.378742 248.635683  L 565.186927 248.635683  "
               clip-path="url(#p1cd30537b7)"
               style="fill: none; stroke-dasharray: 2.96,1.28; stroke-dashoffset: 0; stroke: #e0e0e0; stroke-opacity: 0.7; stroke-width: 0.8"
               id="path23" />
          </g>
          <g
             id="line2d_16">
            <g
               id="g24">
              <use
                 xlink:href="#m6eb4b5aa20"
                 x="54.378742"
                 y="248.635683"
                 style="stroke: #000000; stroke-width: 0.8"
                 id="use24" />
            </g>
          </g>
          <g
             id="text_9">
            <!-- 0.2 -->
            <g
               transform="translate(28.294992 253.194746) scale(0.12 -0.12)"
               id="g27">
              <use
                 xlink:href="#DejaVuSans-30"
                 id="use25" />
              <use
                 xlink:href="#DejaVuSans-2e"
                 transform="translate(63.623047 0)"
                 id="use26" />
              <use
                 xlink:href="#DejaVuSans-32"
                 transform="translate(95.410156 0)"
                 id="use27" />
            </g>
          </g>
        </g>
        <g
           id="ytick_3">
          <g
             id="line2d_17">
            <path
               d="M 54.378742 197.020699  L 565.186927 197.020699  "
               clip-path="url(#p1cd30537b7)"
               style="fill: none; stroke-dasharray: 2.96,1.28; stroke-dashoffset: 0; stroke: #e0e0e0; stroke-opacity: 0.7; stroke-width: 0.8"
               id="path27" />
          </g>
          <g
             id="line2d_18">
            <g
               id="g28">
              <use
                 xlink:href="#m6eb4b5aa20"
                 x="54.378742"
                 y="197.020699"
                 style="stroke: #000000; stroke-width: 0.8"
                 id="use28" />
            </g>
          </g>
          <g
             id="text_10">
            <!-- 0.4 -->
            <g
               transform="translate(28.294992 201.579762) scale(0.12 -0.12)"
               id="g31">
              <use
                 xlink:href="#DejaVuSans-30"
                 id="use29" />
              <use
                 xlink:href="#DejaVuSans-2e"
                 transform="translate(63.623047 0)"
                 id="use30" />
              <use
                 xlink:href="#DejaVuSans-34"
                 transform="translate(95.410156 0)"
                 id="use31" />
            </g>
          </g>
        </g>
        <g
           id="ytick_4">
          <g
             id="line2d_19">
            <path
               d="M 54.378742 145.405715  L 565.186927 145.405715  "
               clip-path="url(#p1cd30537b7)"
               style="fill: none; stroke-dasharray: 2.96,1.28; stroke-dashoffset: 0; stroke: #e0e0e0; stroke-opacity: 0.7; stroke-width: 0.8"
               id="path31" />
          </g>
          <g
             id="line2d_20">
            <g
               id="g32">
              <use
                 xlink:href="#m6eb4b5aa20"
                 x="54.378742"
                 y="145.405715"
                 style="stroke: #000000; stroke-width: 0.8"
                 id="use32" />
            </g>
          </g>
          <g
             id="text_11">
            <!-- 0.6 -->
            <g
               transform="translate(28.294992 149.964777) scale(0.12 -0.12)"
               id="g35">
              <use
                 xlink:href="#DejaVuSans-30"
                 id="use33" />
              <use
                 xlink:href="#DejaVuSans-2e"
                 transform="translate(63.623047 0)"
                 id="use34" />
              <use
                 xlink:href="#DejaVuSans-36"
                 transform="translate(95.410156 0)"
                 id="use35" />
            </g>
          </g>
        </g>
        <g
           id="ytick_5">
          <g
             id="line2d_21">
            <path
               d="M 54.378742 93.79073  L 565.186927 93.79073  "
               clip-path="url(#p1cd30537b7)"
               style="fill: none; stroke-dasharray: 2.96,1.28; stroke-dashoffset: 0; stroke: #e0e0e0; stroke-opacity: 0.7; stroke-width: 0.8"
               id="path35" />
          </g>
          <g
             id="line2d_22">
            <g
               id="g36">
              <use
                 xlink:href="#m6eb4b5aa20"
                 x="54.378742"
                 y="93.79073"
                 style="stroke: #000000; stroke-width: 0.8"
                 id="use36" />
            </g>
          </g>
          <g
             id="text_12">
            <!-- 0.8 -->
            <g
               transform="translate(28.294992 98.349793) scale(0.12 -0.12)"
               id="g39">
              <use
                 xlink:href="#DejaVuSans-30"
                 id="use37" />
              <use
                 xlink:href="#DejaVuSans-2e"
                 transform="translate(63.623047 0)"
                 id="use38" />
              <use
                 xlink:href="#DejaVuSans-38"
                 transform="translate(95.410156 0)"
                 id="use39" />
            </g>
          </g>
        </g>
        <g
           id="ytick_6">
          <g
             id="line2d_23">
            <path
               d="M 54.378742 42.175746  L 565.186927 42.175746  "
               clip-path="url(#p1cd30537b7)"
               style="fill: none; stroke-dasharray: 2.96,1.28; stroke-dashoffset: 0; stroke: #e0e0e0; stroke-opacity: 0.7; stroke-width: 0.8"
               id="path39" />
          </g>
          <g
             id="line2d_24">
            <g
               id="g40">
              <use
                 xlink:href="#m6eb4b5aa20"
                 x="54.378742"
                 y="42.175746"
                 style="stroke: #000000; stroke-width: 0.8"
                 id="use40" />
            </g>
          </g>
          <g
             id="text_13">
            <!-- 1.0 -->
            <g
               transform="translate(28.294992 46.734808) scale(0.12 -0.12)"
               id="g43">
              <use
                 xlink:href="#DejaVuSans-31"
                 id="use41" />
              <use
                 xlink:href="#DejaVuSans-2e"
                 transform="translate(63.623047 0)"
                 id="use42" />
              <use
                 xlink:href="#DejaVuSans-30"
                 transform="translate(95.410156 0)"
                 id="use43" />
            </g>
          </g>
        </g>
        <g
           id="text_14">
          <!-- coefficient value -->
          <g
             transform="translate(21.38343 229.152426) rotate(-90) scale(0.14 -0.14)"
             id="g60">
            <defs
               id="defs43">
              <path
                 id="DejaVuSans-63"
                 d="M 3122 3366  L 3122 2828  Q 2878 2963 2633 3030  Q 2388 3097 2138 3097  Q 1578 3097 1268 2742  Q 959 2388 959 1747  Q 959 1106 1268 751  Q 1578 397 2138 397  Q 2388 397 2633 464  Q 2878 531 3122 666  L 3122 134  Q 2881 22 2623 -34  Q 2366 -91 2075 -91  Q 1284 -91 818 406  Q 353 903 353 1747  Q 353 2603 823 3093  Q 1294 3584 2113 3584  Q 2378 3584 2631 3529  Q 2884 3475 3122 3366  z "
                 transform="scale(0.015625)" />
              <path
                 id="DejaVuSans-6f"
                 d="M 1959 3097  Q 1497 3097 1228 2736  Q 959 2375 959 1747  Q 959 1119 1226 758  Q 1494 397 1959 397  Q 2419 397 2687 759  Q 2956 1122 2956 1747  Q 2956 2369 2687 2733  Q 2419 3097 1959 3097  z M 1959 3584  Q 2709 3584 3137 3096  Q 3566 2609 3566 1747  Q 3566 888 3137 398  Q 2709 -91 1959 -91  Q 1206 -91 779 398  Q 353 888 353 1747  Q 353 2609 779 3096  Q 1206 3584 1959 3584  z "
                 transform="scale(0.015625)" />
              <path
                 id="DejaVuSans-66"
                 d="M 2375 4863  L 2375 4384  L 1825 4384  Q 1516 4384 1395 4259  Q 1275 4134 1275 3809  L 1275 3500  L 2222 3500  L 2222 3053  L 1275 3053  L 1275 0  L 697 0  L 697 3053  L 147 3053  L 147 3500  L 697 3500  L 697 3744  Q 697 4328 969 4595  Q 1241 4863 1831 4863  L 2375 4863  z "
                 transform="scale(0.015625)" />
              <path
                 id="DejaVuSans-6e"
                 d="M 3513 2113  L 3513 0  L 2938 0  L 2938 2094  Q 2938 2591 2744 2837  Q 2550 3084 2163 3084  Q 1697 3084 1428 2787  Q 1159 2491 1159 1978  L 1159 0  L 581 0  L 581 3500  L 1159 3500  L 1159 2956  Q 1366 3272 1645 3428  Q 1925 3584 2291 3584  Q 2894 3584 3203 3211  Q 3513 2838 3513 2113  z "
                 transform="scale(0.015625)" />
              <path
                 id="DejaVuSans-20"
                 transform="scale(0.015625)" />
              <path
                 id="DejaVuSans-76"
                 d="M 191 3500  L 800 3500  L 1894 563  L 2988 3500  L 3597 3500  L 2284 0  L 1503 0  L 191 3500  z "
                 transform="scale(0.015625)" />
              <path
                 id="DejaVuSans-61"
                 d="M 2194 1759  Q 1497 1759 1228 1600  Q 959 1441 959 1056  Q 959 750 1161 570  Q 1363 391 1709 391  Q 2188 391 2477 730  Q 2766 1069 2766 1631  L 2766 1759  L 2194 1759  z M 3341 1997  L 3341 0  L 2766 0  L 2766 531  Q 2569 213 2275 61  Q 1981 -91 1556 -91  Q 1019 -91 701 211  Q 384 513 384 1019  Q 384 1609 779 1909  Q 1175 2209 1959 2209  L 2766 2209  L 2766 2266  Q 2766 2663 2505 2880  Q 2244 3097 1772 3097  Q 1472 3097 1187 3025  Q 903 2953 641 2809  L 641 3341  Q 956 3463 1253 3523  Q 1550 3584 1831 3584  Q 2591 3584 2966 3190  Q 3341 2797 3341 1997  z "
                 transform="scale(0.015625)" />
              <path
                 id="DejaVuSans-6c"
                 d="M 603 4863  L 1178 4863  L 1178 0  L 603 0  L 603 4863  z "
                 transform="scale(0.015625)" />
              <path
                 id="DejaVuSans-75"
                 d="M 544 1381  L 544 3500  L 1119 3500  L 1119 1403  Q 1119 906 1312 657  Q 1506 409 1894 409  Q 2359 409 2629 706  Q 2900 1003 2900 1516  L 2900 3500  L 3475 3500  L 3475 0  L 2900 0  L 2900 538  Q 2691 219 2414 64  Q 2138 -91 1772 -91  Q 1169 -91 856 284  Q 544 659 544 1381  z M 1991 3584  L 1991 3584  z "
                 transform="scale(0.015625)" />
            </defs>
            <use
               xlink:href="#DejaVuSans-63"
               id="use44" />
            <use
               xlink:href="#DejaVuSans-6f"
               transform="translate(54.980469 0)"
               id="use45" />
            <use
               xlink:href="#DejaVuSans-65"
               transform="translate(116.162109 0)"
               id="use46" />
            <use
               xlink:href="#DejaVuSans-66"
               transform="translate(177.685547 0)"
               id="use47" />
            <use
               xlink:href="#DejaVuSans-66"
               transform="translate(212.890625 0)"
               id="use48" />
            <use
               xlink:href="#DejaVuSans-69"
               transform="translate(248.095703 0)"
               id="use49" />
            <use
               xlink:href="#DejaVuSans-63"
               transform="translate(275.878906 0)"
               id="use50" />
            <use
               xlink:href="#DejaVuSans-69"
               transform="translate(330.859375 0)"
               id="use51" />
            <use
               xlink:href="#DejaVuSans-65"
               transform="translate(358.642578 0)"
               id="use52" />
            <use
               xlink:href="#DejaVuSans-6e"
               transform="translate(420.166016 0)"
               id="use53" />
            <use
               xlink:href="#DejaVuSans-74"
               transform="translate(483.544922 0)"
               id="use54" />
            <use
               xlink:href="#DejaVuSans-20"
               transform="translate(522.753906 0)"
               id="use55" />
            <use
               xlink:href="#DejaVuSans-76"
               transform="translate(554.541016 0)"
               id="use56" />
            <use
               xlink:href="#DejaVuSans-61"
               transform="translate(613.720703 0)"
               id="use57" />
            <use
               xlink:href="#DejaVuSans-6c"
               transform="translate(675 0)"
               id="use58" />
            <use
               xlink:href="#DejaVuSans-75"
               transform="translate(702.783203 0)"
               id="use59" />
            <use
               xlink:href="#DejaVuSans-65"
               transform="translate(766.162109 0)"
               id="use60" />
          </g>
        </g>
      </g>
      <g
         id="line2d_25">
        <path
           d="M 77.597296 42.175746  L 102.037879 55.758637  L 126.478462 69.341527  L 150.919045 82.924418  L 175.359628 96.507308  L 199.800211 110.090199  L 224.240794 123.67309  L 248.681377 137.25598  L 273.12196 150.838871  L 297.562543 164.421762  L 322.003126 178.004652  L 346.443709 191.587543  L 370.884292 205.170433  L 395.324875 218.753324  L 419.765458 232.336215  L 444.206041 245.919105  L 468.646624 259.501996  L 493.087207 273.084887  L 517.52779 286.667777  L 541.968373 300.250668  "
           clip-path="url(#p1cd30537b7)"
           style="fill: none; stroke: #5e56a1; stroke-width: 2; stroke-linecap: square"
           id="path60" />
      </g>
      <g
         id="line2d_26">
        <path
           d="M 77.597296 300.250668  L 102.037879 286.667777  L 126.478462 273.084887  L 150.919045 259.501996  L 175.359628 245.919105  L 199.800211 232.336215  L 224.240794 218.753324  L 248.681377 205.170433  L 273.12196 191.587543  L 297.562543 178.004652  L 322.003126 164.421762  L 346.443709 150.838871  L 370.884292 137.25598  L 395.324875 123.67309  L 419.765458 110.090199  L 444.206041 96.507308  L 468.646624 82.924418  L 493.087207 69.341527  L 517.52779 55.758637  L 541.968373 42.175746  "
           clip-path="url(#p1cd30537b7)"
           style="fill: none; stroke: #ac115f; stroke-width: 2; stroke-linecap: square"
           id="path61" />
      </g>
      <g
         id="patch_3">
        <path
           d="M 54.378742 313.154414  L 54.378742 29.272  "
           style="fill: none; stroke: #000000; stroke-width: 0.8; stroke-linejoin: miter; stroke-linecap: square"
           id="path62" />
      </g>
      <g
         id="patch_4">
        <path
           d="M 565.186927 313.154414  L 565.186927 29.272  "
           style="fill: none; stroke: #000000; stroke-width: 0.8; stroke-linejoin: miter; stroke-linecap: square"
           id="path63" />
      </g>
      <g
         id="patch_5">
        <path
           d="M 54.378742 313.154414  L 565.186927 313.154414  "
           style="fill: none; stroke: #000000; stroke-width: 0.8; stroke-linejoin: miter; stroke-linecap: square"
           id="path64" />
      </g>
      <g
         id="patch_6">
        <path
           d="M 54.378742 29.272  L 565.186927 29.272  "
           style="fill: none; stroke: #000000; stroke-width: 0.8; stroke-linejoin: miter; stroke-linecap: square"
           id="path65" />
      </g>
      <g
         id="legend_1">
        <g
           id="patch_7">
          <path
             d="M 468.738802 190.626957  L 556.786927 190.626957  Q 559.186927 190.626957 559.186927 188.226957  L 559.186927 154.199457  Q 559.186927 151.799457 556.786927 151.799457  L 468.738802 151.799457  Q 466.338802 151.799457 466.338802 154.199457  L 466.338802 188.226957  Q 466.338802 190.626957 468.738802 190.626957  z "
             style="fill: #dcdcdc; opacity: 0.8; stroke: #cacaca; stroke-linejoin: miter"
             id="path77" />
        </g>
        <g
           id="line2d_27">
          <path
             d="M 471.138802 161.517582  L 483.138802 161.517582  L 495.138802 161.517582  "
             style="fill: none; stroke: #5e56a1; stroke-width: 2; stroke-linecap: square"
             id="path78" />
        </g>
        <g
           id="text_16">
          <!-- driver -->
          <g
             transform="translate(504.738802 165.717582) scale(0.12 -0.12)"
             id="g83">
            <defs
               id="defs78">
              <path
                 id="DejaVuSans-72"
                 d="M 2631 2963  Q 2534 3019 2420 3045  Q 2306 3072 2169 3072  Q 1681 3072 1420 2755  Q 1159 2438 1159 1844  L 1159 0  L 581 0  L 581 3500  L 1159 3500  L 1159 2956  Q 1341 3275 1631 3429  Q 1922 3584 2338 3584  Q 2397 3584 2469 3576  Q 2541 3569 2628 3553  L 2631 2963  z "
                 transform="scale(0.015625)" />
            </defs>
            <path
               id="use78"
               d="m 45.40625,46.390625 v 29.59375 h 8.984375 V 0 H 45.40625 v 8.203125 q -2.828125,-4.875 -7.15625,-7.25 -4.3125,-2.375 -10.375,-2.375 -9.90625,0 -16.140625,7.90625 -6.21875,7.921875 -6.21875,20.8125 0,12.890625 6.21875,20.796875 Q 17.96875,56 27.875,56 q 6.0625,0 10.375,-2.375 4.328125,-2.359375 7.15625,-7.234375 z M 14.796875,27.296875 q 0,-9.90625 4.078125,-15.546875 4.078125,-5.640625 11.203125,-5.640625 7.125,0 11.21875,5.640625 4.109375,5.640625 4.109375,15.546875 0,9.90625 -4.109375,15.546875 -4.09375,5.640625 -11.21875,5.640625 -7.125,0 -11.203125,-5.640625 -4.078125,-5.640625 -4.078125,-15.546875 z"
               style="stroke-width:0.015625" />
            <use
               xlink:href="#DejaVuSans-72"
               transform="translate(63.476562 0)"
               id="use79" />
            <use
               xlink:href="#DejaVuSans-69"
               transform="translate(104.589844 0)"
               id="use80" />
            <use
               xlink:href="#DejaVuSans-76"
               transform="translate(132.373047 0)"
               id="use81" />
            <use
               xlink:href="#DejaVuSans-65"
               transform="translate(191.552734 0)"
               id="use82" />
            <use
               xlink:href="#DejaVuSans-72"
               transform="translate(253.076172 0)"
               id="use83" />
          </g>
        </g>
        <g
           id="line2d_28">
          <path
             d="M 471.138802 179.131332  L 483.138802 179.131332  L 495.138802 179.131332  "
             style="fill: none; stroke: #ac115f; stroke-width: 2; stroke-linecap: square"
             id="path83" />
        </g>
        <g
           id="text_17">
          <!-- problem -->
          <g
             transform="translate(504.738802 183.331332) scale(0.12 -0.12)"
             id="g90">
            <defs
               id="defs83">
              <path
                 id="DejaVuSans-70"
                 d="M 1159 525  L 1159 -1331  L 581 -1331  L 581 3500  L 1159 3500  L 1159 2969  Q 1341 3281 1617 3432  Q 1894 3584 2278 3584  Q 2916 3584 3314 3078  Q 3713 2572 3713 1747  Q 3713 922 3314 415  Q 2916 -91 2278 -91  Q 1894 -91 1617 61  Q 1341 213 1159 525  z M 3116 1747  Q 3116 2381 2855 2742  Q 2594 3103 2138 3103  Q 1681 3103 1420 2742  Q 1159 2381 1159 1747  Q 1159 1113 1420 752  Q 1681 391 2138 391  Q 2594 391 2855 752  Q 3116 1113 3116 1747  z "
                 transform="scale(0.015625)" />
              <path
                 id="DejaVuSans-62"
                 d="M 3116 1747  Q 3116 2381 2855 2742  Q 2594 3103 2138 3103  Q 1681 3103 1420 2742  Q 1159 2381 1159 1747  Q 1159 1113 1420 752  Q 1681 391 2138 391  Q 2594 391 2855 752  Q 3116 1113 3116 1747  z M 1159 2969  Q 1341 3281 1617 3432  Q 1894 3584 2278 3584  Q 2916 3584 3314 3078  Q 3713 2572 3713 1747  Q 3713 922 3314 415  Q 2916 -91 2278 -91  Q 1894 -91 1617 61  Q 1341 213 1159 525  L 1159 0  L 581 0  L 581 4863  L 1159 4863  L 1159 2969  z "
                 transform="scale(0.015625)" />
            </defs>
            <use
               xlink:href="#DejaVuSans-70"
               id="use84" />
            <use
               xlink:href="#DejaVuSans-72"
               transform="translate(63.476562 0)"
               id="use85" />
            <use
               xlink:href="#DejaVuSans-6f"
               transform="translate(102.339844 0)"
               id="use86" />
            <use
               xlink:href="#DejaVuSans-62"
               transform="translate(163.521484 0)"
               id="use87" />
            <use
               xlink:href="#DejaVuSans-6c"
               transform="translate(226.998047 0)"
               id="use88" />
            <use
               xlink:href="#DejaVuSans-65"
               transform="translate(254.78125 0)"
               id="use89" />
            <use
               xlink:href="#DejaVuSans-6d"
               transform="translate(316.304688 0)"
               id="use90" />
          </g>
        </g>
      </g>
    </g>
  </g>
  <defs
     id="defs90">
    <clipPath
       id="p1cd30537b7">
      <rect
         x="54.378742"
         y="29.272"
         width="510.808185"
         height="283.882414"
         id="rect90" />
    </clipPath>
  </defs>
</svg>
