<?xml version="1.0" encoding="UTF-8" standalone="no"?>
<svg
   width="575.696693pt"
   height="359.751496pt"
   viewBox="0 0 575.696693 359.751496"
   version="1.1"
   id="svg292"
   sodipodi:docname="annealing_example_schedule_eigenvalues_dark.svg"
   inkscape:version="1.4.4 (1:1.4.4+202605061432+dcaf3e7d9e)"
   xmlns:inkscape="http://www.inkscape.org/namespaces/inkscape"
   xmlns:sodipodi="http://sodipodi.sourceforge.net/DTD/sodipodi-0.dtd"
   xmlns:xlink="http://www.w3.org/1999/xlink"
   xmlns="http://www.w3.org/2000/svg"
   xmlns:svg="http://www.w3.org/2000/svg"
   xmlns:rdf="http://www.w3.org/1999/02/22-rdf-syntax-ns#"
   xmlns:cc="http://creativecommons.org/ns#"
   xmlns:dc="http://purl.org/dc/elements/1.1/">
  <sodipodi:namedview
     id="namedview292"
     pagecolor="#ffffff"
     bordercolor="#666666"
     borderopacity="1.0"
     inkscape:showpageshadow="2"
     inkscape:pageopacity="0.0"
     inkscape:pagecheckerboard="0"
     inkscape:deskcolor="#d1d1d1"
     inkscape:document-units="pt"
     inkscape:zoom="0.86830772"
     inkscape:cx="-54.704109"
     inkscape:cy="211.33061"
     inkscape:window-width="1850"
     inkscape:window-height="1016"
     inkscape:window-x="70"
     inkscape:window-y="27"
     inkscape:window-maximized="1"
     inkscape:current-layer="svg292" />
  <metadata
     id="metadata1">
    <rdf:RDF>
      <cc:Work>
        <dc:type
           rdf:resource="http://purl.org/dc/dcmitype/StillImage" />
        <dc:date>2026-07-06T11:46:53.321241</dc:date>
        <dc:format>image/svg+xml</dc:format>
        <dc:creator>
          <cc:Agent>
            <dc:title>Matplotlib v3.10.9, https://matplotlib.org/</dc:title>
          </cc:Agent>
        </dc:creator>
      </cc:Work>
    </rdf:RDF>
  </metadata>
  <defs
     id="defs1">
    <style
       type="text/css"
       id="style1">*{stroke-linejoin: round; stroke-linecap: butt}</style>
    <defs
       id="defs161">
      <path
         id="DejaVuSans-33"
         d="m 2597,2516 q 453,-97 707,-404 255,-306 255,-756 0,-690 -475,-1069 -475,-378 -1350,-378 -293,0 -604,58 -311,58 -642,174 v 609 q 262,-153 574,-231 313,-78 654,-78 593,0 904,234 311,234 311,681 0,413 -289,645 -289,233 -804,233 h -544 v 519 h 569 q 465,0 712,186 247,186 247,536 0,359 -255,551 -254,193 -729,193 -260,0 -557,-57 -297,-56 -653,-174 v 562 q 360,100 674,150 314,50 592,50 719,0 1137,-327 419,-326 419,-882 0,-388 -222,-655 -222,-267 -631,-370 z"
         transform="scale(0.015625)" />
    </defs>
    <defs
       id="defs129">
      <path
         id="DejaVuSans-2e"
         d="m 684,794 h 660 V 0 H 684 Z"
         transform="scale(0.015625)" />
      <path
         id="DejaVuSans-25"
         d="m 4653,2053 q -272,0 -427,-231 -154,-231 -154,-644 0,-406 154,-639 155,-233 427,-233 266,0 420,233 155,233 155,639 0,410 -155,642 -154,233 -420,233 z m 0,397 q 494,0 784,-344 291,-343 291,-928 0,-584 -292,-927 -292,-342 -783,-342 -500,0 -791,342 -290,343 -290,927 0,588 292,930 292,342 789,342 z M 1428,4353 q -269,0 -424,-233 -154,-232 -154,-639 0,-412 153,-644 153,-231 425,-231 272,0 426,231 155,232 155,644 0,403 -156,637 -156,235 -425,235 z m 2822,397 h 500 L 1831,-91 h -500 z m -2822,0 q 494,0 787,-342 294,-342 294,-927 0,-590 -292,-931 -292,-341 -789,-341 -497,0 -786,342 -289,343 -289,930 0,582 290,925 291,344 785,344 z"
         transform="scale(0.015625)" />
    </defs>
    <defs
       id="defs234">
      <path
         id="DejaVuSans-37"
         d="M 525,4666 H 3525 V 4397 L 1831,0 H 1172 L 2766,4134 H 525 Z"
         transform="scale(0.015625)" />
    </defs>
    <defs
       id="defs73">
      <path
         id="DejaVuSans-53"
         d="m 3425,4513 v -616 q -359,172 -678,256 -319,85 -616,85 -515,0 -795,-200 -280,-200 -280,-569 0,-310 186,-468 186,-157 705,-254 l 381,-78 q 706,-135 1042,-474 336,-339 336,-907 0,-679 -455,-1029 -454,-350 -1332,-350 -331,0 -705,75 -373,75 -773,222 v 650 q 384,-215 753,-325 369,-109 725,-109 540,0 834,212 294,213 294,607 0,343 -211,537 -211,194 -692,291 l -385,75 q -706,140 -1022,440 -315,300 -315,835 0,619 436,975 436,356 1201,356 329,0 669,-60 341,-59 697,-177 z"
         transform="scale(0.015625)" />
      <path
         id="DejaVuSans-63"
         d="m 3122,3366 v -538 q -244,135 -489,202 -245,67 -495,67 -560,0 -870,-355 -309,-354 -309,-995 0,-641 309,-996 310,-354 870,-354 250,0 495,67 245,67 489,202 V 134 Q 2881,22 2623,-34 2366,-91 2075,-91 1284,-91 818,406 353,903 353,1747 q 0,856 470,1346 471,491 1290,491 265,0 518,-55 253,-54 491,-163 z"
         transform="scale(0.015625)" />
      <path
         id="DejaVuSans-68"
         d="M 3513,2113 V 0 h -575 v 2094 q 0,497 -194,743 -194,247 -581,247 -466,0 -735,-297 -269,-296 -269,-809 V 0 H 581 v 4863 h 578 V 2956 q 207,316 486,472 280,156 646,156 603,0 912,-373 310,-373 310,-1098 z"
         transform="scale(0.015625)" />
      <path
         id="DejaVuSans-64"
         d="m 2906,2969 v 1894 h 575 V 0 H 2906 V 525 Q 2725,213 2448,61 2172,-91 1784,-91 1150,-91 751,415 353,922 353,1747 q 0,825 398,1331 399,506 1033,506 388,0 664,-152 277,-151 458,-463 z M 947,1747 q 0,-634 261,-995 261,-361 717,-361 456,0 718,361 263,361 263,995 0,634 -263,995 -262,361 -718,361 -456,0 -717,-361 -261,-361 -261,-995 z"
         transform="scale(0.015625)" />
      <path
         id="DejaVuSans-20"
         transform="scale(0.015625)"
         d="" />
      <path
         id="DejaVuSans-73"
         d="m 2834,3397 v -544 q -243,125 -506,187 -262,63 -544,63 -428,0 -642,-131 -214,-131 -214,-394 0,-200 153,-314 153,-114 616,-217 l 197,-44 q 612,-131 870,-370 258,-239 258,-667 0,-488 -386,-773 Q 2250,-91 1575,-91 1294,-91 989,-36 684,19 347,128 v 594 q 319,-166 628,-249 309,-82 613,-82 406,0 624,139 219,139 219,392 0,234 -158,359 -157,125 -692,241 l -200,47 q -534,112 -772,345 -237,233 -237,639 0,494 350,762 350,269 994,269 318,0 599,-47 282,-46 519,-140 z"
         transform="scale(0.015625)" />
    </defs>
    <defs
       id="defs138">
      <path
         id="DejaVuSans-39"
         d="m 703,97 v 575 q 238,-113 481,-172 244,-59 479,-59 625,0 954,420 330,420 377,1277 -181,-269 -460,-413 -278,-144 -615,-144 -700,0 -1108,423 -408,424 -408,1159 0,718 425,1152 425,435 1131,435 810,0 1236,-621 427,-620 427,-1801 Q 3622,1225 3098,567 2575,-91 1691,-91 1453,-91 1209,-44 966,3 703,97 Z m 1256,1978 q 425,0 673,290 249,291 249,798 0,503 -249,795 -248,292 -673,292 -425,0 -673,-292 -248,-292 -248,-795 0,-507 248,-798 248,-290 673,-290 z"
         transform="scale(0.015625)" />
    </defs>
    <defs
       id="defs3">
      <path
         id="mc2cab82d41"
         d="M 0,0 V 3.5"
         style="stroke:#000000;stroke-width:0.8" />
    </defs>
    <defs
       id="defs24">
      <path
         id="m22b46f5a54"
         d="M 0,0 H -3.5"
         style="stroke:#000000;stroke-width:0.8" />
    </defs>
    <defs
       id="defs44">
      <path
         id="DejaVuSans-45"
         d="M 628,4666 H 3578 V 4134 H 1259 V 2753 H 3481 V 2222 H 1259 V 531 H 3634 V 0 H 628 Z"
         transform="scale(0.015625)" />
      <path
         id="DejaVuSans-67"
         d="m 2906,1791 q 0,625 -258,968 -257,344 -723,344 -462,0 -720,-344 -258,-343 -258,-968 0,-622 258,-966 258,-344 720,-344 466,0 723,344 258,344 258,966 z M 3481,434 q 0,-893 -397,-1329 -396,-436 -1215,-436 -303,0 -572,45 -269,45 -522,139 v 559 q 253,-137 500,-202 247,-66 503,-66 566,0 847,295 281,295 281,892 V 616 Q 2728,306 2450,153 2172,0 1784,0 1141,0 747,490 353,981 353,1791 q 0,812 394,1302 394,491 1037,491 388,0 666,-153 278,-153 456,-462 v 531 h 575 z"
         transform="scale(0.015625)" />
      <path
         id="DejaVuSans-6e"
         d="M 3513,2113 V 0 h -575 v 2094 q 0,497 -194,743 -194,247 -581,247 -466,0 -735,-297 -269,-296 -269,-809 V 0 H 581 v 3500 h 578 v -544 q 207,316 486,472 280,156 646,156 603,0 912,-373 310,-373 310,-1098 z"
         transform="scale(0.015625)" />
      <path
         id="DejaVuSans-76"
         d="M 191,3500 H 800 L 1894,563 2988,3500 h 609 L 2284,0 h -781 z"
         transform="scale(0.015625)" />
      <path
         id="DejaVuSans-61"
         d="m 2194,1759 q -697,0 -966,-159 -269,-159 -269,-544 0,-306 202,-486 202,-179 548,-179 479,0 768,339 289,339 289,901 v 128 z m 1147,238 V 0 H 2766 V 531 Q 2569,213 2275,61 1981,-91 1556,-91 q -537,0 -855,302 -317,302 -317,808 0,590 395,890 396,300 1180,300 h 807 v 57 q 0,397 -261,614 -261,217 -733,217 -300,0 -585,-72 -284,-72 -546,-216 v 532 q 315,122 612,182 297,61 578,61 760,0 1135,-394 375,-393 375,-1193 z"
         transform="scale(0.015625)" />
      <path
         id="DejaVuSans-6c"
         d="m 603,4863 h 575 V 0 H 603 Z"
         transform="scale(0.015625)" />
      <path
         id="DejaVuSans-75"
         d="m 544,1381 v 2119 h 575 V 1403 q 0,-497 193,-746 194,-248 582,-248 465,0 735,297 271,297 271,810 v 1984 h 575 V 0 H 2900 V 538 Q 2691,219 2414,64 2138,-91 1772,-91 1169,-91 856,284 544,659 544,1381 Z m 1447,2203 z"
         transform="scale(0.015625)" />
    </defs>
    <defs
       id="defs103">
      <path
         id="DejaVuSans-74"
         d="M 1172,4494 V 3500 H 2356 V 3053 H 1172 V 1153 q 0,-428 117,-550 117,-122 477,-122 h 590 V 0 H 1766 Q 1100,0 847,248 594,497 594,1153 V 3053 H 172 v 447 h 422 v 994 z"
         transform="scale(0.015625)" />
      <path
         id="DejaVuSans-78"
         d="M 3513,3500 2247,1797 3578,0 H 2900 L 1881,1375 863,0 H 184 L 1544,1831 300,3500 h 678 l 928,-1247 928,1247 z"
         transform="scale(0.015625)" />
      <path
         id="DejaVuSans-70"
         d="M 1159,525 V -1331 H 581 v 4831 h 578 v -531 q 182,312 458,463 277,152 661,152 638,0 1036,-506 399,-506 399,-1331 0,-825 -399,-1332 -398,-506 -1036,-506 -384,0 -661,152 -276,152 -458,464 z m 1957,1222 q 0,634 -261,995 -261,361 -717,361 -457,0 -718,-361 -261,-361 -261,-995 0,-634 261,-995 261,-361 718,-361 456,0 717,361 261,361 261,995 z"
         transform="scale(0.015625)" />
      <path
         id="DejaVuSans-6f"
         d="m 1959,3097 q -462,0 -731,-361 -269,-361 -269,-989 0,-628 267,-989 268,-361 733,-361 460,0 728,362 269,363 269,988 0,622 -269,986 -268,364 -728,364 z m 0,487 q 750,0 1178,-488 429,-487 429,-1349 Q 3566,888 3137,398 2709,-91 1959,-91 1206,-91 779,398 353,888 353,1747 q 0,862 426,1349 427,488 1180,488 z"
         transform="scale(0.015625)" />
      <path
         id="DejaVuSans-56"
         d="M 1831,0 50,4666 H 709 L 2188,738 3669,4666 h 656 L 2547,0 Z"
         transform="scale(0.015625)" />
    </defs>
    <defs
       id="defs20">
      <path
         id="DejaVuSans-54"
         d="M -19,4666 H 3928 V 4134 H 2272 V 0 H 1638 V 4134 H -19 Z"
         transform="scale(0.015625)" />
      <path
         id="DejaVuSans-69"
         d="m 603,3500 h 575 V 0 H 603 Z m 0,1363 h 575 V 4134 H 603 Z"
         transform="scale(0.015625)" />
      <path
         id="DejaVuSans-6d"
         d="m 3328,2828 q 216,388 516,572 300,184 706,184 547,0 844,-383 297,-382 297,-1088 V 0 h -578 v 2094 q 0,503 -179,746 -178,244 -543,244 -447,0 -707,-297 -259,-296 -259,-809 V 0 h -578 v 2094 q 0,506 -178,748 -178,242 -550,242 -441,0 -701,-298 -259,-298 -259,-808 V 0 H 581 v 3500 h 578 v -544 q 197,322 472,475 275,153 653,153 382,0 649,-194 267,-193 395,-562 z"
         transform="scale(0.015625)" />
      <path
         id="DejaVuSans-65"
         d="M 3597,1894 V 1613 H 953 q 38,-594 358,-905 320,-311 892,-311 331,0 642,81 311,81 618,244 V 178 Q 3153,47 2828,-22 2503,-91 2169,-91 1331,-91 842,396 353,884 353,1716 q 0,859 464,1363 464,505 1252,505 706,0 1117,-455 411,-454 411,-1235 z m -575,169 q -6,471 -264,752 -258,282 -683,282 -481,0 -770,-272 -289,-272 -333,-766 z"
         transform="scale(0.015625)" />
    </defs>
    <defs
       id="defs29">
      <path
         id="DejaVuSans-35"
         d="M 691,4666 H 3169 V 4134 H 1269 V 2991 q 137,47 274,70 138,23 276,23 781,0 1237,-428 457,-428 457,-1159 Q 3513,744 3044,326 2575,-91 1722,-91 1428,-91 1123,-41 819,9 494,109 v 635 q 281,-153 581,-228 300,-75 634,-75 541,0 856,284 316,284 316,772 0,487 -316,771 -315,285 -856,285 -253,0 -505,-56 -251,-56 -513,-175 z"
         transform="scale(0.015625)" />
    </defs>
    <defs
       id="defs5">
      <path
         id="DejaVuSans-32"
         d="M 1228,531 H 3431 V 0 H 469 v 531 q 359,372 979,998 621,627 780,809 303,340 423,576 121,236 121,464 0,372 -261,606 -261,235 -680,235 -297,0 -627,-103 -329,-103 -704,-313 v 638 q 381,153 712,231 332,78 607,78 725,0 1156,-363 431,-362 431,-968 0,-288 -108,-546 -107,-257 -392,-607 -78,-91 -497,-524 Q 1991,1309 1228,531 Z"
         transform="scale(0.015625)" />
    </defs>
    <defs
       id="defs25">
      <path
         id="DejaVuSans-2212"
         d="M 678,2272 H 4684 V 1741 H 678 Z"
         transform="scale(0.015625)" />
    </defs>
    <defs
       id="defs17">
      <path
         id="DejaVuSans-31"
         d="M 794,531 H 1825 V 4091 L 703,3866 v 575 l 1116,225 h 631 V 531 H 3481 V 0 H 794 Z"
         transform="scale(0.015625)" />
    </defs>
    <defs
       id="defs14">
      <path
         id="DejaVuSans-38"
         d="m 2034,2216 q -450,0 -708,-241 -257,-241 -257,-662 0,-422 257,-663 258,-241 708,-241 450,0 709,242 260,243 260,662 0,421 -258,662 -257,241 -711,241 z m -631,268 q -406,100 -633,378 -226,279 -226,679 0,559 398,884 399,325 1092,325 697,0 1094,-325 397,-325 397,-884 0,-400 -227,-679 -226,-278 -629,-378 456,-106 710,-416 255,-309 255,-755 Q 3634,634 3220,271 2806,-91 2034,-91 1263,-91 848,271 434,634 434,1313 q 0,446 256,755 257,310 713,416 z m -231,997 q 0,-362 226,-565 227,-203 636,-203 407,0 636,203 230,203 230,565 0,363 -230,566 -229,203 -636,203 -409,0 -636,-203 -226,-203 -226,-566 z"
         transform="scale(0.015625)" />
    </defs>
    <defs
       id="defs4">
      <path
         id="DejaVuSans-30"
         d="m 2034,4250 q -487,0 -733,-480 -245,-479 -245,-1442 0,-959 245,-1439 246,-480 733,-480 491,0 736,480 246,480 246,1439 0,963 -246,1442 -245,480 -736,480 z m 0,500 q 785,0 1199,-621 414,-620 414,-1801 0,-1178 -414,-1799 -414,-620 -1199,-620 -784,0 -1198,620 -414,621 -414,1799 0,1181 414,1801 414,621 1198,621 z"
         transform="scale(0.015625)" />
    </defs>
    <defs
       id="defs11">
      <path
         id="DejaVuSans-36"
         d="m 2113,2584 q -425,0 -674,-291 -248,-290 -248,-796 0,-503 248,-796 249,-292 674,-292 425,0 673,292 248,293 248,796 0,506 -248,796 -248,291 -673,291 z m 1253,1979 v -575 q -238,112 -480,171 -242,60 -480,60 -625,0 -955,-422 -329,-422 -376,-1275 184,272 462,417 279,145 613,145 703,0 1111,-427 408,-426 408,-1160 0,-719 -425,-1154 -425,-434 -1131,-434 -810,0 -1238,620 -428,621 -428,1799 0,1106 525,1764 525,658 1409,658 238,0 480,-47 242,-47 505,-140 z"
         transform="scale(0.015625)" />
    </defs>
    <defs
       id="defs8">
      <path
         id="DejaVuSans-34"
         d="M 2419,4116 825,1625 h 1594 z m -166,550 h 794 V 1625 h 666 V 1100 H 3047 V 0 H 2419 V 1100 H 313 v 609 z"
         transform="scale(0.015625)" />
    </defs>
  </defs>
  <path
     d="M 0,359.7515 H 575.69669 V 0 H 0 Z"
     style="fill:#141230;fill-opacity:1"
     id="path1"
     sodipodi:insensitive="true" />
  <path
     d="M 60.528111,313.02377 H 564.90238 V 29.259788 H 60.528111 Z"
     style="fill:#141230;fill-opacity:1"
     id="path2" />
  <path
     d="M 83.454214,313.02377 V 29.259788"
     clip-path="url(#p17eb142781)"
     style="fill:#141230;fill-opacity:1;stroke:#e0e0e0;stroke-width:0.8;stroke-dasharray:2.96, 1.28;stroke-dashoffset:0;stroke-opacity:0.7"
     id="path3" />
  <use
     xlink:href="#mc2cab82d41"
     x="83.454216"
     y="313.02377"
     style="fill:#ffffff;fill-opacity:1;stroke:#000000;stroke-width:0.8"
     id="use3" />
  <use
     xlink:href="#DejaVuSans-30"
     id="use4"
     transform="matrix(0.12,0,0,-0.12,79.636714,329.1419)"
     style="fill:#ffffff;fill-opacity:1" />
  <path
     d="M 175.15863,313.02377 V 29.259788"
     clip-path="url(#p17eb142781)"
     style="fill:#141230;fill-opacity:1;stroke:#e0e0e0;stroke-width:0.8;stroke-dasharray:2.96, 1.28;stroke-dashoffset:0;stroke-opacity:0.7"
     id="path4" />
  <use
     xlink:href="#mc2cab82d41"
     x="175.15863"
     y="313.02377"
     style="fill:#ffffff;fill-opacity:1;stroke:#000000;stroke-width:0.8"
     id="use5" />
  <use
     xlink:href="#DejaVuSans-32"
     id="use6"
     transform="matrix(0.12,0,0,-0.12,167.52363,329.1419)"
     style="fill:#ffffff;fill-opacity:1" />
  <use
     xlink:href="#DejaVuSans-30"
     transform="matrix(0.12,0,0,-0.12,175.1584,329.1419)"
     id="use7"
     style="fill:#ffffff;fill-opacity:1" />
  <path
     d="M 266.86304,313.02377 V 29.259788"
     clip-path="url(#p17eb142781)"
     style="fill:#141230;fill-opacity:1;stroke:#e0e0e0;stroke-width:0.8;stroke-dasharray:2.96, 1.28;stroke-dashoffset:0;stroke-opacity:0.7"
     id="path7" />
  <use
     xlink:href="#mc2cab82d41"
     x="266.86304"
     y="313.02377"
     style="fill:#ffffff;fill-opacity:1;stroke:#000000;stroke-width:0.8"
     id="use8" />
  <use
     xlink:href="#DejaVuSans-34"
     id="use9"
     transform="matrix(0.12,0,0,-0.12,259.22804,329.1419)"
     style="fill:#ffffff;fill-opacity:1" />
  <use
     xlink:href="#DejaVuSans-30"
     transform="matrix(0.12,0,0,-0.12,266.86281,329.1419)"
     id="use10"
     style="fill:#ffffff;fill-opacity:1" />
  <path
     d="M 358.56745,313.02377 V 29.259788"
     clip-path="url(#p17eb142781)"
     style="fill:#141230;fill-opacity:1;stroke:#e0e0e0;stroke-width:0.8;stroke-dasharray:2.96, 1.28;stroke-dashoffset:0;stroke-opacity:0.7"
     id="path10" />
  <use
     xlink:href="#mc2cab82d41"
     x="358.56744"
     y="313.02377"
     style="fill:#ffffff;fill-opacity:1;stroke:#000000;stroke-width:0.8"
     id="use11" />
  <use
     xlink:href="#DejaVuSans-36"
     id="use12"
     transform="matrix(0.12,0,0,-0.12,350.93245,329.1419)"
     style="fill:#ffffff;fill-opacity:1" />
  <use
     xlink:href="#DejaVuSans-30"
     transform="matrix(0.12,0,0,-0.12,358.56722,329.1419)"
     id="use13"
     style="fill:#ffffff;fill-opacity:1" />
  <path
     d="M 450.27186,313.02377 V 29.259788"
     clip-path="url(#p17eb142781)"
     style="fill:#141230;fill-opacity:1;stroke:#e0e0e0;stroke-width:0.8;stroke-dasharray:2.96, 1.28;stroke-dashoffset:0;stroke-opacity:0.7"
     id="path13" />
  <use
     xlink:href="#mc2cab82d41"
     x="450.27185"
     y="313.02377"
     style="fill:#ffffff;fill-opacity:1;stroke:#000000;stroke-width:0.8"
     id="use14" />
  <use
     xlink:href="#DejaVuSans-38"
     id="use15"
     transform="matrix(0.12,0,0,-0.12,442.63686,329.1419)"
     style="fill:#ffffff;fill-opacity:1" />
  <use
     xlink:href="#DejaVuSans-30"
     transform="matrix(0.12,0,0,-0.12,450.27163,329.1419)"
     id="use16"
     style="fill:#ffffff;fill-opacity:1" />
  <path
     d="M 541.97628,313.02377 V 29.259788"
     clip-path="url(#p17eb142781)"
     style="fill:#141230;fill-opacity:1;stroke:#e0e0e0;stroke-width:0.8;stroke-dasharray:2.96, 1.28;stroke-dashoffset:0;stroke-opacity:0.7"
     id="path16" />
  <use
     xlink:href="#mc2cab82d41"
     x="541.97626"
     y="313.02377"
     style="fill:#ffffff;fill-opacity:1;stroke:#000000;stroke-width:0.8"
     id="use17" />
  <use
     xlink:href="#DejaVuSans-31"
     id="use18"
     transform="matrix(0.12,0,0,-0.12,530.52378,329.1419)"
     style="fill:#ffffff;fill-opacity:1" />
  <use
     xlink:href="#DejaVuSans-30"
     transform="matrix(0.12,0,0,-0.12,538.15855,329.1419)"
     id="use19"
     style="fill:#ffffff;fill-opacity:1" />
  <use
     xlink:href="#DejaVuSans-30"
     transform="matrix(0.12,0,0,-0.12,545.79331,329.1419)"
     id="use20"
     style="fill:#ffffff;fill-opacity:1" />
  <use
     xlink:href="#DejaVuSans-54"
     id="use21"
     transform="matrix(0.14,0,0,-0.14,295.58821,346.27534)"
     style="fill:#ffffff;fill-opacity:1" />
  <use
     xlink:href="#DejaVuSans-69"
     transform="matrix(0.14,0,0,-0.14,303.70247,346.27534)"
     id="use22"
     style="fill:#ffffff;fill-opacity:1" />
  <use
     xlink:href="#DejaVuSans-6d"
     transform="matrix(0.14,0,0,-0.14,307.59212,346.27534)"
     id="use23"
     style="fill:#ffffff;fill-opacity:1" />
  <use
     xlink:href="#DejaVuSans-65"
     transform="matrix(0.14,0,0,-0.14,321.22981,346.27534)"
     id="use24"
     style="fill:#ffffff;fill-opacity:1" />
  <path
     d="M 60.528111,309.33853 H 564.90238"
     clip-path="url(#p17eb142781)"
     style="fill:#ffffff;fill-opacity:1;stroke:#e0e0e0;stroke-width:0.8;stroke-dasharray:2.96, 1.28;stroke-dashoffset:0;stroke-opacity:0.7"
     id="path24" />
  <path
     id="use25"
     d="m 60.528111,309.33853 h -3.5"
     style="fill:#ffffff;fill-opacity:1;stroke:#ffffff;stroke-width:0.8" />
  <use
     xlink:href="#DejaVuSans-2212"
     id="use26"
     transform="matrix(0.12,0,0,-0.12,28.202486,313.89759)"
     style="fill:#ffffff;fill-opacity:1" />
  <path
     id="use27"
     d="m 39.745923,312.90196 h 1.933125 v -6.675 l -2.10375,0.42188 v -1.07813 l 2.0925,-0.42187 h 1.183125 v 7.75312 h 1.933125 v 0.99563 h -5.038125 z"
     style="fill:#ffffff;fill-opacity:1;stroke-width:0.001875;stroke:#ffffff" />
  <path
     id="use28"
     d="m 49.705689,305.92884 q -0.913125,0 -1.374375,0.9 -0.459375,0.89812 -0.459375,2.70375 0,1.79812 0.459375,2.69812 0.46125,0.9 1.374375,0.9 0.920625,0 1.38,-0.9 0.46125,-0.9 0.46125,-2.69812 0,-1.80563 -0.46125,-2.70375 -0.459375,-0.9 -1.38,-0.9 z m 0,-0.9375 q 1.471875,0 2.248125,1.16437 0.77625,1.1625 0.77625,3.37688 0,2.20875 -0.77625,3.37312 -0.77625,1.1625 -2.248125,1.1625 -1.47,0 -2.24625,-1.1625 -0.77625,-1.16437 -0.77625,-3.37312 0,-2.21438 0.77625,-3.37688 0.77625,-1.16437 2.24625,-1.16437 z"
     style="fill:#ffffff;fill-opacity:1;stroke-width:0.001875;stroke:#ffffff" />
  <path
     d="M 60.528111,263.27294 H 564.90238"
     clip-path="url(#p17eb142781)"
     style="fill:#ffffff;fill-opacity:1;stroke:#e0e0e0;stroke-width:0.8;stroke-dasharray:2.96, 1.28;stroke-dashoffset:0;stroke-opacity:0.7"
     id="path28" />
  <path
     id="use29"
     d="m 60.528111,263.27295 h -3.5"
     style="fill:#ffffff;fill-opacity:1;stroke:#ffffff;stroke-width:0.8" />
  <use
     xlink:href="#DejaVuSans-2212"
     id="use30"
     transform="matrix(0.12,0,0,-0.12,35.837486,267.83201)"
     style="fill:#ffffff;fill-opacity:1" />
  <path
     id="use31"
     d="m 47.187798,259.08326 h 4.64625 v 0.9975 h -3.5625 v 2.14313 q 0.256875,-0.0881 0.51375,-0.13125 0.25875,-0.0431 0.5175,-0.0431 1.464375,0 2.319375,0.8025 0.856875,0.8025 0.856875,2.17313 0,1.41187 -0.879375,2.19562 -0.879375,0.78187 -2.47875,0.78187 -0.55125,0 -1.123125,-0.0937 -0.57,-0.0937 -1.179375,-0.28125 v -1.19062 q 0.526875,0.28688 1.089375,0.4275 0.5625,0.14063 1.18875,0.14063 1.014375,0 1.605,-0.5325 0.5925,-0.53251 0.5925,-1.4475 0,-0.91313 -0.5925,-1.44563 -0.590625,-0.53437 -1.605,-0.53437 -0.474375,0 -0.946875,0.105 -0.470625,0.105 -0.961875,0.32812 z"
     style="fill:#ffffff;fill-opacity:1;stroke-width:0.001875;stroke:#ffffff" />
  <path
     d="M 60.528111,217.20736 H 564.90238"
     clip-path="url(#p17eb142781)"
     style="fill:#ffffff;fill-opacity:1;stroke:#e0e0e0;stroke-width:0.8;stroke-dasharray:2.96, 1.28;stroke-dashoffset:0;stroke-opacity:0.7"
     id="path31" />
  <path
     id="use32"
     d="m 60.528111,217.20737 h -3.5"
     style="fill:#ffffff;fill-opacity:1;stroke:#ffffff;stroke-width:0.8" />
  <path
     id="use33"
     d="m 49.706861,213.79768 q -0.913125,0 -1.374375,0.9 -0.459375,0.89813 -0.459375,2.70375 0,1.79812 0.459375,2.69812 0.46125,0.90001 1.374375,0.90001 0.920625,0 1.38,-0.90001 0.46125,-0.9 0.46125,-2.69812 0,-1.80562 -0.46125,-2.70375 -0.459375,-0.9 -1.38,-0.9 z m 0,-0.9375 q 1.471875,0 2.248125,1.16438 0.77625,1.1625 0.77625,3.37687 0,2.20875 -0.77625,3.37313 -0.77625,1.1625 -2.248125,1.1625 -1.47,0 -2.24625,-1.1625 -0.77625,-1.16438 -0.77625,-3.37313 0,-2.21437 0.77625,-3.37687 0.77625,-1.16438 2.24625,-1.16438 z"
     style="fill:#ffffff;fill-opacity:1;stroke-width:0.001875;stroke:#ffffff" />
  <path
     d="M 60.528111,171.14178 H 564.90238"
     clip-path="url(#p17eb142781)"
     style="fill:#ffffff;fill-opacity:1;stroke:#e0e0e0;stroke-width:0.8;stroke-dasharray:2.96, 1.28;stroke-dashoffset:0;stroke-opacity:0.7"
     id="path33" />
  <path
     id="use34"
     d="m 60.528111,171.14178 h -3.5"
     style="fill:#ffffff;fill-opacity:1;stroke:#ffffff;stroke-width:0.8" />
  <path
     id="use35"
     d="m 47.188736,166.95209 h 4.64625 v 0.9975 h -3.5625 v 2.14312 q 0.256875,-0.0881 0.51375,-0.13125 0.25875,-0.0431 0.5175,-0.0431 1.464375,0 2.319375,0.8025 0.856875,0.8025 0.856875,2.17312 0,1.41188 -0.879375,2.19563 -0.879375,0.78187 -2.47875,0.78187 -0.55125,0 -1.123125,-0.0937 -0.57,-0.0937 -1.179375,-0.28125 v -1.19062 q 0.526875,0.28687 1.089375,0.4275 0.5625,0.14062 1.18875,0.14062 1.014375,0 1.605,-0.5325 0.5925,-0.5325 0.5925,-1.4475 0,-0.91312 -0.5925,-1.44562 -0.590625,-0.53438 -1.605,-0.53438 -0.474375,0 -0.946875,0.105 -0.470625,0.105 -0.961875,0.32813 z"
     style="fill:#ffffff;fill-opacity:1;stroke-width:0.001875;stroke:#ffffff" />
  <path
     d="M 60.528111,125.0762 H 564.90238"
     clip-path="url(#p17eb142781)"
     style="fill:#141230;fill-opacity:1;stroke:#e0e0e0;stroke-width:0.8;stroke-dasharray:2.96, 1.28;stroke-dashoffset:0;stroke-opacity:0.7"
     id="path35" />
  <path
     id="use36"
     d="m 60.528111,125.0762 h -3.5"
     style="fill:#ffffff;fill-opacity:1;stroke:#ffffff;stroke-width:0.8" />
  <path
     id="use37"
     d="m 39.746861,128.63963 h 1.933125 v -6.675 l -2.10375,0.42188 v -1.07813 l 2.0925,-0.42187 h 1.183125 v 7.75312 h 1.933125 v 0.99563 h -5.038125 z"
     style="fill:#ffffff;fill-opacity:1;stroke-width:0.001875;stroke:#ffffff" />
  <path
     id="use38"
     d="m 49.706627,121.66651 q -0.913125,0 -1.374375,0.9 -0.459375,0.89812 -0.459375,2.70375 0,1.79812 0.459375,2.69812 0.46125,0.9 1.374375,0.9 0.920625,0 1.38,-0.9 0.46125,-0.9 0.46125,-2.69812 0,-1.80563 -0.46125,-2.70375 -0.459375,-0.9 -1.38,-0.9 z m 0,-0.9375 q 1.471875,0 2.248125,1.16437 0.77625,1.1625 0.77625,3.37688 0,2.20875 -0.77625,3.37312 -0.77625,1.1625 -2.248125,1.1625 -1.47,0 -2.24625,-1.1625 -0.77625,-1.16437 -0.77625,-3.37312 0,-2.21438 0.77625,-3.37688 0.77625,-1.16437 2.24625,-1.16437 z"
     style="fill:#ffffff;fill-opacity:1;stroke-width:0.001875;stroke:#ffffff" />
  <path
     d="M 60.528111,79.010617 H 564.90238"
     clip-path="url(#p17eb142781)"
     style="fill:#141230;fill-opacity:1;stroke:#e0e0e0;stroke-width:0.8;stroke-dasharray:2.96, 1.28;stroke-dashoffset:0;stroke-opacity:0.7"
     id="path38" />
  <path
     id="use39"
     d="m 60.528111,79.01062 h -3.5"
     style="fill:#ffffff;fill-opacity:1;stroke:#ffffff;stroke-width:0.8" />
  <path
     id="use40"
     d="m 39.746861,82.574054 h 1.933125 v -6.675 l -2.10375,0.421875 v -1.078125 l 2.0925,-0.421875 h 1.183125 v 7.753125 h 1.933125 v 0.995625 h -5.038125 z"
     style="fill:#ffffff;fill-opacity:1;stroke-width:0.001875;stroke:#ffffff" />
  <path
     id="use41"
     d="m 47.188502,74.820929 h 4.64625 v 0.9975 h -3.5625 v 2.143125 q 0.256875,-0.08813 0.51375,-0.13125 0.25875,-0.04313 0.5175,-0.04313 1.464375,0 2.319375,0.8025 0.856875,0.8025 0.856875,2.173125 0,1.411875 -0.879375,2.195625 -0.879375,0.781875 -2.47875,0.781875 -0.55125,0 -1.123125,-0.09375 -0.57,-0.09375 -1.179375,-0.28125 v -1.190625 q 0.526875,0.286875 1.089375,0.4275 0.5625,0.140625 1.18875,0.140625 1.014375,0 1.605,-0.5325 0.5925,-0.5325 0.5925,-1.4475 0,-0.913125 -0.5925,-1.445625 -0.590625,-0.534375 -1.605,-0.534375 -0.474375,0 -0.946875,0.105 -0.470625,0.105 -0.961875,0.328125 z"
     style="fill:#ffffff;fill-opacity:1;stroke-width:0.001875;stroke:#ffffff" />
  <path
     d="M 60.528111,32.945035 H 564.90238"
     clip-path="url(#p17eb142781)"
     style="fill:#141230;fill-opacity:1;stroke:#e0e0e0;stroke-width:0.8;stroke-dasharray:2.96, 1.28;stroke-dashoffset:0;stroke-opacity:0.7"
     id="path41" />
  <path
     id="use42"
     d="m 60.528111,32.945034 h -3.5"
     style="fill:#ffffff;fill-opacity:1;stroke:#ffffff;stroke-width:0.8" />
  <path
     id="use43"
     d="m 40.560611,36.508472 h 4.130625 v 0.995625 h -5.55375 v -0.995625 q 0.673125,-0.6975 1.835625,-1.87125 1.164375,-1.175625 1.4625,-1.516875 0.568125,-0.6375 0.793125,-1.08 0.226875,-0.4425 0.226875,-0.87 0,-0.6975 -0.489375,-1.13625 -0.489375,-0.440625 -1.275,-0.440625 -0.556875,0 -1.175625,0.193125 -0.616875,0.193125 -1.32,0.586875 v -1.19625 q 0.714375,-0.286875 1.335,-0.433125 0.6225,-0.14625 1.138125,-0.14625 1.359375,0 2.1675,0.680625 0.808125,0.67875 0.808125,1.815 0,0.54 -0.2025,1.02375 -0.200625,0.481875 -0.735,1.138125 -0.14625,0.170625 -0.931875,0.9825 -0.78375,0.811875 -2.214375,2.270625 z"
     style="fill:#ffffff;fill-opacity:1;stroke-width:0.001875;stroke:#ffffff" />
  <path
     id="use44"
     d="m 49.706627,29.535347 q -0.913125,0 -1.374375,0.9 -0.459375,0.898125 -0.459375,2.70375 0,1.798125 0.459375,2.698125 0.46125,0.9 1.374375,0.9 0.920625,0 1.38,-0.9 0.46125,-0.9 0.46125,-2.698125 0,-1.805625 -0.46125,-2.70375 -0.459375,-0.9 -1.38,-0.9 z m 0,-0.9375 q 1.471875,0 2.248125,1.164375 0.77625,1.1625 0.77625,3.376875 0,2.20875 -0.77625,3.373125 -0.77625,1.1625 -2.248125,1.1625 -1.47,0 -2.24625,-1.1625 -0.77625,-1.164375 -0.77625,-3.373125 0,-2.214375 0.77625,-3.376875 0.77625,-1.164375 2.24625,-1.164375 z"
     style="fill:#ffffff;fill-opacity:1;stroke-width:0.001875;stroke:#ffffff" />
  <use
     xlink:href="#DejaVuSans-45"
     id="use45"
     transform="matrix(0,-0.14,-0.14,0,21.290923,209.81787)"
     style="fill:#ffffff;fill-opacity:1" />
  <use
     xlink:href="#DejaVuSans-69"
     transform="matrix(0,-0.14,-0.14,0,21.290923,200.97217)"
     id="use46"
     style="fill:#ffffff;fill-opacity:1" />
  <use
     xlink:href="#DejaVuSans-67"
     transform="matrix(0,-0.14,-0.14,0,21.290923,197.08252)"
     id="use47"
     style="fill:#ffffff;fill-opacity:1" />
  <use
     xlink:href="#DejaVuSans-65"
     transform="matrix(0,-0.14,-0.14,0,21.290923,188.1958)"
     id="use48"
     style="fill:#ffffff;fill-opacity:1" />
  <use
     xlink:href="#DejaVuSans-6e"
     transform="matrix(0,-0.14,-0.14,0,21.290923,179.58252)"
     id="use49"
     style="fill:#ffffff;fill-opacity:1" />
  <use
     xlink:href="#DejaVuSans-76"
     transform="matrix(0,-0.14,-0.14,0,21.290923,170.70947)"
     id="use50"
     style="fill:#ffffff;fill-opacity:1" />
  <use
     xlink:href="#DejaVuSans-61"
     transform="matrix(0,-0.14,-0.14,0,21.290923,162.42432)"
     id="use51"
     style="fill:#ffffff;fill-opacity:1" />
  <use
     xlink:href="#DejaVuSans-6c"
     transform="matrix(0,-0.14,-0.14,0,21.290923,153.84521)"
     id="use52"
     style="fill:#ffffff;fill-opacity:1" />
  <use
     xlink:href="#DejaVuSans-75"
     transform="matrix(0,-0.14,-0.14,0,21.290923,149.95557)"
     id="use53"
     style="fill:#ffffff;fill-opacity:1" />
  <use
     xlink:href="#DejaVuSans-65"
     transform="matrix(0,-0.14,-0.14,0,21.290923,141.08252)"
     id="use54"
     style="fill:#ffffff;fill-opacity:1" />
  <path
     d="m 83.454214,254.05983 12.404905,-0.76406 13.783231,-0.62144 14.70211,-0.43954 16.08043,-0.256 16.99932,-0.048 17.91819,0.174 17.9182,0.3945 17.9182,0.61798 16.99931,0.80619 16.08043,0.97847 15.621,1.17102 15.16155,1.35906 15.16155,1.58266 15.62099,1.85387 16.99932,2.24458 19.29652,2.78002 22.5126,3.47443 28.0259,4.562 35.37695,5.99636 45.48466,7.94595 58.349,10.42805 10.1077,1.82549 v 0"
     clip-path="url(#p17eb142781)"
     style="fill:none;fill-opacity:1;stroke:#ac115f;stroke-width:1.5;stroke-dasharray:5.55, 2.4;stroke-dashoffset:0"
     id="path54" />
  <path
     d="m 83.454214,235.6336 28.944776,2.06336 25.7287,2.05159 23.43148,2.08538 22.51261,2.2246 22.05317,2.4024 22.05316,2.62385 22.97205,2.95692 24.35037,3.35993 26.64757,3.90679 29.40422,4.54163 33.07975,5.33896 38.1336,6.38476 45.02521,7.77112 54.21403,9.5918 39.97137,7.18872 v 0"
     clip-path="url(#p17eb142781)"
     style="fill:none;fill-opacity:1;stroke:#ac115f;stroke-width:1.5;stroke-dasharray:5.55, 2.4;stroke-dashoffset:0"
     id="path55" />
  <path
     d="m 83.454214,235.6336 27.566456,1.17154 27.10702,1.37331 27.10701,1.59652 26.64758,1.79029 26.64757,2.01137 26.64758,2.2321 27.10701,2.49262 28.0259,2.8021 29.40422,3.16734 31.24198,3.59258 33.99863,4.13697 38.1336,4.87082 43.18745,5.7467 50.53851,6.95637 15.16155,2.12495 v 0"
     clip-path="url(#p17eb142781)"
     style="fill:none;fill-opacity:1;stroke:#ac115f;stroke-width:1.5;stroke-dasharray:5.55, 2.4;stroke-dashoffset:0"
     id="path56" />
  <path
     d="m 83.454214,235.6336 24.350366,0.16553 24.35037,0.39192 24.80981,0.62544 26.18814,0.88496 28.94478,1.20481 8.72938,0.46778 28.02589,4.18234 23.89093,3.34415 23.89093,3.11781 30.78255,3.77209 70.7539,8.60666 39.97136,5.13511 44.10633,5.89613 51.45739,7.10988 8.26994,1.16097 v 0"
     clip-path="url(#p17eb142781)"
     style="fill:none;fill-opacity:1;stroke:#ac115f;stroke-width:1.5;stroke-dasharray:5.55, 2.4;stroke-dashoffset:0"
     id="path57" />
  <path
     d="m 83.454214,235.6336 10.567142,-2.29838 10.107704,-1.96851 10.1077,-1.73582 10.1077,-1.50168 10.1077,-1.27147 4.59441,-0.50381 1.83776,0.2645 56.0518,9.03229 23.43148,3.63678 33.53919,1.6863 37.21472,2.09689 37.67416,2.34371 36.29583,2.47631 34.91751,2.6015 34.45808,2.78849 35.37695,3.08747 37.67416,3.5153 34.45807,3.38947 v 0"
     clip-path="url(#p17eb142781)"
     style="fill:none;fill-opacity:1;stroke:#ac115f;stroke-width:1.5;stroke-dasharray:5.55, 2.4;stroke-dashoffset:0"
     id="path58" />
  <path
     d="m 83.454214,217.20736 56.051796,9.09869 10.1077,-0.94113 2.2972,-0.1123 63.40285,7.29684 40.43081,4.43513 33.07975,3.40696 31.24198,2.99118 34.45807,3.06546 69.83502,5.90807 45.02522,3.96083 39.97136,3.74294 32.62031,3.21291 v 0"
     clip-path="url(#p17eb142781)"
     style="fill:none;fill-opacity:1;stroke:#ac115f;stroke-width:1.5;stroke-dasharray:5.55, 2.4;stroke-dashoffset:0"
     id="path59" />
  <path
     d="m 83.454214,217.20736 68.456696,7.97305 10.56715,-0.71375 11.02658,-0.5175 11.02658,-0.2986 5.51329,-0.018 351.93177,21.21417 v 0"
     clip-path="url(#p17eb142781)"
     style="fill:none;fill-opacity:1;stroke:#ac115f;stroke-width:1.5;stroke-dasharray:5.55, 2.4;stroke-dashoffset:0"
     id="path60" />
  <path
     d="m 83.454214,217.20736 107.049736,6.36765 11.94547,0.0173 12.86434,0.24429 14.24267,0.49884 16.53988,0.81087 20.67484,1.25032 29.86366,2.05269 124.96794,8.80243 58.80844,3.80599 61.56509,3.789 v 0"
     clip-path="url(#p17eb142781)"
     style="fill:none;fill-opacity:1;stroke:#ac115f;stroke-width:1.5;stroke-dasharray:5.55, 2.4;stroke-dashoffset:0"
     id="path61" />
  <path
     d="m 83.454214,217.20736 67.537816,1.04011 30.3231,0.69018 23.89093,0.76045 21.13429,0.89517 19.75596,1.05743 20.2154,1.30552 22.05316,1.65073 21.59373,1.82623 35.83639,3.49013 34.45807,3.13608 33.99863,2.87071 33.99863,2.64629 35.37696,2.52811 38.1336,2.4987 20.2154,1.24351 v 0"
     clip-path="url(#p17eb142781)"
     style="fill:none;fill-opacity:1;stroke:#ac115f;stroke-width:1.5;stroke-dasharray:5.55, 2.4;stroke-dashoffset:0"
     id="path62" />
  <path
     d="m 83.454214,217.20736 79.023846,-3.36089 25.72869,-0.92558 32.62031,3.88453 34.91751,3.9335 36.29583,3.86652 20.67484,2.02813 40.89025,3.64701 57.43012,5.08698 34.91751,2.85934 33.07975,2.48392 33.53919,2.29323 29.40422,1.84266 v 0"
     clip-path="url(#p17eb142781)"
     style="fill:none;fill-opacity:1;stroke:#ac115f;stroke-width:1.5;stroke-dasharray:5.55, 2.4;stroke-dashoffset:0"
     id="path63" />
  <path
     d="m 83.454214,217.20736 22.053166,-5.44318 11.02658,-2.49324 9.18882,-1.85115 7.8105,-1.35651 0.91888,-0.0604 30.3231,3.9867 23.43149,2.91583 26.18813,-0.76856 23.43149,-0.46385 25.26925,-0.26643 46.86298,-0.20798 49.16018,-0.3236 48.2413,-0.54965 57.43012,-0.88546 72.13223,-1.34448 5.05385,-0.10116 v 0"
     clip-path="url(#p17eb142781)"
     style="fill:none;fill-opacity:1;stroke:#ac115f;stroke-width:1.5;stroke-dasharray:5.55, 2.4;stroke-dashoffset:0"
     id="path64" />
  <path
     d="m 83.454214,198.78113 30.323106,4.37223 20.2154,2.78737 1.37832,-0.16335 5.51329,-0.77595 2.75665,0.23422 18.37763,1.58244 16.53988,1.20691 16.08043,0.9548 16.53988,0.75644 17.45875,0.57499 20.2154,0.43522 23.89093,0.2816 28.94478,0.10832 34.45807,-0.0998 41.34969,-0.348 50.07906,-0.65088 62.02453,-1.03664 52.37627,-1.00682 v 0"
     clip-path="url(#p17eb142781)"
     style="fill:none;fill-opacity:1;stroke:#ac115f;stroke-width:1.5;stroke-dasharray:5.55, 2.4;stroke-dashoffset:0"
     id="path65" />
  <path
     d="m 83.454214,198.78113 26.188136,2.99896 22.05316,2.31022 9.64826,0.85212 7.35106,-0.82372 7.35105,-0.60217 12.40491,0.4806 16.99931,0.48149 16.99932,0.25994 17.45875,0.0408 18.37764,-0.18406 20.2154,-0.43077 22.97205,-0.71689 27.56646,-1.09036 34.45807,-1.59741 44.10633,-2.27924 58.349,-3.25056 78.10496,-4.58553 17.9182,-1.0765 v 0"
     clip-path="url(#p17eb142781)"
     style="fill:none;fill-opacity:1;stroke:#ac115f;stroke-width:1.5;stroke-dasharray:5.55, 2.4;stroke-dashoffset:0"
     id="path66" />
  <path
     d="m 83.454214,198.78113 23.431486,1.82344 21.13428,1.42246 19.29652,1.07579 9.18882,0.38308 7.8105,-0.40624 8.72938,-0.23199 10.56714,-0.0496 14.70211,0.17851 41.34968,0.62164 16.99932,-0.0389 17.45876,-0.26863 19.29652,-0.52344 23.43148,-0.86771 29.86366,-1.34296 39.51193,-2.01348 54.21403,-2.99914 75.34831,-4.40518 26.18814,-1.57076 v 0"
     clip-path="url(#p17eb142781)"
     style="fill:none;fill-opacity:1;stroke:#ac115f;stroke-width:1.5;stroke-dasharray:5.55, 2.4;stroke-dashoffset:0"
     id="path67" />
  <path
     d="m 83.454214,198.78113 10.567142,-1.68458 10.107704,-1.83539 10.1077,-2.0557 10.56714,-2.37795 11.02658,-2.71508 11.48602,-3.05765 12.40491,-3.53159 13.78323,-4.15886 15.62099,-4.95519 17.45876,-5.77504 20.67484,-7.08106 24.35037,-8.58263 29.86366,-10.77305 36.75528,-13.50599 46.86297,-17.46867 61.10565,-23.027755 82.23993,-31.243706 33.53919,-12.793088 v 0"
     clip-path="url(#p17eb142781)"
     style="fill:none;fill-opacity:1;stroke:#ac115f;stroke-width:1.5;stroke-dasharray:5.55, 2.4;stroke-dashoffset:0"
     id="path68" />
  <path
     d="m 83.454214,180.3549 11.486023,0.92994 10.107703,0.59937 8.72938,0.30127 7.81049,0.0559 7.35106,-0.16857 6.89161,-0.38103 6.43217,-0.5677 6.43218,-0.77987 6.89161,-1.0678 6.89162,-1.29323 7.35105,-1.60137 8.26994,-2.03459 9.18882,-2.49536 10.56714,-3.10585 12.4049,-3.88449 14.70211,-4.84058 18.37764,-6.29645 22.51261,-7.95705 28.94478,-10.47927 37.21472,-13.72384 48.70074,-18.20955 65.24061,-24.644962 89.13154,-33.921148 6.89162,-2.630559 v 0"
     clip-path="url(#p17eb142781)"
     style="fill:none;fill-opacity:1;stroke:#ac115f;stroke-width:1.5;stroke-dasharray:5.55, 2.4;stroke-dashoffset:0"
     id="path69" />
  <path
     d="M 60.528111,313.02377 V 29.259788"
     style="fill:#ffffff;fill-opacity:1;stroke:#ffffff;stroke-width:0.8;stroke-linecap:square;stroke-linejoin:miter"
     id="path70" />
  <path
     d="M 564.90238,313.02377 V 29.259788"
     style="fill:#ffffff;fill-opacity:1;stroke:#ffffff;stroke-width:0.8;stroke-linecap:square;stroke-linejoin:miter"
     id="path71" />
  <path
     d="M 60.528111,313.02377 H 564.90238"
     style="fill:#ffffff;fill-opacity:1;stroke:#ffffff;stroke-width:0.8;stroke-linecap:square;stroke-linejoin:miter"
     id="path72" />
  <path
     d="M 60.528111,29.259788 H 564.90238"
     style="fill:#141230;fill-opacity:1;stroke:#ffffff;stroke-width:0.8;stroke-linecap:square;stroke-linejoin:miter"
     id="path73" />
  <use
     xlink:href="#DejaVuSans-53"
     id="use73"
     transform="matrix(0.16,0,0,-0.16,225.04024,23.259788)"
     style="fill:#ffffff;fill-opacity:1" />
  <use
     xlink:href="#DejaVuSans-63"
     transform="matrix(0.16,0,0,-0.16,235.19649,23.259788)"
     id="use74"
     style="fill:#ffffff;fill-opacity:1" />
  <use
     xlink:href="#DejaVuSans-68"
     transform="matrix(0.16,0,0,-0.16,243.99336,23.259788)"
     id="use75"
     style="fill:#ffffff;fill-opacity:1" />
  <use
     xlink:href="#DejaVuSans-65"
     transform="matrix(0.16,0,0,-0.16,254.13399,23.259788)"
     id="use76"
     style="fill:#ffffff;fill-opacity:1" />
  <use
     xlink:href="#DejaVuSans-64"
     transform="matrix(0.16,0,0,-0.16,263.97774,23.259788)"
     id="use77"
     style="fill:#ffffff;fill-opacity:1" />
  <use
     xlink:href="#DejaVuSans-75"
     transform="matrix(0.16,0,0,-0.16,274.13399,23.259788)"
     id="use78"
     style="fill:#ffffff;fill-opacity:1" />
  <use
     xlink:href="#DejaVuSans-6c"
     transform="matrix(0.16,0,0,-0.16,284.27461,23.259788)"
     id="use79"
     style="fill:#ffffff;fill-opacity:1" />
  <use
     xlink:href="#DejaVuSans-65"
     transform="matrix(0.16,0,0,-0.16,288.71993,23.259788)"
     id="use80"
     style="fill:#ffffff;fill-opacity:1" />
  <use
     xlink:href="#DejaVuSans-20"
     transform="matrix(0.16,0,0,-0.16,298.56368,23.259788)"
     id="use81"
     style="fill:#141230;fill-opacity:1" />
  <use
     xlink:href="#DejaVuSans-45"
     transform="matrix(0.16,0,0,-0.16,303.64961,23.259788)"
     id="use82"
     style="fill:#ffffff;fill-opacity:1" />
  <use
     xlink:href="#DejaVuSans-69"
     transform="matrix(0.16,0,0,-0.16,313.75899,23.259788)"
     id="use83"
     style="fill:#ffffff;fill-opacity:1" />
  <use
     xlink:href="#DejaVuSans-67"
     transform="matrix(0.16,0,0,-0.16,318.2043,23.259788)"
     id="use84"
     style="fill:#ffffff;fill-opacity:1" />
  <use
     xlink:href="#DejaVuSans-65"
     transform="matrix(0.16,0,0,-0.16,328.36055,23.259788)"
     id="use85"
     style="fill:#ffffff;fill-opacity:1" />
  <use
     xlink:href="#DejaVuSans-6e"
     transform="matrix(0.16,0,0,-0.16,338.2043,23.259788)"
     id="use86"
     style="fill:#ffffff;fill-opacity:1" />
  <use
     xlink:href="#DejaVuSans-76"
     transform="matrix(0.16,0,0,-0.16,348.34493,23.259788)"
     id="use87"
     style="fill:#ffffff;fill-opacity:1" />
  <use
     xlink:href="#DejaVuSans-61"
     transform="matrix(0.16,0,0,-0.16,357.81368,23.259788)"
     id="use88"
     style="fill:#ffffff;fill-opacity:1" />
  <use
     xlink:href="#DejaVuSans-6c"
     transform="matrix(0.16,0,0,-0.16,367.61836,23.259788)"
     id="use89"
     style="fill:#ffffff;fill-opacity:1" />
  <use
     xlink:href="#DejaVuSans-75"
     transform="matrix(0.16,0,0,-0.16,372.06368,23.259788)"
     id="use90"
     style="fill:#ffffff;fill-opacity:1" />
  <use
     xlink:href="#DejaVuSans-65"
     transform="matrix(0.16,0,0,-0.16,382.2043,23.259788)"
     id="use91"
     style="fill:#ffffff;fill-opacity:1" />
  <use
     xlink:href="#DejaVuSans-73"
     transform="matrix(0.16,0,0,-0.16,392.04805,23.259788)"
     id="use92"
     style="fill:#ffffff;fill-opacity:1" />
  <path
     d="M 68.928111,74.087288 H 251.00374 q 2.4,0 2.4,-2.4 v -34.0275 q 0,-2.4 -2.4,-2.4 H 68.928111 q -2.4,0 -2.4,2.4 v 34.0275 q 0,2.4 2.4,2.4 z"
     style="opacity:0.8;fill:#ffffff;fill-opacity:1;stroke:#cacaca;stroke-linejoin:miter"
     id="path92" />
  <path
     d="m 71.328111,44.977913 h 12 12"
     style="fill:#141230;fill-opacity:1;stroke:#ac115f;stroke-width:1.5;stroke-dasharray:5.55, 2.4;stroke-dashoffset:0"
     id="path93" />
  <use
     xlink:href="#DejaVuSans-45"
     id="use93"
     transform="matrix(0.12,0,0,-0.12,104.92811,49.177913)"
     style="fill:#141230;fill-opacity:1" />
  <use
     xlink:href="#DejaVuSans-69"
     transform="matrix(0.12,0,0,-0.12,112.51014,49.177913)"
     id="use94"
     style="fill:#141230;fill-opacity:1" />
  <use
     xlink:href="#DejaVuSans-67"
     transform="matrix(0.12,0,0,-0.12,115.84413,49.177913)"
     id="use95"
     style="fill:#141230;fill-opacity:1" />
  <use
     xlink:href="#DejaVuSans-65"
     transform="matrix(0.12,0,0,-0.12,123.46131,49.177913)"
     id="use96"
     style="fill:#141230;fill-opacity:1" />
  <use
     xlink:href="#DejaVuSans-6e"
     transform="matrix(0.12,0,0,-0.12,130.84413,49.177913)"
     id="use97"
     style="fill:#141230;fill-opacity:1" />
  <use
     xlink:href="#DejaVuSans-76"
     transform="matrix(0.12,0,0,-0.12,138.44959,49.177913)"
     id="use98"
     style="fill:#141230;fill-opacity:1" />
  <use
     xlink:href="#DejaVuSans-61"
     transform="matrix(0.12,0,0,-0.12,145.55116,49.177913)"
     id="use99"
     style="fill:#141230;fill-opacity:1" />
  <use
     xlink:href="#DejaVuSans-6c"
     transform="matrix(0.12,0,0,-0.12,152.90467,49.177913)"
     id="use100"
     style="fill:#141230;fill-opacity:1" />
  <use
     xlink:href="#DejaVuSans-75"
     transform="matrix(0.12,0,0,-0.12,156.23866,49.177913)"
     id="use101"
     style="fill:#141230;fill-opacity:1" />
  <use
     xlink:href="#DejaVuSans-65"
     transform="matrix(0.12,0,0,-0.12,163.84413,49.177913)"
     id="use102"
     style="fill:#141230;fill-opacity:1" />
  <use
     xlink:href="#DejaVuSans-73"
     transform="matrix(0.12,0,0,-0.12,171.22694,49.177913)"
     id="use103"
     style="fill:#141230;fill-opacity:1" />
  <path
     d="m 71.328111,62.591663 h 12 12"
     style="fill:#141230;fill-opacity:1;stroke:#000000;stroke-width:1.5;stroke-linecap:square"
     id="path103" />
  <use
     xlink:href="#DejaVuSans-53"
     id="use104"
     transform="matrix(0.12,0,0,-0.12,104.92811,66.791663)"
     style="fill:#141230;fill-opacity:1" />
  <use
     xlink:href="#DejaVuSans-74"
     transform="matrix(0.12,0,0,-0.12,112.5453,66.791663)"
     id="use105"
     style="fill:#141230;fill-opacity:1" />
  <use
     xlink:href="#DejaVuSans-61"
     transform="matrix(0.12,0,0,-0.12,117.25038,66.791663)"
     id="use106"
     style="fill:#141230;fill-opacity:1" />
  <use
     xlink:href="#DejaVuSans-74"
     transform="matrix(0.12,0,0,-0.12,124.60389,66.791663)"
     id="use107"
     style="fill:#141230;fill-opacity:1" />
  <use
     xlink:href="#DejaVuSans-65"
     transform="matrix(0.12,0,0,-0.12,129.30897,66.791663)"
     id="use108"
     style="fill:#141230;fill-opacity:1" />
  <use
     xlink:href="#DejaVuSans-20"
     transform="matrix(0.12,0,0,-0.12,136.69178,66.791663)"
     id="use109"
     style="fill:#141230;fill-opacity:1" />
  <use
     xlink:href="#DejaVuSans-45"
     transform="matrix(0.12,0,0,-0.12,140.50623,66.791663)"
     id="use110"
     style="fill:#141230;fill-opacity:1" />
  <use
     xlink:href="#DejaVuSans-78"
     transform="matrix(0.12,0,0,-0.12,148.08827,66.791663)"
     id="use111"
     style="fill:#141230;fill-opacity:1" />
  <use
     xlink:href="#DejaVuSans-70"
     transform="matrix(0.12,0,0,-0.12,155.18983,66.791663)"
     id="use112"
     style="fill:#141230;fill-opacity:1" />
  <use
     xlink:href="#DejaVuSans-65"
     transform="matrix(0.12,0,0,-0.12,162.80702,66.791663)"
     id="use113"
     style="fill:#141230;fill-opacity:1" />
  <use
     xlink:href="#DejaVuSans-63"
     transform="matrix(0.12,0,0,-0.12,170.18983,66.791663)"
     id="use114"
     style="fill:#141230;fill-opacity:1" />
  <use
     xlink:href="#DejaVuSans-74"
     transform="matrix(0.12,0,0,-0.12,176.78748,66.791663)"
     id="use115"
     style="fill:#141230;fill-opacity:1" />
  <use
     xlink:href="#DejaVuSans-61"
     transform="matrix(0.12,0,0,-0.12,181.49256,66.791663)"
     id="use116"
     style="fill:#141230;fill-opacity:1" />
  <use
     xlink:href="#DejaVuSans-74"
     transform="matrix(0.12,0,0,-0.12,188.84608,66.791663)"
     id="use117"
     style="fill:#141230;fill-opacity:1" />
  <use
     xlink:href="#DejaVuSans-69"
     transform="matrix(0.12,0,0,-0.12,193.55116,66.791663)"
     id="use118"
     style="fill:#141230;fill-opacity:1" />
  <use
     xlink:href="#DejaVuSans-6f"
     transform="matrix(0.12,0,0,-0.12,196.88514,66.791663)"
     id="use119"
     style="fill:#141230;fill-opacity:1" />
  <use
     xlink:href="#DejaVuSans-6e"
     transform="matrix(0.12,0,0,-0.12,204.22694,66.791663)"
     id="use120"
     style="fill:#141230;fill-opacity:1" />
  <use
     xlink:href="#DejaVuSans-20"
     transform="matrix(0.12,0,0,-0.12,211.83241,66.791663)"
     id="use121"
     style="fill:#141230;fill-opacity:1" />
  <use
     xlink:href="#DejaVuSans-56"
     transform="matrix(0.12,0,0,-0.12,215.64686,66.791663)"
     id="use122"
     style="fill:#141230;fill-opacity:1" />
  <use
     xlink:href="#DejaVuSans-61"
     transform="matrix(0.12,0,0,-0.12,222.92584,66.791663)"
     id="use123"
     style="fill:#141230;fill-opacity:1" />
  <use
     xlink:href="#DejaVuSans-6c"
     transform="matrix(0.12,0,0,-0.12,230.27937,66.791663)"
     id="use124"
     style="fill:#141230;fill-opacity:1" />
  <use
     xlink:href="#DejaVuSans-75"
     transform="matrix(0.12,0,0,-0.12,233.61335,66.791663)"
     id="use125"
     style="fill:#141230;fill-opacity:1" />
  <use
     xlink:href="#DejaVuSans-65"
     transform="matrix(0.12,0,0,-0.12,241.21882,66.791663)"
     id="use126"
     style="fill:#141230;fill-opacity:1" />
  <path
     d="m 83.454214,254.05983 12.404905,-0.76563 15.161551,-0.6709 14.24267,-0.4119 15.62099,-0.23771 15.62099,-0.0465 17.9182,0.16148 16.53987,0.34532 16.99932,0.55227 17.45876,0.78818 17.45875,1.03107 15.16155,1.11319 14.70211,1.28745 15.16155,1.54795 15.16155,1.7654 16.53988,2.14756 17.9182,2.54087 21.13428,3.21503 27.10702,4.3635 33.53918,5.63871 45.48466,7.90321 60.6462,10.80642 16.53988,2.98286 v 0"
     clip-path="url(#p17eb142781)"
     style="fill:none;fill-opacity:1;stroke:#ffffff;stroke-width:1.5;stroke-linecap:square"
     id="path126" />
  <path
     d="m 83.454214,252.57336 q 0,0.74323 0,0.36844"
     style="fill:#ffffff;fill-opacity:1;stroke:#000000;stroke-linecap:round"
     id="path127" />
  <path
     d="m 84.574214,250.70179 -1.12,2.24001 -1.12,-2.24001"
     style="fill:#ffffff;fill-opacity:1;stroke:#ffffff;stroke-linecap:round"
     id="path128" />
  <path
     d="m 69.214901,250.57327 h 28.478625 q 1.12,0 1.12,-1.12 v -5.41975 q 0,-1.12 -1.12,-1.12 H 69.214901 q -1.12,0 -1.12,1.12 v 5.41975 q 0,1.12 1.12,1.12 z"
     style="opacity:0.8;fill:#ffffff;fill-opacity:1"
     id="path129" />
  <use
     xlink:href="#DejaVuSans-31"
     id="use129"
     transform="matrix(0.056,0,0,-0.056,69.214901,248.28865)"
     style="fill:#000000;fill-opacity:1" />
  <use
     xlink:href="#DejaVuSans-30"
     transform="matrix(0.056,0,0,-0.056,72.777792,248.28865)"
     id="use130"
     style="fill:#000000;fill-opacity:1" />
  <use
     xlink:href="#DejaVuSans-30"
     transform="matrix(0.056,0,0,-0.056,76.340682,248.28865)"
     id="use131"
     style="fill:#000000;fill-opacity:1" />
  <use
     xlink:href="#DejaVuSans-2e"
     transform="matrix(0.056,0,0,-0.056,79.903573,248.28865)"
     id="use132"
     style="fill:#000000;fill-opacity:1" />
  <use
     xlink:href="#DejaVuSans-30"
     transform="matrix(0.056,0,0,-0.056,81.683651,248.28865)"
     id="use133"
     style="fill:#000000;fill-opacity:1" />
  <use
     xlink:href="#DejaVuSans-30"
     transform="matrix(0.056,0,0,-0.056,85.246542,248.28865)"
     id="use134"
     style="fill:#000000;fill-opacity:1" />
  <use
     xlink:href="#DejaVuSans-30"
     transform="matrix(0.056,0,0,-0.056,88.809432,248.28865)"
     id="use135"
     style="fill:#000000;fill-opacity:1" />
  <use
     xlink:href="#DejaVuSans-25"
     transform="matrix(0.056,0,0,-0.056,92.372323,248.28865)"
     id="use136"
     style="fill:#000000;fill-opacity:1" />
  <path
     d="m 134.45216,250.5621 q 0,0.74324 0,0.36844"
     style="fill:#ffffff;fill-opacity:1;stroke:#000000;stroke-linecap:round"
     id="path136" />
  <path
     d="m 135.57216,248.69054 -1.12,2.24 -1.12,-2.24"
     style="fill:#ffffff;fill-opacity:1;stroke:#ffffff;stroke-linecap:round"
     id="path137" />
  <path
     d="m 121.99435,248.56201 h 24.91562 q 1.12,0 1.12,-1.12 v -5.41975 q 0,-1.12 -1.12,-1.12 h -24.91562 q -1.12,0 -1.12,1.12 v 5.41975 q 0,1.12 1.12,1.12 z"
     style="opacity:0.8;fill:#ffffff;fill-opacity:1"
     id="path138" />
  <use
     xlink:href="#DejaVuSans-39"
     id="use138"
     transform="matrix(0.056,0,0,-0.056,121.99435,246.27739)"
     style="fill:#000000;fill-opacity:1" />
  <use
     xlink:href="#DejaVuSans-39"
     transform="matrix(0.056,0,0,-0.056,125.55724,246.27739)"
     id="use139"
     style="fill:#000000;fill-opacity:1" />
  <use
     xlink:href="#DejaVuSans-2e"
     transform="matrix(0.056,0,0,-0.056,129.12013,246.27739)"
     id="use140"
     style="fill:#000000;fill-opacity:1" />
  <use
     xlink:href="#DejaVuSans-39"
     transform="matrix(0.056,0,0,-0.056,130.90021,246.27739)"
     id="use141"
     style="fill:#000000;fill-opacity:1" />
  <use
     xlink:href="#DejaVuSans-39"
     transform="matrix(0.056,0,0,-0.056,134.4631,246.27739)"
     id="use142"
     style="fill:#000000;fill-opacity:1" />
  <use
     xlink:href="#DejaVuSans-39"
     transform="matrix(0.056,0,0,-0.056,138.02599,246.27739)"
     id="use143"
     style="fill:#000000;fill-opacity:1" />
  <use
     xlink:href="#DejaVuSans-25"
     transform="matrix(0.056,0,0,-0.056,141.58888,246.27739)"
     id="use144"
     style="fill:#000000;fill-opacity:1" />
  <path
     d="m 185.4501,250.81384 q 0,0.74323 0,0.36843"
     style="fill:#ffffff;fill-opacity:1;stroke:#000000;stroke-linecap:round"
     id="path144" />
  <path
     d="m 186.5701,248.94227 -1.12,2.24 -1.12,-2.24"
     style="fill:#ffffff;fill-opacity:1;stroke:#ffffff;stroke-linecap:round"
     id="path145" />
  <path
     d="m 172.99229,248.81375 h 24.91563 q 1.12,0 1.12,-1.12 V 242.274 q 0,-1.12 -1.12,-1.12 h -24.91563 q -1.12,0 -1.12,1.12 v 5.41975 q 0,1.12 1.12,1.12 z"
     style="opacity:0.8;fill:#ffffff;fill-opacity:1"
     id="path146" />
  <use
     xlink:href="#DejaVuSans-39"
     id="use146"
     transform="matrix(0.056,0,0,-0.056,172.99229,246.52913)"
     style="fill:#000000;fill-opacity:1" />
  <use
     xlink:href="#DejaVuSans-39"
     transform="matrix(0.056,0,0,-0.056,176.55518,246.52913)"
     id="use147"
     style="fill:#000000;fill-opacity:1" />
  <use
     xlink:href="#DejaVuSans-2e"
     transform="matrix(0.056,0,0,-0.056,180.11807,246.52913)"
     id="use148"
     style="fill:#000000;fill-opacity:1" />
  <use
     xlink:href="#DejaVuSans-39"
     transform="matrix(0.056,0,0,-0.056,181.89815,246.52913)"
     id="use149"
     style="fill:#000000;fill-opacity:1" />
  <use
     xlink:href="#DejaVuSans-39"
     transform="matrix(0.056,0,0,-0.056,185.46104,246.52913)"
     id="use150"
     style="fill:#000000;fill-opacity:1" />
  <use
     xlink:href="#DejaVuSans-34"
     transform="matrix(0.056,0,0,-0.056,189.02393,246.52913)"
     id="use151"
     style="fill:#000000;fill-opacity:1" />
  <use
     xlink:href="#DejaVuSans-25"
     transform="matrix(0.056,0,0,-0.056,192.58682,246.52913)"
     id="use152"
     style="fill:#000000;fill-opacity:1" />
  <path
     d="m 185.4501,232.33909 q 0,0.74324 0,0.36844"
     style="fill:#ffffff;fill-opacity:1;stroke:#000000;stroke-linecap:round"
     id="path152" />
  <path
     d="m 186.5701,230.46753 -1.12,2.24 -1.12,-2.24"
     style="fill:#ffffff;fill-opacity:1;stroke:#ffffff;stroke-linecap:round"
     id="path153" />
  <path
     d="m 174.77379,230.339 h 21.35263 q 1.12,0 1.12,-1.12 v -5.41975 q 0,-1.12 -1.12,-1.12 h -21.35263 q -1.12,0 -1.12,1.12 v 5.41975 q 0,1.12 1.12,1.12 z"
     style="opacity:0.8;fill:#ffffff;fill-opacity:1"
     id="path154" />
  <use
     xlink:href="#DejaVuSans-30"
     id="use154"
     transform="matrix(0.056,0,0,-0.056,174.77379,228.05438)"
     style="fill:#000000;fill-opacity:1" />
  <use
     xlink:href="#DejaVuSans-2e"
     transform="matrix(0.056,0,0,-0.056,178.33668,228.05438)"
     id="use155"
     style="fill:#000000;fill-opacity:1" />
  <use
     xlink:href="#DejaVuSans-30"
     transform="matrix(0.056,0,0,-0.056,180.11676,228.05438)"
     id="use156"
     style="fill:#000000;fill-opacity:1" />
  <use
     xlink:href="#DejaVuSans-30"
     transform="matrix(0.056,0,0,-0.056,183.67965,228.05438)"
     id="use157"
     style="fill:#000000;fill-opacity:1" />
  <use
     xlink:href="#DejaVuSans-32"
     transform="matrix(0.056,0,0,-0.056,187.24254,228.05438)"
     id="use158"
     style="fill:#000000;fill-opacity:1" />
  <use
     xlink:href="#DejaVuSans-25"
     transform="matrix(0.056,0,0,-0.056,190.80543,228.05438)"
     id="use159"
     style="fill:#000000;fill-opacity:1" />
  <path
     d="m 185.4501,201.32181 q 0,0.74324 0,0.36844"
     style="fill:#ffffff;fill-opacity:1;stroke:#000000;stroke-linecap:round"
     id="path159" />
  <path
     d="m 186.5701,199.45025 -1.12,2.24 -1.12,-2.24"
     style="fill:#ffffff;fill-opacity:1;stroke:#ffffff;stroke-linecap:round"
     id="path160" />
  <path
     d="m 174.77379,199.32172 h 21.35263 q 1.12,0 1.12,-1.12 v -5.41975 q 0,-1.12 -1.12,-1.12 h -21.35263 q -1.12,0 -1.12,1.12 v 5.41975 q 0,1.12 1.12,1.12 z"
     style="opacity:0.8;fill:#ffffff;fill-opacity:1"
     id="path161" />
  <use
     xlink:href="#DejaVuSans-30"
     id="use161"
     transform="matrix(0.056,0,0,-0.056,174.77379,197.0371)"
     style="fill:#000000;fill-opacity:1" />
  <use
     xlink:href="#DejaVuSans-2e"
     transform="matrix(0.056,0,0,-0.056,178.33668,197.0371)"
     id="use162"
     style="fill:#000000;fill-opacity:1" />
  <use
     xlink:href="#DejaVuSans-30"
     transform="matrix(0.056,0,0,-0.056,180.11676,197.0371)"
     id="use163"
     style="fill:#000000;fill-opacity:1" />
  <use
     xlink:href="#DejaVuSans-30"
     transform="matrix(0.056,0,0,-0.056,183.67965,197.0371)"
     id="use164"
     style="fill:#000000;fill-opacity:1" />
  <use
     xlink:href="#DejaVuSans-33"
     transform="matrix(0.056,0,0,-0.056,187.24254,197.0371)"
     id="use165"
     style="fill:#000000;fill-opacity:1" />
  <use
     xlink:href="#DejaVuSans-25"
     transform="matrix(0.056,0,0,-0.056,190.80543,197.0371)"
     id="use166"
     style="fill:#000000;fill-opacity:1" />
  <path
     d="m 236.44805,246.58076 q 0,0.74323 0,0.36843"
     style="fill:#ffffff;fill-opacity:1;stroke:#000000;stroke-linecap:round"
     id="path166" />
  <path
     d="m 237.56805,244.70919 -1.12,2.24 -1.12,-2.24"
     style="fill:#ffffff;fill-opacity:1;stroke:#ffffff;stroke-linecap:round"
     id="path167" />
  <path
     d="m 223.99024,244.58067 h 24.91562 q 1.12,0 1.12,-1.12 v -5.41975 q 0,-1.12 -1.12,-1.12 h -24.91562 q -1.12,0 -1.12,1.12 v 5.41975 q 0,1.12 1.12,1.12 z"
     style="opacity:0.8;fill:#ffffff;fill-opacity:1"
     id="path168" />
  <use
     xlink:href="#DejaVuSans-39"
     id="use168"
     transform="matrix(0.056,0,0,-0.056,223.99024,242.29605)"
     style="fill:#000000;fill-opacity:1" />
  <use
     xlink:href="#DejaVuSans-39"
     transform="matrix(0.056,0,0,-0.056,227.55313,242.29605)"
     id="use169"
     style="fill:#000000;fill-opacity:1" />
  <use
     xlink:href="#DejaVuSans-2e"
     transform="matrix(0.056,0,0,-0.056,231.11602,242.29605)"
     id="use170"
     style="fill:#000000;fill-opacity:1" />
  <use
     xlink:href="#DejaVuSans-39"
     transform="matrix(0.056,0,0,-0.056,232.8961,242.29605)"
     id="use171"
     style="fill:#000000;fill-opacity:1" />
  <use
     xlink:href="#DejaVuSans-39"
     transform="matrix(0.056,0,0,-0.056,236.45899,242.29605)"
     id="use172"
     style="fill:#000000;fill-opacity:1" />
  <use
     xlink:href="#DejaVuSans-36"
     transform="matrix(0.056,0,0,-0.056,240.02188,242.29605)"
     id="use173"
     style="fill:#000000;fill-opacity:1" />
  <use
     xlink:href="#DejaVuSans-25"
     transform="matrix(0.056,0,0,-0.056,243.58477,242.29605)"
     id="use174"
     style="fill:#000000;fill-opacity:1" />
  <path
     d="m 236.44805,233.41217 q 0,0.74323 0,0.36843"
     style="fill:#ffffff;fill-opacity:1;stroke:#000000;stroke-linecap:round"
     id="path174" />
  <path
     d="m 237.56805,231.5406 -1.12,2.24 -1.12,-2.24"
     style="fill:#ffffff;fill-opacity:1;stroke:#ffffff;stroke-linecap:round"
     id="path175" />
  <path
     d="m 225.77174,231.41207 h 21.35262 q 1.12,0 1.12,-1.12 v -5.41975 q 0,-1.11999 -1.12,-1.11999 h -21.35262 q -1.12,0 -1.12,1.11999 v 5.41975 q 0,1.12 1.12,1.12 z"
     style="opacity:0.8;fill:#ffffff;fill-opacity:1"
     id="path176" />
  <use
     xlink:href="#DejaVuSans-30"
     id="use176"
     transform="matrix(0.056,0,0,-0.056,225.77174,229.12745)"
     style="fill:#000000;fill-opacity:1" />
  <use
     xlink:href="#DejaVuSans-2e"
     transform="matrix(0.056,0,0,-0.056,229.33463,229.12745)"
     id="use177"
     style="fill:#000000;fill-opacity:1" />
  <use
     xlink:href="#DejaVuSans-30"
     transform="matrix(0.056,0,0,-0.056,231.11471,229.12745)"
     id="use178"
     style="fill:#000000;fill-opacity:1" />
  <use
     xlink:href="#DejaVuSans-30"
     transform="matrix(0.056,0,0,-0.056,234.6776,229.12745)"
     id="use179"
     style="fill:#000000;fill-opacity:1" />
  <use
     xlink:href="#DejaVuSans-32"
     transform="matrix(0.056,0,0,-0.056,238.24049,229.12745)"
     id="use180"
     style="fill:#000000;fill-opacity:1" />
  <use
     xlink:href="#DejaVuSans-25"
     transform="matrix(0.056,0,0,-0.056,241.80338,229.12745)"
     id="use181"
     style="fill:#000000;fill-opacity:1" />
  <path
     d="m 236.44805,202.0939 q 0,0.74323 0,0.36843"
     style="fill:#ffffff;fill-opacity:1;stroke:#000000;stroke-linecap:round"
     id="path181" />
  <path
     d="m 237.56805,200.22233 -1.12,2.24 -1.12,-2.24"
     style="fill:#ffffff;fill-opacity:1;stroke:#ffffff;stroke-linecap:round"
     id="path182" />
  <path
     d="m 225.77174,200.09381 h 21.35262 q 1.12,0 1.12,-1.12 v -5.41975 q 0,-1.12 -1.12,-1.12 h -21.35262 q -1.12,0 -1.12,1.12 v 5.41975 q 0,1.12 1.12,1.12 z"
     style="opacity:0.8;fill:#ffffff;fill-opacity:1"
     id="path183" />
  <use
     xlink:href="#DejaVuSans-30"
     id="use183"
     transform="matrix(0.056,0,0,-0.056,225.77174,197.80918)"
     style="fill:#000000;fill-opacity:1" />
  <use
     xlink:href="#DejaVuSans-2e"
     transform="matrix(0.056,0,0,-0.056,229.33463,197.80918)"
     id="use184"
     style="fill:#000000;fill-opacity:1" />
  <use
     xlink:href="#DejaVuSans-30"
     transform="matrix(0.056,0,0,-0.056,231.11471,197.80918)"
     id="use185"
     style="fill:#000000;fill-opacity:1" />
  <use
     xlink:href="#DejaVuSans-30"
     transform="matrix(0.056,0,0,-0.056,234.6776,197.80918)"
     id="use186"
     style="fill:#000000;fill-opacity:1" />
  <use
     xlink:href="#DejaVuSans-32"
     transform="matrix(0.056,0,0,-0.056,238.24049,197.80918)"
     id="use187"
     style="fill:#000000;fill-opacity:1" />
  <use
     xlink:href="#DejaVuSans-25"
     transform="matrix(0.056,0,0,-0.056,241.80338,197.80918)"
     id="use188"
     style="fill:#000000;fill-opacity:1" />
  <path
     d="m 287.44599,252.29098 q 0,0.74324 0,0.36844"
     style="fill:#ffffff;fill-opacity:1;stroke:#000000;stroke-linecap:round"
     id="path188" />
  <path
     d="m 288.56599,250.41942 -1.12,2.24 -1.12,-2.24"
     style="fill:#ffffff;fill-opacity:1;stroke:#ffffff;stroke-linecap:round"
     id="path189" />
  <path
     d="m 274.98818,250.29089 h 24.91563 q 1.12,0 1.12,-1.12 v -5.41975 q 0,-1.12 -1.12,-1.12 h -24.91563 q -1.12,0 -1.12,1.12 v 5.41975 q 0,1.12 1.12,1.12 z"
     style="opacity:0.8;fill:#ffffff;fill-opacity:1"
     id="path190" />
  <use
     xlink:href="#DejaVuSans-39"
     id="use190"
     transform="matrix(0.056,0,0,-0.056,274.98818,248.00627)"
     style="fill:#000000;fill-opacity:1" />
  <use
     xlink:href="#DejaVuSans-39"
     transform="matrix(0.056,0,0,-0.056,278.55107,248.00627)"
     id="use191"
     style="fill:#000000;fill-opacity:1" />
  <use
     xlink:href="#DejaVuSans-2e"
     transform="matrix(0.056,0,0,-0.056,282.11396,248.00627)"
     id="use192"
     style="fill:#000000;fill-opacity:1" />
  <use
     xlink:href="#DejaVuSans-39"
     transform="matrix(0.056,0,0,-0.056,283.89404,248.00627)"
     id="use193"
     style="fill:#000000;fill-opacity:1" />
  <use
     xlink:href="#DejaVuSans-39"
     transform="matrix(0.056,0,0,-0.056,287.45693,248.00627)"
     id="use194"
     style="fill:#000000;fill-opacity:1" />
  <use
     xlink:href="#DejaVuSans-36"
     transform="matrix(0.056,0,0,-0.056,291.01982,248.00627)"
     id="use195"
     style="fill:#000000;fill-opacity:1" />
  <use
     xlink:href="#DejaVuSans-25"
     transform="matrix(0.056,0,0,-0.056,294.58271,248.00627)"
     id="use196"
     style="fill:#000000;fill-opacity:1" />
  <path
     d="m 287.44599,238.76793 q 0,0.74323 0,0.36843"
     style="fill:#ffffff;fill-opacity:1;stroke:#000000;stroke-linecap:round"
     id="path196" />
  <path
     d="m 288.56599,236.89636 -1.12,2.24 -1.12,-2.24"
     style="fill:#ffffff;fill-opacity:1;stroke:#ffffff;stroke-linecap:round"
     id="path197" />
  <path
     d="m 276.76968,236.76784 h 21.35263 q 1.12,0 1.12,-1.12 v -5.41975 q 0,-1.12 -1.12,-1.12 h -21.35263 q -1.12,0 -1.12,1.12 v 5.41975 q 0,1.12 1.12,1.12 z"
     style="opacity:0.8;fill:#ffffff;fill-opacity:1"
     id="path198" />
  <use
     xlink:href="#DejaVuSans-30"
     id="use198"
     transform="matrix(0.056,0,0,-0.056,276.76968,234.48321)"
     style="fill:#000000;fill-opacity:1" />
  <use
     xlink:href="#DejaVuSans-2e"
     transform="matrix(0.056,0,0,-0.056,280.33257,234.48321)"
     id="use199"
     style="fill:#000000;fill-opacity:1" />
  <use
     xlink:href="#DejaVuSans-30"
     transform="matrix(0.056,0,0,-0.056,282.11265,234.48321)"
     id="use200"
     style="fill:#000000;fill-opacity:1" />
  <use
     xlink:href="#DejaVuSans-30"
     transform="matrix(0.056,0,0,-0.056,285.67554,234.48321)"
     id="use201"
     style="fill:#000000;fill-opacity:1" />
  <use
     xlink:href="#DejaVuSans-32"
     transform="matrix(0.056,0,0,-0.056,289.23843,234.48321)"
     id="use202"
     style="fill:#000000;fill-opacity:1" />
  <use
     xlink:href="#DejaVuSans-25"
     transform="matrix(0.056,0,0,-0.056,292.80132,234.48321)"
     id="use203"
     style="fill:#000000;fill-opacity:1" />
  <path
     d="m 287.44599,201.46455 q 0,0.74323 0,0.36843"
     style="fill:#ffffff;fill-opacity:1;stroke:#000000;stroke-linecap:round"
     id="path203" />
  <path
     d="m 288.56599,199.59298 -1.12,2.24 -1.12,-2.24"
     style="fill:#ffffff;fill-opacity:1;stroke:#ffffff;stroke-linecap:round"
     id="path204" />
  <path
     d="m 276.76968,199.46446 h 21.35263 q 1.12,0 1.12,-1.12 v -5.41975 q 0,-1.12 -1.12,-1.12 h -21.35263 q -1.12,0 -1.12,1.12 v 5.41975 q 0,1.12 1.12,1.12 z"
     style="opacity:0.8;fill:#ffffff;fill-opacity:1"
     id="path205" />
  <use
     xlink:href="#DejaVuSans-30"
     id="use205"
     transform="matrix(0.056,0,0,-0.056,276.76968,197.17983)"
     style="fill:#000000;fill-opacity:1" />
  <use
     xlink:href="#DejaVuSans-2e"
     transform="matrix(0.056,0,0,-0.056,280.33257,197.17983)"
     id="use206"
     style="fill:#000000;fill-opacity:1" />
  <use
     xlink:href="#DejaVuSans-30"
     transform="matrix(0.056,0,0,-0.056,282.11265,197.17983)"
     id="use207"
     style="fill:#000000;fill-opacity:1" />
  <use
     xlink:href="#DejaVuSans-30"
     transform="matrix(0.056,0,0,-0.056,285.67554,197.17983)"
     id="use208"
     style="fill:#000000;fill-opacity:1" />
  <use
     xlink:href="#DejaVuSans-32"
     transform="matrix(0.056,0,0,-0.056,289.23843,197.17983)"
     id="use209"
     style="fill:#000000;fill-opacity:1" />
  <use
     xlink:href="#DejaVuSans-25"
     transform="matrix(0.056,0,0,-0.056,292.80132,197.17983)"
     id="use210"
     style="fill:#000000;fill-opacity:1" />
  <path
     d="m 338.44394,258.74308 q 0,0.74323 0,0.36843"
     style="fill:#ffffff;fill-opacity:1;stroke:#000000;stroke-linecap:round"
     id="path210" />
  <path
     d="m 339.56394,256.87151 -1.12,2.24 -1.12,-2.24"
     style="fill:#ffffff;fill-opacity:1;stroke:#ffffff;stroke-linecap:round"
     id="path211" />
  <path
     d="m 325.98613,256.74299 h 24.91562 q 1.12,0 1.12,-1.12 v -5.41975 q 0,-1.12 -1.12,-1.12 h -24.91562 q -1.12,0 -1.12,1.12 v 5.41975 q 0,1.12 1.12,1.12 z"
     style="opacity:0.8;fill:#ffffff;fill-opacity:1"
     id="path212" />
  <use
     xlink:href="#DejaVuSans-39"
     id="use212"
     transform="matrix(0.056,0,0,-0.056,325.98613,254.45836)"
     style="fill:#000000;fill-opacity:1" />
  <use
     xlink:href="#DejaVuSans-39"
     transform="matrix(0.056,0,0,-0.056,329.54902,254.45836)"
     id="use213"
     style="fill:#000000;fill-opacity:1" />
  <use
     xlink:href="#DejaVuSans-2e"
     transform="matrix(0.056,0,0,-0.056,333.11191,254.45836)"
     id="use214"
     style="fill:#000000;fill-opacity:1" />
  <use
     xlink:href="#DejaVuSans-39"
     transform="matrix(0.056,0,0,-0.056,334.89199,254.45836)"
     id="use215"
     style="fill:#000000;fill-opacity:1" />
  <use
     xlink:href="#DejaVuSans-39"
     transform="matrix(0.056,0,0,-0.056,338.45488,254.45836)"
     id="use216"
     style="fill:#000000;fill-opacity:1" />
  <use
     xlink:href="#DejaVuSans-35"
     transform="matrix(0.056,0,0,-0.056,342.01777,254.45836)"
     id="use217"
     style="fill:#000000;fill-opacity:1" />
  <use
     xlink:href="#DejaVuSans-25"
     transform="matrix(0.056,0,0,-0.056,345.58066,254.45836)"
     id="use218"
     style="fill:#000000;fill-opacity:1" />
  <path
     d="m 338.44394,243.55692 q 0,0.74324 0,0.36844"
     style="fill:#ffffff;fill-opacity:1;stroke:#000000;stroke-linecap:round"
     id="path218" />
  <path
     d="m 339.56394,241.68536 -1.12,2.24 -1.12,-2.24"
     style="fill:#ffffff;fill-opacity:1;stroke:#ffffff;stroke-linecap:round"
     id="path219" />
  <path
     d="m 327.76763,241.55683 h 21.35262 q 1.12,0 1.12,-1.12 v -5.41975 q 0,-1.12 -1.12,-1.12 h -21.35262 q -1.12,0 -1.12,1.12 v 5.41975 q 0,1.12 1.12,1.12 z"
     style="opacity:0.8;fill:#ffffff;fill-opacity:1"
     id="path220" />
  <use
     xlink:href="#DejaVuSans-30"
     id="use220"
     transform="matrix(0.056,0,0,-0.056,327.76763,239.27221)"
     style="fill:#000000;fill-opacity:1" />
  <use
     xlink:href="#DejaVuSans-2e"
     transform="matrix(0.056,0,0,-0.056,331.33052,239.27221)"
     id="use221"
     style="fill:#000000;fill-opacity:1" />
  <use
     xlink:href="#DejaVuSans-30"
     transform="matrix(0.056,0,0,-0.056,333.1106,239.27221)"
     id="use222"
     style="fill:#000000;fill-opacity:1" />
  <use
     xlink:href="#DejaVuSans-30"
     transform="matrix(0.056,0,0,-0.056,336.67349,239.27221)"
     id="use223"
     style="fill:#000000;fill-opacity:1" />
  <use
     xlink:href="#DejaVuSans-31"
     transform="matrix(0.056,0,0,-0.056,340.23638,239.27221)"
     id="use224"
     style="fill:#000000;fill-opacity:1" />
  <use
     xlink:href="#DejaVuSans-25"
     transform="matrix(0.056,0,0,-0.056,343.79927,239.27221)"
     id="use225"
     style="fill:#000000;fill-opacity:1" />
  <path
     d="m 338.44394,199.46182 q 0,0.74324 0,0.36844"
     style="fill:#ffffff;fill-opacity:1;stroke:#000000;stroke-linecap:round"
     id="path225" />
  <path
     d="m 339.56394,197.59026 -1.12,2.24 -1.12,-2.24"
     style="fill:#ffffff;fill-opacity:1;stroke:#ffffff;stroke-linecap:round"
     id="path226" />
  <path
     d="m 327.76763,197.46173 h 21.35262 q 1.12,0 1.12,-1.12 v -5.41975 q 0,-1.12 -1.12,-1.12 h -21.35262 q -1.12,0 -1.12,1.12 v 5.41975 q 0,1.12 1.12,1.12 z"
     style="opacity:0.8;fill:#ffffff;fill-opacity:1"
     id="path227" />
  <use
     xlink:href="#DejaVuSans-30"
     id="use227"
     transform="matrix(0.056,0,0,-0.056,327.76763,195.17711)"
     style="fill:#000000;fill-opacity:1" />
  <use
     xlink:href="#DejaVuSans-2e"
     transform="matrix(0.056,0,0,-0.056,331.33052,195.17711)"
     id="use228"
     style="fill:#000000;fill-opacity:1" />
  <use
     xlink:href="#DejaVuSans-30"
     transform="matrix(0.056,0,0,-0.056,333.1106,195.17711)"
     id="use229"
     style="fill:#000000;fill-opacity:1" />
  <use
     xlink:href="#DejaVuSans-30"
     transform="matrix(0.056,0,0,-0.056,336.67349,195.17711)"
     id="use230"
     style="fill:#000000;fill-opacity:1" />
  <use
     xlink:href="#DejaVuSans-33"
     transform="matrix(0.056,0,0,-0.056,340.23638,195.17711)"
     id="use231"
     style="fill:#000000;fill-opacity:1" />
  <use
     xlink:href="#DejaVuSans-25"
     transform="matrix(0.056,0,0,-0.056,343.79927,195.17711)"
     id="use232"
     style="fill:#000000;fill-opacity:1" />
  <path
     d="m 389.44188,265.86422 q 0,0.74323 0,0.36843"
     style="fill:#ffffff;fill-opacity:1;stroke:#000000;stroke-linecap:round"
     id="path232" />
  <path
     d="m 390.56188,263.99265 -1.12,2.24 -1.12,-2.24"
     style="fill:#ffffff;fill-opacity:1;stroke:#ffffff;stroke-linecap:round"
     id="path233" />
  <path
     d="m 376.98407,263.86413 h 24.91563 q 1.12,0 1.12,-1.12 v -5.41975 q 0,-1.12 -1.12,-1.12 h -24.91563 q -1.12,0 -1.12,1.12 v 5.41975 q 0,1.12 1.12,1.12 z"
     style="opacity:0.8;fill:#ffffff;fill-opacity:1"
     id="path234" />
  <use
     xlink:href="#DejaVuSans-39"
     id="use234"
     transform="matrix(0.056,0,0,-0.056,376.98407,261.5795)"
     style="fill:#000000;fill-opacity:1" />
  <use
     xlink:href="#DejaVuSans-39"
     transform="matrix(0.056,0,0,-0.056,380.54696,261.5795)"
     id="use235"
     style="fill:#000000;fill-opacity:1" />
  <use
     xlink:href="#DejaVuSans-2e"
     transform="matrix(0.056,0,0,-0.056,384.10985,261.5795)"
     id="use236"
     style="fill:#000000;fill-opacity:1" />
  <use
     xlink:href="#DejaVuSans-39"
     transform="matrix(0.056,0,0,-0.056,385.88993,261.5795)"
     id="use237"
     style="fill:#000000;fill-opacity:1" />
  <use
     xlink:href="#DejaVuSans-39"
     transform="matrix(0.056,0,0,-0.056,389.45282,261.5795)"
     id="use238"
     style="fill:#000000;fill-opacity:1" />
  <use
     xlink:href="#DejaVuSans-37"
     transform="matrix(0.056,0,0,-0.056,393.01571,261.5795)"
     id="use239"
     style="fill:#000000;fill-opacity:1" />
  <use
     xlink:href="#DejaVuSans-25"
     transform="matrix(0.056,0,0,-0.056,396.5786,261.5795)"
     id="use240"
     style="fill:#000000;fill-opacity:1" />
  <path
     d="m 389.44188,196.88484 q 0,0.74324 0,0.36844"
     style="fill:#ffffff;fill-opacity:1;stroke:#000000;stroke-linecap:round"
     id="path240" />
  <path
     d="m 390.56188,195.01328 -1.12,2.24 -1.12,-2.24"
     style="fill:#ffffff;fill-opacity:1;stroke:#ffffff;stroke-linecap:round"
     id="path241" />
  <path
     d="m 378.76557,194.88475 h 21.35263 q 1.12,0 1.12,-1.12 V 188.345 q 0,-1.12 -1.12,-1.12 h -21.35263 q -1.12,0 -1.12,1.12 v 5.41975 q 0,1.12 1.12,1.12 z"
     style="opacity:0.8;fill:#ffffff;fill-opacity:1"
     id="path242" />
  <use
     xlink:href="#DejaVuSans-30"
     id="use242"
     transform="matrix(0.056,0,0,-0.056,378.76557,192.60013)"
     style="fill:#000000;fill-opacity:1" />
  <use
     xlink:href="#DejaVuSans-2e"
     transform="matrix(0.056,0,0,-0.056,382.32846,192.60013)"
     id="use243"
     style="fill:#000000;fill-opacity:1" />
  <use
     xlink:href="#DejaVuSans-30"
     transform="matrix(0.056,0,0,-0.056,384.10854,192.60013)"
     id="use244"
     style="fill:#000000;fill-opacity:1" />
  <use
     xlink:href="#DejaVuSans-30"
     transform="matrix(0.056,0,0,-0.056,387.67143,192.60013)"
     id="use245"
     style="fill:#000000;fill-opacity:1" />
  <use
     xlink:href="#DejaVuSans-32"
     transform="matrix(0.056,0,0,-0.056,391.23432,192.60013)"
     id="use246"
     style="fill:#000000;fill-opacity:1" />
  <use
     xlink:href="#DejaVuSans-25"
     transform="matrix(0.056,0,0,-0.056,394.79721,192.60013)"
     id="use247"
     style="fill:#000000;fill-opacity:1" />
  <path
     d="m 440.43983,280.58523 q 0,0.74324 0,0.36844"
     style="fill:#ffffff;fill-opacity:1;stroke:#000000;stroke-linecap:round"
     id="path247" />
  <path
     d="m 441.55983,278.71367 -1.12,2.24 -1.12,-2.24"
     style="fill:#ffffff;fill-opacity:1;stroke:#ffffff;stroke-linecap:round"
     id="path248" />
  <path
     d="m 427.98201,278.58514 h 24.91563 q 1.12,0 1.12,-1.12 v -5.41975 q 0,-1.12 -1.12,-1.12 h -24.91563 q -1.12,0 -1.12,1.12 v 5.41975 q 0,1.12 1.12,1.12 z"
     style="opacity:0.8;fill:#ffffff;fill-opacity:1"
     id="path249" />
  <use
     xlink:href="#DejaVuSans-39"
     id="use249"
     transform="matrix(0.056,0,0,-0.056,427.98201,276.30052)"
     style="fill:#000000;fill-opacity:1" />
  <use
     xlink:href="#DejaVuSans-39"
     transform="matrix(0.056,0,0,-0.056,431.5449,276.30052)"
     id="use250"
     style="fill:#000000;fill-opacity:1" />
  <use
     xlink:href="#DejaVuSans-2e"
     transform="matrix(0.056,0,0,-0.056,435.10779,276.30052)"
     id="use251"
     style="fill:#000000;fill-opacity:1" />
  <use
     xlink:href="#DejaVuSans-39"
     transform="matrix(0.056,0,0,-0.056,436.88787,276.30052)"
     id="use252"
     style="fill:#000000;fill-opacity:1" />
  <use
     xlink:href="#DejaVuSans-39"
     transform="matrix(0.056,0,0,-0.056,440.45076,276.30052)"
     id="use253"
     style="fill:#000000;fill-opacity:1" />
  <use
     xlink:href="#DejaVuSans-36"
     transform="matrix(0.056,0,0,-0.056,444.01365,276.30052)"
     id="use254"
     style="fill:#000000;fill-opacity:1" />
  <use
     xlink:href="#DejaVuSans-25"
     transform="matrix(0.056,0,0,-0.056,447.57654,276.30052)"
     id="use255"
     style="fill:#000000;fill-opacity:1" />
  <path
     d="m 440.43983,194.05749 q 0,0.74323 0,0.36843"
     style="fill:#ffffff;fill-opacity:1;stroke:#000000;stroke-linecap:round"
     id="path255" />
  <path
     d="m 441.55983,192.18592 -1.12,2.24 -1.12,-2.24"
     style="fill:#ffffff;fill-opacity:1;stroke:#ffffff;stroke-linecap:round"
     id="path256" />
  <path
     d="m 429.76351,192.05739 h 21.35263 q 1.12,0 1.12,-1.12 v -5.41975 q 0,-1.12 -1.12,-1.12 h -21.35263 q -1.12,0 -1.12,1.12 v 5.41975 q 0,1.12 1.12,1.12 z"
     style="opacity:0.8;fill:#ffffff;fill-opacity:1"
     id="path257" />
  <use
     xlink:href="#DejaVuSans-30"
     id="use257"
     transform="matrix(0.056,0,0,-0.056,429.76351,189.77277)"
     style="fill:#000000;fill-opacity:1" />
  <use
     xlink:href="#DejaVuSans-2e"
     transform="matrix(0.056,0,0,-0.056,433.3264,189.77277)"
     id="use258"
     style="fill:#000000;fill-opacity:1" />
  <use
     xlink:href="#DejaVuSans-30"
     transform="matrix(0.056,0,0,-0.056,435.10648,189.77277)"
     id="use259"
     style="fill:#000000;fill-opacity:1" />
  <use
     xlink:href="#DejaVuSans-30"
     transform="matrix(0.056,0,0,-0.056,438.66937,189.77277)"
     id="use260"
     style="fill:#000000;fill-opacity:1" />
  <use
     xlink:href="#DejaVuSans-33"
     transform="matrix(0.056,0,0,-0.056,442.23226,189.77277)"
     id="use261"
     style="fill:#000000;fill-opacity:1" />
  <use
     xlink:href="#DejaVuSans-25"
     transform="matrix(0.056,0,0,-0.056,445.79515,189.77277)"
     id="use262"
     style="fill:#000000;fill-opacity:1" />
  <path
     d="m 491.43777,289.565 q 0,0.74324 0,0.36844"
     style="fill:#ffffff;fill-opacity:1;stroke:#000000;stroke-linecap:round"
     id="path262" />
  <path
     d="m 492.55777,287.69344 -1.12,2.24 -1.12,-2.24"
     style="fill:#ffffff;fill-opacity:1;stroke:#ffffff;stroke-linecap:round"
     id="path263" />
  <path
     d="m 478.97996,287.56491 h 24.91562 q 1.12,0 1.12,-1.12 v -5.41975 q 0,-1.12 -1.12,-1.12 h -24.91562 q -1.12,0 -1.12,1.12 v 5.41975 q 0,1.12 1.12,1.12 z"
     style="opacity:0.8;fill:#ffffff;fill-opacity:1"
     id="path264" />
  <use
     xlink:href="#DejaVuSans-39"
     id="use264"
     transform="matrix(0.056,0,0,-0.056,478.97996,285.28029)"
     style="fill:#000000;fill-opacity:1" />
  <use
     xlink:href="#DejaVuSans-39"
     transform="matrix(0.056,0,0,-0.056,482.54285,285.28029)"
     id="use265"
     style="fill:#000000;fill-opacity:1" />
  <use
     xlink:href="#DejaVuSans-2e"
     transform="matrix(0.056,0,0,-0.056,486.10574,285.28029)"
     id="use266"
     style="fill:#000000;fill-opacity:1" />
  <use
     xlink:href="#DejaVuSans-39"
     transform="matrix(0.056,0,0,-0.056,487.88582,285.28029)"
     id="use267"
     style="fill:#000000;fill-opacity:1" />
  <use
     xlink:href="#DejaVuSans-39"
     transform="matrix(0.056,0,0,-0.056,491.44871,285.28029)"
     id="use268"
     style="fill:#000000;fill-opacity:1" />
  <use
     xlink:href="#DejaVuSans-36"
     transform="matrix(0.056,0,0,-0.056,495.0116,285.28029)"
     id="use269"
     style="fill:#000000;fill-opacity:1" />
  <use
     xlink:href="#DejaVuSans-25"
     transform="matrix(0.056,0,0,-0.056,498.57449,285.28029)"
     id="use270"
     style="fill:#000000;fill-opacity:1" />
  <path
     d="m 491.43777,191.09696 q 0,0.74324 0,0.36844"
     style="fill:#ffffff;fill-opacity:1;stroke:#000000;stroke-linecap:round"
     id="path270" />
  <path
     d="m 492.55777,189.2254 -1.12,2.24 -1.12,-2.24"
     style="fill:#ffffff;fill-opacity:1;stroke:#ffffff;stroke-linecap:round"
     id="path271" />
  <path
     d="m 480.76146,189.09687 h 21.35262 q 1.12,0 1.12,-1.12 v -5.41975 q 0,-1.12 -1.12,-1.12 h -21.35262 q -1.12,0 -1.12,1.12 v 5.41975 q 0,1.12 1.12,1.12 z"
     style="opacity:0.8;fill:#ffffff;fill-opacity:1"
     id="path272" />
  <use
     xlink:href="#DejaVuSans-30"
     id="use272"
     transform="matrix(0.056,0,0,-0.056,480.76146,186.81225)"
     style="fill:#000000;fill-opacity:1" />
  <use
     xlink:href="#DejaVuSans-2e"
     transform="matrix(0.056,0,0,-0.056,484.32435,186.81225)"
     id="use273"
     style="fill:#000000;fill-opacity:1" />
  <use
     xlink:href="#DejaVuSans-30"
     transform="matrix(0.056,0,0,-0.056,486.10443,186.81225)"
     id="use274"
     style="fill:#000000;fill-opacity:1" />
  <use
     xlink:href="#DejaVuSans-30"
     transform="matrix(0.056,0,0,-0.056,489.66732,186.81225)"
     id="use275"
     style="fill:#000000;fill-opacity:1" />
  <use
     xlink:href="#DejaVuSans-34"
     transform="matrix(0.056,0,0,-0.056,493.23021,186.81225)"
     id="use276"
     style="fill:#000000;fill-opacity:1" />
  <use
     xlink:href="#DejaVuSans-25"
     transform="matrix(0.056,0,0,-0.056,496.7931,186.81225)"
     id="use277"
     style="fill:#000000;fill-opacity:1" />
  <path
     d="m 541.97628,298.63894 q 0,0.74324 0,0.36844"
     style="fill:#ffffff;fill-opacity:1;stroke:#000000;stroke-linecap:round"
     id="path277" />
  <path
     d="m 543.09628,296.76738 -1.12,2.24 -1.12,-2.24"
     style="fill:#ffffff;fill-opacity:1;stroke:#ffffff;stroke-linecap:round"
     id="path278" />
  <path
     d="m 529.51846,296.63885 h 24.91563 q 1.12,0 1.12,-1.12 v -5.41975 q 0,-1.12 -1.12,-1.12 h -24.91563 q -1.12,0 -1.12,1.12 v 5.41975 q 0,1.12 1.12,1.12 z"
     style="opacity:0.8;fill:#ffffff;fill-opacity:1"
     id="path279" />
  <use
     xlink:href="#DejaVuSans-39"
     id="use279"
     transform="matrix(0.056,0,0,-0.056,529.51846,294.35423)"
     style="fill:#000000;fill-opacity:1" />
  <use
     xlink:href="#DejaVuSans-39"
     transform="matrix(0.056,0,0,-0.056,533.08135,294.35423)"
     id="use280"
     style="fill:#000000;fill-opacity:1" />
  <use
     xlink:href="#DejaVuSans-2e"
     transform="matrix(0.056,0,0,-0.056,536.64424,294.35423)"
     id="use281"
     style="fill:#000000;fill-opacity:1" />
  <use
     xlink:href="#DejaVuSans-39"
     transform="matrix(0.056,0,0,-0.056,538.42432,294.35423)"
     id="use282"
     style="fill:#000000;fill-opacity:1" />
  <use
     xlink:href="#DejaVuSans-39"
     transform="matrix(0.056,0,0,-0.056,541.98721,294.35423)"
     id="use283"
     style="fill:#000000;fill-opacity:1" />
  <use
     xlink:href="#DejaVuSans-33"
     transform="matrix(0.056,0,0,-0.056,545.5501,294.35423)"
     id="use284"
     style="fill:#000000;fill-opacity:1" />
  <use
     xlink:href="#DejaVuSans-25"
     transform="matrix(0.056,0,0,-0.056,549.11299,294.35423)"
     id="use285"
     style="fill:#000000;fill-opacity:1" />
  <path
     d="m 541.97628,188.08155 q 0,0.74323 0,0.36843"
     style="fill:#ffffff;fill-opacity:1;stroke:#000000;stroke-linecap:round"
     id="path285" />
  <path
     d="m 543.09628,186.20998 -1.12,2.24 -1.12,-2.24"
     style="fill:#ffffff;fill-opacity:1;stroke:#ffffff;stroke-linecap:round"
     id="path286" />
  <path
     d="m 531.29996,186.08146 h 21.35263 q 1.12,0 1.12,-1.12 v -5.41975 q 0,-1.12 -1.12,-1.12 h -21.35263 q -1.12,0 -1.12,1.12 v 5.41975 q 0,1.12 1.12,1.12 z"
     style="opacity:0.8;fill:#ffffff;fill-opacity:1"
     id="path287" />
  <use
     xlink:href="#DejaVuSans-30"
     id="use287"
     transform="matrix(0.056,0,0,-0.056,531.29996,183.79683)"
     style="fill:#000000;fill-opacity:1" />
  <use
     xlink:href="#DejaVuSans-2e"
     transform="matrix(0.056,0,0,-0.056,534.86285,183.79683)"
     id="use288"
     style="fill:#000000;fill-opacity:1" />
  <use
     xlink:href="#DejaVuSans-30"
     transform="matrix(0.056,0,0,-0.056,536.64293,183.79683)"
     id="use289"
     style="fill:#000000;fill-opacity:1" />
  <use
     xlink:href="#DejaVuSans-30"
     transform="matrix(0.056,0,0,-0.056,540.20582,183.79683)"
     id="use290"
     style="fill:#000000;fill-opacity:1" />
  <use
     xlink:href="#DejaVuSans-37"
     transform="matrix(0.056,0,0,-0.056,543.76871,183.79683)"
     id="use291"
     style="fill:#000000;fill-opacity:1" />
  <use
     xlink:href="#DejaVuSans-25"
     transform="matrix(0.056,0,0,-0.056,547.3316,183.79683)"
     id="use292"
     style="fill:#000000;fill-opacity:1" />
  <defs
     id="defs292">
    <clipPath
       id="p17eb142781">
      <rect
         x="60.528111"
         y="29.259788"
         width="504.374269"
         height="283.763986"
         id="rect292" />
    </clipPath>
  </defs>
</svg>
