<?xml version="1.0" encoding="UTF-8" standalone="no"?>
<svg
   id="Capa_2"
   data-name="Capa 2"
   viewBox="0 0 1361.34 480.32"
   version="1.1"
   sodipodi:docname="QiliSDK_blk.svg"
   inkscape:export-filename="QiliSDK_blk.png"
   inkscape:export-xdpi="96"
   inkscape:export-ydpi="96"
   inkscape:version="1.4.4 (1:1.4.4+202605061432+dcaf3e7d9e)"
   xmlns:inkscape="http://www.inkscape.org/namespaces/inkscape"
   xmlns:sodipodi="http://sodipodi.sourceforge.net/DTD/sodipodi-0.dtd"
   xmlns:xlink="http://www.w3.org/1999/xlink"
   xmlns="http://www.w3.org/2000/svg"
   xmlns:svg="http://www.w3.org/2000/svg">
  <sodipodi:namedview
     id="namedview20"
     pagecolor="#ffffff"
     bordercolor="#666666"
     borderopacity="1.0"
     inkscape:showpageshadow="2"
     inkscape:pageopacity="0.0"
     inkscape:pagecheckerboard="0"
     inkscape:deskcolor="#d1d1d1"
     showgrid="false"
     inkscape:zoom="0.85136706"
     inkscape:cx="680.66998"
     inkscape:cy="240.20192"
     inkscape:window-width="1850"
     inkscape:window-height="1016"
     inkscape:window-x="70"
     inkscape:window-y="27"
     inkscape:window-maximized="1"
     inkscape:current-layer="Capa_2" />
  <defs
     id="defs12">
    <style
       id="style1">
      .cls-1 {
        fill: url(#Degradado_sin_nombre_4-2);
      }

      .cls-2 {
        fill: url(#Degradado_sin_nombre_4);
      }

      .cls-3 {
        fill: url(#Degradado_sin_nombre_22);
      }
    </style>
    <linearGradient
       id="Degradado_sin_nombre_22"
       data-name="Degradado sin nombre 22"
       x1="88.59"
       y1="202.45"
       x2="212.14"
       y2="328.1"
       gradientUnits="userSpaceOnUse">
      <stop
         offset=".2"
         stop-color="#27002a"
         id="stop1" />
      <stop
         offset=".34"
         stop-color="#561154"
         id="stop2" />
      <stop
         offset=".47"
         stop-color="#802179"
         id="stop3" />
      <stop
         offset=".54"
         stop-color="#902788"
         id="stop4" />
    </linearGradient>
    <linearGradient
       id="Degradado_sin_nombre_4"
       data-name="Degradado sin nombre 4"
       x1="-249.44"
       y1="562.33"
       x2="-236.38"
       y2="786.37"
       gradientTransform="translate(-403.17 457.8) rotate(90) scale(1 -1)"
       gradientUnits="userSpaceOnUse">
      <stop
         offset="0"
         stop-color="#c6093f"
         id="stop5" />
      <stop
         offset=".23"
         stop-color="#ac0f5f"
         id="stop6" />
      <stop
         offset=".47"
         stop-color="#7f1997"
         id="stop7" />
      <stop
         offset=".67"
         stop-color="#5f21c1"
         id="stop8" />
      <stop
         offset=".77"
         stop-color="#5325d1"
         id="stop9" />
      <stop
         offset=".81"
         stop-color="#4c26d9"
         id="stop10" />
      <stop
         offset=".93"
         stop-color="#362cf4"
         id="stop11" />
      <stop
         offset="1"
         stop-color="#2f2eff"
         id="stop12" />
    </linearGradient>
    <linearGradient
       id="Degradado_sin_nombre_4-2"
       data-name="Degradado sin nombre 4"
       x1="0"
       y1="240.16"
       x2="419.67"
       y2="240.16"
       gradientTransform="matrix(1,0,0,1,0,0)"
       xlink:href="#Degradado_sin_nombre_4" />
  </defs>
  <g
     id="Capa_1-2"
     data-name="Capa 1">
    <g
       id="g20">
      <g
         id="g14">
        <path
           class="cls-3"
           d="M183.82,298.7c-7.1,7.19-18.67,7.24-25.84.14l-65.7-66.34c-7.37-7.29-7.2-19.24.36-26.32h0c7.17-6.71,18.35-6.56,25.33.35l65.71,66.34c7.17,7.1,7.24,18.67.14,25.84Z"
           id="path12" />
        <path
           class="cls-2"
           d="M232.39,274.2l61.49-60.82-61.49-60.82c-7.18-7.1-7.24-18.67-.14-25.85,7.1-7.18,18.67-7.24,25.85-.14l74.63,73.82s.04.05.07.07c.02.02.05.04.08.07.22.22.41.45.61.68.19.21.39.42.57.64.21.26.39.53.59.79.17.23.35.45.5.69.18.27.34.56.5.84.14.24.29.47.42.71.16.3.29.61.43.91.11.24.23.47.33.71.13.32.23.65.35.98.08.23.17.46.24.69.11.36.18.72.27,1.09.05.21.11.42.15.63.08.41.13.83.18,1.25.02.16.05.33.07.49.06.58.08,1.17.08,1.75h0c0,.59-.03,1.17-.08,1.75-.02.19-.06.38-.08.57-.05.39-.1.78-.17,1.17-.04.22-.11.44-.16.66-.08.35-.16.71-.26,1.06-.07.24-.16.47-.24.71-.11.32-.21.65-.34.97-.1.25-.22.49-.34.73-.14.3-.26.6-.42.89-.13.25-.29.49-.43.73-.16.28-.31.56-.49.82-.16.24-.34.47-.52.71-.19.26-.37.52-.57.77-.18.23-.39.44-.59.66-.2.22-.38.45-.59.66-.02.02-.05.04-.07.07-.02.02-.04.05-.07.07l-74.63,73.82c-7.18,7.1-18.75,7.04-25.85-.14-7.1-7.18-7.04-18.75.14-25.85Z"
           id="path13" />
        <path
           class="cls-1"
           d="M183.63,153l-133.87,125.3c27.1,63.55,89.86,105.5,159.72,105.5,95.73,0,173.62-77.89,173.62-173.62S305.23,36.56,209.49,36.56c-43.78,0-85.6,16.35-117.75,46.03-31.79,29.35-51.36,69.09-55.18,111.98-.86,9.7-8.73,17.61-18.47,17.49-10.74-.13-18.92-9.32-18.03-19.82,4.43-52.29,28.18-100.77,66.87-136.5C105.86,19.79,156.49,0,209.49,0c115.89,0,210.18,94.29,210.18,210.18,0,96.88-65.91,178.62-155.22,202.84l-30.69,12.45c11.2,2.12,23.27,4.75,35.65,7.44,24.57,5.33,49.96,10.84,63.2,10.84,21.07,0,32.62-13.27,33.09-13.82t.03-.03c3.34-4.05,8.41-6.63,14.08-6.63,10.08,0,18.28,8.18,18.28,18.28,0,4.34-1.51,8.31-4.05,11.44-.13.21-.29.39-.47.57-3.42,4-24.57,26.74-60.95,26.74-17.16,0-43.27-5.67-70.93-11.67-25.49-5.54-51.81-11.26-66.12-11.26-29.2,0-66.57,10.55-66.96,10.66-9.32,2.66-19.12-2.45-22.28-11.65-3.16-9.17,1.41-19.22,10.39-22.88l45.67-18.53c-69.16-15.93-127.01-66.23-151.22-135.1-.04-.11-.08-.22-.12-.32-.02-.05-.03-.09-.05-.14-.05-.13-.08-.27-.12-.4-.13-.41-.26-.82-.36-1.23-.06-.25-.1-.5-.16-.75-.07-.32-.13-.64-.18-.97-.05-.32-.08-.64-.11-.96-.02-.26-.05-.51-.06-.77-.02-.36-.02-.71-.02-1.07,0-.23,0-.46.01-.69.02-.35.05-.7.08-1.05.03-.24.05-.48.08-.72.05-.32.11-.64.17-.95.05-.27.11-.55.17-.82.07-.27.15-.54.23-.81.09-.31.18-.61.29-.91.08-.23.17-.46.27-.69.13-.33.26-.65.41-.97.1-.21.21-.42.31-.62.16-.31.33-.63.51-.93.13-.22.28-.44.42-.65.18-.27.35-.54.54-.8.19-.26.4-.52.6-.77.16-.2.32-.4.49-.6.28-.31.58-.61.88-.91.1-.1.2-.21.3-.31l.18-.17s.05-.04.07-.07L158.65,126.31c7.34-6.87,18.86-6.52,25.77.78h0c6.96,7.36,6.61,18.98-.79,25.91Z"
           id="path14" />
      </g>
      <path
         d="M565.23,113.7c-10.11,0-18.34,8.22-18.34,18.33v260.68c0,10.11,8.22,18.33,18.34,18.33s18.33-8.22,18.33-18.33V132.04c0-10.11-8.22-18.33-18.33-18.33Z"
         id="path15" />
      <g
         id="g16">
        <path
           d="M482.59,231.63c-10.11,0-18.34,8.22-18.34,18.33v142.75c0,10.11,8.22,18.33,18.34,18.33s18.33-8.22,18.33-18.33v-142.75c0-10.11-8.22-18.33-18.33-18.33Z"
           id="path16" />
        <circle
           cx="482.58"
           cy="182.62"
           r="18.33"
           id="circle16" />
      </g>
      <g
         id="g17">
        <path
           d="M647.88,231.63c-10.11,0-18.34,8.22-18.34,18.33v142.75c0,10.11,8.22,18.33,18.34,18.33s18.33-8.22,18.33-18.33v-142.75c0-10.11-8.22-18.33-18.33-18.33Z"
           id="path17" />
        <circle
           cx="647.88"
           cy="182.62"
           r="18.33"
           id="circle17" />
      </g>
      <path
         d="M868.54,272.18l-.03-.02c-8.89-6.78-18.8-12.53-29.45-17.08-10.28-4.41-20.7-8.24-30.95-11.37-7.02-2.16-14.7-4.77-22.82-7.76-7.63-2.81-14.58-6.31-20.67-10.41-5.96-3.93-10.91-8.79-14.73-14.46-3.54-5.26-5.34-11.92-5.34-19.81,0-7.38,1.58-13.82,4.67-19.11,3.3-5.55,7.64-10.24,12.88-13.95,5.27-3.71,11.43-6.54,18.31-8.44,7-1.93,14.14-2.91,21.23-2.91,8.37,0,16.13,1.33,23.04,3.95,6.85,2.63,12.8,6.32,17.7,10.99,5.08,4.76,9.2,10.51,12.24,17.08,2,4.35,3.57,9.09,4.67,14.1,1.85,8.29,9.32,14.3,17.77,14.3,5.54,0,10.7-2.42,14.14-6.61,3.48-4.18,4.88-9.63,3.87-14.93-1.38-7.39-3.68-14.44-6.84-20.95-5.18-10.69-12.24-19.93-20.98-27.45-8.58-7.48-18.63-13.34-29.86-17.43-21.21-7.75-45.52-8.23-68.94-1.27-11.06,3.32-21.1,8.21-29.9,14.57-8.97,6.64-16.32,14.89-21.84,24.52-5.67,9.87-8.55,21.28-8.55,33.95.12,13.71,3.27,25.54,9.35,35.18,5.87,9.27,13.53,17.35,22.78,24.01,8.2,5.95,17.52,11.12,27.71,15.35,9.99,4.15,19.77,7.73,29.05,10.64,7.45,2.33,15.37,5.1,23.53,8.23,7.74,2.98,14.9,6.65,21.21,10.85,5.95,4.16,10.95,9.33,14.87,15.36,3.64,5.65,5.43,12.78,5.32,21.23,0,7.82-1.62,14.55-4.81,20-3.23,5.54-7.52,10.17-12.76,13.77l-.3.2c-5.44,3.86-11.77,6.74-18.83,8.57-7.27,1.87-14.78,2.82-22.31,2.82-9.06,0-17.58-1.21-25.33-3.61-7.61-2.34-14.39-5.88-20.18-10.56-5.88-4.63-10.72-10.39-14.39-17.12-2.48-4.53-4.4-9.65-5.69-15.24-1.94-8.38-9.23-14.24-17.74-14.24-5.48,0-10.64,2.44-14.15,6.71-3.46,4.27-4.8,9.76-3.69,15.06,1.4,6.89,3.64,13.46,6.64,19.53,5.04,10.23,12.02,19.17,20.71,26.51,9.6,8.5,21.05,15.03,34.04,19.43,12.82,4.3,26.18,6.48,39.72,6.48,11.48,0,22.95-1.57,34.09-4.67,11.36-3.17,21.65-8.08,30.54-14.57,9.05-6.44,16.53-14.66,22.23-24.41,5.81-9.92,8.76-21.7,8.76-35.01s-2.87-25.04-8.54-35.02c-5.51-9.74-12.73-18.15-21.47-24.97Z"
         id="path18" />
      <path
         d="M996.74,114.14h-46.77c-9.21,0-16.71,7.5-16.71,16.71,0,.05,0,.09,0,.14l-.23,265.4c0,4.45,1.73,8.63,4.82,11.69,3.2,3.38,7.5,5.23,12.12,5.23h46.77c82.5,0,149.61-67.1,149.61-149.59s-67.12-149.59-149.61-149.59ZM1112.93,263.73c0,30.98-12.1,60.14-34.07,82.1-21.97,21.97-51.14,34.07-82.12,34.07h-30.55l.2-232.34h30.34c64.07,0,116.19,52.12,116.19,116.17Z"
         id="path19" />
      <path
         d="M1238.35,263.24l118.28-121.96c6.41-6.61,6.25-17.22-.37-23.64-6.61-6.39-17.21-6.23-23.63.37l-118.1,121.78v-109.08c0-9.29-7.56-16.85-16.85-16.85s-16.85,7.56-16.85,16.85v266.51c0,9.29,7.56,16.85,16.85,16.85s16.85-7.56,16.85-16.85v-110.53l118.05,122.72c3.18,3.3,7.45,5.12,12.04,5.12,4.35,0,8.46-1.66,11.59-4.66,3.22-3.09,5.04-7.26,5.12-11.72s-1.57-8.69-4.67-11.91l-118.32-122.99Z"
         id="path20" />
    </g>
  </g>
</svg>
