<?xml version="1.0" encoding="UTF-8" standalone="no"?>
<svg
   id="Capa_2"
   data-name="Capa 2"
   viewBox="0 0 1275.71 480.04"
   version="1.1"
   sodipodi:docname="QiliSim_wht.svg"
   inkscape:export-filename="QiliSim_wht.png"
   inkscape:export-xdpi="96"
   inkscape:export-ydpi="96"
   inkscape:version="1.4.4 (1:1.4.4+202605061432+dcaf3e7d9e)"
   xmlns:inkscape="http://www.inkscape.org/namespaces/inkscape"
   xmlns:sodipodi="http://sodipodi.sourceforge.net/DTD/sodipodi-0.dtd"
   xmlns="http://www.w3.org/2000/svg"
   xmlns:svg="http://www.w3.org/2000/svg">
  <sodipodi:namedview
     id="namedview18"
     pagecolor="#ffffff"
     bordercolor="#666666"
     borderopacity="1.0"
     inkscape:showpageshadow="2"
     inkscape:pageopacity="0.0"
     inkscape:pagecheckerboard="0"
     inkscape:deskcolor="#d1d1d1"
     inkscape:zoom="0.94727291"
     inkscape:cx="546.30508"
     inkscape:cy="266.55465"
     inkscape:window-width="1850"
     inkscape:window-height="1016"
     inkscape:window-x="70"
     inkscape:window-y="27"
     inkscape:window-maximized="1"
     inkscape:current-layer="Capa_2" />
  <defs
     id="defs11">
    <style
       id="style1">
      .cls-1 {
        fill: #fff;
      }

      .cls-2 {
        fill: url(#Degradado_sin_nombre_108);
      }

      .cls-3 {
        fill: url(#Degradado_sin_nombre_4);
      }
    </style>
    <linearGradient
       id="Degradado_sin_nombre_108"
       data-name="Degradado sin nombre 108"
       x1="138.38"
       y1="210.25"
       x2="330.87"
       y2="276.93"
       gradientUnits="userSpaceOnUse">
      <stop
         offset=".17"
         stop-color="#160000"
         id="stop1" />
      <stop
         offset=".39"
         stop-color="#3d114e"
         id="stop2" />
      <stop
         offset=".68"
         stop-color="#6f28b2"
         id="stop3" />
    </linearGradient>
    <linearGradient
       id="Degradado_sin_nombre_4"
       data-name="Degradado sin nombre 4"
       x1="0"
       y1="240.02"
       x2="419.44"
       y2="240.02"
       gradientUnits="userSpaceOnUse">
      <stop
         offset="0"
         stop-color="#c6093f"
         id="stop4" />
      <stop
         offset=".23"
         stop-color="#ac0f5f"
         id="stop5" />
      <stop
         offset=".47"
         stop-color="#7f1997"
         id="stop6" />
      <stop
         offset=".67"
         stop-color="#5f21c1"
         id="stop7" />
      <stop
         offset=".77"
         stop-color="#5325d1"
         id="stop8" />
      <stop
         offset=".81"
         stop-color="#4c26d9"
         id="stop9" />
      <stop
         offset=".93"
         stop-color="#362cf4"
         id="stop10" />
      <stop
         offset="1"
         stop-color="#2f2eff"
         id="stop11" />
    </linearGradient>
  </defs>
  <g
     id="Capa_1-2"
     data-name="Capa 1">
    <g
       id="g18">
      <path
         class="cls-1"
         d="M565.5,113.29c-10.11,0-18.34,8.22-18.34,18.33v260.68c0,10.11,8.22,18.33,18.34,18.33s18.33-8.22,18.33-18.33V131.62c0-10.11-8.22-18.33-18.33-18.33Z"
         id="path11" />
      <g
         id="g12">
        <path
           class="cls-1"
           d="M482.86,231.22c-10.11,0-18.34,8.22-18.34,18.33v142.75c0,10.11,8.22,18.33,18.34,18.33s18.33-8.22,18.33-18.33v-142.75c0-10.11-8.22-18.33-18.33-18.33Z"
           id="path12" />
        <circle
           class="cls-1"
           cx="482.86"
           cy="182.2"
           r="18.33"
           id="circle12" />
      </g>
      <g
         id="g13">
        <path
           class="cls-1"
           d="M648.15,231.22c-10.11,0-18.34,8.22-18.34,18.33v142.75c0,10.11,8.22,18.33,18.34,18.33s18.33-8.22,18.33-18.33v-142.75c0-10.11-8.22-18.33-18.33-18.33Z"
           id="path13" />
        <circle
           class="cls-1"
           cx="648.15"
           cy="182.2"
           r="18.33"
           id="circle13" />
      </g>
      <g
         id="g14">
        <path
           class="cls-1"
           d="M955.99,231.22c-10.11,0-18.34,8.22-18.34,18.33v142.75c0,10.11,8.22,18.33,18.34,18.33s18.33-8.22,18.33-18.33v-142.75c0-10.11-8.22-18.33-18.33-18.33Z"
           id="path14" />
        <circle
           class="cls-1"
           cx="955.99"
           cy="182.2"
           r="18.33"
           id="circle14" />
      </g>
      <path
         class="cls-1"
         d="M868.82,271.76l-.03-.02c-8.89-6.78-18.8-12.53-29.45-17.08-10.28-4.41-20.7-8.24-30.95-11.37-7.02-2.16-14.7-4.77-22.82-7.76-7.63-2.81-14.58-6.31-20.67-10.41-5.96-3.93-10.91-8.79-14.73-14.46-3.54-5.26-5.34-11.92-5.34-19.81,0-7.38,1.58-13.82,4.67-19.11,3.3-5.55,7.64-10.24,12.88-13.95,5.27-3.71,11.43-6.54,18.31-8.44,7-1.93,14.14-2.91,21.23-2.91,8.37,0,16.13,1.33,23.04,3.95,6.85,2.63,12.8,6.32,17.7,10.99,5.08,4.76,9.2,10.51,12.24,17.08,2,4.35,3.57,9.09,4.67,14.1,1.85,8.29,9.32,14.3,17.77,14.3,5.54,0,10.7-2.42,14.14-6.61,3.48-4.18,4.88-9.63,3.87-14.93-1.38-7.39-3.68-14.44-6.84-20.95-5.18-10.69-12.24-19.93-20.98-27.45-8.58-7.48-18.63-13.34-29.86-17.43-21.21-7.75-45.52-8.23-68.94-1.27-11.06,3.32-21.1,8.21-29.9,14.57-8.97,6.64-16.32,14.89-21.84,24.52-5.67,9.87-8.55,21.28-8.55,33.95.12,13.71,3.27,25.54,9.35,35.18,5.87,9.27,13.53,17.35,22.78,24.01,8.2,5.95,17.52,11.12,27.71,15.35,9.99,4.15,19.77,7.73,29.05,10.64,7.45,2.33,15.37,5.1,23.53,8.23,7.74,2.98,14.9,6.65,21.21,10.85,5.95,4.16,10.95,9.33,14.87,15.36,3.64,5.65,5.43,12.78,5.32,21.23,0,7.82-1.62,14.55-4.81,20-3.23,5.54-7.52,10.17-12.76,13.77l-.3.2c-5.44,3.86-11.77,6.74-18.83,8.57-7.27,1.87-14.78,2.82-22.31,2.82-9.06,0-17.58-1.21-25.33-3.61-7.61-2.34-14.39-5.88-20.18-10.56-5.88-4.63-10.72-10.39-14.39-17.12-2.48-4.53-4.4-9.65-5.69-15.24-1.94-8.38-9.23-14.24-17.74-14.24-5.48,0-10.64,2.44-14.15,6.71-3.46,4.27-4.8,9.76-3.69,15.06,1.4,6.89,3.64,13.46,6.64,19.53,5.04,10.23,12.02,19.17,20.71,26.51,9.6,8.5,21.05,15.03,34.04,19.43,12.82,4.3,26.18,6.48,39.72,6.48,11.48,0,22.95-1.57,34.09-4.67,11.36-3.17,21.65-8.08,30.54-14.57,9.05-6.44,16.53-14.66,22.23-24.41,5.81-9.92,8.76-21.7,8.76-35.01s-2.87-25.04-8.54-35.02c-5.51-9.74-12.73-18.15-21.47-24.97Z"
         id="path15" />
      <path
         class="cls-1"
         d="M1036.14,410.52c-5.7,0-10.09-1.6-13.17-4.81-3.09-3.2-4.63-7.65-4.63-13.35v-142.39c0-5.93,1.54-10.44,4.63-13.53,3.08-3.08,7.35-4.63,12.82-4.63s10.02,1.55,12.99,4.63c2.96,3.09,4.45,7.6,4.45,13.53v29.19l-3.92-7.83c4.75-12.58,12.1-22.43,22.07-29.55,9.97-7.12,21.95-10.68,35.95-10.68s26.22,3.44,35.24,10.32c9.02,6.89,15.18,17.44,18.51,31.68h-4.98c4.5-13.05,12.22-23.32,23.14-30.79,10.91-7.48,23.61-11.21,38.09-11.21,13.29,0,24.21,2.55,32.75,7.65,8.54,5.11,14.95,12.81,19.22,23.14,4.27,10.32,6.41,23.32,6.41,38.98v91.48c0,5.7-1.6,10.15-4.81,13.35-3.2,3.2-7.65,4.81-13.35,4.81s-10.09-1.6-13.17-4.81c-3.09-3.2-4.63-7.65-4.63-13.35v-89.71c0-14.71-2.55-25.51-7.65-32.39-5.11-6.88-13.47-10.32-25.1-10.32-13.05,0-23.38,4.51-30.97,13.53-7.6,9.02-11.39,21.48-11.39,37.38v81.52c0,5.7-1.55,10.15-4.63,13.35-3.09,3.2-7.47,4.81-13.17,4.81s-10.14-1.6-13.35-4.81c-3.2-3.2-4.81-7.65-4.81-13.35v-89.71c0-14.71-2.49-25.51-7.48-32.39-4.98-6.88-13.29-10.32-24.92-10.32-13.05,0-23.32,4.51-30.79,13.53-7.48,9.02-11.21,21.48-11.21,37.38v81.52c0,12.1-6.05,18.15-18.16,18.15Z"
         id="path16" />
      <path
         class="cls-2"
         d="M307.48,228.55v50.92c0,1.06-.87,1.93-1.93,1.93h-50.92c-1.08,0-1.93-.87-1.93-1.93v-7.19h-52.46c-4.85,0-9.49-1.93-12.92-5.36l-30.15-29.42,17.72-33.95,32.91,32.2h44.9v-7.2c0-1.08.85-1.93,1.93-1.93h50.92c1.06,0,1.93.85,1.93,1.93Z"
         id="path17" />
      <path
         class="cls-3"
         d="M393.82,452.75c-.3.37-.6.71-.9,1.03-4.48,5.04-25.4,26.25-60.5,26.25-17.15,0-43.26-5.65-70.89-11.65-25.45-5.54-51.77-11.24-66.09-11.24-29.15,0-66.53,10.53-66.92,10.64-9.33,2.64-19.1-2.46-22.28-11.63-3.15-9.2,1.43-19.22,10.41-22.87l45.65-18.53c-69.29-15.95-127.24-66.41-151.33-135.49-1.95-5.59-1.08-11.77,2.34-16.6,3.43-4.83,8.99-7.68,14.9-7.68h89.93l25.82-49.42c.02-.07.05-.11.09-.18l28.53-54.64c3.15-6.05,9.4-9.81,16.21-9.81h69.49c5.22-6.23,13.03-10.18,21.79-10.18,15.72,0,28.46,12.74,28.46,28.46s-12.74,28.44-28.46,28.44c-8.76,0-16.57-3.95-21.79-10.18h-58.43l-17.26,33.08-17.72,33.95-19.45,37.22c-3.15,6.05-9.38,9.82-16.18,9.82H56.11c29.75,55.98,88.46,92.07,153.26,92.07,14.74,0,29.19-1.82,43.08-5.33.41-.14.85-.25,1.26-.37,30.02-7.86,57.47-23.72,79.79-46.55,32.9-33.68,50.44-78.21,49.35-125.38-2.18-94.09-80.48-170.04-174.73-169.42-43.49.32-85.01,16.78-116.87,46.39-31.68,29.47-51.15,69.36-54.78,112.27-.85,10.07-9.7,17.52-19.75,16.67-10.05-.85-17.52-9.68-16.67-19.75,4.41-52,27.95-100.3,66.32-135.95C104.96,20.33,155.21.37,207.88,0c114.02-.83,208.89,91.22,211.51,205.1,1.31,57.1-19.91,110.98-59.75,151.77-26.92,27.54-60,46.71-96.2,56.27l-29.82,12.09c11.2,2.11,23.29,4.74,35.65,7.43,24.55,5.33,49.93,10.85,63.15,10.85,20.39,0,31.72-12.28,32.85-13.56.02-.02.05-.07.07-.09,6.32-7.86,17.82-9.13,25.7-2.81,7.86,6.32,9.1,17.84,2.78,25.7Z"
         id="path18" />
    </g>
  </g>
</svg>
