<?xml version="1.0" encoding="UTF-8" standalone="no"?>
<svg
   id="Capa_2"
   data-name="Capa 2"
   viewBox="0 0 419.67631 480.29998"
   version="1.1"
   sodipodi:docname="QiliSDK_q.svg"
   inkscape:export-filename="QiliSDK_q.png"
   inkscape:export-xdpi="96"
   inkscape:export-ydpi="96"
   inkscape:version="1.4.4 (1:1.4.4+202605061432+dcaf3e7d9e)"
   width="419.6763"
   height="480.29999"
   xmlns:inkscape="http://www.inkscape.org/namespaces/inkscape"
   xmlns:sodipodi="http://sodipodi.sourceforge.net/DTD/sodipodi-0.dtd"
   xmlns:xlink="http://www.w3.org/1999/xlink"
   xmlns="http://www.w3.org/2000/svg"
   xmlns:svg="http://www.w3.org/2000/svg">
  <sodipodi:namedview
     id="namedview20"
     pagecolor="#ffffff"
     bordercolor="#666666"
     borderopacity="1.0"
     inkscape:showpageshadow="2"
     inkscape:pageopacity="0.0"
     inkscape:pagecheckerboard="0"
     inkscape:deskcolor="#d1d1d1"
     showgrid="false"
     inkscape:zoom="0.42568353"
     inkscape:cx="614.30613"
     inkscape:cy="372.34234"
     inkscape:window-width="1850"
     inkscape:window-height="1016"
     inkscape:window-x="70"
     inkscape:window-y="27"
     inkscape:window-maximized="1"
     inkscape:current-layer="Capa_2" />
  <defs
     id="defs12">
    <style
       id="style1">
      .cls-1 {
        fill: url(#Degradado_sin_nombre_4-2);
      }

      .cls-2 {
        fill: url(#Degradado_sin_nombre_4);
      }

      .cls-3 {
        fill: url(#Degradado_sin_nombre_22);
      }
    </style>
    <linearGradient
       id="Degradado_sin_nombre_22"
       data-name="Degradado sin nombre 22"
       x1="88.589996"
       y1="202.45"
       x2="212.14"
       y2="328.10001"
       gradientUnits="userSpaceOnUse">
      <stop
         offset=".2"
         stop-color="#27002a"
         id="stop1" />
      <stop
         offset=".34"
         stop-color="#561154"
         id="stop2" />
      <stop
         offset=".47"
         stop-color="#802179"
         id="stop3" />
      <stop
         offset=".54"
         stop-color="#902788"
         id="stop4" />
    </linearGradient>
    <linearGradient
       id="Degradado_sin_nombre_4"
       data-name="Degradado sin nombre 4"
       x1="-249.44"
       y1="562.33002"
       x2="-236.38"
       y2="786.37"
       gradientTransform="matrix(0,1,1,0,-403.17,457.8)"
       gradientUnits="userSpaceOnUse">
      <stop
         offset="0"
         stop-color="#c6093f"
         id="stop5" />
      <stop
         offset=".23"
         stop-color="#ac0f5f"
         id="stop6" />
      <stop
         offset=".47"
         stop-color="#7f1997"
         id="stop7" />
      <stop
         offset=".67"
         stop-color="#5f21c1"
         id="stop8" />
      <stop
         offset=".77"
         stop-color="#5325d1"
         id="stop9" />
      <stop
         offset=".81"
         stop-color="#4c26d9"
         id="stop10" />
      <stop
         offset=".93"
         stop-color="#362cf4"
         id="stop11" />
      <stop
         offset="1"
         stop-color="#2f2eff"
         id="stop12" />
    </linearGradient>
    <linearGradient
       id="Degradado_sin_nombre_4-2"
       data-name="Degradado sin nombre 4"
       x1="0"
       y1="240.16"
       x2="419.67001"
       y2="240.16"
       xlink:href="#Degradado_sin_nombre_4" />
    <linearGradient
       inkscape:collect="always"
       xlink:href="#Degradado_sin_nombre_4"
       id="linearGradient1"
       gradientUnits="userSpaceOnUse"
       gradientTransform="matrix(0,1,1,0,-403.17,457.8)"
       x1="-249.44"
       y1="562.33002"
       x2="-236.38"
       y2="786.37" />
  </defs>
  <g
     id="g14"
     transform="translate(0.0062888)">
    <path
       class="cls-3"
       d="m 183.82,298.7 c -7.1,7.19 -18.67,7.24 -25.84,0.14 L 92.28,232.5 c -7.37,-7.29 -7.2,-19.24 0.36,-26.32 v 0 c 7.17,-6.71 18.35,-6.56 25.33,0.35 l 65.71,66.34 c 7.17,7.1 7.24,18.67 0.14,25.84 z"
       id="path12"
       style="fill:url(#Degradado_sin_nombre_22)" />
    <path
       class="cls-2"
       d="m 232.39,274.2 61.49,-60.82 -61.49,-60.82 c -7.18,-7.1 -7.24,-18.67 -0.14,-25.85 7.1,-7.18 18.67,-7.24 25.85,-0.14 l 74.63,73.82 c 0,0 0.04,0.05 0.07,0.07 0.02,0.02 0.05,0.04 0.08,0.07 0.22,0.22 0.41,0.45 0.61,0.68 0.19,0.21 0.39,0.42 0.57,0.64 0.21,0.26 0.39,0.53 0.59,0.79 0.17,0.23 0.35,0.45 0.5,0.69 0.18,0.27 0.34,0.56 0.5,0.84 0.14,0.24 0.29,0.47 0.42,0.71 0.16,0.3 0.29,0.61 0.43,0.91 0.11,0.24 0.23,0.47 0.33,0.71 0.13,0.32 0.23,0.65 0.35,0.98 0.08,0.23 0.17,0.46 0.24,0.69 0.11,0.36 0.18,0.72 0.27,1.09 0.05,0.21 0.11,0.42 0.15,0.63 0.08,0.41 0.13,0.83 0.18,1.25 0.02,0.16 0.05,0.33 0.07,0.49 0.06,0.58 0.08,1.17 0.08,1.75 v 0 c 0,0.59 -0.03,1.17 -0.08,1.75 -0.02,0.19 -0.06,0.38 -0.08,0.57 -0.05,0.39 -0.1,0.78 -0.17,1.17 -0.04,0.22 -0.11,0.44 -0.16,0.66 -0.08,0.35 -0.16,0.71 -0.26,1.06 -0.07,0.24 -0.16,0.47 -0.24,0.71 -0.11,0.32 -0.21,0.65 -0.34,0.97 -0.1,0.25 -0.22,0.49 -0.34,0.73 -0.14,0.3 -0.26,0.6 -0.42,0.89 -0.13,0.25 -0.29,0.49 -0.43,0.73 -0.16,0.28 -0.31,0.56 -0.49,0.82 -0.16,0.24 -0.34,0.47 -0.52,0.71 -0.19,0.26 -0.37,0.52 -0.57,0.77 -0.18,0.23 -0.39,0.44 -0.59,0.66 -0.2,0.22 -0.38,0.45 -0.59,0.66 -0.02,0.02 -0.05,0.04 -0.07,0.07 -0.02,0.02 -0.04,0.05 -0.07,0.07 l -74.63,73.82 c -7.18,7.1 -18.75,7.04 -25.85,-0.14 -7.1,-7.18 -7.04,-18.75 0.14,-25.85 z"
       id="path13"
       style="fill:url(#linearGradient1)" />
    <path
       class="cls-1"
       d="M 183.63,153 49.76,278.3 c 27.1,63.55 89.86,105.5 159.72,105.5 95.73,0 173.62,-77.89 173.62,-173.62 0,-95.73 -77.87,-173.62 -173.61,-173.62 -43.78,0 -85.6,16.35 -117.75,46.03 -31.79,29.35 -51.36,69.09 -55.18,111.98 -0.86,9.7 -8.73,17.61 -18.47,17.49 C 7.35,211.93 -0.83,202.74 0.06,192.24 4.49,139.95 28.24,91.47 66.93,55.74 105.86,19.79 156.49,0 209.49,0 c 115.89,0 210.18,94.29 210.18,210.18 0,96.88 -65.91,178.62 -155.22,202.84 l -30.69,12.45 c 11.2,2.12 23.27,4.75 35.65,7.44 24.57,5.33 49.96,10.84 63.2,10.84 21.07,0 32.62,-13.27 33.09,-13.82 q 0,0 0.03,-0.03 c 3.34,-4.05 8.41,-6.63 14.08,-6.63 10.08,0 18.28,8.18 18.28,18.28 0,4.34 -1.51,8.31 -4.05,11.44 -0.13,0.21 -0.29,0.39 -0.47,0.57 -3.42,4 -24.57,26.74 -60.95,26.74 -17.16,0 -43.27,-5.67 -70.93,-11.67 -25.49,-5.54 -51.81,-11.26 -66.12,-11.26 -29.2,0 -66.57,10.55 -66.96,10.66 -9.32,2.66 -19.12,-2.45 -22.28,-11.65 -3.16,-9.17 1.41,-19.22 10.39,-22.88 l 45.67,-18.53 C 93.23,399.04 35.38,348.74 11.17,279.87 c -0.04,-0.11 -0.08,-0.22 -0.12,-0.32 -0.02,-0.05 -0.03,-0.09 -0.05,-0.14 -0.05,-0.13 -0.08,-0.27 -0.12,-0.4 -0.13,-0.41 -0.26,-0.82 -0.36,-1.23 -0.06,-0.25 -0.1,-0.5 -0.16,-0.75 -0.07,-0.32 -0.13,-0.64 -0.18,-0.97 -0.05,-0.32 -0.08,-0.64 -0.11,-0.96 -0.02,-0.26 -0.05,-0.51 -0.06,-0.77 -0.02,-0.36 -0.02,-0.71 -0.02,-1.07 0,-0.23 0,-0.46 0.01,-0.69 0.02,-0.35 0.05,-0.7 0.08,-1.05 0.03,-0.24 0.05,-0.48 0.08,-0.72 0.05,-0.32 0.11,-0.64 0.17,-0.95 0.05,-0.27 0.11,-0.55 0.17,-0.82 0.07,-0.27 0.15,-0.54 0.23,-0.81 0.09,-0.31 0.18,-0.61 0.29,-0.91 0.08,-0.23 0.17,-0.46 0.27,-0.69 0.13,-0.33 0.26,-0.65 0.41,-0.97 0.1,-0.21 0.21,-0.42 0.31,-0.62 0.16,-0.31 0.33,-0.63 0.51,-0.93 0.13,-0.22 0.28,-0.44 0.42,-0.65 0.18,-0.27 0.35,-0.54 0.54,-0.8 0.19,-0.26 0.4,-0.52 0.6,-0.77 0.16,-0.2 0.32,-0.4 0.49,-0.6 0.28,-0.31 0.58,-0.61 0.88,-0.91 0.1,-0.1 0.2,-0.21 0.3,-0.31 l 0.18,-0.17 c 0,0 0.05,-0.04 0.07,-0.07 L 158.65,126.31 c 7.34,-6.87 18.86,-6.52 25.77,0.78 v 0 c 6.96,7.36 6.61,18.98 -0.79,25.91 z"
       id="path14"
       style="fill:url(#Degradado_sin_nombre_4-2)" />
  </g>
</svg>
