<?xml version="1.0" encoding="UTF-8" standalone="no"?>
<svg
   width="575.696693pt"
   height="359.751496pt"
   viewBox="0 0 575.696693 359.751496"
   version="1.1"
   id="svg274"
   sodipodi:docname="schedule_eigenvalues_state_dark.svg"
   xml:space="preserve"
   inkscape:version="1.4.4 (1:1.4.4+202605061432+dcaf3e7d9e)"
   xmlns:inkscape="http://www.inkscape.org/namespaces/inkscape"
   xmlns:sodipodi="http://sodipodi.sourceforge.net/DTD/sodipodi-0.dtd"
   xmlns:xlink="http://www.w3.org/1999/xlink"
   xmlns="http://www.w3.org/2000/svg"
   xmlns:svg="http://www.w3.org/2000/svg"
   xmlns:rdf="http://www.w3.org/1999/02/22-rdf-syntax-ns#"
   xmlns:cc="http://creativecommons.org/ns#"
   xmlns:dc="http://purl.org/dc/elements/1.1/"><sodipodi:namedview
     id="namedview274"
     pagecolor="#ffffff"
     bordercolor="#666666"
     borderopacity="1.0"
     inkscape:showpageshadow="2"
     inkscape:pageopacity="0.0"
     inkscape:pagecheckerboard="0"
     inkscape:deskcolor="#d1d1d1"
     inkscape:document-units="pt"
     inkscape:zoom="1.2279726"
     inkscape:cx="392.92409"
     inkscape:cy="327.77606"
     inkscape:window-width="1850"
     inkscape:window-height="1016"
     inkscape:window-x="70"
     inkscape:window-y="27"
     inkscape:window-maximized="1"
     inkscape:current-layer="svg274" /><metadata
     id="metadata1"><rdf:RDF><cc:Work><dc:type
           rdf:resource="http://purl.org/dc/dcmitype/StillImage" /><dc:date>2026-07-06T11:29:58.330374</dc:date><dc:format>image/svg+xml</dc:format><dc:creator><cc:Agent><dc:title>Matplotlib v3.10.9, https://matplotlib.org/</dc:title></cc:Agent></dc:creator></cc:Work></rdf:RDF></metadata><defs
     id="defs1"><style
       type="text/css"
       id="style1">*{stroke-linejoin: round; stroke-linecap: butt}</style><defs
       id="defs76"><path
         id="DejaVuSans-53"
         d="m 3425,4513 v -616 q -359,172 -678,256 -319,85 -616,85 -515,0 -795,-200 -280,-200 -280,-569 0,-310 186,-468 186,-157 705,-254 l 381,-78 q 706,-135 1042,-474 336,-339 336,-907 0,-679 -455,-1029 -454,-350 -1332,-350 -331,0 -705,75 -373,75 -773,222 v 650 q 384,-215 753,-325 369,-109 725,-109 540,0 834,212 294,213 294,607 0,343 -211,537 -211,194 -692,291 l -385,75 q -706,140 -1022,440 -315,300 -315,835 0,619 436,975 436,356 1201,356 329,0 669,-60 341,-59 697,-177 z"
         transform="scale(0.015625)" /><path
         id="DejaVuSans-63"
         d="m 3122,3366 v -538 q -244,135 -489,202 -245,67 -495,67 -560,0 -870,-355 -309,-354 -309,-995 0,-641 309,-996 310,-354 870,-354 250,0 495,67 245,67 489,202 V 134 Q 2881,22 2623,-34 2366,-91 2075,-91 1284,-91 818,406 353,903 353,1747 q 0,856 470,1346 471,491 1290,491 265,0 518,-55 253,-54 491,-163 z"
         transform="scale(0.015625)" /><path
         id="DejaVuSans-68"
         d="M 3513,2113 V 0 h -575 v 2094 q 0,497 -194,743 -194,247 -581,247 -466,0 -735,-297 -269,-296 -269,-809 V 0 H 581 v 4863 h 578 V 2956 q 207,316 486,472 280,156 646,156 603,0 912,-373 310,-373 310,-1098 z"
         transform="scale(0.015625)" /><path
         id="DejaVuSans-64"
         d="m 2906,2969 v 1894 h 575 V 0 H 2906 V 525 Q 2725,213 2448,61 2172,-91 1784,-91 1150,-91 751,415 353,922 353,1747 q 0,825 398,1331 399,506 1033,506 388,0 664,-152 277,-151 458,-463 z M 947,1747 q 0,-634 261,-995 261,-361 717,-361 456,0 718,361 263,361 263,995 0,634 -263,995 -262,361 -718,361 -456,0 -717,-361 -261,-361 -261,-995 z"
         transform="scale(0.015625)" /><path
         id="DejaVuSans-20"
         transform="scale(0.015625)"
         d="" /><path
         id="DejaVuSans-73"
         d="m 2834,3397 v -544 q -243,125 -506,187 -262,63 -544,63 -428,0 -642,-131 -214,-131 -214,-394 0,-200 153,-314 153,-114 616,-217 l 197,-44 q 612,-131 870,-370 258,-239 258,-667 0,-488 -386,-773 Q 2250,-91 1575,-91 1294,-91 989,-36 684,19 347,128 v 594 q 319,-166 628,-249 309,-82 613,-82 406,0 624,139 219,139 219,392 0,234 -158,359 -157,125 -692,241 l -200,47 q -534,112 -772,345 -237,233 -237,639 0,494 350,762 350,269 994,269 318,0 599,-47 282,-46 519,-140 z"
         transform="scale(0.015625)" /></defs><defs
       id="defs156"><path
         id="DejaVuSans-37"
         d="M 525,4666 H 3525 V 4397 L 1831,0 H 1172 L 2766,4134 H 525 Z"
         transform="scale(0.015625)" /></defs><defs
       id="defs164"><path
         id="DejaVuSans-33"
         d="m 2597,2516 q 453,-97 707,-404 255,-306 255,-756 0,-690 -475,-1069 -475,-378 -1350,-378 -293,0 -604,58 -311,58 -642,174 v 609 q 262,-153 574,-231 313,-78 654,-78 593,0 904,234 311,234 311,681 0,413 -289,645 -289,233 -804,233 h -544 v 519 h 569 q 465,0 712,186 247,186 247,536 0,359 -255,551 -254,193 -729,193 -260,0 -557,-57 -297,-56 -653,-174 v 562 q 360,100 674,150 314,50 592,50 719,0 1137,-327 419,-326 419,-882 0,-388 -222,-655 -222,-267 -631,-370 z"
         transform="scale(0.015625)" /></defs><defs
       id="defs141"><path
         id="DejaVuSans-39"
         d="m 703,97 v 575 q 238,-113 481,-172 244,-59 479,-59 625,0 954,420 330,420 377,1277 -181,-269 -460,-413 -278,-144 -615,-144 -700,0 -1108,423 -408,424 -408,1159 0,718 425,1152 425,435 1131,435 810,0 1236,-621 427,-620 427,-1801 Q 3622,1225 3098,567 2575,-91 1691,-91 1453,-91 1209,-44 966,3 703,97 Z m 1256,1978 q 425,0 673,290 249,291 249,798 0,503 -249,795 -248,292 -673,292 -425,0 -673,-292 -248,-292 -248,-795 0,-507 248,-798 248,-290 673,-290 z"
         transform="scale(0.015625)" /></defs><defs
       id="defs132"><path
         id="DejaVuSans-25"
         d="m 4653,2053 q -272,0 -427,-231 -154,-231 -154,-644 0,-406 154,-639 155,-233 427,-233 266,0 420,233 155,233 155,639 0,410 -155,642 -154,233 -420,233 z m 0,397 q 494,0 784,-344 291,-343 291,-928 0,-584 -292,-927 -292,-342 -783,-342 -500,0 -791,342 -290,343 -290,927 0,588 292,930 292,342 789,342 z M 1428,4353 q -269,0 -424,-233 -154,-232 -154,-639 0,-412 153,-644 153,-231 425,-231 272,0 426,231 155,232 155,644 0,403 -156,637 -156,235 -425,235 z m 2822,397 h 500 L 1831,-91 h -500 z m -2822,0 q 494,0 787,-342 294,-342 294,-927 0,-590 -292,-931 -292,-341 -789,-341 -497,0 -786,342 -289,343 -289,930 0,582 290,925 291,344 785,344 z"
         transform="scale(0.015625)" /></defs><defs
       id="defs3"><path
         id="m4b52094bed"
         d="M 0,0 V 3.5"
         style="stroke:#000000;stroke-width:0.8" /></defs><defs
       id="defs59"><path
         id="DejaVuSans-45"
         d="M 628,4666 H 3578 V 4134 H 1259 V 2753 H 3481 V 2222 H 1259 V 531 H 3634 V 0 H 628 Z"
         transform="scale(0.015625)" /><path
         id="DejaVuSans-67"
         d="m 2906,1791 q 0,625 -258,968 -257,344 -723,344 -462,0 -720,-344 -258,-343 -258,-968 0,-622 258,-966 258,-344 720,-344 466,0 723,344 258,344 258,966 z M 3481,434 q 0,-893 -397,-1329 -396,-436 -1215,-436 -303,0 -572,45 -269,45 -522,139 v 559 q 253,-137 500,-202 247,-66 503,-66 566,0 847,295 281,295 281,892 V 616 Q 2728,306 2450,153 2172,0 1784,0 1141,0 747,490 353,981 353,1791 q 0,812 394,1302 394,491 1037,491 388,0 666,-153 278,-153 456,-462 v 531 h 575 z"
         transform="scale(0.015625)" /><path
         id="DejaVuSans-6e"
         d="M 3513,2113 V 0 h -575 v 2094 q 0,497 -194,743 -194,247 -581,247 -466,0 -735,-297 -269,-296 -269,-809 V 0 H 581 v 3500 h 578 v -544 q 207,316 486,472 280,156 646,156 603,0 912,-373 310,-373 310,-1098 z"
         transform="scale(0.015625)" /><path
         id="DejaVuSans-76"
         d="M 191,3500 H 800 L 1894,563 2988,3500 h 609 L 2284,0 h -781 z"
         transform="scale(0.015625)" /><path
         id="DejaVuSans-61"
         d="m 2194,1759 q -697,0 -966,-159 -269,-159 -269,-544 0,-306 202,-486 202,-179 548,-179 479,0 768,339 289,339 289,901 v 128 z m 1147,238 V 0 H 2766 V 531 Q 2569,213 2275,61 1981,-91 1556,-91 q -537,0 -855,302 -317,302 -317,808 0,590 395,890 396,300 1180,300 h 807 v 57 q 0,397 -261,614 -261,217 -733,217 -300,0 -585,-72 -284,-72 -546,-216 v 532 q 315,122 612,182 297,61 578,61 760,0 1135,-394 375,-393 375,-1193 z"
         transform="scale(0.015625)" /><path
         id="DejaVuSans-6c"
         d="m 603,4863 h 575 V 0 H 603 Z"
         transform="scale(0.015625)" /><path
         id="DejaVuSans-75"
         d="m 544,1381 v 2119 h 575 V 1403 q 0,-497 193,-746 194,-248 582,-248 465,0 735,297 271,297 271,810 v 1984 h 575 V 0 H 2900 V 538 Q 2691,219 2414,64 2138,-91 1772,-91 1169,-91 856,284 544,659 544,1381 Z m 1447,2203 z"
         transform="scale(0.015625)" /></defs><defs
       id="defs15"><path
         id="DejaVuSans-54"
         d="M -19,4666 H 3928 V 4134 H 2272 V 0 H 1638 V 4134 H -19 Z"
         transform="scale(0.015625)" /><path
         id="DejaVuSans-69"
         d="m 603,3500 h 575 V 0 H 603 Z m 0,1363 h 575 V 4134 H 603 Z"
         transform="scale(0.015625)" /><path
         id="DejaVuSans-6d"
         d="m 3328,2828 q 216,388 516,572 300,184 706,184 547,0 844,-383 297,-382 297,-1088 V 0 h -578 v 2094 q 0,503 -179,746 -178,244 -543,244 -447,0 -707,-297 -259,-296 -259,-809 V 0 h -578 v 2094 q 0,506 -178,748 -178,242 -550,242 -441,0 -701,-298 -259,-298 -259,-808 V 0 H 581 v 3500 h 578 v -544 q 197,322 472,475 275,153 653,153 382,0 649,-194 267,-193 395,-562 z"
         transform="scale(0.015625)" /><path
         id="DejaVuSans-65"
         d="M 3597,1894 V 1613 H 953 q 38,-594 358,-905 320,-311 892,-311 331,0 642,81 311,81 618,244 V 178 Q 3153,47 2828,-22 2503,-91 2169,-91 1331,-91 842,396 353,884 353,1716 q 0,859 464,1363 464,505 1252,505 706,0 1117,-455 411,-454 411,-1235 z m -575,169 q -6,471 -264,752 -258,282 -683,282 -481,0 -770,-272 -289,-272 -333,-766 z"
         transform="scale(0.015625)" /></defs><defs
       id="defs19"><path
         id="mcf5a49f787"
         d="M 0,0 H -3.5"
         style="stroke:#000000;stroke-width:0.8" /></defs><defs
       id="defs106"><path
         id="DejaVuSans-74"
         d="M 1172,4494 V 3500 H 2356 V 3053 H 1172 V 1153 q 0,-428 117,-550 117,-122 477,-122 h 590 V 0 H 1766 Q 1100,0 847,248 594,497 594,1153 V 3053 H 172 v 447 h 422 v 994 z"
         transform="scale(0.015625)" /><path
         id="DejaVuSans-78"
         d="M 3513,3500 2247,1797 3578,0 H 2900 L 1881,1375 863,0 H 184 L 1544,1831 300,3500 h 678 l 928,-1247 928,1247 z"
         transform="scale(0.015625)" /><path
         id="DejaVuSans-70"
         d="M 1159,525 V -1331 H 581 v 4831 h 578 v -531 q 182,312 458,463 277,152 661,152 638,0 1036,-506 399,-506 399,-1331 0,-825 -399,-1332 -398,-506 -1036,-506 -384,0 -661,152 -276,152 -458,464 z m 1957,1222 q 0,634 -261,995 -261,361 -717,361 -457,0 -718,-361 -261,-361 -261,-995 0,-634 261,-995 261,-361 718,-361 456,0 717,361 261,361 261,995 z"
         transform="scale(0.015625)" /><path
         id="DejaVuSans-6f"
         d="m 1959,3097 q -462,0 -731,-361 -269,-361 -269,-989 0,-628 267,-989 268,-361 733,-361 460,0 728,362 269,363 269,988 0,622 -269,986 -268,364 -728,364 z m 0,487 q 750,0 1178,-488 429,-487 429,-1349 Q 3566,888 3137,398 2709,-91 1959,-91 1206,-91 779,398 353,888 353,1747 q 0,862 426,1349 427,488 1180,488 z"
         transform="scale(0.015625)" /><path
         id="DejaVuSans-56"
         d="M 1831,0 50,4666 H 709 L 2188,738 3669,4666 h 656 L 2547,0 Z"
         transform="scale(0.015625)" /></defs><defs
       id="defs20"><path
         id="DejaVuSans-2212"
         d="M 678,2272 H 4684 V 1741 H 678 Z"
         transform="scale(0.015625)" /><path
         id="DejaVuSans-2e"
         d="m 684,794 h 660 V 0 H 684 Z"
         transform="scale(0.015625)" /></defs><defs
       id="defs7"><path
         id="DejaVuSans-34"
         d="M 2419,4116 825,1625 h 1594 z m -166,550 h 794 V 1625 h 666 V 1100 H 3047 V 0 H 2419 V 1100 H 313 v 609 z"
         transform="scale(0.015625)" /></defs><defs
       id="defs5"><path
         id="DejaVuSans-32"
         d="M 1228,531 H 3431 V 0 H 469 v 531 q 359,372 979,998 621,627 780,809 303,340 423,576 121,236 121,464 0,372 -261,606 -261,235 -680,235 -297,0 -627,-103 -329,-103 -704,-313 v 638 q 381,153 712,231 332,78 607,78 725,0 1156,-363 431,-362 431,-968 0,-288 -108,-546 -107,-257 -392,-607 -78,-91 -497,-524 Q 1991,1309 1228,531 Z"
         transform="scale(0.015625)" /></defs><defs
       id="defs9"><path
         id="DejaVuSans-36"
         d="m 2113,2584 q -425,0 -674,-291 -248,-290 -248,-796 0,-503 248,-796 249,-292 674,-292 425,0 673,292 248,293 248,796 0,506 -248,796 -248,291 -673,291 z m 1253,1979 v -575 q -238,112 -480,171 -242,60 -480,60 -625,0 -955,-422 -329,-422 -376,-1275 184,272 462,417 279,145 613,145 703,0 1111,-427 408,-426 408,-1160 0,-719 -425,-1154 -425,-434 -1131,-434 -810,0 -1238,620 -428,621 -428,1799 0,1106 525,1764 525,658 1409,658 238,0 480,-47 242,-47 505,-140 z"
         transform="scale(0.015625)" /></defs><defs
       id="defs4"><path
         id="DejaVuSans-30"
         d="m 2034,4250 q -487,0 -733,-480 -245,-479 -245,-1442 0,-959 245,-1439 246,-480 733,-480 491,0 736,480 246,480 246,1439 0,963 -246,1442 -245,480 -736,480 z m 0,500 q 785,0 1199,-621 414,-620 414,-1801 0,-1178 -414,-1799 -414,-620 -1199,-620 -784,0 -1198,620 -414,621 -414,1799 0,1181 414,1801 414,621 1198,621 z"
         transform="scale(0.015625)" /></defs><defs
       id="defs25"><path
         id="DejaVuSans-35"
         d="M 691,4666 H 3169 V 4134 H 1269 V 2991 q 137,47 274,70 138,23 276,23 781,0 1237,-428 457,-428 457,-1159 Q 3513,744 3044,326 2575,-91 1722,-91 1428,-91 1123,-41 819,9 494,109 v 635 q 281,-153 581,-228 300,-75 634,-75 541,0 856,284 316,284 316,772 0,487 -316,771 -315,285 -856,285 -253,0 -505,-56 -251,-56 -513,-175 z"
         transform="scale(0.015625)" /></defs><defs
       id="defs11"><path
         id="DejaVuSans-38"
         d="m 2034,2216 q -450,0 -708,-241 -257,-241 -257,-662 0,-422 257,-663 258,-241 708,-241 450,0 709,242 260,243 260,662 0,421 -258,662 -257,241 -711,241 z m -631,268 q -406,100 -633,378 -226,279 -226,679 0,559 398,884 399,325 1092,325 697,0 1094,-325 397,-325 397,-884 0,-400 -227,-679 -226,-278 -629,-378 456,-106 710,-416 255,-309 255,-755 Q 3634,634 3220,271 2806,-91 2034,-91 1263,-91 848,271 434,634 434,1313 q 0,446 256,755 257,310 713,416 z m -231,997 q 0,-362 226,-565 227,-203 636,-203 407,0 636,203 230,203 230,565 0,363 -230,566 -229,203 -636,203 -409,0 -636,-203 -226,-203 -226,-566 z"
         transform="scale(0.015625)" /></defs><defs
       id="defs13"><path
         id="DejaVuSans-31"
         d="M 794,531 H 1825 V 4091 L 703,3866 v 575 l 1116,225 h 631 V 531 H 3481 V 0 H 794 Z"
         transform="scale(0.015625)" /></defs></defs><path
     d="M 0,359.7515 H 575.69669 V 0 H 0 Z"
     style="fill:#141230;fill-opacity:1"
     id="path1" /><path
     d="M 64.426057,313.02377 H 564.90238 V 29.259788 H 64.426057 Z"
     style="fill:#141230;fill-opacity:1"
     id="path2" /><path
     d="M 87.174981,313.02377 V 29.259788"
     clip-path="url(#pd630c99437)"
     style="fill:#141230;fill-opacity:1;stroke:#e0e0e0;stroke-width:0.8;stroke-dasharray:2.96, 1.28;stroke-dashoffset:0;stroke-opacity:0.7"
     id="path3" /><path
     id="use3"
     d="m 87.17498,313.02377 v 3.5"
     style="fill:#ffffff;fill-opacity:1;stroke:#ffffff;stroke-width:0.8" /><path
     id="use4"
     d="m 87.171231,321.17315 q -0.913125,0 -1.374375,0.9 -0.459375,0.89813 -0.459375,2.70375 0,1.79813 0.459375,2.69813 0.46125,0.89999 1.374375,0.89999 0.920625,0 1.38,-0.89999 0.46125,-0.9 0.46125,-2.69813 0,-1.80562 -0.46125,-2.70375 -0.459375,-0.9 -1.38,-0.9 z m 0,-0.9375 q 1.471875,0 2.248125,1.16438 0.77625,1.16249 0.77625,3.37687 0,2.20875 -0.77625,3.37313 -0.77625,1.16249 -2.248125,1.16249 -1.47,0 -2.24625,-1.16249 -0.77625,-1.16438 -0.77625,-3.37313 0,-2.21438 0.77625,-3.37687 0.77625,-1.16438 2.24625,-1.16438 z"
     style="fill:#ffffff;fill-opacity:1;stroke-width:0.001875;stroke:#ffffff" /><path
     d="M 178.17068,313.02377 V 29.259788"
     clip-path="url(#pd630c99437)"
     style="fill:#666666;fill-opacity:1;stroke:#e0e0e0;stroke-width:0.8;stroke-dasharray:2.96, 1.28;stroke-dashoffset:0;stroke-opacity:0.7"
     id="path4" /><path
     id="use5"
     d="m 178.17067,313.02377 v 3.5"
     style="fill:#ffffff;fill-opacity:1;stroke:#ffffff;stroke-width:0.8" /><path
     id="use6"
     d="m 176.65568,328.14627 h 4.13062 v 0.99563 h -5.55374 v -0.99563 q 0.67312,-0.6975 1.83562,-1.87124 1.16438,-1.17563 1.4625,-1.51688 0.56812,-0.6375 0.79313,-1.08 0.22687,-0.4425 0.22687,-0.87 0,-0.6975 -0.48938,-1.13625 -0.48937,-0.44062 -1.275,-0.44062 -0.55687,0 -1.17562,0.19312 -0.61688,0.19312 -1.32,0.58687 v -1.19624 q 0.71437,-0.28688 1.335,-0.43313 0.6225,-0.14625 1.13813,-0.14625 1.35937,0 2.16749,0.68063 0.80813,0.67875 0.80813,1.815 0,0.53999 -0.2025,1.02375 -0.20063,0.48187 -0.735,1.13812 -0.14625,0.17063 -0.93188,0.9825 -0.78375,0.81187 -2.21437,2.27062 z"
     style="fill:#ffffff;fill-opacity:1;stroke-width:0.001875;stroke:#ffffff" /><path
     d="M 269.16637,313.02377 V 29.259788"
     clip-path="url(#pd630c99437)"
     style="fill:#141230;fill-opacity:1;stroke:#e0e0e0;stroke-width:0.8;stroke-dasharray:2.96, 1.28;stroke-dashoffset:0;stroke-opacity:0.7"
     id="path6" /><path
     id="use7"
     d="m 269.16638,313.02377 v 3.5"
     style="fill:#ffffff;fill-opacity:1;stroke:#ffffff;stroke-width:0.8" /><path
     id="use8"
     d="m 269.88449,321.4244 -2.98875,4.67063 h 2.98875 z m -0.31125,-1.03125 h 1.48875 v 5.70188 h 1.24875 v 0.98437 h -1.24875 v 2.0625 h -1.1775 v -2.0625 h -3.94875 v -1.14188 z"
     style="fill:#ffffff;fill-opacity:1;stroke-width:0.001875;stroke:#ffffff" /><path
     d="M 360.16207,313.02377 V 29.259788"
     clip-path="url(#pd630c99437)"
     style="fill:#141230;fill-opacity:1;stroke:#e0e0e0;stroke-width:0.8;stroke-dasharray:2.96, 1.28;stroke-dashoffset:0;stroke-opacity:0.7"
     id="path8" /><path
     id="use9"
     d="m 360.16208,313.02377 v 3.5"
     style="fill:#ffffff;fill-opacity:1;stroke:#ffffff;stroke-width:0.8" /><path
     id="use10"
     d="m 360.30644,324.2969 q -0.79687,0 -1.26375,0.54563 -0.465,0.54374 -0.465,1.4925 0,0.94312 0.465,1.4925 0.46688,0.54749 1.26375,0.54749 0.79688,0 1.26188,-0.54749 0.465,-0.54938 0.465,-1.4925 0,-0.94876 -0.465,-1.4925 -0.465,-0.54563 -1.26188,-0.54563 z m 2.34938,-3.71063 v 1.07813 q -0.44625,-0.21 -0.9,-0.32063 -0.45375,-0.11249 -0.9,-0.11249 -1.17188,0 -1.79063,0.79125 -0.61687,0.79125 -0.705,2.39062 0.345,-0.51 0.86625,-0.78187 0.52313,-0.27188 1.14938,-0.27188 1.31812,0 2.08312,0.80063 0.765,0.79874 0.765,2.175 0,1.34812 -0.79687,2.16375 -0.79688,0.81374 -2.12063,0.81374 -1.51875,0 -2.32125,-1.16249 -0.8025,-1.16438 -0.8025,-3.37313 0,-2.07375 0.98438,-3.3075 0.98437,-1.23375 2.64187,-1.23375 0.44625,0 0.9,0.0881 0.45375,0.0881 0.94688,0.2625 z"
     style="fill:#ffffff;fill-opacity:1;stroke-width:0.001875;stroke:#ffffff" /><path
     d="M 451.15776,313.02377 V 29.259788"
     clip-path="url(#pd630c99437)"
     style="fill:#141230;fill-opacity:1;stroke:#e0e0e0;stroke-width:0.8;stroke-dasharray:2.96, 1.28;stroke-dashoffset:0;stroke-opacity:0.7"
     id="path10" /><path
     id="use11"
     d="m 451.15778,313.02377 v 3.5"
     style="fill:#ffffff;fill-opacity:1;stroke:#ffffff;stroke-width:0.8" /><path
     id="use12"
     d="m 451.15401,324.9869 q -0.84375,0 -1.3275,0.45188 -0.48188,0.45187 -0.48188,1.24124 0,0.79126 0.48188,1.24313 0.48375,0.45187 1.3275,0.45187 0.84375,0 1.32937,-0.45374 0.4875,-0.45563 0.4875,-1.24126 0,-0.78937 -0.48374,-1.24124 -0.48188,-0.45188 -1.33313,-0.45188 z m -1.18313,-0.5025 q -0.76125,-0.1875 -1.18687,-0.70875 -0.42375,-0.52312 -0.42375,-1.27312 0,-1.04813 0.74625,-1.6575 0.74812,-0.60938 2.0475,-0.60938 1.30688,0 2.05125,0.60938 0.74437,0.60937 0.74437,1.6575 0,0.75 -0.42562,1.27312 -0.42375,0.52125 -1.17938,0.70875 0.855,0.19875 1.33125,0.78 0.47813,0.57937 0.47813,1.41562 0,1.27313 -0.77625,1.95376 -0.77625,0.67874 -2.22375,0.67874 -1.44562,0 -2.22375,-0.67874 -0.77625,-0.68063 -0.77625,-1.95376 0,-0.83625 0.48,-1.41562 0.48187,-0.58125 1.33687,-0.78 z m -0.43312,-1.86938 q 0,0.67876 0.42375,1.05938 0.42562,0.38062 1.1925,0.38062 0.76312,0 1.1925,-0.38062 0.43125,-0.38062 0.43125,-1.05938 0,-0.68062 -0.43125,-1.06124 -0.42938,-0.38063 -1.1925,-0.38063 -0.76688,0 -1.1925,0.38063 -0.42375,0.38062 -0.42375,1.06124 z"
     style="fill:#ffffff;fill-opacity:1;stroke-width:0.001875;stroke:#ffffff" /><path
     d="M 542.15346,313.02377 V 29.259788"
     clip-path="url(#pd630c99437)"
     style="fill:#141230;fill-opacity:1;stroke:#e0e0e0;stroke-width:0.8;stroke-dasharray:2.96, 1.28;stroke-dashoffset:0;stroke-opacity:0.7"
     id="path12" /><path
     id="use13"
     d="m 542.15344,313.02377 v 3.5"
     style="fill:#ffffff;fill-opacity:1;stroke:#ffffff;stroke-width:0.8" /><path
     id="use14"
     d="m 536.00721,328.14627 h 1.93312 v -6.67499 l -2.10374,0.42187 v -1.07812 l 2.09249,-0.42188 h 1.18313 v 7.75312 h 1.93313 v 0.99563 h -5.03813 z"
     style="fill:#ffffff;fill-opacity:1;stroke-width:0.001875;stroke:#ffffff" /><path
     id="use15"
     d="m 545.96698,321.17315 q -0.91313,0 -1.37437,0.9 -0.45938,0.89813 -0.45938,2.70375 0,1.79813 0.45938,2.69813 0.46124,0.89999 1.37437,0.89999 0.92062,0 1.38,-0.89999 0.46125,-0.9 0.46125,-2.69813 0,-1.80562 -0.46125,-2.70375 -0.45938,-0.9 -1.38,-0.9 z m 0,-0.9375 q 1.47187,0 2.24812,1.16438 0.77625,1.16249 0.77625,3.37687 0,2.20875 -0.77625,3.37313 -0.77625,1.16249 -2.24812,1.16249 -1.47,0 -2.24625,-1.16249 -0.77625,-1.16438 -0.77625,-3.37313 0,-2.21438 0.77625,-3.37687 0.77625,-1.16438 2.24625,-1.16438 z"
     style="fill:#ffffff;fill-opacity:1;stroke-width:0.001875;stroke:#ffffff" /><use
     xlink:href="#DejaVuSans-54"
     id="use16"
     style="fill:#ffffff;fill-opacity:1"
     transform="matrix(0.14,0,0,-0.14,297.53719,346.27534)" /><use
     xlink:href="#DejaVuSans-69"
     transform="matrix(0.14,0,0,-0.14,305.65145,346.27534)"
     id="use17"
     style="fill:#ffffff;fill-opacity:1" /><use
     xlink:href="#DejaVuSans-6d"
     transform="matrix(0.14,0,0,-0.14,309.5411,346.27534)"
     id="use18"
     style="fill:#ffffff;fill-opacity:1" /><use
     xlink:href="#DejaVuSans-65"
     transform="matrix(0.14,0,0,-0.14,323.17879,346.27534)"
     id="use19"
     style="fill:#ffffff;fill-opacity:1" /><path
     d="M 64.426057,300.12541 H 564.90238"
     clip-path="url(#pd630c99437)"
     style="fill:#141230;fill-opacity:1;stroke:#e0e0e0;stroke-width:0.8;stroke-dasharray:2.96, 1.28;stroke-dashoffset:0;stroke-opacity:0.7"
     id="path19" /><path
     id="use20"
     d="m 64.426056,300.1254 h -3.5"
     style="fill:#ffffff;fill-opacity:1;stroke:#ffffff;stroke-width:0.8" /><use
     xlink:href="#DejaVuSans-2212"
     id="use21"
     style="fill:#ffffff;fill-opacity:1"
     transform="matrix(0.12,0,0,-0.12,28.286682,304.68447)" /><use
     xlink:href="#DejaVuSans-32"
     transform="matrix(0.12,0,0,-0.12,38.341369,304.68447)"
     id="use22"
     style="fill:#ffffff;fill-opacity:1" /><use
     xlink:href="#DejaVuSans-2e"
     transform="matrix(0.12,0,0,-0.12,45.976135,304.68447)"
     id="use23"
     style="fill:#ffffff;fill-opacity:1" /><path
     id="use24"
     d="m 53.604338,296.71572 q -0.913125,0 -1.374375,0.9 -0.459375,0.89812 -0.459375,2.70375 0,1.79812 0.459375,2.69812 0.46125,0.9 1.374375,0.9 0.920625,0 1.38,-0.9 0.46125,-0.9 0.46125,-2.69812 0,-1.80563 -0.46125,-2.70375 -0.459375,-0.9 -1.38,-0.9 z m 0,-0.9375 q 1.471875,0 2.248125,1.16437 0.77625,1.1625 0.77625,3.37688 0,2.20875 -0.77625,3.37312 -0.77625,1.1625 -2.248125,1.1625 -1.47,0 -2.24625,-1.1625 -0.77625,-1.16437 -0.77625,-3.37312 0,-2.21438 0.77625,-3.37688 0.77625,-1.16437 2.24625,-1.16437 z"
     style="fill:#ffffff;fill-opacity:1;stroke-width:0.001875;stroke:#ffffff" /><path
     d="M 64.426057,267.8795 H 564.90238"
     clip-path="url(#pd630c99437)"
     style="fill:#141230;fill-opacity:1;stroke:#e0e0e0;stroke-width:0.8;stroke-dasharray:2.96, 1.28;stroke-dashoffset:0;stroke-opacity:0.7"
     id="path24" /><path
     id="use25"
     d="m 64.426056,267.87952 h -3.5"
     style="fill:#ffffff;fill-opacity:1;stroke:#ffffff;stroke-width:0.8" /><use
     xlink:href="#DejaVuSans-2212"
     id="use26"
     style="fill:#ffffff;fill-opacity:1"
     transform="matrix(0.12,0,0,-0.12,28.286682,272.43857)" /><use
     xlink:href="#DejaVuSans-31"
     transform="matrix(0.12,0,0,-0.12,38.341369,272.43857)"
     id="use27"
     style="fill:#ffffff;fill-opacity:1" /><use
     xlink:href="#DejaVuSans-2e"
     transform="matrix(0.12,0,0,-0.12,45.976135,272.43857)"
     id="use28"
     style="fill:#ffffff;fill-opacity:1" /><path
     id="use29"
     d="m 51.086213,263.68982 h 4.64625 v 0.9975 h -3.5625 v 2.14313 q 0.256875,-0.0881 0.51375,-0.13125 0.25875,-0.0431 0.5175,-0.0431 1.464375,0 2.319375,0.8025 0.856875,0.8025 0.856875,2.17313 0,1.41187 -0.879375,2.19562 -0.879375,0.78187 -2.47875,0.78187 -0.55125,0 -1.123125,-0.0937 -0.57,-0.0937 -1.179375,-0.28125 v -1.19062 q 0.526875,0.28688 1.089375,0.4275 0.5625,0.14063 1.18875,0.14063 1.014375,0 1.605,-0.5325 0.5925,-0.53251 0.5925,-1.4475 0,-0.91313 -0.5925,-1.44563 -0.590625,-0.53437 -1.605,-0.53437 -0.474375,0 -0.946875,0.105 -0.470625,0.105 -0.961875,0.32812 z"
     style="fill:#ffffff;fill-opacity:1;stroke-width:0.001875;stroke:#ffffff" /><path
     d="M 64.426057,235.6336 H 564.90238"
     clip-path="url(#pd630c99437)"
     style="fill:#141230;fill-opacity:1;stroke:#e0e0e0;stroke-width:0.8;stroke-dasharray:2.96, 1.28;stroke-dashoffset:0;stroke-opacity:0.7"
     id="path29" /><path
     id="use30"
     d="m 64.426056,235.63359 h -3.5"
     style="fill:#ffffff;fill-opacity:1;stroke:#ffffff;stroke-width:0.8" /><use
     xlink:href="#DejaVuSans-2212"
     id="use31"
     style="fill:#ffffff;fill-opacity:1"
     transform="matrix(0.12,0,0,-0.12,28.286682,240.19266)" /><use
     xlink:href="#DejaVuSans-31"
     transform="matrix(0.12,0,0,-0.12,38.341369,240.19266)"
     id="use32"
     style="fill:#ffffff;fill-opacity:1" /><use
     xlink:href="#DejaVuSans-2e"
     transform="matrix(0.12,0,0,-0.12,45.976135,240.19266)"
     id="use33"
     style="fill:#ffffff;fill-opacity:1" /><path
     id="use34"
     d="m 53.604338,232.22391 q -0.913125,0 -1.374375,0.9 -0.459375,0.89812 -0.459375,2.70375 0,1.79812 0.459375,2.69812 0.46125,0.9 1.374375,0.9 0.920625,0 1.38,-0.9 0.46125,-0.9 0.46125,-2.69812 0,-1.80563 -0.46125,-2.70375 -0.459375,-0.9 -1.38,-0.9 z m 0,-0.9375 q 1.471875,0 2.248125,1.16437 0.77625,1.1625 0.77625,3.37688 0,2.20875 -0.77625,3.37312 -0.77625,1.1625 -2.248125,1.1625 -1.47,0 -2.24625,-1.1625 -0.77625,-1.16437 -0.77625,-3.37312 0,-2.21438 0.77625,-3.37688 0.77625,-1.16437 2.24625,-1.16437 z"
     style="fill:#ffffff;fill-opacity:1;stroke-width:0.001875;stroke:#ffffff" /><path
     d="M 64.426057,203.38769 H 564.90238"
     clip-path="url(#pd630c99437)"
     style="fill:#141230;fill-opacity:1;stroke:#e0e0e0;stroke-width:0.8;stroke-dasharray:2.96, 1.28;stroke-dashoffset:0;stroke-opacity:0.7"
     id="path34" /><path
     id="use35"
     d="m 64.426056,203.3877 h -3.5"
     style="fill:#ffffff;fill-opacity:1;stroke:#ffffff;stroke-width:0.8" /><use
     xlink:href="#DejaVuSans-2212"
     id="use36"
     style="fill:#ffffff;fill-opacity:1"
     transform="matrix(0.12,0,0,-0.12,28.286682,207.94675)" /><use
     xlink:href="#DejaVuSans-30"
     transform="matrix(0.12,0,0,-0.12,38.341369,207.94675)"
     id="use37"
     style="fill:#ffffff;fill-opacity:1" /><use
     xlink:href="#DejaVuSans-2e"
     transform="matrix(0.12,0,0,-0.12,45.976135,207.94675)"
     id="use38"
     style="fill:#ffffff;fill-opacity:1" /><path
     id="use39"
     d="m 51.086213,199.198 h 4.64625 v 0.9975 h -3.5625 v 2.14312 q 0.256875,-0.0881 0.51375,-0.13124 0.25875,-0.0431 0.5175,-0.0431 1.464375,0 2.319375,0.8025 0.856875,0.8025 0.856875,2.17313 0,1.41187 -0.879375,2.19562 -0.879375,0.78187 -2.47875,0.78187 -0.55125,0 -1.123125,-0.0937 -0.57,-0.0937 -1.179375,-0.28125 v -1.19062 q 0.526875,0.28687 1.089375,0.4275 0.5625,0.14062 1.18875,0.14062 1.014375,0 1.605,-0.5325 0.5925,-0.5325 0.5925,-1.44749 0,-0.91313 -0.5925,-1.44563 -0.590625,-0.53438 -1.605,-0.53438 -0.474375,0 -0.946875,0.10501 -0.470625,0.10499 -0.961875,0.32812 z"
     style="fill:#ffffff;fill-opacity:1;stroke-width:0.001875;stroke:#ffffff" /><path
     d="M 64.426057,171.14178 H 564.90238"
     clip-path="url(#pd630c99437)"
     style="fill:#141230;fill-opacity:1;stroke:#e0e0e0;stroke-width:0.8;stroke-dasharray:2.96, 1.28;stroke-dashoffset:0;stroke-opacity:0.7"
     id="path39" /><path
     id="use40"
     d="m 64.426056,171.14178 h -3.5"
     style="fill:#ffffff;fill-opacity:1;stroke:#ffffff;stroke-width:0.8" /><use
     xlink:href="#DejaVuSans-30"
     id="use41"
     style="fill:#ffffff;fill-opacity:1"
     transform="matrix(0.12,0,0,-0.12,38.342307,175.70084)" /><use
     xlink:href="#DejaVuSans-2e"
     transform="matrix(0.12,0,0,-0.12,45.977073,175.70084)"
     id="use42"
     style="fill:#ffffff;fill-opacity:1" /><path
     id="use43"
     d="m 53.605276,167.73209 q -0.913125,0 -1.374375,0.9 -0.459375,0.89812 -0.459375,2.70375 0,1.79812 0.459375,2.69812 0.46125,0.9 1.374375,0.9 0.920625,0 1.38,-0.9 0.46125,-0.9 0.46125,-2.69812 0,-1.80563 -0.46125,-2.70375 -0.459375,-0.9 -1.38,-0.9 z m 0,-0.9375 q 1.471875,0 2.248125,1.16437 0.77625,1.1625 0.77625,3.37688 0,2.20875 -0.77625,3.37312 -0.77625,1.1625 -2.248125,1.1625 -1.47,0 -2.24625,-1.1625 -0.77625,-1.16437 -0.77625,-3.37312 0,-2.21438 0.77625,-3.37688 0.77625,-1.16437 2.24625,-1.16437 z"
     style="fill:#ffffff;fill-opacity:1;stroke-width:0.001875;stroke:#ffffff" /><path
     d="M 64.426057,138.89587 H 564.90238"
     clip-path="url(#pd630c99437)"
     style="fill:#141230;fill-opacity:1;stroke:#e0e0e0;stroke-width:0.8;stroke-dasharray:2.96, 1.28;stroke-dashoffset:0;stroke-opacity:0.7"
     id="path43" /><path
     id="use44"
     d="m 64.426056,138.89587 h -3.5"
     style="fill:#ffffff;fill-opacity:1;stroke:#ffffff;stroke-width:0.8" /><use
     xlink:href="#DejaVuSans-30"
     id="use45"
     style="fill:#ffffff;fill-opacity:1"
     transform="matrix(0.12,0,0,-0.12,38.342307,143.45494)" /><use
     xlink:href="#DejaVuSans-2e"
     transform="matrix(0.12,0,0,-0.12,45.977073,143.45494)"
     id="use46"
     style="fill:#ffffff;fill-opacity:1" /><path
     id="use47"
     d="m 51.087151,134.70619 h 4.64625 v 0.9975 h -3.5625 v 2.14312 q 0.256875,-0.0881 0.51375,-0.13125 0.25875,-0.0431 0.5175,-0.0431 1.464375,0 2.319375,0.8025 0.856875,0.8025 0.856875,2.17312 0,1.41188 -0.879375,2.19563 -0.879375,0.78187 -2.47875,0.78187 -0.55125,0 -1.123125,-0.0937 -0.57,-0.0937 -1.179375,-0.28125 v -1.19062 q 0.526875,0.28687 1.089375,0.4275 0.5625,0.14062 1.18875,0.14062 1.014375,0 1.605,-0.5325 0.5925,-0.5325 0.5925,-1.4475 0,-0.91312 -0.5925,-1.44562 -0.590625,-0.53438 -1.605,-0.53438 -0.474375,0 -0.946875,0.105 -0.470625,0.105 -0.961875,0.32813 z"
     style="fill:#ffffff;fill-opacity:1;stroke-width:0.001875;stroke:#ffffff" /><path
     d="M 64.426057,106.64997 H 564.90238"
     clip-path="url(#pd630c99437)"
     style="fill:#141230;fill-opacity:1;stroke:#e0e0e0;stroke-width:0.8;stroke-dasharray:2.96, 1.28;stroke-dashoffset:0;stroke-opacity:0.7"
     id="path47" /><path
     id="use48"
     d="m 64.426056,106.64996 h -3.5"
     style="fill:#ffffff;fill-opacity:1;stroke:#ffffff;stroke-width:0.8" /><use
     xlink:href="#DejaVuSans-31"
     id="use49"
     style="fill:#ffffff;fill-opacity:1"
     transform="matrix(0.12,0,0,-0.12,38.342307,111.20903)" /><use
     xlink:href="#DejaVuSans-2e"
     transform="matrix(0.12,0,0,-0.12,45.977073,111.20903)"
     id="use50"
     style="fill:#ffffff;fill-opacity:1" /><path
     id="use51"
     d="m 53.605276,103.24028 q -0.913125,0 -1.374375,0.9 -0.459375,0.89812 -0.459375,2.70375 0,1.79813 0.459375,2.69812 0.46125,0.90001 1.374375,0.90001 0.920625,0 1.38,-0.90001 0.46125,-0.89999 0.46125,-2.69812 0,-1.80563 -0.46125,-2.70375 -0.459375,-0.9 -1.38,-0.9 z m 0,-0.9375 q 1.471875,0 2.248125,1.16438 0.77625,1.1625 0.77625,3.37687 0,2.20875 -0.77625,3.37313 -0.77625,1.1625 -2.248125,1.1625 -1.47,0 -2.24625,-1.1625 -0.77625,-1.16438 -0.77625,-3.37313 0,-2.21437 0.77625,-3.37687 0.77625,-1.16438 2.24625,-1.16438 z"
     style="fill:#ffffff;fill-opacity:1;stroke-width:0.001875;stroke:#ffffff" /><path
     d="M 64.426057,74.404059 H 564.90238"
     clip-path="url(#pd630c99437)"
     style="fill:#141230;fill-opacity:1;stroke:#e0e0e0;stroke-width:0.8;stroke-dasharray:2.96, 1.28;stroke-dashoffset:0;stroke-opacity:0.7"
     id="path51" /><path
     id="use52"
     d="m 64.426056,74.40406 h -3.5"
     style="fill:#ffffff;fill-opacity:1;stroke:#ffffff;stroke-width:0.8" /><use
     xlink:href="#DejaVuSans-31"
     id="use53"
     style="fill:#ffffff;fill-opacity:1"
     transform="matrix(0.12,0,0,-0.12,38.342307,78.963121)" /><use
     xlink:href="#DejaVuSans-2e"
     transform="matrix(0.12,0,0,-0.12,45.977073,78.963121)"
     id="use54"
     style="fill:#ffffff;fill-opacity:1" /><path
     id="use55"
     d="m 51.087151,70.214371 h 4.64625 v 0.9975 h -3.5625 v 2.143125 q 0.256875,-0.08813 0.51375,-0.13125 0.25875,-0.04313 0.5175,-0.04313 1.464375,0 2.319375,0.8025 0.856875,0.8025 0.856875,2.173125 0,1.411875 -0.879375,2.195625 -0.879375,0.781875 -2.47875,0.781875 -0.55125,0 -1.123125,-0.09375 -0.57,-0.09375 -1.179375,-0.28125 v -1.190625 q 0.526875,0.286875 1.089375,0.4275 0.5625,0.140625 1.18875,0.140625 1.014375,0 1.605,-0.5325 0.5925,-0.5325 0.5925,-1.4475 0,-0.913125 -0.5925,-1.445625 -0.590625,-0.534375 -1.605,-0.534375 -0.474375,0 -0.946875,0.105 -0.470625,0.105 -0.961875,0.328125 z"
     style="fill:#ffffff;fill-opacity:1;stroke-width:0.001875;stroke:#ffffff" /><path
     d="M 64.426057,42.158151 H 564.90238"
     clip-path="url(#pd630c99437)"
     style="fill:#141230;fill-opacity:1;stroke:#e0e0e0;stroke-width:0.8;stroke-dasharray:2.96, 1.28;stroke-dashoffset:0;stroke-opacity:0.7"
     id="path55" /><path
     id="use56"
     d="m 64.426056,42.15815 h -3.5"
     style="fill:#ffffff;fill-opacity:1;stroke:#ffffff;stroke-width:0.8" /><use
     xlink:href="#DejaVuSans-32"
     id="use57"
     style="fill:#ffffff;fill-opacity:1"
     transform="matrix(0.12,0,0,-0.12,38.342307,46.717214)" /><use
     xlink:href="#DejaVuSans-2e"
     transform="matrix(0.12,0,0,-0.12,45.977073,46.717214)"
     id="use58"
     style="fill:#ffffff;fill-opacity:1" /><path
     id="use59"
     d="m 53.605276,38.748464 q -0.913125,0 -1.374375,0.9 -0.459375,0.898125 -0.459375,2.70375 0,1.798125 0.459375,2.698125 0.46125,0.9 1.374375,0.9 0.920625,0 1.38,-0.9 0.46125,-0.9 0.46125,-2.698125 0,-1.805625 -0.46125,-2.70375 -0.459375,-0.9 -1.38,-0.9 z m 0,-0.9375 q 1.471875,0 2.248125,1.164375 0.77625,1.1625 0.77625,3.376875 0,2.20875 -0.77625,3.373125 -0.77625,1.1625 -2.248125,1.1625 -1.47,0 -2.24625,-1.1625 -0.77625,-1.164375 -0.77625,-3.373125 0,-2.214375 0.77625,-3.376875 0.77625,-1.164375 2.24625,-1.164375 z"
     style="fill:#ffffff;fill-opacity:1;stroke-width:0.001875;stroke:#ffffff" /><use
     xlink:href="#DejaVuSans-45"
     id="use60"
     style="fill:#ffffff;fill-opacity:1"
     transform="matrix(0,-0.14,-0.14,0,21.375119,209.81787)" /><use
     xlink:href="#DejaVuSans-69"
     transform="matrix(0,-0.14,-0.14,0,21.375119,200.97217)"
     id="use61"
     style="fill:#ffffff;fill-opacity:1" /><use
     xlink:href="#DejaVuSans-67"
     transform="matrix(0,-0.14,-0.14,0,21.375119,197.08252)"
     id="use62"
     style="fill:#ffffff;fill-opacity:1" /><use
     xlink:href="#DejaVuSans-65"
     transform="matrix(0,-0.14,-0.14,0,21.375119,188.1958)"
     id="use63"
     style="fill:#ffffff;fill-opacity:1" /><use
     xlink:href="#DejaVuSans-6e"
     transform="matrix(0,-0.14,-0.14,0,21.375119,179.58252)"
     id="use64"
     style="fill:#ffffff;fill-opacity:1" /><use
     xlink:href="#DejaVuSans-76"
     transform="matrix(0,-0.14,-0.14,0,21.375119,170.70947)"
     id="use65"
     style="fill:#ffffff;fill-opacity:1" /><use
     xlink:href="#DejaVuSans-61"
     transform="matrix(0,-0.14,-0.14,0,21.375119,162.42432)"
     id="use66"
     style="fill:#ffffff;fill-opacity:1" /><use
     xlink:href="#DejaVuSans-6c"
     transform="matrix(0,-0.14,-0.14,0,21.375119,153.84521)"
     id="use67"
     style="fill:#ffffff;fill-opacity:1" /><use
     xlink:href="#DejaVuSans-75"
     transform="matrix(0,-0.14,-0.14,0,21.375119,149.95557)"
     id="use68"
     style="fill:#ffffff;fill-opacity:1" /><use
     xlink:href="#DejaVuSans-65"
     transform="matrix(0,-0.14,-0.14,0,21.375119,141.08252)"
     id="use69"
     style="fill:#ffffff;fill-opacity:1" /><path
     d="m 87.174981,300.12541 4.642637,-1.31446 4.642638,-1.311 4.642634,-1.30743 4.64264,-1.30375 4.64264,-1.29994 4.64264,-1.29602 4.64263,-1.29196 4.64264,-1.28778 4.64264,-1.28346 4.64264,-1.27899 4.64263,-1.27438 4.64264,-1.2696 4.64264,-1.26467 4.64264,-1.25958 4.64263,-1.25429 4.64264,-1.24883 4.64264,-1.24319 4.64264,-1.23733 4.64263,-1.23127 4.64264,-1.22501 4.64264,-1.2185 4.64264,-1.21177 4.64263,-1.20479 4.64264,-1.19755 4.64264,-1.19005 4.64264,-1.18227 4.64263,-1.17421 4.64264,-1.16583 4.64264,-1.15714 4.64264,-1.14813 4.64263,-1.13876 4.64264,-1.12905 4.64264,-1.11896 4.64264,-1.10848 4.64263,-1.09759 4.64264,-1.08629 4.64264,-1.07454 4.64264,-1.06234 4.64263,-1.04966 4.64264,-1.03649 4.64264,-1.0228 4.64264,-1.00859 4.64263,-0.99381 4.64264,-0.97846 4.64264,-0.96252 4.64264,-0.94597 4.64263,-0.92877 4.64264,-0.91093 4.64264,-0.8924 4.64264,-0.87318 4.64263,-0.85324 4.64264,-0.83257 4.64264,-0.81115 4.64264,-0.78896 4.64263,-0.76599 4.64264,-0.74222 4.64264,-0.71766 4.64264,-0.69227 4.64263,-0.66606 4.64264,-0.63904 4.64264,-0.6112 4.64264,-0.58253 4.64263,-0.55307 4.64264,-0.52279 4.64264,-0.49176 4.64264,-0.45995 4.64263,-0.42741 4.64264,-0.39419 4.64264,-0.36029 4.64264,-0.32578 4.64263,-0.29069 4.64264,-0.25507 4.64264,-0.219 4.64264,-0.1825 4.64263,-0.14567 4.64264,-0.10856 4.64264,-0.0712 4.64264,-0.0338 4.64263,0.004 4.64264,0.0413 4.64264,0.0787 4.64264,0.116 4.64263,0.15306 4.64264,0.18984 4.64264,0.22624 4.64264,0.26224 4.64263,0.29775 4.64264,0.33272 4.64264,0.36713 4.64264,0.40088 4.64263,0.43398 4.64264,0.46637 4.64264,0.49803 4.64264,0.52891 4.64263,0.55902 4.64264,0.58833 4.64264,0.61683 4.64264,0.64452"
     clip-path="url(#pd630c99437)"
     style="fill:none;fill-opacity:1;stroke:#ac115f;stroke-width:1.5;stroke-dasharray:5.55, 2.4;stroke-dashoffset:0"
     id="path69" /><path
     d="m 87.174981,171.14178 4.642637,0.65808 4.642638,0.65808 4.642634,0.65808 4.64264,0.65808 4.64264,0.65808 4.64264,0.65808 4.64263,0.65808 4.64264,0.65808 4.64264,0.65808 4.64264,0.65808 4.64263,0.65808 4.64264,0.65808 4.64264,0.65808 4.64264,0.65808 4.64263,0.65808 4.64264,0.65808 4.64264,0.65808 4.64264,0.65808 4.64263,0.65808 4.64264,0.65808 4.64264,0.65808 4.64264,0.65808 4.64263,0.65807 4.64264,0.65808 4.64264,0.65808 4.64264,0.65808 4.64263,0.65808 4.64264,0.65808 4.64264,0.65808 4.64264,0.65808 4.64263,0.65808 4.64264,0.65808 4.64264,0.65808 4.64264,0.65808 4.64263,0.65808 4.64264,0.65808 4.64264,0.65808 4.64264,0.65808 4.64263,0.65808 4.64264,0.65808 4.64264,0.65808 4.64264,0.65808 4.64263,0.65808 4.64264,0.65808 4.64264,0.65808 4.64264,0.65808 4.64263,0.65808 4.64264,0.65808 4.64264,0.65808 4.64264,0.65808 4.64263,0.65808 4.64264,0.65808 4.64264,0.65808 4.64264,0.65808 4.64263,0.65808 4.64264,0.65808 4.64264,0.65808 4.64264,0.65808 4.64263,0.65808 4.64264,0.65808 4.64264,0.65808 4.64264,0.65807 4.64263,0.65808 4.64264,0.65808 4.64264,0.65808 4.64264,0.65808 4.64263,0.65808 4.64264,0.65808 4.64264,0.65808 4.64264,0.65808 4.64263,0.65808 4.64264,0.65808 4.64264,0.65808 4.64264,0.65808 4.64263,0.65808 4.64264,0.65808 4.64264,0.65808 4.64264,0.65808 4.64263,0.65808 4.64264,0.65808 4.64264,0.65808 4.64264,0.65808 4.64263,0.65808 4.64264,0.65808 4.64264,0.65808 4.64264,0.65808 4.64263,0.65808 4.64264,0.65808 4.64264,0.65808 4.64264,0.65808 4.64263,0.65808 4.64264,0.65808 4.64264,0.65808 4.64264,0.65808 4.64263,0.65808 4.64264,0.65808 4.64264,0.65808 4.64264,0.65808"
     clip-path="url(#pd630c99437)"
     style="fill:#141230;fill-opacity:1;stroke:#ac115f;stroke-width:1.5;stroke-dasharray:5.55, 2.4;stroke-dashoffset:0"
     id="path70" /><path
     d="m 87.174981,171.14178 4.642637,-0.65808 4.642638,-0.65808 4.642634,-0.65808 4.64264,-0.65808 4.64264,-0.65808 4.64264,-0.65808 4.64263,-0.65808 4.64264,-0.65808 4.64264,-0.65808 4.64264,-0.65808 4.64263,-0.65808 4.64264,-0.65808 4.64264,-0.65808 4.64264,-0.65808 4.64263,-0.65808 4.64264,-0.65808 4.64264,-0.65807 4.64264,-0.65808 4.64263,-0.65808 4.64264,-0.65808 4.64264,-0.65808 4.64264,-0.65808 4.64263,-0.65808 4.64264,-0.65808 4.64264,-0.65808 4.64264,-0.65808 4.64263,-0.65808 4.64264,-0.65808 4.64264,-0.65808 4.64264,-0.65808 4.64263,-0.65808 4.64264,-0.65808 4.64264,-0.65808 4.64264,-0.65808 4.64263,-0.65808 4.64264,-0.65808 4.64264,-0.65808 4.64264,-0.65808 4.64263,-0.65808 4.64264,-0.65808 4.64264,-0.65808 4.64264,-0.65808 4.64263,-0.65808 4.64264,-0.65808 4.64264,-0.65808 4.64264,-0.65808 4.64263,-0.65808 4.64264,-0.65808 4.64264,-0.65808 4.64264,-0.65808 4.64263,-0.65808 4.64264,-0.65808 4.64264,-0.65808 4.64264,-0.65807 4.64263,-0.65809 4.64264,-0.65808 4.64264,-0.65807 4.64264,-0.65808 4.64263,-0.65808 4.64264,-0.65808 4.64264,-0.65808 4.64264,-0.65808 4.64263,-0.65808 4.64264,-0.65808 4.64264,-0.65808 4.64264,-0.65808 4.64263,-0.65808 4.64264,-0.65808 4.64264,-0.65808 4.64264,-0.65808 4.64263,-0.65808 4.64264,-0.65808 4.64264,-0.65808 4.64264,-0.65808 4.64263,-0.65808 4.64264,-0.65808 4.64264,-0.65808 4.64264,-0.65808 4.64263,-0.65808 4.64264,-0.65808 4.64264,-0.65808 4.64264,-0.65808 4.64263,-0.65808 4.64264,-0.65808 4.64264,-0.65808 4.64264,-0.65808 4.64263,-0.65808 4.64264,-0.65808 4.64264,-0.65808 4.64264,-0.65808 4.64263,-0.65808 4.64264,-0.65808 4.64264,-0.65807 4.64264,-0.65808 4.64263,-0.65808 4.64264,-0.65808 4.64264,-0.65808 4.64264,-0.65808"
     clip-path="url(#pd630c99437)"
     style="fill:#141230;fill-opacity:1;stroke:#ac115f;stroke-width:1.5;stroke-dasharray:5.55, 2.4;stroke-dashoffset:0"
     id="path71" /><path
     d="m 87.174981,42.158151 4.642637,1.314464 4.642638,1.311 4.642634,1.30743 4.64264,1.303744 4.64264,1.299942 4.64264,1.296017 4.64263,1.291965 4.64264,1.28778 4.64264,1.283458 4.64264,1.278991 4.64263,1.274377 4.64264,1.269605 4.64264,1.264673 4.64264,1.259571 4.64263,1.254295 4.64264,1.248833 4.64264,1.243183 4.64264,1.237332 4.64263,1.231275 4.64264,1.225002 4.64264,1.218502 4.64264,1.211768 4.64263,1.204789 4.64264,1.197554 4.64264,1.190053 4.64264,1.182273 4.64263,1.174203 4.64264,1.16583 4.64264,1.157143 4.64264,1.148126 4.64263,1.138766 4.64264,1.129048 4.64264,1.118957 4.64264,1.108478 4.64263,1.097594 4.64264,1.086287 4.64264,1.074543 4.64264,1.062339 4.64263,1.049662 4.64264,1.03649 4.64264,1.022803 4.64264,1.008584 4.64263,0.993811 4.64264,0.978464 4.64264,0.962522 4.64264,0.945965 4.64263,0.928774 4.64264,0.910924 4.64264,0.8924 4.64264,0.873178 4.64263,0.853242 4.64264,0.83257 4.64264,0.81115 4.64264,0.78896 4.64263,0.76599 4.64264,0.74222 4.64264,0.71766 4.64264,0.69227 4.64263,0.66606 4.64264,0.63905 4.64264,0.61119 4.64264,0.58254 4.64263,0.55306 4.64264,0.5228 4.64264,0.49175 4.64264,0.45995 4.64263,0.42742 4.64264,0.39418 4.64264,0.36029 4.64264,0.32578 4.64263,0.29069 4.64264,0.25508 4.64264,0.21899 4.64264,0.1825 4.64263,0.14567 4.64264,0.10856 4.64264,0.0712 4.64264,0.0338 4.64263,-0.004 4.64264,-0.0413 4.64264,-0.0787 4.64264,-0.116 4.64263,-0.15306 4.64264,-0.18983 4.64264,-0.22625 4.64264,-0.26223 4.64263,-0.29775 4.64264,-0.33273 4.64264,-0.36712 4.64264,-0.40089 4.64263,-0.43398 4.64264,-0.46637 4.64264,-0.49802 4.64264,-0.52892 4.64263,-0.55902 4.64264,-0.58833 4.64264,-0.61683 4.64264,-0.64451"
     clip-path="url(#pd630c99437)"
     style="fill:none;fill-opacity:1;stroke:#ac115f;stroke-width:1.5;stroke-dasharray:5.55, 2.4;stroke-dashoffset:0"
     id="path72" /><path
     d="M 64.426057,313.02377 V 29.259788"
     style="fill:#ffffff;fill-opacity:1;stroke:#ffffff;stroke-width:0.8;stroke-linecap:square;stroke-linejoin:miter"
     id="path73" /><path
     d="M 564.90238,313.02377 V 29.259788"
     style="fill:#ffffff;fill-opacity:1;stroke:#ffffff;stroke-width:0.8;stroke-linecap:square;stroke-linejoin:miter"
     id="path74" /><path
     d="M 64.426057,313.02377 H 564.90238"
     style="fill:#ffffff;fill-opacity:1;stroke:#ffffff;stroke-width:0.8;stroke-linecap:square;stroke-linejoin:miter"
     id="path75" /><path
     d="M 64.426057,29.259788 H 564.90238"
     style="fill:#ffffff;fill-opacity:1;stroke:#ffffff;stroke-width:0.8;stroke-linecap:square;stroke-linejoin:miter"
     id="path76" /><use
     xlink:href="#DejaVuSans-53"
     id="use76"
     style="fill:#ffffff;fill-opacity:1"
     transform="matrix(0.16,0,0,-0.16,226.98922,23.259788)" /><use
     xlink:href="#DejaVuSans-63"
     transform="matrix(0.16,0,0,-0.16,237.14547,23.259788)"
     id="use77"
     style="fill:#ffffff;fill-opacity:1" /><use
     xlink:href="#DejaVuSans-68"
     transform="matrix(0.16,0,0,-0.16,245.94234,23.259788)"
     id="use78"
     style="fill:#ffffff;fill-opacity:1" /><use
     xlink:href="#DejaVuSans-65"
     transform="matrix(0.16,0,0,-0.16,256.08297,23.259788)"
     id="use79"
     style="fill:#ffffff;fill-opacity:1" /><use
     xlink:href="#DejaVuSans-64"
     transform="matrix(0.16,0,0,-0.16,265.92672,23.259788)"
     id="use80"
     style="fill:#ffffff;fill-opacity:1" /><use
     xlink:href="#DejaVuSans-75"
     transform="matrix(0.16,0,0,-0.16,276.08297,23.259788)"
     id="use81"
     style="fill:#ffffff;fill-opacity:1" /><use
     xlink:href="#DejaVuSans-6c"
     transform="matrix(0.16,0,0,-0.16,286.22359,23.259788)"
     id="use82"
     style="fill:#ffffff;fill-opacity:1" /><use
     xlink:href="#DejaVuSans-65"
     transform="matrix(0.16,0,0,-0.16,290.66891,23.259788)"
     id="use83"
     style="fill:#ffffff;fill-opacity:1" /><use
     xlink:href="#DejaVuSans-20"
     transform="matrix(0.16,0,0,-0.16,300.51266,23.259788)"
     id="use84"
     style="fill:#141230;fill-opacity:1" /><use
     xlink:href="#DejaVuSans-45"
     transform="matrix(0.16,0,0,-0.16,305.59859,23.259788)"
     id="use85"
     style="fill:#ffffff;fill-opacity:1" /><use
     xlink:href="#DejaVuSans-69"
     transform="matrix(0.16,0,0,-0.16,315.70797,23.259788)"
     id="use86"
     style="fill:#ffffff;fill-opacity:1" /><use
     xlink:href="#DejaVuSans-67"
     transform="matrix(0.16,0,0,-0.16,320.15328,23.259788)"
     id="use87"
     style="fill:#ffffff;fill-opacity:1" /><use
     xlink:href="#DejaVuSans-65"
     transform="matrix(0.16,0,0,-0.16,330.30953,23.259788)"
     id="use88"
     style="fill:#ffffff;fill-opacity:1" /><use
     xlink:href="#DejaVuSans-6e"
     transform="matrix(0.16,0,0,-0.16,340.15328,23.259788)"
     id="use89"
     style="fill:#ffffff;fill-opacity:1" /><use
     xlink:href="#DejaVuSans-76"
     transform="matrix(0.16,0,0,-0.16,350.29391,23.259788)"
     id="use90"
     style="fill:#ffffff;fill-opacity:1" /><use
     xlink:href="#DejaVuSans-61"
     transform="matrix(0.16,0,0,-0.16,359.76266,23.259788)"
     id="use91"
     style="fill:#ffffff;fill-opacity:1" /><use
     xlink:href="#DejaVuSans-6c"
     transform="matrix(0.16,0,0,-0.16,369.56734,23.259788)"
     id="use92"
     style="fill:#ffffff;fill-opacity:1" /><use
     xlink:href="#DejaVuSans-75"
     transform="matrix(0.16,0,0,-0.16,374.01266,23.259788)"
     id="use93"
     style="fill:#ffffff;fill-opacity:1" /><use
     xlink:href="#DejaVuSans-65"
     transform="matrix(0.16,0,0,-0.16,384.15328,23.259788)"
     id="use94"
     style="fill:#ffffff;fill-opacity:1" /><use
     xlink:href="#DejaVuSans-73"
     transform="matrix(0.16,0,0,-0.16,393.99703,23.259788)"
     id="use95"
     style="fill:#ffffff;fill-opacity:1" /><path
     d="m 374.42676,307.02377 h 182.07562 q 2.4,0 2.4,-2.4 v -34.0275 q 0,-2.4 -2.4,-2.4 H 374.42676 q -2.40001,0 -2.40001,2.4 v 34.0275 q 0,2.4 2.40001,2.4 z"
     style="opacity:0.8;fill:#ffffff;fill-opacity:1;stroke:#cacaca;stroke-linejoin:miter"
     id="path95" /><path
     d="m 376.82675,277.9144 h 12 12"
     style="fill:#141230;fill-opacity:1;stroke:#ac115f;stroke-width:1.5;stroke-dasharray:5.55, 2.4;stroke-dashoffset:0"
     id="path96" /><use
     xlink:href="#DejaVuSans-45"
     id="use96"
     style="fill:#141230;fill-opacity:1"
     transform="matrix(0.12,0,0,-0.12,410.42676,282.1144)" /><use
     xlink:href="#DejaVuSans-69"
     transform="matrix(0.12,0,0,-0.12,418.00879,282.1144)"
     id="use97"
     style="fill:#141230;fill-opacity:1" /><use
     xlink:href="#DejaVuSans-67"
     transform="matrix(0.12,0,0,-0.12,421.34278,282.1144)"
     id="use98"
     style="fill:#141230;fill-opacity:1" /><use
     xlink:href="#DejaVuSans-65"
     transform="matrix(0.12,0,0,-0.12,428.95996,282.1144)"
     id="use99"
     style="fill:#141230;fill-opacity:1" /><use
     xlink:href="#DejaVuSans-6e"
     transform="matrix(0.12,0,0,-0.12,436.34278,282.1144)"
     id="use100"
     style="fill:#141230;fill-opacity:1" /><use
     xlink:href="#DejaVuSans-76"
     transform="matrix(0.12,0,0,-0.12,443.94824,282.1144)"
     id="use101"
     style="fill:#141230;fill-opacity:1" /><use
     xlink:href="#DejaVuSans-61"
     transform="matrix(0.12,0,0,-0.12,451.04981,282.1144)"
     id="use102"
     style="fill:#141230;fill-opacity:1" /><use
     xlink:href="#DejaVuSans-6c"
     transform="matrix(0.12,0,0,-0.12,458.40332,282.1144)"
     id="use103"
     style="fill:#141230;fill-opacity:1" /><use
     xlink:href="#DejaVuSans-75"
     transform="matrix(0.12,0,0,-0.12,461.73731,282.1144)"
     id="use104"
     style="fill:#141230;fill-opacity:1" /><use
     xlink:href="#DejaVuSans-65"
     transform="matrix(0.12,0,0,-0.12,469.34278,282.1144)"
     id="use105"
     style="fill:#141230;fill-opacity:1" /><use
     xlink:href="#DejaVuSans-73"
     transform="matrix(0.12,0,0,-0.12,476.72559,282.1144)"
     id="use106"
     style="fill:#141230;fill-opacity:1" /><path
     d="m 376.82675,295.52815 h 12 12"
     style="fill:#141230;fill-opacity:1;stroke:#000000;stroke-width:1.5;stroke-linecap:square"
     id="path106" /><use
     xlink:href="#DejaVuSans-53"
     id="use107"
     style="fill:#141230;fill-opacity:1"
     transform="matrix(0.12,0,0,-0.12,410.42676,299.72815)" /><use
     xlink:href="#DejaVuSans-74"
     transform="matrix(0.12,0,0,-0.12,418.04395,299.72815)"
     id="use108"
     style="fill:#141230;fill-opacity:1" /><use
     xlink:href="#DejaVuSans-61"
     transform="matrix(0.12,0,0,-0.12,422.74903,299.72815)"
     id="use109"
     style="fill:#141230;fill-opacity:1" /><use
     xlink:href="#DejaVuSans-74"
     transform="matrix(0.12,0,0,-0.12,430.10254,299.72815)"
     id="use110"
     style="fill:#141230;fill-opacity:1" /><use
     xlink:href="#DejaVuSans-65"
     transform="matrix(0.12,0,0,-0.12,434.80762,299.72815)"
     id="use111"
     style="fill:#141230;fill-opacity:1" /><use
     xlink:href="#DejaVuSans-20"
     transform="matrix(0.12,0,0,-0.12,442.19043,299.72815)"
     id="use112"
     style="fill:#141230;fill-opacity:1" /><use
     xlink:href="#DejaVuSans-45"
     transform="matrix(0.12,0,0,-0.12,446.00488,299.72815)"
     id="use113"
     style="fill:#141230;fill-opacity:1" /><use
     xlink:href="#DejaVuSans-78"
     transform="matrix(0.12,0,0,-0.12,453.58692,299.72815)"
     id="use114"
     style="fill:#141230;fill-opacity:1" /><use
     xlink:href="#DejaVuSans-70"
     transform="matrix(0.12,0,0,-0.12,460.68848,299.72815)"
     id="use115"
     style="fill:#141230;fill-opacity:1" /><use
     xlink:href="#DejaVuSans-65"
     transform="matrix(0.12,0,0,-0.12,468.30567,299.72815)"
     id="use116"
     style="fill:#141230;fill-opacity:1" /><use
     xlink:href="#DejaVuSans-63"
     transform="matrix(0.12,0,0,-0.12,475.68848,299.72815)"
     id="use117"
     style="fill:#141230;fill-opacity:1" /><use
     xlink:href="#DejaVuSans-74"
     transform="matrix(0.12,0,0,-0.12,482.28613,299.72815)"
     id="use118"
     style="fill:#141230;fill-opacity:1" /><use
     xlink:href="#DejaVuSans-61"
     transform="matrix(0.12,0,0,-0.12,486.99121,299.72815)"
     id="use119"
     style="fill:#141230;fill-opacity:1" /><use
     xlink:href="#DejaVuSans-74"
     transform="matrix(0.12,0,0,-0.12,494.34473,299.72815)"
     id="use120"
     style="fill:#141230;fill-opacity:1" /><use
     xlink:href="#DejaVuSans-69"
     transform="matrix(0.12,0,0,-0.12,499.04981,299.72815)"
     id="use121"
     style="fill:#141230;fill-opacity:1" /><use
     xlink:href="#DejaVuSans-6f"
     transform="matrix(0.12,0,0,-0.12,502.38379,299.72815)"
     id="use122"
     style="fill:#141230;fill-opacity:1" /><use
     xlink:href="#DejaVuSans-6e"
     transform="matrix(0.12,0,0,-0.12,509.72559,299.72815)"
     id="use123"
     style="fill:#141230;fill-opacity:1" /><use
     xlink:href="#DejaVuSans-20"
     transform="matrix(0.12,0,0,-0.12,517.33106,299.72815)"
     id="use124"
     style="fill:#141230;fill-opacity:1" /><use
     xlink:href="#DejaVuSans-56"
     transform="matrix(0.12,0,0,-0.12,521.14551,299.72815)"
     id="use125"
     style="fill:#141230;fill-opacity:1" /><use
     xlink:href="#DejaVuSans-61"
     transform="matrix(0.12,0,0,-0.12,528.42449,299.72815)"
     id="use126"
     style="fill:#141230;fill-opacity:1" /><use
     xlink:href="#DejaVuSans-6c"
     transform="matrix(0.12,0,0,-0.12,535.77802,299.72815)"
     id="use127"
     style="fill:#141230;fill-opacity:1" /><use
     xlink:href="#DejaVuSans-75"
     transform="matrix(0.12,0,0,-0.12,539.112,299.72815)"
     id="use128"
     style="fill:#141230;fill-opacity:1" /><use
     xlink:href="#DejaVuSans-65"
     transform="matrix(0.12,0,0,-0.12,546.71747,299.72815)"
     id="use129"
     style="fill:#141230;fill-opacity:1" /><path
     d="m 87.174981,300.12541 4.642637,-1.31613 4.642638,-1.31582 4.642634,-1.31473 4.64264,-1.31247 4.64264,-1.30887 4.64264,-1.30386 4.64263,-1.29767 4.64264,-1.29057 4.64264,-1.28301 4.64264,-1.27544 4.64263,-1.26827 4.64264,-1.26185 4.64264,-1.25638 4.64264,-1.25191 4.64263,-1.24836 4.64264,-1.24552 4.64264,-1.24305 4.64264,-1.24059 4.64263,-1.23777 4.64264,-1.23421 4.64264,-1.22963 4.64264,-1.22385 4.64263,-1.21678 4.64264,-1.20844 4.64264,-1.19896 4.64264,-1.18852 4.64263,-1.17743 4.64264,-1.16593 4.64264,-1.15431 4.64264,-1.14286 4.64263,-1.13176 4.64264,-1.12114 4.64264,-1.1111 4.64264,-1.10161 4.64263,-1.09259 4.64264,-1.08389 4.64264,-1.07534 4.64264,-1.06668 4.64263,-1.05768 4.64264,-1.04809 4.64264,-1.03769 4.64264,-1.02627 4.64263,-1.01367 4.64264,-0.99977 4.64264,-0.98451 4.64264,-0.96785 4.64263,-0.94983 4.64264,-0.93051 4.64264,-0.91 4.64264,-0.8884 4.64263,-0.86586 4.64264,-0.84253 4.64264,-0.81854 4.64264,-0.79405 4.64263,-0.76915 4.64264,-0.74396 4.64264,-0.71853 4.64264,-0.69293 4.64263,-0.66715 4.64264,-0.64121 4.64264,-0.61504 4.64264,-0.5886 4.64263,-0.5618 4.64264,-0.53456 4.64264,-0.50677 4.64264,-0.4783 4.64263,-0.44906 4.64264,-0.41893 4.64264,-0.38783 4.64264,-0.35565 4.64263,-0.32235 4.64264,-0.28786 4.64264,-0.25217 4.64264,-0.21529 4.64263,-0.17723 4.64264,-0.13807 4.64264,-0.0979 4.64264,-0.0568 4.64263,-0.0149 4.64264,0.0276 4.64264,0.0706 4.64264,0.11375 4.64263,0.15696 4.64264,0.19995 4.64264,0.24254 4.64264,0.28445 4.64263,0.32551 4.64264,0.36548 4.64264,0.40416 4.64264,0.4414 4.64263,0.47705 4.64264,0.51097 4.64264,0.54311 4.64264,0.57342 4.64263,0.60189 4.64264,0.62858 4.64264,0.65354 4.64264,0.67692"
     clip-path="url(#pd630c99437)"
     style="fill:none;fill-opacity:1;stroke:#ffffff;stroke-width:1.5;stroke-linecap:square"
     id="path129" /><path
     d="m 87.174981,270.9997 q 0,13.56201 0,26.00599"
     style="fill:#ffffff;fill-opacity:1;stroke:#ffffff;stroke-linecap:round"
     id="path130" /><path
     d="m 88.294981,294.76569 -1.12,2.24 -1.12,-2.24"
     style="fill:#ffffff;fill-opacity:1;stroke:#ffffff;stroke-linecap:round"
     id="path131" /><path
     d="m 72.935668,268.9995 h 28.478622 q 1.12,0 1.12,-1.12 v -5.41975 q 0,-1.12 -1.12,-1.12 H 72.935668 q -1.12,0 -1.12,1.12 v 5.41975 q 0,1.12 1.12,1.12 z"
     style="opacity:0.8;fill:#ffffff;fill-opacity:1"
     id="path132" /><use
     xlink:href="#DejaVuSans-31"
     id="use132"
     style="fill:#000000;fill-opacity:1"
     transform="matrix(0.056,0,0,-0.056,72.935668,266.71488)" /><use
     xlink:href="#DejaVuSans-30"
     transform="matrix(0.056,0,0,-0.056,76.498559,266.71488)"
     id="use133"
     style="fill:#000000;fill-opacity:1" /><use
     xlink:href="#DejaVuSans-30"
     transform="matrix(0.056,0,0,-0.056,80.061449,266.71488)"
     id="use134"
     style="fill:#000000;fill-opacity:1" /><use
     xlink:href="#DejaVuSans-2e"
     transform="matrix(0.056,0,0,-0.056,83.62434,266.71488)"
     id="use135"
     style="fill:#000000;fill-opacity:1" /><use
     xlink:href="#DejaVuSans-30"
     transform="matrix(0.056,0,0,-0.056,85.404418,266.71488)"
     id="use136"
     style="fill:#000000;fill-opacity:1" /><use
     xlink:href="#DejaVuSans-30"
     transform="matrix(0.056,0,0,-0.056,88.967309,266.71488)"
     id="use137"
     style="fill:#000000;fill-opacity:1" /><use
     xlink:href="#DejaVuSans-30"
     transform="matrix(0.056,0,0,-0.056,92.530199,266.71488)"
     id="use138"
     style="fill:#000000;fill-opacity:1" /><use
     xlink:href="#DejaVuSans-25"
     transform="matrix(0.056,0,0,-0.056,96.09309,266.71488)"
     id="use139"
     style="fill:#000000;fill-opacity:1" /><path
     d="m 138.24399,256.75053 q 0,13.56201 0,26.006"
     style="fill:#ffffff;fill-opacity:1;stroke:#ffffff;stroke-linecap:round"
     id="path139" /><path
     d="m 139.36399,280.51653 -1.12,2.24 -1.12,-2.24"
     style="fill:#ffffff;fill-opacity:1;stroke:#ffffff;stroke-linecap:round"
     id="path140" /><path
     d="m 125.78618,254.75034 h 24.91563 q 1.12,0 1.12,-1.12 v -5.41975 q 0,-1.12 -1.12,-1.12 h -24.91563 q -1.12,0 -1.12,1.12 v 5.41975 q 0,1.12 1.12,1.12 z"
     style="opacity:0.8;fill:#ffffff;fill-opacity:1"
     id="path141" /><use
     xlink:href="#DejaVuSans-39"
     id="use141"
     style="fill:#000000;fill-opacity:1"
     transform="matrix(0.056,0,0,-0.056,125.78618,252.46571)" /><use
     xlink:href="#DejaVuSans-39"
     transform="matrix(0.056,0,0,-0.056,129.34907,252.46571)"
     id="use142"
     style="fill:#000000;fill-opacity:1" /><use
     xlink:href="#DejaVuSans-2e"
     transform="matrix(0.056,0,0,-0.056,132.91196,252.46571)"
     id="use143"
     style="fill:#000000;fill-opacity:1" /><use
     xlink:href="#DejaVuSans-39"
     transform="matrix(0.056,0,0,-0.056,134.69204,252.46571)"
     id="use144"
     style="fill:#000000;fill-opacity:1" /><use
     xlink:href="#DejaVuSans-38"
     transform="matrix(0.056,0,0,-0.056,138.25493,252.46571)"
     id="use145"
     style="fill:#000000;fill-opacity:1" /><use
     xlink:href="#DejaVuSans-34"
     transform="matrix(0.056,0,0,-0.056,141.81782,252.46571)"
     id="use146"
     style="fill:#000000;fill-opacity:1" /><use
     xlink:href="#DejaVuSans-25"
     transform="matrix(0.056,0,0,-0.056,145.38071,252.46571)"
     id="use147"
     style="fill:#000000;fill-opacity:1" /><path
     d="m 138.24399,27.281604 q 0,13.562016 0,26.005999"
     style="fill:#ffffff;fill-opacity:1;stroke:#ffffff;stroke-linecap:round"
     id="path147" /><path
     d="m 139.36399,51.047603 -1.12,2.24 -1.12,-2.24"
     style="fill:#ffffff;fill-opacity:1;stroke:#ffffff;stroke-linecap:round"
     id="path148" /><path
     d="m 127.56768,25.281411 h 21.35263 q 1.12,0 1.12,-1.12 v -5.41975 q 0,-1.12 -1.12,-1.12 h -21.35263 q -1.12,0 -1.12,1.12 v 5.41975 q 0,1.12 1.12,1.12 z"
     style="opacity:0.8;fill:#ffffff;fill-opacity:1"
     id="path149" /><use
     xlink:href="#DejaVuSans-30"
     id="use149"
     style="fill:#000000;fill-opacity:1"
     transform="matrix(0.056,0,0,-0.056,127.56768,22.996786)" /><use
     xlink:href="#DejaVuSans-2e"
     transform="matrix(0.056,0,0,-0.056,131.13057,22.996786)"
     id="use150"
     style="fill:#000000;fill-opacity:1" /><use
     xlink:href="#DejaVuSans-30"
     transform="matrix(0.056,0,0,-0.056,132.91065,22.996786)"
     id="use151"
     style="fill:#000000;fill-opacity:1" /><use
     xlink:href="#DejaVuSans-31"
     transform="matrix(0.056,0,0,-0.056,136.47354,22.996786)"
     id="use152"
     style="fill:#000000;fill-opacity:1" /><use
     xlink:href="#DejaVuSans-36"
     transform="matrix(0.056,0,0,-0.056,140.03643,22.996786)"
     id="use153"
     style="fill:#000000;fill-opacity:1" /><use
     xlink:href="#DejaVuSans-25"
     transform="matrix(0.056,0,0,-0.056,143.59932,22.996786)"
     id="use154"
     style="fill:#000000;fill-opacity:1" /><path
     d="m 189.31301,243.08649 q 0,13.56202 0,26.006"
     style="fill:#ffffff;fill-opacity:1;stroke:#ffffff;stroke-linecap:round"
     id="path154" /><path
     d="m 190.43301,266.85249 -1.12,2.24 -1.12,-2.24"
     style="fill:#ffffff;fill-opacity:1;stroke:#000000;stroke-linecap:round"
     id="path155" /><path
     d="m 176.85519,241.0863 h 24.91563 q 1.12,0 1.12,-1.12 v -5.41975 q 0,-1.12 -1.12,-1.12 h -24.91563 q -1.12,0 -1.12,1.12 v 5.41975 q 0,1.12 1.12,1.12 z"
     style="opacity:0.8;fill:#ffffff;fill-opacity:1"
     id="path156" /><use
     xlink:href="#DejaVuSans-39"
     id="use156"
     style="fill:#000000;fill-opacity:1"
     transform="matrix(0.056,0,0,-0.056,176.85519,238.80167)" /><use
     xlink:href="#DejaVuSans-39"
     transform="matrix(0.056,0,0,-0.056,180.41808,238.80167)"
     id="use157"
     style="fill:#000000;fill-opacity:1" /><use
     xlink:href="#DejaVuSans-2e"
     transform="matrix(0.056,0,0,-0.056,183.98097,238.80167)"
     id="use158"
     style="fill:#000000;fill-opacity:1" /><use
     xlink:href="#DejaVuSans-39"
     transform="matrix(0.056,0,0,-0.056,185.76105,238.80167)"
     id="use159"
     style="fill:#000000;fill-opacity:1" /><use
     xlink:href="#DejaVuSans-37"
     transform="matrix(0.056,0,0,-0.056,189.32394,238.80167)"
     id="use160"
     style="fill:#000000;fill-opacity:1" /><use
     xlink:href="#DejaVuSans-37"
     transform="matrix(0.056,0,0,-0.056,192.88683,238.80167)"
     id="use161"
     style="fill:#000000;fill-opacity:1" /><use
     xlink:href="#DejaVuSans-25"
     transform="matrix(0.056,0,0,-0.056,196.44972,238.80167)"
     id="use162"
     style="fill:#000000;fill-opacity:1" /><path
     d="m 189.31301,40.945643 q 0,13.562017 0,26.005999"
     style="fill:#ffffff;fill-opacity:1;stroke:#ffffff;stroke-linecap:round"
     id="path162" /><path
     d="m 190.43301,64.711642 -1.12,2.24 -1.12,-2.24"
     style="fill:#ffffff;fill-opacity:1;stroke:#ffffff;stroke-linecap:round"
     id="path163" /><path
     d="m 178.63669,38.945451 h 21.35263 q 1.12,0 1.12,-1.12 v -5.41975 q 0,-1.12 -1.12,-1.12 h -21.35263 q -1.12,0 -1.12,1.12 v 5.41975 q 0,1.12 1.12,1.12 z"
     style="opacity:0.8;fill:#ffffff;fill-opacity:1"
     id="path164" /><use
     xlink:href="#DejaVuSans-30"
     id="use164"
     style="fill:#000000;fill-opacity:1"
     transform="matrix(0.056,0,0,-0.056,178.63669,36.660826)" /><use
     xlink:href="#DejaVuSans-2e"
     transform="matrix(0.056,0,0,-0.056,182.19958,36.660826)"
     id="use165"
     style="fill:#000000;fill-opacity:1" /><use
     xlink:href="#DejaVuSans-30"
     transform="matrix(0.056,0,0,-0.056,183.97966,36.660826)"
     id="use166"
     style="fill:#000000;fill-opacity:1" /><use
     xlink:href="#DejaVuSans-32"
     transform="matrix(0.056,0,0,-0.056,187.54255,36.660826)"
     id="use167"
     style="fill:#000000;fill-opacity:1" /><use
     xlink:href="#DejaVuSans-33"
     transform="matrix(0.056,0,0,-0.056,191.10544,36.660826)"
     id="use168"
     style="fill:#000000;fill-opacity:1" /><use
     xlink:href="#DejaVuSans-25"
     transform="matrix(0.056,0,0,-0.056,194.66833,36.660826)"
     id="use169"
     style="fill:#000000;fill-opacity:1" /><path
     d="m 240.38202,230.27975 q 0,13.56201 0,26.006"
     style="fill:#ffffff;fill-opacity:1;stroke:#ffffff;stroke-linecap:round"
     id="path169" /><path
     d="m 241.50202,254.04575 -1.12,2.24 -1.12,-2.24"
     style="fill:#ffffff;fill-opacity:1;stroke:#ffffff;stroke-linecap:round"
     id="path170" /><path
     d="m 227.92421,228.27955 h 24.91562 q 1.12,0 1.12,-1.12 v -5.41975 q 0,-1.12 -1.12,-1.12 h -24.91562 q -1.12,0 -1.12,1.12 v 5.41975 q 0,1.12 1.12,1.12 z"
     style="opacity:0.8;fill:#ffffff;fill-opacity:1"
     id="path171" /><use
     xlink:href="#DejaVuSans-39"
     id="use171"
     style="fill:#000000;fill-opacity:1"
     transform="matrix(0.056,0,0,-0.056,227.92421,225.99493)" /><use
     xlink:href="#DejaVuSans-39"
     transform="matrix(0.056,0,0,-0.056,231.4871,225.99493)"
     id="use172"
     style="fill:#000000;fill-opacity:1" /><use
     xlink:href="#DejaVuSans-2e"
     transform="matrix(0.056,0,0,-0.056,235.04999,225.99493)"
     id="use173"
     style="fill:#000000;fill-opacity:1" /><use
     xlink:href="#DejaVuSans-39"
     transform="matrix(0.056,0,0,-0.056,236.83007,225.99493)"
     id="use174"
     style="fill:#000000;fill-opacity:1" /><use
     xlink:href="#DejaVuSans-36"
     transform="matrix(0.056,0,0,-0.056,240.39296,225.99493)"
     id="use175"
     style="fill:#000000;fill-opacity:1" /><use
     xlink:href="#DejaVuSans-38"
     transform="matrix(0.056,0,0,-0.056,243.95585,225.99493)"
     id="use176"
     style="fill:#000000;fill-opacity:1" /><use
     xlink:href="#DejaVuSans-25"
     transform="matrix(0.056,0,0,-0.056,247.51874,225.99493)"
     id="use177"
     style="fill:#000000;fill-opacity:1" /><path
     d="m 240.38202,53.752385 q 0,13.562017 0,26.006"
     style="fill:#ffffff;fill-opacity:1;stroke:#ffffff;stroke-linecap:round"
     id="path177" /><path
     d="m 241.50202,77.518385 -1.12,2.24 -1.12,-2.24"
     style="fill:#ffffff;fill-opacity:1;stroke:#ffffff;stroke-linecap:round"
     id="path178" /><path
     d="m 229.70571,51.752193 h 21.35262 q 1.12,0 1.12,-1.12 v -5.41975 q 0,-1.12 -1.12,-1.12 h -21.35262 q -1.12,0 -1.12,1.12 v 5.41975 q 0,1.12 1.12,1.12 z"
     style="opacity:0.8;fill:#ffffff;fill-opacity:1"
     id="path179" /><use
     xlink:href="#DejaVuSans-30"
     id="use179"
     style="fill:#000000;fill-opacity:1"
     transform="matrix(0.056,0,0,-0.056,229.70571,49.467568)" /><use
     xlink:href="#DejaVuSans-2e"
     transform="matrix(0.056,0,0,-0.056,233.2686,49.467568)"
     id="use180"
     style="fill:#000000;fill-opacity:1" /><use
     xlink:href="#DejaVuSans-30"
     transform="matrix(0.056,0,0,-0.056,235.04868,49.467568)"
     id="use181"
     style="fill:#000000;fill-opacity:1" /><use
     xlink:href="#DejaVuSans-33"
     transform="matrix(0.056,0,0,-0.056,238.61157,49.467568)"
     id="use182"
     style="fill:#000000;fill-opacity:1" /><use
     xlink:href="#DejaVuSans-32"
     transform="matrix(0.056,0,0,-0.056,242.17446,49.467568)"
     id="use183"
     style="fill:#000000;fill-opacity:1" /><use
     xlink:href="#DejaVuSans-25"
     transform="matrix(0.056,0,0,-0.056,245.73735,49.467568)"
     id="use184"
     style="fill:#000000;fill-opacity:1" /><path
     d="m 291.45103,218.76069 q 0,13.56202 0,26.006"
     style="fill:#ffffff;fill-opacity:1;stroke:#ffffff;stroke-linecap:round"
     id="path184" /><path
     d="m 292.57103,242.52669 -1.12,2.24 -1.12,-2.24"
     style="fill:#ffffff;fill-opacity:1;stroke:#ffffff;stroke-linecap:round"
     id="path185" /><path
     d="m 278.99322,216.7605 h 24.91562 q 1.12,0 1.12,-1.12 v -5.41975 q 0,-1.12 -1.12,-1.12 h -24.91562 q -1.12,0 -1.12,1.12 v 5.41975 q 0,1.12 1.12,1.12 z"
     style="opacity:0.8;fill:#ffffff;fill-opacity:1"
     id="path186" /><use
     xlink:href="#DejaVuSans-39"
     id="use186"
     style="fill:#000000;fill-opacity:1"
     transform="matrix(0.056,0,0,-0.056,278.99322,214.47587)" /><use
     xlink:href="#DejaVuSans-39"
     transform="matrix(0.056,0,0,-0.056,282.55611,214.47587)"
     id="use187"
     style="fill:#000000;fill-opacity:1" /><use
     xlink:href="#DejaVuSans-2e"
     transform="matrix(0.056,0,0,-0.056,286.119,214.47587)"
     id="use188"
     style="fill:#000000;fill-opacity:1" /><use
     xlink:href="#DejaVuSans-39"
     transform="matrix(0.056,0,0,-0.056,287.89908,214.47587)"
     id="use189"
     style="fill:#000000;fill-opacity:1" /><use
     xlink:href="#DejaVuSans-30"
     transform="matrix(0.056,0,0,-0.056,291.46197,214.47587)"
     id="use190"
     style="fill:#000000;fill-opacity:1" /><use
     xlink:href="#DejaVuSans-38"
     transform="matrix(0.056,0,0,-0.056,295.02486,214.47587)"
     id="use191"
     style="fill:#000000;fill-opacity:1" /><use
     xlink:href="#DejaVuSans-25"
     transform="matrix(0.056,0,0,-0.056,298.58775,214.47587)"
     id="use192"
     style="fill:#000000;fill-opacity:1" /><path
     d="m 291.45103,65.27144 q 0,13.562016 0,26.005999"
     style="fill:#ffffff;fill-opacity:1;stroke:#ffffff;stroke-linecap:round"
     id="path192" /><path
     d="m 292.57103,89.037439 -1.12,2.24 -1.12,-2.24"
     style="fill:#ffffff;fill-opacity:1;stroke:#ffffff;stroke-linecap:round"
     id="path193" /><path
     d="m 280.77472,63.271247 h 21.35262 q 1.12,0 1.12,-1.12 v -5.41975 q 0,-1.12 -1.12,-1.12 h -21.35262 q -1.12,0 -1.12,1.12 v 5.41975 q 0,1.12 1.12,1.12 z"
     style="opacity:0.8;fill:#ffffff;fill-opacity:1"
     id="path194" /><use
     xlink:href="#DejaVuSans-30"
     id="use194"
     style="fill:#000000;fill-opacity:1"
     transform="matrix(0.056,0,0,-0.056,280.77472,60.986622)" /><use
     xlink:href="#DejaVuSans-2e"
     transform="matrix(0.056,0,0,-0.056,284.33761,60.986622)"
     id="use195"
     style="fill:#000000;fill-opacity:1" /><use
     xlink:href="#DejaVuSans-30"
     transform="matrix(0.056,0,0,-0.056,286.11769,60.986622)"
     id="use196"
     style="fill:#000000;fill-opacity:1" /><use
     xlink:href="#DejaVuSans-39"
     transform="matrix(0.056,0,0,-0.056,289.68058,60.986622)"
     id="use197"
     style="fill:#000000;fill-opacity:1" /><use
     xlink:href="#DejaVuSans-32"
     transform="matrix(0.056,0,0,-0.056,293.24347,60.986622)"
     id="use198"
     style="fill:#000000;fill-opacity:1" /><use
     xlink:href="#DejaVuSans-25"
     transform="matrix(0.056,0,0,-0.056,296.80636,60.986622)"
     id="use199"
     style="fill:#000000;fill-opacity:1" /><path
     d="m 342.52004,209.19502 q 0,13.56201 0,26.006"
     style="fill:#ffffff;fill-opacity:1;stroke:#ffffff;stroke-linecap:round"
     id="path199" /><path
     d="m 343.64004,232.96102 -1.12,2.24 -1.12,-2.24"
     style="fill:#ffffff;fill-opacity:1;stroke:#ffffff;stroke-linecap:round"
     id="path200" /><path
     d="m 330.06223,207.19482 h 24.91563 q 1.12,0 1.12,-1.12 v -5.41975 q 0,-1.12 -1.12,-1.12 h -24.91563 q -1.12,0 -1.12,1.12 v 5.41975 q 0,1.12 1.12,1.12 z"
     style="opacity:0.8;fill:#ffffff;fill-opacity:1"
     id="path201" /><use
     xlink:href="#DejaVuSans-39"
     id="use201"
     style="fill:#000000;fill-opacity:1"
     transform="matrix(0.056,0,0,-0.056,330.06223,204.9102)" /><use
     xlink:href="#DejaVuSans-39"
     transform="matrix(0.056,0,0,-0.056,333.62512,204.9102)"
     id="use202"
     style="fill:#000000;fill-opacity:1" /><use
     xlink:href="#DejaVuSans-2e"
     transform="matrix(0.056,0,0,-0.056,337.18801,204.9102)"
     id="use203"
     style="fill:#000000;fill-opacity:1" /><use
     xlink:href="#DejaVuSans-37"
     transform="matrix(0.056,0,0,-0.056,338.96809,204.9102)"
     id="use204"
     style="fill:#000000;fill-opacity:1" /><use
     xlink:href="#DejaVuSans-37"
     transform="matrix(0.056,0,0,-0.056,342.53098,204.9102)"
     id="use205"
     style="fill:#000000;fill-opacity:1" /><use
     xlink:href="#DejaVuSans-39"
     transform="matrix(0.056,0,0,-0.056,346.09387,204.9102)"
     id="use206"
     style="fill:#000000;fill-opacity:1" /><use
     xlink:href="#DejaVuSans-25"
     transform="matrix(0.056,0,0,-0.056,349.65676,204.9102)"
     id="use207"
     style="fill:#000000;fill-opacity:1" /><path
     d="m 342.52004,74.837115 q 0,13.562016 0,26.005995"
     style="fill:#ffffff;fill-opacity:1;stroke:#ffffff;stroke-linecap:round"
     id="path207" /><path
     d="m 343.64004,98.603114 -1.12,2.239996 -1.12,-2.239996"
     style="fill:#ffffff;fill-opacity:1;stroke:#ffffff;stroke-linecap:round"
     id="path208" /><path
     d="m 331.84373,72.836922 h 21.35263 q 1.12,0 1.12,-1.12 v -5.41975 q 0,-1.12 -1.12,-1.12 h -21.35263 q -1.12,0 -1.12,1.12 v 5.41975 q 0,1.12 1.12,1.12 z"
     style="opacity:0.8;fill:#ffffff;fill-opacity:1"
     id="path209" /><use
     xlink:href="#DejaVuSans-30"
     id="use209"
     style="fill:#000000;fill-opacity:1"
     transform="matrix(0.056,0,0,-0.056,331.84373,70.552297)" /><use
     xlink:href="#DejaVuSans-2e"
     transform="matrix(0.056,0,0,-0.056,335.40662,70.552297)"
     id="use210"
     style="fill:#000000;fill-opacity:1" /><use
     xlink:href="#DejaVuSans-32"
     transform="matrix(0.056,0,0,-0.056,337.1867,70.552297)"
     id="use211"
     style="fill:#000000;fill-opacity:1" /><use
     xlink:href="#DejaVuSans-32"
     transform="matrix(0.056,0,0,-0.056,340.74959,70.552297)"
     id="use212"
     style="fill:#000000;fill-opacity:1" /><use
     xlink:href="#DejaVuSans-31"
     transform="matrix(0.056,0,0,-0.056,344.31248,70.552297)"
     id="use213"
     style="fill:#000000;fill-opacity:1" /><use
     xlink:href="#DejaVuSans-25"
     transform="matrix(0.056,0,0,-0.056,347.87537,70.552297)"
     id="use214"
     style="fill:#000000;fill-opacity:1" /><path
     d="m 393.58906,202.51647 q 0,13.56202 0,26.006"
     style="fill:#ffffff;fill-opacity:1;stroke:#ffffff;stroke-linecap:round"
     id="path214" /><path
     d="m 394.70906,226.28247 -1.12,2.24 -1.12,-2.24"
     style="fill:#ffffff;fill-opacity:1;stroke:#ffffff;stroke-linecap:round"
     id="path215" /><path
     d="m 381.13124,200.51628 h 24.91563 q 1.12,0 1.12,-1.12 v -5.41975 q 0,-1.12 -1.12,-1.12 h -24.91563 q -1.12,0 -1.12,1.12 v 5.41975 q 0,1.12 1.12,1.12 z"
     style="opacity:0.8;fill:#ffffff;fill-opacity:1"
     id="path216" /><use
     xlink:href="#DejaVuSans-39"
     id="use216"
     style="fill:#000000;fill-opacity:1"
     transform="matrix(0.056,0,0,-0.056,381.13124,198.23165)" /><use
     xlink:href="#DejaVuSans-39"
     transform="matrix(0.056,0,0,-0.056,384.69413,198.23165)"
     id="use217"
     style="fill:#000000;fill-opacity:1" /><use
     xlink:href="#DejaVuSans-2e"
     transform="matrix(0.056,0,0,-0.056,388.25702,198.23165)"
     id="use218"
     style="fill:#000000;fill-opacity:1" /><use
     xlink:href="#DejaVuSans-36"
     transform="matrix(0.056,0,0,-0.056,390.0371,198.23165)"
     id="use219"
     style="fill:#000000;fill-opacity:1" /><use
     xlink:href="#DejaVuSans-39"
     transform="matrix(0.056,0,0,-0.056,393.59999,198.23165)"
     id="use220"
     style="fill:#000000;fill-opacity:1" /><use
     xlink:href="#DejaVuSans-36"
     transform="matrix(0.056,0,0,-0.056,397.16288,198.23165)"
     id="use221"
     style="fill:#000000;fill-opacity:1" /><use
     xlink:href="#DejaVuSans-25"
     transform="matrix(0.056,0,0,-0.056,400.72577,198.23165)"
     id="use222"
     style="fill:#000000;fill-opacity:1" /><path
     d="m 393.58906,81.515663 q 0,13.562017 0,26.005997"
     style="fill:#ffffff;fill-opacity:1;stroke:#ffffff;stroke-linecap:round"
     id="path222" /><path
     d="m 394.70906,105.28166 -1.12,2.24 -1.12,-2.24"
     style="fill:#ffffff;fill-opacity:1;stroke:#ffffff;stroke-linecap:round"
     id="path223" /><path
     d="m 382.91274,79.515471 h 21.35263 q 1.12,0 1.12,-1.12 v -5.41975 q 0,-1.12 -1.12,-1.12 h -21.35263 q -1.12,0 -1.12,1.12 v 5.41975 q 0,1.12 1.12,1.12 z"
     style="opacity:0.8;fill:#ffffff;fill-opacity:1"
     id="path224" /><use
     xlink:href="#DejaVuSans-30"
     id="use224"
     style="fill:#000000;fill-opacity:1"
     transform="matrix(0.056,0,0,-0.056,382.91274,77.230846)" /><use
     xlink:href="#DejaVuSans-2e"
     transform="matrix(0.056,0,0,-0.056,386.47563,77.230846)"
     id="use225"
     style="fill:#000000;fill-opacity:1" /><use
     xlink:href="#DejaVuSans-33"
     transform="matrix(0.056,0,0,-0.056,388.25571,77.230846)"
     id="use226"
     style="fill:#000000;fill-opacity:1" /><use
     xlink:href="#DejaVuSans-30"
     transform="matrix(0.056,0,0,-0.056,391.8186,77.230846)"
     id="use227"
     style="fill:#000000;fill-opacity:1" /><use
     xlink:href="#DejaVuSans-34"
     transform="matrix(0.056,0,0,-0.056,395.38149,77.230846)"
     id="use228"
     style="fill:#000000;fill-opacity:1" /><use
     xlink:href="#DejaVuSans-25"
     transform="matrix(0.056,0,0,-0.056,398.94438,77.230846)"
     id="use229"
     style="fill:#000000;fill-opacity:1" /><path
     d="m 444.65807,199.73607 q 0,13.56202 0,26.006"
     style="fill:#ffffff;fill-opacity:1;stroke:#ffffff;stroke-linecap:round"
     id="path229" /><path
     d="m 445.77807,223.50207 -1.12,2.24 -1.12,-2.24"
     style="fill:#ffffff;fill-opacity:1;stroke:#ffffff;stroke-linecap:round"
     id="path230" /><path
     d="m 432.20026,197.73588 h 24.91562 q 1.12,0 1.12,-1.12 v -5.41975 q 0,-1.12 -1.12,-1.12 h -24.91562 q -1.12,0 -1.12,1.12 v 5.41975 q 0,1.12 1.12,1.12 z"
     style="opacity:0.8;fill:#ffffff;fill-opacity:1"
     id="path231" /><use
     xlink:href="#DejaVuSans-39"
     id="use231"
     style="fill:#000000;fill-opacity:1"
     transform="matrix(0.056,0,0,-0.056,432.20026,195.45126)" /><use
     xlink:href="#DejaVuSans-39"
     transform="matrix(0.056,0,0,-0.056,435.76315,195.45126)"
     id="use232"
     style="fill:#000000;fill-opacity:1" /><use
     xlink:href="#DejaVuSans-2e"
     transform="matrix(0.056,0,0,-0.056,439.32604,195.45126)"
     id="use233"
     style="fill:#000000;fill-opacity:1" /><use
     xlink:href="#DejaVuSans-34"
     transform="matrix(0.056,0,0,-0.056,441.10612,195.45126)"
     id="use234"
     style="fill:#000000;fill-opacity:1" /><use
     xlink:href="#DejaVuSans-30"
     transform="matrix(0.056,0,0,-0.056,444.66901,195.45126)"
     id="use235"
     style="fill:#000000;fill-opacity:1" /><use
     xlink:href="#DejaVuSans-33"
     transform="matrix(0.056,0,0,-0.056,448.2319,195.45126)"
     id="use236"
     style="fill:#000000;fill-opacity:1" /><use
     xlink:href="#DejaVuSans-25"
     transform="matrix(0.056,0,0,-0.056,451.79479,195.45126)"
     id="use237"
     style="fill:#000000;fill-opacity:1" /><path
     d="m 444.65807,84.296057 q 0,13.562017 0,26.006003"
     style="fill:#ffffff;fill-opacity:1;stroke:#ffffff;stroke-linecap:round"
     id="path237" /><path
     d="m 445.77807,108.06206 -1.12,2.24 -1.12,-2.24"
     style="fill:#ffffff;fill-opacity:1;stroke:#ffffff;stroke-linecap:round"
     id="path238" /><path
     d="m 433.98176,82.295865 h 21.35262 q 1.12,0 1.12,-1.12 v -5.41975 q 0,-1.12 -1.12,-1.12 h -21.35262 q -1.12,0 -1.12,1.12 v 5.41975 q 0,1.12 1.12,1.12 z"
     style="opacity:0.8;fill:#ffffff;fill-opacity:1"
     id="path239" /><use
     xlink:href="#DejaVuSans-30"
     id="use239"
     style="fill:#000000;fill-opacity:1"
     transform="matrix(0.056,0,0,-0.056,433.98176,80.01124)" /><use
     xlink:href="#DejaVuSans-2e"
     transform="matrix(0.056,0,0,-0.056,437.54465,80.01124)"
     id="use240"
     style="fill:#000000;fill-opacity:1" /><use
     xlink:href="#DejaVuSans-35"
     transform="matrix(0.056,0,0,-0.056,439.32473,80.01124)"
     id="use241"
     style="fill:#000000;fill-opacity:1" /><use
     xlink:href="#DejaVuSans-39"
     transform="matrix(0.056,0,0,-0.056,442.88762,80.01124)"
     id="use242"
     style="fill:#000000;fill-opacity:1" /><use
     xlink:href="#DejaVuSans-37"
     transform="matrix(0.056,0,0,-0.056,446.45051,80.01124)"
     id="use243"
     style="fill:#000000;fill-opacity:1" /><use
     xlink:href="#DejaVuSans-25"
     transform="matrix(0.056,0,0,-0.056,450.0134,80.01124)"
     id="use244"
     style="fill:#000000;fill-opacity:1" /><path
     d="m 495.72708,201.40389 q 0,13.56202 0,26.006"
     style="fill:#ffffff;fill-opacity:1;stroke:#ffffff;stroke-linecap:round"
     id="path244" /><path
     d="m 496.84708,225.16989 -1.12,2.24 -1.12,-2.24"
     style="fill:#ffffff;fill-opacity:1;stroke:#ffffff;stroke-linecap:round"
     id="path245" /><path
     d="m 483.26927,199.4037 h 24.91562 q 1.12,0 1.12,-1.12 v -5.41975 q 0,-1.12 -1.12,-1.12 h -24.91562 q -1.12,0 -1.12,1.12 v 5.41975 q 0,1.12 1.12,1.12 z"
     style="opacity:0.8;fill:#ffffff;fill-opacity:1"
     id="path246" /><use
     xlink:href="#DejaVuSans-39"
     id="use246"
     style="fill:#000000;fill-opacity:1"
     transform="matrix(0.056,0,0,-0.056,483.26927,197.11907)" /><use
     xlink:href="#DejaVuSans-39"
     transform="matrix(0.056,0,0,-0.056,486.83216,197.11907)"
     id="use247"
     style="fill:#000000;fill-opacity:1" /><use
     xlink:href="#DejaVuSans-2e"
     transform="matrix(0.056,0,0,-0.056,490.39505,197.11907)"
     id="use248"
     style="fill:#000000;fill-opacity:1" /><use
     xlink:href="#DejaVuSans-34"
     transform="matrix(0.056,0,0,-0.056,492.17513,197.11907)"
     id="use249"
     style="fill:#000000;fill-opacity:1" /><use
     xlink:href="#DejaVuSans-36"
     transform="matrix(0.056,0,0,-0.056,495.73802,197.11907)"
     id="use250"
     style="fill:#000000;fill-opacity:1" /><use
     xlink:href="#DejaVuSans-30"
     transform="matrix(0.056,0,0,-0.056,499.30091,197.11907)"
     id="use251"
     style="fill:#000000;fill-opacity:1" /><use
     xlink:href="#DejaVuSans-25"
     transform="matrix(0.056,0,0,-0.056,502.8638,197.11907)"
     id="use252"
     style="fill:#000000;fill-opacity:1" /><path
     d="m 495.72708,82.628243 q 0,13.562017 0,26.005997"
     style="fill:#ffffff;fill-opacity:1;stroke:#ffffff;stroke-linecap:round"
     id="path252" /><path
     d="m 496.84708,106.39424 -1.12,2.24 -1.12,-2.24"
     style="fill:#ffffff;fill-opacity:1;stroke:#ffffff;stroke-linecap:round"
     id="path253" /><path
     d="m 485.05077,80.628051 h 21.35262 q 1.12,0 1.12,-1.12 v -5.41975 q 0,-1.12 -1.12,-1.12 h -21.35262 q -1.12,0 -1.12,1.12 v 5.41975 q 0,1.12 1.12,1.12 z"
     style="opacity:0.8;fill:#ffffff;fill-opacity:1"
     id="path254" /><use
     xlink:href="#DejaVuSans-30"
     id="use254"
     style="fill:#000000;fill-opacity:1"
     transform="matrix(0.056,0,0,-0.056,485.05077,78.343426)" /><use
     xlink:href="#DejaVuSans-2e"
     transform="matrix(0.056,0,0,-0.056,488.61366,78.343426)"
     id="use255"
     style="fill:#000000;fill-opacity:1" /><use
     xlink:href="#DejaVuSans-35"
     transform="matrix(0.056,0,0,-0.056,490.39374,78.343426)"
     id="use256"
     style="fill:#000000;fill-opacity:1" /><use
     xlink:href="#DejaVuSans-34"
     transform="matrix(0.056,0,0,-0.056,493.95663,78.343426)"
     id="use257"
     style="fill:#000000;fill-opacity:1" /><use
     xlink:href="#DejaVuSans-30"
     transform="matrix(0.056,0,0,-0.056,497.51952,78.343426)"
     id="use258"
     style="fill:#000000;fill-opacity:1" /><use
     xlink:href="#DejaVuSans-25"
     transform="matrix(0.056,0,0,-0.056,501.08241,78.343426)"
     id="use259"
     style="fill:#000000;fill-opacity:1" /><path
     d="m 542.15346,206.50788 q 0,13.56202 0,26.006"
     style="fill:#ffffff;fill-opacity:1;stroke:#ffffff;stroke-linecap:round"
     id="path259" /><path
     d="m 543.27346,230.27388 -1.12,2.24 -1.12,-2.24"
     style="fill:#ffffff;fill-opacity:1;stroke:#ffffff;stroke-linecap:round"
     id="path260" /><path
     d="m 529.69564,204.50769 h 24.91563 q 1.12,0 1.12,-1.12 v -5.41975 q 0,-1.12 -1.12,-1.12 h -24.91563 q -1.12,0 -1.12,1.12 v 5.41975 q 0,1.12 1.12,1.12 z"
     style="opacity:0.8;fill:#ffffff;fill-opacity:1"
     id="path261" /><use
     xlink:href="#DejaVuSans-39"
     id="use261"
     style="fill:#000000;fill-opacity:1"
     transform="matrix(0.056,0,0,-0.056,529.69564,202.22306)" /><use
     xlink:href="#DejaVuSans-39"
     transform="matrix(0.056,0,0,-0.056,533.25853,202.22306)"
     id="use262"
     style="fill:#000000;fill-opacity:1" /><use
     xlink:href="#DejaVuSans-2e"
     transform="matrix(0.056,0,0,-0.056,536.82142,202.22306)"
     id="use263"
     style="fill:#000000;fill-opacity:1" /><use
     xlink:href="#DejaVuSans-38"
     transform="matrix(0.056,0,0,-0.056,538.6015,202.22306)"
     id="use264"
     style="fill:#000000;fill-opacity:1" /><use
     xlink:href="#DejaVuSans-31"
     transform="matrix(0.056,0,0,-0.056,542.16439,202.22306)"
     id="use265"
     style="fill:#000000;fill-opacity:1" /><use
     xlink:href="#DejaVuSans-38"
     transform="matrix(0.056,0,0,-0.056,545.72728,202.22306)"
     id="use266"
     style="fill:#000000;fill-opacity:1" /><use
     xlink:href="#DejaVuSans-25"
     transform="matrix(0.056,0,0,-0.056,549.29017,202.22306)"
     id="use267"
     style="fill:#000000;fill-opacity:1" /><path
     d="m 542.15346,77.524251 q 0,13.562017 0,26.005999"
     style="fill:#ffffff;fill-opacity:1;stroke:#ffffff;stroke-linecap:round"
     id="path267" /><path
     d="m 543.27346,101.29025 -1.12,2.24 -1.12,-2.24"
     style="fill:#ffffff;fill-opacity:1;stroke:#ffffff;stroke-linecap:round"
     id="path268" /><path
     d="m 531.47714,75.524059 h 21.35263 q 1.12,0 1.12,-1.12 v -5.41975 q 0,-1.12 -1.12,-1.12 h -21.35263 q -1.12,0 -1.12,1.12 v 5.41975 q 0,1.12 1.12,1.12 z"
     style="opacity:0.8;fill:#ffffff;fill-opacity:1"
     id="path269" /><use
     xlink:href="#DejaVuSans-30"
     id="use269"
     style="fill:#000000;fill-opacity:1"
     transform="matrix(0.056,0,0,-0.056,531.47714,73.239434)" /><use
     xlink:href="#DejaVuSans-2e"
     transform="matrix(0.056,0,0,-0.056,535.04003,73.239434)"
     id="use270"
     style="fill:#000000;fill-opacity:1" /><use
     xlink:href="#DejaVuSans-31"
     transform="matrix(0.056,0,0,-0.056,536.82011,73.239434)"
     id="use271"
     style="fill:#000000;fill-opacity:1" /><use
     xlink:href="#DejaVuSans-38"
     transform="matrix(0.056,0,0,-0.056,540.383,73.239434)"
     id="use272"
     style="fill:#000000;fill-opacity:1" /><use
     xlink:href="#DejaVuSans-32"
     transform="matrix(0.056,0,0,-0.056,543.94589,73.239434)"
     id="use273"
     style="fill:#000000;fill-opacity:1" /><use
     xlink:href="#DejaVuSans-25"
     transform="matrix(0.056,0,0,-0.056,547.50878,73.239434)"
     id="use274"
     style="fill:#000000;fill-opacity:1" /><defs
     id="defs274"><clipPath
       id="pd630c99437"><rect
         x="64.426057"
         y="29.259788"
         width="500.476323"
         height="283.763986"
         id="rect274" /></clipPath></defs></svg>
